<?xml version="1.0" encoding="UTF-8"?>
<svg width="35px" height="34px" viewBox="0 0 35 34" version="1.1" xmlns="http://www.w3.org/2000/svg" xmlns:xlink="http://www.w3.org/1999/xlink">
    <title>Google</title>
    <g id="Front-Page" stroke="none" stroke-width="1" fill="none" fill-rule="evenodd" stroke-linecap="round" stroke-linejoin="round">
        <g id="Landing-Page" transform="translate(-196.000000, -4566.000000)" stroke="#FFFFFF" stroke-width="2">
            <g id="Footer" transform="translate(0.000000, 4533.000000)">
                <g id="Social-Media" transform="translate(70.000000, 34.000000)">
                    <g id="Google" transform="translate(127.697674, 0.000000)">
                        <path d="M15.6821705,0 C7.02128629,0 -1.56319402e-13,7.16358621 -1.56319402e-13,16 C-1.56319402e-13,24.8364138 7.02128629,32 15.6821705,32 C24.3430548,32 31.3643411,24.8364138 31.3643411,16 C31.3643411,7.16358621 24.3430548,0 15.6821705,0 Z" id="Stroke-91"></path>
                        <path d="M10.2680879,23.2380952 C6.45933095,23.2380952 3.36046512,19.9909744 3.36046512,16 C3.36046512,12.0090256 6.45933095,8.76190476 10.2680879,8.76190476 C12.0183732,8.76190476 13.6878925,9.44896703 14.9695222,10.6972601 L13.5231722,12.3286154 C12.6358084,11.4644982 11.4795786,10.989011 10.2680879,10.989011 C7.63150139,10.989011 5.4858875,13.2372747 5.4858875,16 C5.4858875,18.7627253 7.63150139,21.010989 10.2680879,21.010989 C12.5401644,21.010989 14.4466683,19.3417729 14.9312646,17.1135531 L10.2680879,17.1135531 L10.2680879,14.8864469 L17.1757106,14.8864469 L17.1757106,16 C17.1757106,19.9909744 14.0768448,23.2380952 10.2680879,23.2380952 Z" id="Stroke-93"></path>
                        <polygon id="Stroke-95" points="24.7834302 14.8571429 24.7834302 11.4285714 22.6364664 11.4285714 22.6364664 14.8571429 19.4160207 14.8571429 19.4160207 17.1428571 22.6364664 17.1428571 22.6364664 20.5714286 24.7834302 20.5714286 24.7834302 17.1428571 28.003876 17.1428571 28.003876 14.8571429"></polygon>
                    </g>
                </g>
            </g>
        </g>
    </g>
</svg>