<?xml version="1.0" encoding="UTF-8"?>
<svg width="44px" height="62px" viewBox="0 0 44 62" version="1.1" xmlns="http://www.w3.org/2000/svg" xmlns:xlink="http://www.w3.org/1999/xlink">
    <title>Group</title>
    <g id="Front-Page" stroke="none" stroke-width="1" fill="none" fill-rule="evenodd">
        <g id="How-Does-It-Work" transform="translate(-93.000000, -1118.000000)" fill="#E4A400" fill-rule="nonzero">
            <g id="By-participating..." transform="translate(-902.000000, 669.000000)">
                <g id="1" transform="translate(954.000000, 387.841103)">
                    <g id="tap" transform="translate(41.000000, 61.158897)">
                        <g id="Group" transform="translate(22.000000, 31.000000) scale(-1, 1) rotate(-180.000000) translate(-22.000000, -31.000000) translate(-0.000000, -0.000000)">
                            <path d="M15.6010612,61.769582 C14.7693954,61.3456316 14.6470917,60.9095683 14.6470917,58.3900912 C14.6470917,55.8463885 14.7693954,55.4345509 15.6255219,54.9984875 C16.5428003,54.5381985 17.5456914,54.8289074 18.0471369,55.701034 C18.3039748,56.1492102 18.3162052,56.3309033 18.3162052,58.3900912 C18.3162052,60.4492792 18.3039748,60.6309722 18.0471369,61.0791484 C17.5456914,61.9512751 16.5061092,62.2540969 15.6010612,61.769582 Z" id="Path"></path>
                            <path d="M7.24771268,59.5408139 C6.34266468,59.2258793 5.84121916,58.3053011 6.09805711,57.3726101 C6.19590014,57.009224 6.56281149,56.5489349 7.65131517,55.4587766 C9.29018589,53.7872005 9.66932762,53.5207174 10.4153807,53.5207174 C11.8341046,53.4964916 12.7269222,55.046939 11.9808692,56.2340003 C11.6873401,56.6942894 9.08226946,59.2622179 8.7153581,59.4439109 C8.2628341,59.6740555 7.73692782,59.6982812 7.24771268,59.5408139 Z" id="Path"></path>
                            <path d="M24.7249235,59.6013783 C24.1623261,59.4802496 23.7954148,59.1774278 22.2666175,57.6390933 C20.7500505,56.1007587 20.5299037,55.6889212 20.7745113,54.8167945 C21.1169619,53.5933946 22.5846073,53.1088798 23.6608806,53.8841035 C24.1623261,54.2353767 26.5717107,56.7064023 26.7551664,57.0455626 C26.9753132,57.481626 26.9508524,58.3053011 26.6817841,58.7655902 C26.290412,59.4196852 25.4709766,59.7709584 24.7249235,59.6013783 Z" id="Path"></path>
                            <path d="M2.75916378,50.8679988 C2.23325751,50.6015156 1.80519426,49.8868563 1.80519426,49.3054385 C1.80519426,48.699795 2.23325751,48.0093614 2.78362454,47.7307654 C3.21168779,47.5127337 3.50521687,47.488508 5.47430781,47.488508 C7.4067076,47.488508 7.7491582,47.5127337 8.14053031,47.7186525 C8.66643659,47.9851357 9.14342135,48.7361336 9.14342135,49.3054385 C9.14342135,49.8747434 8.66643659,50.6257414 8.14053031,50.8922245 C7.73692782,51.0981433 7.4067076,51.1223691 5.44984705,51.1223691 C3.46852574,51.1102562 3.16276627,51.0860304 2.75916378,50.8679988 Z" id="Path"></path>
                            <path d="M15.3931447,50.9891275 C13.2895197,50.5772899 11.5038844,48.7845851 11.1002819,46.6527199 C11.0268996,46.2529952 10.9779781,42.8856173 10.9779781,37.8224375 L10.9779781,29.64625 L9.81609216,30.7606341 C8.98442643,31.5600835 8.4340594,31.984034 7.87146199,32.2384043 C4.60595093,33.7525131 1.0469108,32.0567112 0.141862791,28.5803174 C-0.188357428,27.2963532 0.0684805198,25.6974543 0.802303228,24.5346188 C1.43828291,23.5413634 9.73047951,13.8752929 10.3053073,13.4513425 C10.6355275,13.2211979 11.6017274,12.651893 12.4578539,12.1794911 C13.3139804,11.719202 14.1578765,11.2104615 14.3291018,11.065107 L14.6470917,10.786511 L14.6470917,7.95209935 C14.6470917,6.40165195 14.7082436,4.83909168 14.7693954,4.47570557 C15.1852283,2.29538892 16.9586332,0.539022728 19.1601013,0.127185138 C20.0406886,-0.042395046 34.9372896,-0.042395046 35.8178768,0.127185138 C38.0193449,0.539022728 39.7927498,2.29538892 40.2085827,4.47570557 C40.2697346,4.83909168 40.3308865,6.06249158 40.3308865,7.20110139 C40.3308865,8.33971119 40.3920384,9.46620813 40.4531902,9.69635267 C40.5143421,9.93861007 41.1136307,10.8591882 41.7863015,11.7434277 C42.4589723,12.6397801 43.1438735,13.6209226 43.3150988,13.9358573 C43.9877696,15.17137 44,15.268273 44,23.6382664 C44,28.3743987 43.9510785,31.5964222 43.8776962,31.9961469 C43.449633,34.2491407 41.6273066,35.9933941 39.3035347,36.368893 C38.5452512,36.4900217 37.5912817,36.4173445 36.7229248,36.1629742 C36.5150084,36.1024099 36.4293957,36.2114257 36.1358666,36.8655207 C34.790525,39.9300769 30.9379558,41.0081224 28.0515865,39.1185146 L27.4889891,38.7430156 L26.9263916,39.1185146 C25.6911234,39.9300769 24.027792,40.2328987 22.511225,39.9421898 L21.9853187,39.8331739 L21.9853187,42.9219559 C21.9853187,44.6177577 21.9241669,46.2893338 21.863015,46.6527199 C21.2881872,49.6082603 18.3773571,51.5705453 15.3931447,50.9891275 Z M17.3377749,47.2341377 C17.5946129,47.0887833 17.9126027,46.7738486 18.0593673,46.5194783 C18.3162052,46.0713021 18.3162052,45.9865121 18.3162052,38.3554038 C18.3162052,30.8696499 18.3284356,30.6273925 18.5608128,30.1671035 C18.8421115,29.6220243 19.5392431,29.1980738 20.150762,29.1980738 C20.7378201,29.1980738 21.410491,29.5977986 21.7162504,30.1428777 C21.9730884,30.5910539 21.9853187,30.772747 21.9853187,32.819822 C21.9853187,35.3756377 22.1076225,35.7874753 22.963749,36.2235386 C23.5752679,36.5384732 24.1011742,36.5263604 24.676002,36.2114257 C25.5443589,35.7269109 25.6544323,35.3514119 25.6544323,32.8440478 C25.6544323,30.2882322 25.7767361,29.8763946 26.6328626,29.4403312 C27.550141,28.9800422 28.553032,29.2707511 29.0544775,30.1428777 C29.3113155,30.5910539 29.3235458,30.772747 29.3235458,32.819822 C29.3235458,35.3756377 29.4458496,35.7874753 30.3019761,36.2235386 C30.913495,36.5384732 31.4394013,36.5263604 32.0142291,36.2114257 C32.882586,35.7269109 32.9926594,35.3514119 32.9926594,32.8440478 C32.9926594,30.8817628 33.0171201,30.5910539 33.2372669,30.1671035 C33.5185656,29.6220243 34.2156972,29.1980738 34.8272161,29.1980738 C35.7322642,29.1980738 36.6617729,30.118652 36.6617729,31.0028915 C36.6617729,31.9355825 37.5668209,32.8319349 38.5085601,32.8319349 C39.0589271,32.8319349 39.768289,32.3958716 40.0740485,31.8629053 C40.3308865,31.4147291 40.3308865,31.3178261 40.3308865,23.9168624 C40.3308865,19.4351004 40.2819649,16.2494155 40.2085827,15.9950452 C40.1474308,15.7649007 39.6215245,14.9533384 39.0466967,14.1902275 C36.7963071,11.2225743 36.7596159,11.1256714 36.6740033,7.63716472 C36.5883906,4.56049566 36.5272388,4.30612539 35.6588819,3.87006206 C35.2308186,3.65203039 34.8394465,3.63991752 27.4889891,3.63991752 C20.0039974,3.63991752 19.7593899,3.65203039 19.2946355,3.88217493 C18.9766456,4.03964224 18.7198077,4.29401252 18.5608128,4.60894715 C18.340666,5.04501048 18.3162052,5.31149362 18.3162052,8.03688944 C18.3162052,11.3194773 18.2183622,11.997798 17.5701521,12.9183762 C17.0564762,13.6693741 16.2370409,14.2750176 14.4024841,15.268273 C13.5218968,15.7406749 12.65354,16.2615284 12.4456235,16.4311085 C11.944178,16.855059 4.06781428,26.1819691 3.83543709,26.6422582 C3.07715362,28.0836898 4.76494585,29.743153 6.24482165,29.0042679 C6.46496846,28.8952521 7.79807972,27.6718522 9.20457324,26.290985 C10.6232971,24.9101178 11.8952565,23.7109436 12.042021,23.6382664 C12.494545,23.4081218 13.3506715,23.4807991 13.8031955,23.7836208 C14.6960132,24.3650386 14.6470917,23.674605 14.6470917,35.4725406 C14.6470917,45.8290447 14.6470917,46.0591893 14.8916992,46.5194783 C15.3442232,47.4037179 16.4571877,47.7307654 17.3377749,47.2341377 Z" id="Shape"></path>
                            <path d="M24.773845,50.8679988 C24.2479388,50.6015156 23.8198755,49.8868563 23.8198755,49.3054385 C23.8198755,48.699795 24.2479388,48.0093614 24.7983058,47.7307654 C25.226369,47.5127337 25.5198981,47.488508 27.4889891,47.488508 C29.4213889,47.488508 29.7638395,47.5127337 30.1552116,47.7186525 C30.6811178,47.9851357 31.1581026,48.7361336 31.1581026,49.3054385 C31.1581026,49.8747434 30.6811178,50.6257414 30.1552116,50.8922245 C29.7516091,51.0981433 29.4213889,51.1223691 27.4645283,51.1223691 C25.483207,51.1102562 25.1774475,51.0860304 24.773845,50.8679988 Z" id="Path"></path>
                        </g>
                    </g>
                </g>
            </g>
        </g>
    </g>
</svg>