<?xml version="1.0" encoding="UTF-8"?>
<svg width="63px" height="57px" viewBox="0 0 63 57" version="1.1" xmlns="http://www.w3.org/2000/svg" xmlns:xlink="http://www.w3.org/1999/xlink">
    <title>Group</title>
    <g id="Page-2" stroke="none" stroke-width="1" fill="none" fill-rule="evenodd">
        <g id="Landing-Page" transform="translate(-100.000000, -3344.000000)" fill="#4D4C5E" fill-rule="nonzero">
            <g id="Group-7" transform="translate(58.000000, 3287.000000)">
                <g id="home" transform="translate(42.000000, 57.000000)">
                    <g id="Group" transform="translate(31.500000, 28.500000) scale(-1, 1) rotate(-180.000000) translate(-31.500000, -28.500000) ">
                        <path d="M10.6804687,56.8606377 C10.3605469,56.773774 10.0037109,56.6248649 9.88066406,56.5380012 C9.31464844,56.1036829 8.82246094,55.5700917 8.61328125,55.1730007 C8.49023438,54.9372279 7.1859375,51.4750901 5.72167969,47.4793613 C4.25742188,43.4836324 2.97773437,40.0339038 2.87929687,39.8229492 C2.73164062,39.4382672 2.67011719,39.413449 2.15332031,39.413449 C1.50117187,39.413449 1.07050781,39.2149035 0.590625,38.7061306 C0.0984375,38.1849485 0,37.7878575 0,36.3359933 C0,35.2812201 0.04921875,34.9213563 0.233789062,34.5739017 C0.578320313,33.9286287 1.24277344,33.4446739 1.89492188,33.3702194 L2.4609375,33.2957648 L2.48554687,22.8845334 L2.52246094,12.4608929 L2.81777344,12.2251201 C3.18691406,11.9148927 3.58066406,11.9273018 3.98671875,12.2499383 L4.30664062,12.4981202 L4.30664062,22.9217607 L4.30664062,33.3329921 L11.7878906,33.3329921 C18.3955078,33.3329921 19.3429687,33.3578103 19.884375,33.5315376 C20.4257812,33.717674 21.0533203,34.3133106 25.9998047,39.276949 L31.5,44.7989966 L37.0125,39.276949 C41.9466797,34.3009015 42.5742188,33.717674 43.115625,33.5315376 C43.6570313,33.3578103 44.6167969,33.3329921 51.2121094,33.3329921 L58.6933594,33.3329921 L58.6933594,31.9059461 C58.6933594,30.6402183 58.7179687,30.4540818 58.9394531,30.2307181 C59.3085938,29.8584453 59.9607422,29.8956725 60.2806641,30.3051727 C60.5021484,30.5905819 60.5390625,30.8139456 60.5390625,31.9679915 L60.5390625,33.2957648 L61.0927734,33.3578103 C61.7941406,33.4446739 62.4585938,33.9410378 62.7662109,34.623538 C62.9384766,35.00822 63,35.4301293 63,36.3980387 C63,37.7878575 62.9015625,38.1849485 62.409375,38.7061306 C61.9294922,39.2149035 61.4988281,39.413449 60.8466797,39.413449 C60.3175781,39.413449 60.2683594,39.4382672 60.1083984,39.8229492 C60.0222656,40.0463129 58.7425781,43.4960415 57.2783203,47.4793613 C55.8017578,51.4750901 54.5097656,54.9372279 54.3867188,55.1854098 C54.1037109,55.7190009 53.2916016,56.4883648 52.6763672,56.7613649 C52.2703125,56.9599105 50.5107422,56.9723196 31.7460938,56.9971378 C15.5039062,57.0095469 11.1357422,56.9847287 10.6804687,56.8606377 Z M51.9626953,54.9992733 C52.1841797,54.9124097 52.4548828,54.7262732 52.565625,54.6021823 C52.7378906,54.4036367 58.2011719,39.7857219 58.2011719,39.5127218 C58.2011719,39.4630854 55.3341797,39.413449 51.8396484,39.413449 L45.4658203,39.413449 L39.2519531,45.6552242 C32.5582031,52.3809541 32.7919922,52.1948177 31.5,52.1948177 C30.2080078,52.1948177 30.4417969,52.3809541 23.7480469,45.6552242 L17.5341797,39.413449 L11.1603516,39.413449 C7.5796875,39.413449 4.79882812,39.4630854 4.79882812,39.5251309 C4.79882812,39.798131 10.2498047,54.3912276 10.434375,54.6021823 C10.9511719,55.1854098 10.1513672,55.1605916 31.4753906,55.1730007 C48.1605469,55.1730007 51.6304687,55.1481825 51.9626953,54.9992733 Z M38.3537109,43.9799963 L44.6660156,37.6141301 L52.8855469,37.5520846 L61.0927734,37.4900392 L61.0927734,36.3732205 L61.0927734,35.2564019 L52.4917969,35.2191746 C44.0507812,35.1943564 43.8908203,35.1943564 43.4970703,35.4425384 C43.2755859,35.5790384 40.6916016,38.1477212 37.7630859,41.1507224 C34.8345703,44.1537236 32.2628906,46.7348155 32.0291016,46.8713156 C31.7337891,47.057452 31.5123047,47.1070884 31.2785156,47.0450429 C31.0570313,46.9954065 28.940625,44.9479057 25.0892578,41.0762679 L19.2445312,35.1943564 L10.5697266,35.2191746 L1.90722656,35.2564019 L1.90722656,36.3732205 L1.90722656,37.4900392 L10.1144531,37.5520846 L18.3339844,37.6141301 L24.6462891,43.9799963 L30.9462891,50.3334533 L31.5,50.3334533 L32.0537109,50.3334533 L38.3537109,43.9799963 Z" id="Shape"></path>
                        <path d="M31.0436663,37.784322 C29.8746211,37.3485462 29.0233747,36.5916725 28.4785769,35.5022331 C27.3322317,33.2201442 28.3196776,30.4105373 30.6464179,29.3096301 C31.2366155,29.0344033 31.4409147,29 32.4964603,29 C33.5520059,29 33.7563051,29.0344033 34.3465026,29.3096301 C36.196545,30.1811817 37.2861405,32.2453827 36.9342919,34.1949058 C36.661893,35.6857176 35.7425468,36.935706 34.4373022,37.5664341 C33.4612063,38.048081 31.9970624,38.1398232 31.0436663,37.784322 Z M33.6995553,36.0068156 C34.4032524,35.6742498 34.9480501,35.0435218 35.1636992,34.2866481 C35.3793483,33.5756455 35.3793483,33.3692254 35.1523493,32.6238195 C34.8118507,31.4426378 33.7563051,30.6628286 32.4964603,30.6628286 C31.6906136,30.6628286 31.2252655,30.8348453 30.635068,31.3508956 C29.8178714,32.0848337 29.5000727,33.1628053 29.8178714,34.2407769 C30.3059194,35.9150733 32.1219118,36.7522215 33.6995553,36.0068156 Z" id="Shape"></path>
                        <path d="M58.9394531,27.7366554 C58.6933594,27.482773 58.6933594,27.3177494 58.6933594,16.8831815 L58.6933594,6.28359012 L49.0341797,6.28359012 L39.375,6.28359012 L39.375,16.096146 L39.375,25.921396 L39.0919922,26.1879726 L38.8089844,26.4672432 L31.4876953,26.4672432 L24.1541016,26.4672432 L23.8957031,26.1752784 L23.625,25.8833136 L23.625,16.0834519 L23.625,6.28359012 L13.9658203,6.28359012 L4.30664062,6.28359012 L4.30664062,7.73071997 C4.30664062,9.15246157 4.29433594,9.19054393 3.98671875,9.44442636 C3.55605469,9.79986176 3.13769531,9.77447352 2.76855469,9.39364988 C2.47324219,9.10168508 2.4609375,9.00013211 2.4609375,7.67994348 L2.4609375,6.28359012 L1.66113281,6.28359012 C0.812109375,6.28359012 0.209179687,6.06779006 0.073828125,5.71235465 C0.0369140625,5.59810756 0,4.39216602 0,3.04658915 C0,0.825117895 0.024609375,0.571235465 0.233789062,0.304658915 L0.467578125,0 L31.5,0 L62.5324219,0 L62.7662109,0.304658915 C62.9753906,0.571235465 63,0.825117895 63,3.04658915 C63,4.39216602 62.9630859,5.59810756 62.9261719,5.71235465 C62.7908203,6.06779006 62.1878906,6.28359012 61.3388672,6.28359012 L60.5390625,6.28359012 L60.5390625,16.8070168 C60.5390625,27.2542788 60.5390625,27.3177494 60.2806641,27.6604907 C59.9607422,28.0793967 59.3085938,28.117479 58.9394531,27.7366554 Z M37.5292969,15.4233576 L37.5292969,6.28359012 L31.5,6.28359012 L25.4707031,6.28359012 L25.4707031,9.69830879 L25.4707031,13.1130275 L26.3443359,13.1638039 C27.0826172,13.2018863 27.2548828,13.2653569 27.4517578,13.5065452 C27.759375,13.900063 27.7470703,14.3824396 27.4148437,14.7505691 C27.1933594,15.0044516 27.0333984,15.0425339 26.3074219,15.0425339 L25.4707031,15.0425339 L25.4707031,19.8028295 L25.4707031,24.563125 L31.5,24.563125 L37.5292969,24.563125 L37.5292969,15.4233576 Z M61.1542969,3.11005976 L61.1542969,1.84064761 L31.5,1.84064761 L1.84570312,1.84064761 L1.84570312,3.11005976 L1.84570312,4.3794719 L31.5,4.3794719 L61.1542969,4.3794719 L61.1542969,3.11005976 Z" id="Shape"></path>
                        <path d="M28.525,20.9215837 C28.1,20.755319 28,20.1669975 28,17.9032387 C28,15.8441134 28.025,15.6522695 28.2625,15.3325295 L28.5125,15 L32,15 L35.4875,15 L35.7375,15.3325295 C35.975,15.6522695 36,15.8441134 36,17.9032387 C36,20.2181558 35.9,20.7425294 35.4375,20.9343733 C35.1875,21.0239005 28.7625,21.0239005 28.525,20.9215837 Z M34.125,18.0055555 L34.125,16.9184397 L32,16.9184397 L29.875,16.9184397 L29.875,18.0055555 L29.875,19.0926713 L32,19.0926713 L34.125,19.0926713 L34.125,18.0055555 Z" id="Shape"></path>
                        <path d="M8.24137931,25.7567568 C8,25.5135135 8,25.3554054 8,17 C8,8.64459459 8,8.48648649 8.24137931,8.24324324 C8.47068966,8.01216216 8.63965517,8 14.8913793,8 C18.837931,8 21.3724138,8.04864865 21.5172414,8.12162162 C21.9758621,8.36486486 22,8.75405405 22,17 C22,25.2459459 21.9758621,25.6351351 21.5172414,25.8783784 C21.3724138,25.9513514 18.837931,26 14.8913793,26 C8.63965517,26 8.47068966,25.9878378 8.24137931,25.7567568 Z M14.0344828,22.0472973 L14.0344828,19.9189189 L11.9224138,19.9189189 L9.81034483,19.9189189 L9.81034483,22.0472973 L9.81034483,24.1756757 L11.9224138,24.1756757 L14.0344828,24.1756757 L14.0344828,22.0472973 Z M20.1896552,22.0472973 L20.1896552,19.9189189 L18.0172414,19.9189189 L15.8448276,19.9189189 L15.8448276,22.0472973 L15.8448276,24.1756757 L18.0172414,24.1756757 L20.1896552,24.1756757 L20.1896552,22.0472973 Z M14.0344828,15.9054054 L14.0344828,13.7162162 L11.9224138,13.7162162 L9.81034483,13.7162162 L9.81034483,15.9054054 L9.81034483,18.0945946 L11.9224138,18.0945946 L14.0344828,18.0945946 L14.0344828,15.9054054 Z M20.1293103,15.9054054 L20.1293103,13.777027 L17.9931034,13.7405405 L15.8448276,13.7162162 L15.8448276,15.9054054 L15.8448276,18.0945946 L17.9931034,18.0702703 L20.1293103,18.0337838 L20.1293103,15.9054054 Z M20.1896552,10.8581081 L20.1896552,9.82432432 L15,9.82432432 L9.81034483,9.82432432 L9.81034483,10.8581081 L9.81034483,11.8918919 L15,11.8918919 L20.1896552,11.8918919 L20.1896552,10.8581081 Z" id="Shape"></path>
                        <path d="M43.3359244,25.7689189 L43.0459705,25.5378378 L43.0097263,17.4013514 C42.9855635,12.9378378 43.0097263,9.09459459 43.0459705,8.87567568 C43.0822147,8.65675676 43.2271917,8.36486486 43.3600872,8.23108108 C43.5775526,8.01216216 43.8070994,8 50.0531888,8 C56.3596852,8 56.5167436,8 56.7583718,8.24324324 C57,8.48648649 57,8.64459459 57,17 C57,25.3554054 57,25.5135135 56.7583718,25.7567568 C56.5167436,26 56.3596852,26 50.0652702,26 C43.8916693,26 43.6017154,25.9878378 43.3359244,25.7689189 Z M49.147083,22.0472973 L49.147083,19.9189189 L46.972429,19.9189189 L44.7977751,19.9189189 L44.7977751,22.0472973 L44.7977751,24.1756757 L46.972429,24.1756757 L49.147083,24.1756757 L49.147083,22.0472973 Z M55.1877884,22.0472973 L55.1877884,19.9189189 L53.0735415,19.9189189 L50.9592946,19.9189189 L50.9592946,22.0472973 L50.9592946,24.1756757 L53.0735415,24.1756757 L55.1877884,24.1756757 L55.1877884,22.0472973 Z M49.147083,15.9054054 L49.147083,13.7162162 L47.0086733,13.7405405 L44.8581821,13.777027 L44.8219379,15.7837838 C44.8098565,16.8783784 44.8219379,17.8513514 44.8461007,17.9364865 C44.8944264,18.0581081 45.413927,18.0945946 47.0328361,18.0945946 L49.147083,18.0945946 L49.147083,15.9054054 Z M55.1877884,15.9054054 L55.1877884,13.7162162 L53.0735415,13.7162162 L50.9592946,13.7162162 L50.9592946,15.9054054 L50.9592946,18.0945946 L53.0735415,18.0945946 L55.1877884,18.0945946 L55.1877884,15.9054054 Z M55.1877884,10.8581081 L55.1877884,9.82432432 L49.9927817,9.82432432 L44.7977751,9.82432432 L44.7977751,10.8581081 L44.7977751,11.8918919 L49.9927817,11.8918919 L55.1877884,11.8918919 L55.1877884,10.8581081 Z" id="Shape"></path>
                    </g>
                </g>
            </g>
        </g>
    </g>
</svg>
