<?xml version="1.0" encoding="UTF-8"?>
<svg width="117px" height="87px" viewBox="0 0 117 87" version="1.1" xmlns="http://www.w3.org/2000/svg" xmlns:xlink="http://www.w3.org/1999/xlink">
    <title>Group 8</title>
    <g id="Front-Page" stroke="none" stroke-width="1" fill="none" fill-rule="evenodd">
        <g id="Landing-Page" transform="translate(-348.000000, -3329.000000)" fill="#4D4C5E" fill-rule="nonzero">
            <g id="Group-7" transform="translate(58.000000, 3287.000000)">
                <g id="Group-8" transform="translate(290.000000, 42.000000)">
                    <g id="home" transform="translate(77.000000, -0.000000)">
                        <g id="Group" transform="translate(20.000000, 18.000000) scale(-1, 1) rotate(-180.000000) translate(-20.000000, -18.000000) translate(-0.000000, -0.000000)">
                            <path d="M6.78125,35.9119817 C6.578125,35.8571204 6.3515625,35.7630726 6.2734375,35.7082113 C5.9140625,35.433905 5.6015625,35.0969001 5.46875,34.8461057 C5.390625,34.6971965 4.5625,32.5105832 3.6328125,29.986965 C2.703125,27.4633468 1.890625,25.2845708 1.828125,25.1513363 C1.734375,24.9083793 1.6953125,24.8927046 1.3671875,24.8927046 C0.953125,24.8927046 0.6796875,24.7673075 0.375,24.4459772 C0.0625,24.1168096 0,23.8660152 0,22.9490484 C0,22.2828759 0.03125,22.0555935 0.1484375,21.8361484 C0.3671875,21.4286076 0.7890625,21.122952 1.203125,21.075928 L1.5625,21.0289041 L1.578125,14.4533895 L1.6015625,7.87003765 L1.7890625,7.7211285 C2.0234375,7.5251954 2.2734375,7.53303273 2.53125,7.73680314 L2.734375,7.89354962 L2.734375,14.4769015 L2.734375,21.052416 L7.484375,21.052416 C11.6796875,21.052416 12.28125,21.0680907 12.625,21.1778132 C12.96875,21.2953731 13.3671875,21.6715646 16.5078125,24.8064941 L20,28.2941031 L23.5,24.8064941 C26.6328125,21.6637273 27.03125,21.2953731 27.375,21.1778132 C27.71875,21.0680907 28.328125,21.052416 32.515625,21.052416 L37.265625,21.052416 L37.265625,20.1511238 C37.265625,19.3517168 37.28125,19.234157 37.421875,19.0930851 C37.65625,18.8579654 38.0703125,18.8814774 38.2734375,19.1401091 C38.4140625,19.3203675 38.4375,19.4614393 38.4375,20.1903104 L38.4375,21.0289041 L38.7890625,21.0680907 C39.234375,21.122952 39.65625,21.4364449 39.8515625,21.8674977 C39.9609375,22.1104547 40,22.3769237 40,22.988235 C40,23.8660152 39.9375,24.1168096 39.625,24.4459772 C39.3203125,24.7673075 39.046875,24.8927046 38.6328125,24.8927046 C38.296875,24.8927046 38.265625,24.9083793 38.1640625,25.1513363 C38.109375,25.2924081 37.296875,27.4711841 36.3671875,29.986965 C35.4296875,32.5105832 34.609375,34.6971965 34.53125,34.853943 C34.3515625,35.1909479 33.8359375,35.676862 33.4453125,35.8492831 C33.1875,35.9746803 32.0703125,35.9825176 20.15625,35.9981923 C9.84375,36.0060296 7.0703125,35.9903549 6.78125,35.9119817 Z M32.9921875,34.7363832 C33.1328125,34.6815219 33.3046875,34.563962 33.375,34.4855888 C33.484375,34.3601916 36.953125,25.1278244 36.953125,24.9554032 C36.953125,24.9240539 35.1328125,24.8927046 32.9140625,24.8927046 L28.8671875,24.8927046 L24.921875,28.8348784 C20.671875,33.0827079 20.8203125,32.965148 20,32.965148 C19.1796875,32.965148 19.328125,33.0827079 15.078125,28.8348784 L11.1328125,24.8927046 L7.0859375,24.8927046 C4.8125,24.8927046 3.046875,24.9240539 3.046875,24.9632406 C3.046875,25.1356617 6.5078125,34.3523543 6.625,34.4855888 C6.953125,34.853943 6.4453125,34.8382684 19.984375,34.8461057 C30.578125,34.8461057 32.78125,34.830431 32.9921875,34.7363832 Z M24.3515625,27.7768397 L28.359375,23.7562927 L33.578125,23.7171061 L38.7890625,23.6779195 L38.7890625,22.9725603 L38.7890625,22.2672012 L33.328125,22.2436892 C27.96875,22.2280146 27.8671875,22.2280146 27.6171875,22.3847611 C27.4765625,22.4709716 25.8359375,24.0932976 23.9765625,25.98993 C22.1171875,27.8865623 20.484375,29.5167256 20.3359375,29.6029362 C20.1484375,29.720496 20.0078125,29.7518453 19.859375,29.7126587 C19.71875,29.6813094 18.375,28.388151 15.9296875,25.942906 L12.21875,22.2280146 L6.7109375,22.2436892 L1.2109375,22.2672012 L1.2109375,22.9725603 L1.2109375,23.6779195 L6.421875,23.7171061 L11.640625,23.7562927 L15.6484375,27.7768397 L19.6484375,31.7895495 L20,31.7895495 L20.3515625,31.7895495 L24.3515625,27.7768397 Z" id="Shape"></path>
                            <path d="M19.7102643,23.8637823 C18.9680134,23.5885555 18.4275395,23.11053 18.0816361,22.422463 C17.3537979,20.9811437 17.9807477,19.2066552 19.4580431,18.5113454 C19.8327717,18.3375179 19.9624855,18.3157895 20.6326732,18.3157895 C21.3028609,18.3157895 21.4325746,18.3375179 21.8073033,18.5113454 C22.9819333,19.061799 23.67374,20.3655048 23.4503441,21.5967826 C23.2773924,22.538348 22.6936805,23.3278143 21.8649538,23.7261689 C21.2452103,24.0303669 20.3155951,24.0883094 19.7102643,23.8637823 Z M21.396543,22.7411467 C21.8433349,22.5311052 22.1892382,22.1327506 22.3261582,21.6547251 C22.4630783,21.2056708 22.4630783,21.0753003 22.3189519,20.6045176 C22.1027623,19.8585081 21.4325746,19.365997 20.6326732,19.365997 C20.1210245,19.365997 19.8255654,19.4746391 19.4508368,19.8005656 C18.9319818,20.2641055 18.7302049,20.9449297 18.9319818,21.6257539 C19.2418536,22.6832042 20.3948647,23.2119293 21.396543,22.7411467 Z" id="Shape"></path>
                            <path d="M37.421875,17.5178876 C37.265625,17.3575408 37.265625,17.2533154 37.265625,10.663062 L37.265625,3.96858323 L31.1328125,3.96858323 L25,3.96858323 L25,10.165987 L25,16.371408 L24.8203125,16.5397721 L24.640625,16.7161536 L19.9921875,16.7161536 L15.3359375,16.7161536 L15.171875,16.5317548 L15,16.347356 L15,10.1579696 L15,3.96858323 L8.8671875,3.96858323 L2.734375,3.96858323 L2.734375,4.88255998 C2.734375,5.78050204 2.7265625,5.80455406 2.53125,5.96490086 C2.2578125,6.18938638 1.9921875,6.1733517 1.7578125,5.9328315 C1.5703125,5.74843268 1.5625,5.68429397 1.5625,4.85049062 L1.5625,3.96858323 L1.0546875,3.96858323 C0.515625,3.96858323 0.1328125,3.83228846 0.046875,3.60780294 C0.0234375,3.53564688 0,2.77399959 0,1.92416157 C0,0.521127091 0.015625,0.360780294 0.1484375,0.192416157 L0.296875,0 L20,0 L39.703125,0 L39.8515625,0.192416157 C39.984375,0.360780294 40,0.521127091 40,1.92416157 C40,2.77399959 39.9765625,3.53564688 39.953125,3.60780294 C39.8671875,3.83228846 39.484375,3.96858323 38.9453125,3.96858323 L38.4375,3.96858323 L38.4375,10.614958 C38.4375,17.2132287 38.4375,17.2533154 38.2734375,17.4697836 C38.0703125,17.7343558 37.65625,17.7584078 37.421875,17.5178876 Z M23.828125,9.74106794 L23.828125,3.96858323 L20,3.96858323 L16.171875,3.96858323 L16.171875,6.12524766 L16.171875,8.28191208 L16.7265625,8.31398144 C17.1953125,8.33803346 17.3046875,8.37812016 17.4296875,8.53044962 C17.625,8.77898715 17.6171875,9.08364607 17.40625,9.31614893 C17.265625,9.47649572 17.1640625,9.50054774 16.703125,9.50054774 L16.171875,9.50054774 L16.171875,12.5070502 L16.171875,15.5135526 L20,15.5135526 L23.828125,15.5135526 L23.828125,9.74106794 Z M38.828125,1.96424827 L38.828125,1.16251428 L20,1.16251428 L1.171875,1.16251428 L1.171875,1.96424827 L1.171875,2.76598225 L20,2.76598225 L38.828125,2.76598225 L38.828125,1.96424827 Z" id="Shape"></path>
                            <path d="M18.1111111,13.2136318 C17.8412698,13.1086225 17.7777778,12.737051 17.7777778,11.3073086 C17.7777778,10.0068085 17.7936508,9.88564388 17.9444444,9.68370287 L18.1031746,9.47368421 L20.3174603,9.47368421 L22.531746,9.47368421 L22.6904762,9.68370287 C22.8412698,9.88564388 22.8571429,10.0068085 22.8571429,11.3073086 C22.8571429,12.7693616 22.7936508,13.1005449 22.5,13.2217095 C22.3412698,13.2782529 18.2619048,13.2782529 18.1111111,13.2136318 Z M21.6666667,11.3719298 L21.6666667,10.6853303 L20.3174603,10.6853303 L18.968254,10.6853303 L18.968254,11.3719298 L18.968254,12.0585292 L20.3174603,12.0585292 L21.6666667,12.0585292 L21.6666667,11.3719298 Z" id="Shape"></path>
                            <path d="M5.23262178,16.2674253 C5.07936508,16.113798 5.07936508,16.0139403 5.07936508,10.7368421 C5.07936508,5.45974395 5.07936508,5.3598862 5.23262178,5.20625889 C5.37821565,5.06031294 5.48549535,5.05263158 9.45484401,5.05263158 C11.9605911,5.05263158 13.5697865,5.08335704 13.6617406,5.12944523 C13.9529283,5.28307255 13.968254,5.52887624 13.968254,10.7368421 C13.968254,15.944808 13.9529283,16.1906117 13.6617406,16.344239 C13.5697865,16.3903272 11.9605911,16.4210526 9.45484401,16.4210526 C5.48549535,16.4210526 5.37821565,16.4133713 5.23262178,16.2674253 Z M8.9107827,13.9246088 L8.9107827,12.5803698 L7.56978654,12.5803698 L6.22879037,12.5803698 L6.22879037,13.9246088 L6.22879037,15.2688478 L7.56978654,15.2688478 L8.9107827,15.2688478 L8.9107827,13.9246088 Z M12.8188287,13.9246088 L12.8188287,12.5803698 L11.4395183,12.5803698 L10.060208,12.5803698 L10.060208,13.9246088 L10.060208,15.2688478 L11.4395183,15.2688478 L12.8188287,15.2688478 L12.8188287,13.9246088 Z M8.9107827,10.0455192 L8.9107827,8.6628734 L7.56978654,8.6628734 L6.22879037,8.6628734 L6.22879037,10.0455192 L6.22879037,11.428165 L7.56978654,11.428165 L8.9107827,11.428165 L8.9107827,10.0455192 Z M12.7805145,10.0455192 L12.7805145,8.70128023 L11.4241927,8.67823613 L10.060208,8.6628734 L10.060208,10.0455192 L10.060208,11.428165 L11.4241927,11.4128023 L12.7805145,11.3897582 L12.7805145,10.0455192 Z M12.8188287,6.85775249 L12.8188287,6.20483642 L9.52380952,6.20483642 L6.22879037,6.20483642 L6.22879037,6.85775249 L6.22879037,7.51066856 L9.52380952,7.51066856 L12.8188287,7.51066856 L12.8188287,6.85775249 Z" id="Shape"></path>
                            <path d="M27.5148726,16.2751067 L27.3307749,16.1291607 L27.3077627,10.9903272 C27.2924212,8.171266 27.3077627,5.74395448 27.3307749,5.6056899 C27.3537871,5.46742532 27.445836,5.28307255 27.5302141,5.19857752 C27.6682874,5.06031294 27.8140314,5.05263158 31.7798024,5.05263158 C35.7839271,5.05263158 35.8836467,5.05263158 36.0370614,5.20625889 C36.1904762,5.3598862 36.1904762,5.45974395 36.1904762,10.7368421 C36.1904762,16.0139403 36.1904762,16.113798 36.0370614,16.2674253 C35.8836467,16.4210526 35.7839271,16.4210526 31.7874731,16.4210526 C27.8677265,16.4210526 27.6836288,16.4133713 27.5148726,16.2751067 Z M31.2044971,13.9246088 L31.2044971,12.5803698 L29.8237645,12.5803698 L28.4430318,12.5803698 L28.4430318,13.9246088 L28.4430318,15.2688478 L29.8237645,15.2688478 L31.2044971,15.2688478 L31.2044971,13.9246088 Z M35.0398656,13.9246088 L35.0398656,12.5803698 L33.6974867,12.5803698 L32.3551077,12.5803698 L32.3551077,13.9246088 L32.3551077,15.2688478 L33.6974867,15.2688478 L35.0398656,15.2688478 L35.0398656,13.9246088 Z M31.2044971,10.0455192 L31.2044971,8.6628734 L29.8467767,8.67823613 L28.4813855,8.70128023 L28.4583733,9.96870555 C28.4507025,10.6600284 28.4583733,11.2745377 28.4737147,11.3283073 C28.5043977,11.4051209 28.8342394,11.428165 29.8621181,11.428165 L31.2044971,11.428165 L31.2044971,10.0455192 Z M35.0398656,10.0455192 L35.0398656,8.6628734 L33.6974867,8.6628734 L32.3551077,8.6628734 L32.3551077,10.0455192 L32.3551077,11.428165 L33.6974867,11.428165 L35.0398656,11.428165 L35.0398656,10.0455192 Z M35.0398656,6.85775249 L35.0398656,6.20483642 L31.7414487,6.20483642 L28.4430318,6.20483642 L28.4430318,6.85775249 L28.4430318,7.51066856 L31.7414487,7.51066856 L35.0398656,7.51066856 L35.0398656,6.85775249 Z" id="Shape"></path>
                        </g>
                    </g>
                    <g id="home" transform="translate(77.000000, 51.000000)">
                        <g id="Group" transform="translate(20.000000, 18.000000) scale(-1, 1) rotate(-180.000000) translate(-20.000000, -18.000000) translate(-0.000000, -0.000000)">
                            <path d="M6.78125,35.9119817 C6.578125,35.8571204 6.3515625,35.7630726 6.2734375,35.7082113 C5.9140625,35.433905 5.6015625,35.0969001 5.46875,34.8461057 C5.390625,34.6971965 4.5625,32.5105832 3.6328125,29.986965 C2.703125,27.4633468 1.890625,25.2845708 1.828125,25.1513363 C1.734375,24.9083793 1.6953125,24.8927046 1.3671875,24.8927046 C0.953125,24.8927046 0.6796875,24.7673075 0.375,24.4459772 C0.0625,24.1168096 0,23.8660152 0,22.9490484 C0,22.2828759 0.03125,22.0555935 0.1484375,21.8361484 C0.3671875,21.4286076 0.7890625,21.122952 1.203125,21.075928 L1.5625,21.0289041 L1.578125,14.4533895 L1.6015625,7.87003765 L1.7890625,7.7211285 C2.0234375,7.5251954 2.2734375,7.53303273 2.53125,7.73680314 L2.734375,7.89354962 L2.734375,14.4769015 L2.734375,21.052416 L7.484375,21.052416 C11.6796875,21.052416 12.28125,21.0680907 12.625,21.1778132 C12.96875,21.2953731 13.3671875,21.6715646 16.5078125,24.8064941 L20,28.2941031 L23.5,24.8064941 C26.6328125,21.6637273 27.03125,21.2953731 27.375,21.1778132 C27.71875,21.0680907 28.328125,21.052416 32.515625,21.052416 L37.265625,21.052416 L37.265625,20.1511238 C37.265625,19.3517168 37.28125,19.234157 37.421875,19.0930851 C37.65625,18.8579654 38.0703125,18.8814774 38.2734375,19.1401091 C38.4140625,19.3203675 38.4375,19.4614393 38.4375,20.1903104 L38.4375,21.0289041 L38.7890625,21.0680907 C39.234375,21.122952 39.65625,21.4364449 39.8515625,21.8674977 C39.9609375,22.1104547 40,22.3769237 40,22.988235 C40,23.8660152 39.9375,24.1168096 39.625,24.4459772 C39.3203125,24.7673075 39.046875,24.8927046 38.6328125,24.8927046 C38.296875,24.8927046 38.265625,24.9083793 38.1640625,25.1513363 C38.109375,25.2924081 37.296875,27.4711841 36.3671875,29.986965 C35.4296875,32.5105832 34.609375,34.6971965 34.53125,34.853943 C34.3515625,35.1909479 33.8359375,35.676862 33.4453125,35.8492831 C33.1875,35.9746803 32.0703125,35.9825176 20.15625,35.9981923 C9.84375,36.0060296 7.0703125,35.9903549 6.78125,35.9119817 Z M32.9921875,34.7363832 C33.1328125,34.6815219 33.3046875,34.563962 33.375,34.4855888 C33.484375,34.3601916 36.953125,25.1278244 36.953125,24.9554032 C36.953125,24.9240539 35.1328125,24.8927046 32.9140625,24.8927046 L28.8671875,24.8927046 L24.921875,28.8348784 C20.671875,33.0827079 20.8203125,32.965148 20,32.965148 C19.1796875,32.965148 19.328125,33.0827079 15.078125,28.8348784 L11.1328125,24.8927046 L7.0859375,24.8927046 C4.8125,24.8927046 3.046875,24.9240539 3.046875,24.9632406 C3.046875,25.1356617 6.5078125,34.3523543 6.625,34.4855888 C6.953125,34.853943 6.4453125,34.8382684 19.984375,34.8461057 C30.578125,34.8461057 32.78125,34.830431 32.9921875,34.7363832 Z M24.3515625,27.7768397 L28.359375,23.7562927 L33.578125,23.7171061 L38.7890625,23.6779195 L38.7890625,22.9725603 L38.7890625,22.2672012 L33.328125,22.2436892 C27.96875,22.2280146 27.8671875,22.2280146 27.6171875,22.3847611 C27.4765625,22.4709716 25.8359375,24.0932976 23.9765625,25.98993 C22.1171875,27.8865623 20.484375,29.5167256 20.3359375,29.6029362 C20.1484375,29.720496 20.0078125,29.7518453 19.859375,29.7126587 C19.71875,29.6813094 18.375,28.388151 15.9296875,25.942906 L12.21875,22.2280146 L6.7109375,22.2436892 L1.2109375,22.2672012 L1.2109375,22.9725603 L1.2109375,23.6779195 L6.421875,23.7171061 L11.640625,23.7562927 L15.6484375,27.7768397 L19.6484375,31.7895495 L20,31.7895495 L20.3515625,31.7895495 L24.3515625,27.7768397 Z" id="Shape"></path>
                            <path d="M19.7102643,23.8637823 C18.9680134,23.5885555 18.4275395,23.11053 18.0816361,22.422463 C17.3537979,20.9811437 17.9807477,19.2066552 19.4580431,18.5113454 C19.8327717,18.3375179 19.9624855,18.3157895 20.6326732,18.3157895 C21.3028609,18.3157895 21.4325746,18.3375179 21.8073033,18.5113454 C22.9819333,19.061799 23.67374,20.3655048 23.4503441,21.5967826 C23.2773924,22.538348 22.6936805,23.3278143 21.8649538,23.7261689 C21.2452103,24.0303669 20.3155951,24.0883094 19.7102643,23.8637823 Z M21.396543,22.7411467 C21.8433349,22.5311052 22.1892382,22.1327506 22.3261582,21.6547251 C22.4630783,21.2056708 22.4630783,21.0753003 22.3189519,20.6045176 C22.1027623,19.8585081 21.4325746,19.365997 20.6326732,19.365997 C20.1210245,19.365997 19.8255654,19.4746391 19.4508368,19.8005656 C18.9319818,20.2641055 18.7302049,20.9449297 18.9319818,21.6257539 C19.2418536,22.6832042 20.3948647,23.2119293 21.396543,22.7411467 Z" id="Shape"></path>
                            <path d="M37.421875,17.5178876 C37.265625,17.3575408 37.265625,17.2533154 37.265625,10.663062 L37.265625,3.96858323 L31.1328125,3.96858323 L25,3.96858323 L25,10.165987 L25,16.371408 L24.8203125,16.5397721 L24.640625,16.7161536 L19.9921875,16.7161536 L15.3359375,16.7161536 L15.171875,16.5317548 L15,16.347356 L15,10.1579696 L15,3.96858323 L8.8671875,3.96858323 L2.734375,3.96858323 L2.734375,4.88255998 C2.734375,5.78050204 2.7265625,5.80455406 2.53125,5.96490086 C2.2578125,6.18938638 1.9921875,6.1733517 1.7578125,5.9328315 C1.5703125,5.74843268 1.5625,5.68429397 1.5625,4.85049062 L1.5625,3.96858323 L1.0546875,3.96858323 C0.515625,3.96858323 0.1328125,3.83228846 0.046875,3.60780294 C0.0234375,3.53564688 0,2.77399959 0,1.92416157 C0,0.521127091 0.015625,0.360780294 0.1484375,0.192416157 L0.296875,0 L20,0 L39.703125,0 L39.8515625,0.192416157 C39.984375,0.360780294 40,0.521127091 40,1.92416157 C40,2.77399959 39.9765625,3.53564688 39.953125,3.60780294 C39.8671875,3.83228846 39.484375,3.96858323 38.9453125,3.96858323 L38.4375,3.96858323 L38.4375,10.614958 C38.4375,17.2132287 38.4375,17.2533154 38.2734375,17.4697836 C38.0703125,17.7343558 37.65625,17.7584078 37.421875,17.5178876 Z M23.828125,9.74106794 L23.828125,3.96858323 L20,3.96858323 L16.171875,3.96858323 L16.171875,6.12524766 L16.171875,8.28191208 L16.7265625,8.31398144 C17.1953125,8.33803346 17.3046875,8.37812016 17.4296875,8.53044962 C17.625,8.77898715 17.6171875,9.08364607 17.40625,9.31614893 C17.265625,9.47649572 17.1640625,9.50054774 16.703125,9.50054774 L16.171875,9.50054774 L16.171875,12.5070502 L16.171875,15.5135526 L20,15.5135526 L23.828125,15.5135526 L23.828125,9.74106794 Z M38.828125,1.96424827 L38.828125,1.16251428 L20,1.16251428 L1.171875,1.16251428 L1.171875,1.96424827 L1.171875,2.76598225 L20,2.76598225 L38.828125,2.76598225 L38.828125,1.96424827 Z" id="Shape"></path>
                            <path d="M18.1111111,13.2136318 C17.8412698,13.1086225 17.7777778,12.737051 17.7777778,11.3073086 C17.7777778,10.0068085 17.7936508,9.88564388 17.9444444,9.68370287 L18.1031746,9.47368421 L20.3174603,9.47368421 L22.531746,9.47368421 L22.6904762,9.68370287 C22.8412698,9.88564388 22.8571429,10.0068085 22.8571429,11.3073086 C22.8571429,12.7693616 22.7936508,13.1005449 22.5,13.2217095 C22.3412698,13.2782529 18.2619048,13.2782529 18.1111111,13.2136318 Z M21.6666667,11.3719298 L21.6666667,10.6853303 L20.3174603,10.6853303 L18.968254,10.6853303 L18.968254,11.3719298 L18.968254,12.0585292 L20.3174603,12.0585292 L21.6666667,12.0585292 L21.6666667,11.3719298 Z" id="Shape"></path>
                            <path d="M5.23262178,16.2674253 C5.07936508,16.113798 5.07936508,16.0139403 5.07936508,10.7368421 C5.07936508,5.45974395 5.07936508,5.3598862 5.23262178,5.20625889 C5.37821565,5.06031294 5.48549535,5.05263158 9.45484401,5.05263158 C11.9605911,5.05263158 13.5697865,5.08335704 13.6617406,5.12944523 C13.9529283,5.28307255 13.968254,5.52887624 13.968254,10.7368421 C13.968254,15.944808 13.9529283,16.1906117 13.6617406,16.344239 C13.5697865,16.3903272 11.9605911,16.4210526 9.45484401,16.4210526 C5.48549535,16.4210526 5.37821565,16.4133713 5.23262178,16.2674253 Z M8.9107827,13.9246088 L8.9107827,12.5803698 L7.56978654,12.5803698 L6.22879037,12.5803698 L6.22879037,13.9246088 L6.22879037,15.2688478 L7.56978654,15.2688478 L8.9107827,15.2688478 L8.9107827,13.9246088 Z M12.8188287,13.9246088 L12.8188287,12.5803698 L11.4395183,12.5803698 L10.060208,12.5803698 L10.060208,13.9246088 L10.060208,15.2688478 L11.4395183,15.2688478 L12.8188287,15.2688478 L12.8188287,13.9246088 Z M8.9107827,10.0455192 L8.9107827,8.6628734 L7.56978654,8.6628734 L6.22879037,8.6628734 L6.22879037,10.0455192 L6.22879037,11.428165 L7.56978654,11.428165 L8.9107827,11.428165 L8.9107827,10.0455192 Z M12.7805145,10.0455192 L12.7805145,8.70128023 L11.4241927,8.67823613 L10.060208,8.6628734 L10.060208,10.0455192 L10.060208,11.428165 L11.4241927,11.4128023 L12.7805145,11.3897582 L12.7805145,10.0455192 Z M12.8188287,6.85775249 L12.8188287,6.20483642 L9.52380952,6.20483642 L6.22879037,6.20483642 L6.22879037,6.85775249 L6.22879037,7.51066856 L9.52380952,7.51066856 L12.8188287,7.51066856 L12.8188287,6.85775249 Z" id="Shape"></path>
                            <path d="M27.5148726,16.2751067 L27.3307749,16.1291607 L27.3077627,10.9903272 C27.2924212,8.171266 27.3077627,5.74395448 27.3307749,5.6056899 C27.3537871,5.46742532 27.445836,5.28307255 27.5302141,5.19857752 C27.6682874,5.06031294 27.8140314,5.05263158 31.7798024,5.05263158 C35.7839271,5.05263158 35.8836467,5.05263158 36.0370614,5.20625889 C36.1904762,5.3598862 36.1904762,5.45974395 36.1904762,10.7368421 C36.1904762,16.0139403 36.1904762,16.113798 36.0370614,16.2674253 C35.8836467,16.4210526 35.7839271,16.4210526 31.7874731,16.4210526 C27.8677265,16.4210526 27.6836288,16.4133713 27.5148726,16.2751067 Z M31.2044971,13.9246088 L31.2044971,12.5803698 L29.8237645,12.5803698 L28.4430318,12.5803698 L28.4430318,13.9246088 L28.4430318,15.2688478 L29.8237645,15.2688478 L31.2044971,15.2688478 L31.2044971,13.9246088 Z M35.0398656,13.9246088 L35.0398656,12.5803698 L33.6974867,12.5803698 L32.3551077,12.5803698 L32.3551077,13.9246088 L32.3551077,15.2688478 L33.6974867,15.2688478 L35.0398656,15.2688478 L35.0398656,13.9246088 Z M31.2044971,10.0455192 L31.2044971,8.6628734 L29.8467767,8.67823613 L28.4813855,8.70128023 L28.4583733,9.96870555 C28.4507025,10.6600284 28.4583733,11.2745377 28.4737147,11.3283073 C28.5043977,11.4051209 28.8342394,11.428165 29.8621181,11.428165 L31.2044971,11.428165 L31.2044971,10.0455192 Z M35.0398656,10.0455192 L35.0398656,8.6628734 L33.6974867,8.6628734 L32.3551077,8.6628734 L32.3551077,10.0455192 L32.3551077,11.428165 L33.6974867,11.428165 L35.0398656,11.428165 L35.0398656,10.0455192 Z M35.0398656,6.85775249 L35.0398656,6.20483642 L31.7414487,6.20483642 L28.4430318,6.20483642 L28.4430318,6.85775249 L28.4430318,7.51066856 L31.7414487,7.51066856 L35.0398656,7.51066856 L35.0398656,6.85775249 Z" id="Shape"></path>
                        </g>
                    </g>
                    <g id="home" transform="translate(7.000000, 15.000000)">
                        <g id="Group" transform="translate(31.500000, 28.500000) scale(-1, 1) rotate(-180.000000) translate(-31.500000, -28.500000) ">
                            <path d="M10.6804687,56.8606377 C10.3605469,56.773774 10.0037109,56.6248649 9.88066406,56.5380012 C9.31464844,56.1036829 8.82246094,55.5700917 8.61328125,55.1730007 C8.49023438,54.9372279 7.1859375,51.4750901 5.72167969,47.4793613 C4.25742188,43.4836324 2.97773437,40.0339038 2.87929687,39.8229492 C2.73164062,39.4382672 2.67011719,39.413449 2.15332031,39.413449 C1.50117187,39.413449 1.07050781,39.2149035 0.590625,38.7061306 C0.0984375,38.1849485 0,37.7878575 0,36.3359933 C0,35.2812201 0.04921875,34.9213563 0.233789062,34.5739017 C0.578320313,33.9286287 1.24277344,33.4446739 1.89492188,33.3702194 L2.4609375,33.2957648 L2.48554687,22.8845334 L2.52246094,12.4608929 L2.81777344,12.2251201 C3.18691406,11.9148927 3.58066406,11.9273018 3.98671875,12.2499383 L4.30664062,12.4981202 L4.30664062,22.9217607 L4.30664062,33.3329921 L11.7878906,33.3329921 C18.3955078,33.3329921 19.3429687,33.3578103 19.884375,33.5315376 C20.4257812,33.717674 21.0533203,34.3133106 25.9998047,39.276949 L31.5,44.7989966 L37.0125,39.276949 C41.9466797,34.3009015 42.5742188,33.717674 43.115625,33.5315376 C43.6570313,33.3578103 44.6167969,33.3329921 51.2121094,33.3329921 L58.6933594,33.3329921 L58.6933594,31.9059461 C58.6933594,30.6402183 58.7179687,30.4540818 58.9394531,30.2307181 C59.3085938,29.8584453 59.9607422,29.8956725 60.2806641,30.3051727 C60.5021484,30.5905819 60.5390625,30.8139456 60.5390625,31.9679915 L60.5390625,33.2957648 L61.0927734,33.3578103 C61.7941406,33.4446739 62.4585938,33.9410378 62.7662109,34.623538 C62.9384766,35.00822 63,35.4301293 63,36.3980387 C63,37.7878575 62.9015625,38.1849485 62.409375,38.7061306 C61.9294922,39.2149035 61.4988281,39.413449 60.8466797,39.413449 C60.3175781,39.413449 60.2683594,39.4382672 60.1083984,39.8229492 C60.0222656,40.0463129 58.7425781,43.4960415 57.2783203,47.4793613 C55.8017578,51.4750901 54.5097656,54.9372279 54.3867188,55.1854098 C54.1037109,55.7190009 53.2916016,56.4883648 52.6763672,56.7613649 C52.2703125,56.9599105 50.5107422,56.9723196 31.7460938,56.9971378 C15.5039062,57.0095469 11.1357422,56.9847287 10.6804687,56.8606377 Z M51.9626953,54.9992733 C52.1841797,54.9124097 52.4548828,54.7262732 52.565625,54.6021823 C52.7378906,54.4036367 58.2011719,39.7857219 58.2011719,39.5127218 C58.2011719,39.4630854 55.3341797,39.413449 51.8396484,39.413449 L45.4658203,39.413449 L39.2519531,45.6552242 C32.5582031,52.3809541 32.7919922,52.1948177 31.5,52.1948177 C30.2080078,52.1948177 30.4417969,52.3809541 23.7480469,45.6552242 L17.5341797,39.413449 L11.1603516,39.413449 C7.5796875,39.413449 4.79882812,39.4630854 4.79882812,39.5251309 C4.79882812,39.798131 10.2498047,54.3912276 10.434375,54.6021823 C10.9511719,55.1854098 10.1513672,55.1605916 31.4753906,55.1730007 C48.1605469,55.1730007 51.6304687,55.1481825 51.9626953,54.9992733 Z M38.3537109,43.9799963 L44.6660156,37.6141301 L52.8855469,37.5520846 L61.0927734,37.4900392 L61.0927734,36.3732205 L61.0927734,35.2564019 L52.4917969,35.2191746 C44.0507812,35.1943564 43.8908203,35.1943564 43.4970703,35.4425384 C43.2755859,35.5790384 40.6916016,38.1477212 37.7630859,41.1507224 C34.8345703,44.1537236 32.2628906,46.7348155 32.0291016,46.8713156 C31.7337891,47.057452 31.5123047,47.1070884 31.2785156,47.0450429 C31.0570313,46.9954065 28.940625,44.9479057 25.0892578,41.0762679 L19.2445312,35.1943564 L10.5697266,35.2191746 L1.90722656,35.2564019 L1.90722656,36.3732205 L1.90722656,37.4900392 L10.1144531,37.5520846 L18.3339844,37.6141301 L24.6462891,43.9799963 L30.9462891,50.3334533 L31.5,50.3334533 L32.0537109,50.3334533 L38.3537109,43.9799963 Z" id="Shape"></path>
                            <path d="M31.0436663,37.784322 C29.8746211,37.3485462 29.0233747,36.5916725 28.4785769,35.5022331 C27.3322317,33.2201442 28.3196776,30.4105373 30.6464179,29.3096301 C31.2366155,29.0344033 31.4409147,29 32.4964603,29 C33.5520059,29 33.7563051,29.0344033 34.3465026,29.3096301 C36.196545,30.1811817 37.2861405,32.2453827 36.9342919,34.1949058 C36.661893,35.6857176 35.7425468,36.935706 34.4373022,37.5664341 C33.4612063,38.048081 31.9970624,38.1398232 31.0436663,37.784322 Z M33.6995553,36.0068156 C34.4032524,35.6742498 34.9480501,35.0435218 35.1636992,34.2866481 C35.3793483,33.5756455 35.3793483,33.3692254 35.1523493,32.6238195 C34.8118507,31.4426378 33.7563051,30.6628286 32.4964603,30.6628286 C31.6906136,30.6628286 31.2252655,30.8348453 30.635068,31.3508956 C29.8178714,32.0848337 29.5000727,33.1628053 29.8178714,34.2407769 C30.3059194,35.9150733 32.1219118,36.7522215 33.6995553,36.0068156 Z" id="Shape"></path>
                            <path d="M58.9394531,27.7366554 C58.6933594,27.482773 58.6933594,27.3177494 58.6933594,16.8831815 L58.6933594,6.28359012 L49.0341797,6.28359012 L39.375,6.28359012 L39.375,16.096146 L39.375,25.921396 L39.0919922,26.1879726 L38.8089844,26.4672432 L31.4876953,26.4672432 L24.1541016,26.4672432 L23.8957031,26.1752784 L23.625,25.8833136 L23.625,16.0834519 L23.625,6.28359012 L13.9658203,6.28359012 L4.30664062,6.28359012 L4.30664062,7.73071997 C4.30664062,9.15246157 4.29433594,9.19054393 3.98671875,9.44442636 C3.55605469,9.79986176 3.13769531,9.77447352 2.76855469,9.39364988 C2.47324219,9.10168508 2.4609375,9.00013211 2.4609375,7.67994348 L2.4609375,6.28359012 L1.66113281,6.28359012 C0.812109375,6.28359012 0.209179687,6.06779006 0.073828125,5.71235465 C0.0369140625,5.59810756 0,4.39216602 0,3.04658915 C0,0.825117895 0.024609375,0.571235465 0.233789062,0.304658915 L0.467578125,0 L31.5,0 L62.5324219,0 L62.7662109,0.304658915 C62.9753906,0.571235465 63,0.825117895 63,3.04658915 C63,4.39216602 62.9630859,5.59810756 62.9261719,5.71235465 C62.7908203,6.06779006 62.1878906,6.28359012 61.3388672,6.28359012 L60.5390625,6.28359012 L60.5390625,16.8070168 C60.5390625,27.2542788 60.5390625,27.3177494 60.2806641,27.6604907 C59.9607422,28.0793967 59.3085938,28.117479 58.9394531,27.7366554 Z M37.5292969,15.4233576 L37.5292969,6.28359012 L31.5,6.28359012 L25.4707031,6.28359012 L25.4707031,9.69830879 L25.4707031,13.1130275 L26.3443359,13.1638039 C27.0826172,13.2018863 27.2548828,13.2653569 27.4517578,13.5065452 C27.759375,13.900063 27.7470703,14.3824396 27.4148437,14.7505691 C27.1933594,15.0044516 27.0333984,15.0425339 26.3074219,15.0425339 L25.4707031,15.0425339 L25.4707031,19.8028295 L25.4707031,24.563125 L31.5,24.563125 L37.5292969,24.563125 L37.5292969,15.4233576 Z M61.1542969,3.11005976 L61.1542969,1.84064761 L31.5,1.84064761 L1.84570312,1.84064761 L1.84570312,3.11005976 L1.84570312,4.3794719 L31.5,4.3794719 L61.1542969,4.3794719 L61.1542969,3.11005976 Z" id="Shape"></path>
                            <path d="M28.525,20.9215837 C28.1,20.755319 28,20.1669975 28,17.9032387 C28,15.8441134 28.025,15.6522695 28.2625,15.3325295 L28.5125,15 L32,15 L35.4875,15 L35.7375,15.3325295 C35.975,15.6522695 36,15.8441134 36,17.9032387 C36,20.2181558 35.9,20.7425294 35.4375,20.9343733 C35.1875,21.0239005 28.7625,21.0239005 28.525,20.9215837 Z M34.125,18.0055555 L34.125,16.9184397 L32,16.9184397 L29.875,16.9184397 L29.875,18.0055555 L29.875,19.0926713 L32,19.0926713 L34.125,19.0926713 L34.125,18.0055555 Z" id="Shape"></path>
                            <path d="M8.24137931,25.7567568 C8,25.5135135 8,25.3554054 8,17 C8,8.64459459 8,8.48648649 8.24137931,8.24324324 C8.47068966,8.01216216 8.63965517,8 14.8913793,8 C18.837931,8 21.3724138,8.04864865 21.5172414,8.12162162 C21.9758621,8.36486486 22,8.75405405 22,17 C22,25.2459459 21.9758621,25.6351351 21.5172414,25.8783784 C21.3724138,25.9513514 18.837931,26 14.8913793,26 C8.63965517,26 8.47068966,25.9878378 8.24137931,25.7567568 Z M14.0344828,22.0472973 L14.0344828,19.9189189 L11.9224138,19.9189189 L9.81034483,19.9189189 L9.81034483,22.0472973 L9.81034483,24.1756757 L11.9224138,24.1756757 L14.0344828,24.1756757 L14.0344828,22.0472973 Z M20.1896552,22.0472973 L20.1896552,19.9189189 L18.0172414,19.9189189 L15.8448276,19.9189189 L15.8448276,22.0472973 L15.8448276,24.1756757 L18.0172414,24.1756757 L20.1896552,24.1756757 L20.1896552,22.0472973 Z M14.0344828,15.9054054 L14.0344828,13.7162162 L11.9224138,13.7162162 L9.81034483,13.7162162 L9.81034483,15.9054054 L9.81034483,18.0945946 L11.9224138,18.0945946 L14.0344828,18.0945946 L14.0344828,15.9054054 Z M20.1293103,15.9054054 L20.1293103,13.777027 L17.9931034,13.7405405 L15.8448276,13.7162162 L15.8448276,15.9054054 L15.8448276,18.0945946 L17.9931034,18.0702703 L20.1293103,18.0337838 L20.1293103,15.9054054 Z M20.1896552,10.8581081 L20.1896552,9.82432432 L15,9.82432432 L9.81034483,9.82432432 L9.81034483,10.8581081 L9.81034483,11.8918919 L15,11.8918919 L20.1896552,11.8918919 L20.1896552,10.8581081 Z" id="Shape"></path>
                            <path d="M43.3359244,25.7689189 L43.0459705,25.5378378 L43.0097263,17.4013514 C42.9855635,12.9378378 43.0097263,9.09459459 43.0459705,8.87567568 C43.0822147,8.65675676 43.2271917,8.36486486 43.3600872,8.23108108 C43.5775526,8.01216216 43.8070994,8 50.0531888,8 C56.3596852,8 56.5167436,8 56.7583718,8.24324324 C57,8.48648649 57,8.64459459 57,17 C57,25.3554054 57,25.5135135 56.7583718,25.7567568 C56.5167436,26 56.3596852,26 50.0652702,26 C43.8916693,26 43.6017154,25.9878378 43.3359244,25.7689189 Z M49.147083,22.0472973 L49.147083,19.9189189 L46.972429,19.9189189 L44.7977751,19.9189189 L44.7977751,22.0472973 L44.7977751,24.1756757 L46.972429,24.1756757 L49.147083,24.1756757 L49.147083,22.0472973 Z M55.1877884,22.0472973 L55.1877884,19.9189189 L53.0735415,19.9189189 L50.9592946,19.9189189 L50.9592946,22.0472973 L50.9592946,24.1756757 L53.0735415,24.1756757 L55.1877884,24.1756757 L55.1877884,22.0472973 Z M49.147083,15.9054054 L49.147083,13.7162162 L47.0086733,13.7405405 L44.8581821,13.777027 L44.8219379,15.7837838 C44.8098565,16.8783784 44.8219379,17.8513514 44.8461007,17.9364865 C44.8944264,18.0581081 45.413927,18.0945946 47.0328361,18.0945946 L49.147083,18.0945946 L49.147083,15.9054054 Z M55.1877884,15.9054054 L55.1877884,13.7162162 L53.0735415,13.7162162 L50.9592946,13.7162162 L50.9592946,15.9054054 L50.9592946,18.0945946 L53.0735415,18.0945946 L55.1877884,18.0945946 L55.1877884,15.9054054 Z M55.1877884,10.8581081 L55.1877884,9.82432432 L49.9927817,9.82432432 L44.7977751,9.82432432 L44.7977751,10.8581081 L44.7977751,11.8918919 L49.9927817,11.8918919 L55.1877884,11.8918919 L55.1877884,10.8581081 Z" id="Shape"></path>
                        </g>
                    </g>
                </g>
            </g>
        </g>
    </g>
</svg>