<?xml version="1.0" encoding="UTF-8"?>
<svg width="77px" height="56px" viewBox="0 0 77 56" version="1.1" xmlns="http://www.w3.org/2000/svg" xmlns:xlink="http://www.w3.org/1999/xlink">
    <title>house</title>
    <g id="Front-Page" stroke="none" stroke-width="1" fill="none" fill-rule="evenodd">
        <g id="How-Does-It-Work" transform="translate(-579.000000, -1124.000000)" fill="#E4A400" fill-rule="nonzero">
            <g id="By-participating..." transform="translate(-902.000000, 669.000000)">
                <g id="1" transform="translate(1456.000000, 387.841103)">
                    <g id="house" transform="translate(25.000000, 67.158897)">
                        <g id="Group" transform="translate(38.500000, 28.000000) scale(-1, 1) rotate(-180.000000) translate(-38.500000, -28.000000) translate(0.000000, -0.000000)">
                            <path d="M37.7941124,55.8445682 C37.62863,55.7695083 37.0870514,55.2440889 36.5906043,54.6586217 L35.7180609,53.5927711 L23.7732432,53.5927711 C11.3018907,53.5927711 11.1063206,53.5777591 10.3089965,52.9322439 C9.99307567,52.6620283 1.14729127,38.911054 0.500405674,37.6650596 C0.184484802,37.0345564 0.244660206,36.539161 0.726063439,35.9987297 L1.16233512,35.5033343 L3.8100529,35.4582984 L6.45777068,35.4132624 L6.45777068,23.4186899 C6.45777068,16.4531308 6.39759528,11.3940933 6.32237602,11.3490574 C6.03654285,11.1689136 5.13391179,9.65270358 4.90825403,8.94714049 C4.75781551,8.54181701 4.65250856,7.776206 4.65250856,7.26579865 L4.65250856,6.33505585 L4.05075452,6.22997199 C2.78707103,6.01980426 2.24549239,5.16412136 2.24549239,3.40771962 L2.24549239,2.28182107 L1.38799288,2.22177314 C0.74110729,2.16172522 0.470317972,2.07165334 0.259704057,1.80143768 C-0.116392219,1.33606628 -0.0863045165,0.810646957 0.365011014,0.375299517 L0.726063439,3.41332923e-15 L38.5011734,3.41332923e-15 L76.2762833,3.41332923e-15 L76.6373357,0.375299517 C77.0886513,0.810646957 77.118739,1.33606628 76.7275988,1.81644966 C76.4417657,2.1767372 76.3815903,2.1767372 73.4931709,2.22177314 L70.5445761,2.26680908 L70.5445761,18.8400358 L70.5445761,35.4132624 L73.1922938,35.4582984 L75.8400116,35.5033343 L76.2762833,35.9987297 C76.7576865,36.539161 76.8178619,37.0345564 76.5019411,37.6650596 C75.8550555,38.911054 67.0092711,52.6620283 66.6933502,52.9322439 C65.8960261,53.5777591 65.700456,53.5927711 53.2291035,53.5927711 L41.2842858,53.5927711 L40.4117425,54.6586217 C39.3285852,55.949652 38.7268311,56.2198677 37.7941124,55.8445682 Z M45.8275288,44.6306186 C49.7840616,39.8718207 53.1388404,35.8185859 53.2892789,35.6234302 L53.5600683,35.2781546 L52.5822179,35.2781546 L51.6043676,35.2781546 L45.4664764,42.6790611 C42.0665661,46.7623199 39.1330151,50.1550275 38.9073574,50.2601114 C38.5763926,50.4252431 38.4259541,50.4252431 38.0949894,50.2601114 C37.8693316,50.1550275 34.9357807,46.7623199 31.5358703,42.6790611 L25.3979791,35.2781546 L24.405085,35.2781546 C23.4723662,35.2781546 23.4272346,35.2931666 23.6378486,35.5483703 C23.7581994,35.6834781 27.128022,39.7367129 31.1146425,44.5555587 C35.1163069,49.3593925 38.4259541,53.2925315 38.5011734,53.2925315 C38.5763926,53.2925315 41.870996,49.3894165 45.8275288,44.6306186 Z M33.687141,51.2509021 C33.687141,51.2058661 33.4464394,50.8605906 33.1455624,50.500303 L32.6039838,49.8397759 L27.2032413,49.8397759 C21.9980688,49.8397759 21.7874549,49.8247639 21.5016217,49.5395363 C21.0954377,49.1342128 21.1104816,48.3235658 21.5166656,47.9482663 C21.8024987,47.6780507 22.178595,47.6630387 26.2554786,47.5879788 L30.663327,47.5129189 L29.9111344,46.657236 L29.143898,45.7865411 L18.7786847,45.7865411 C13.0770651,45.7865411 8.41347132,45.831577 8.41347132,45.876613 C8.41347132,45.9216489 8.62408523,46.3269724 8.89487455,46.7623199 L9.37627778,47.5729668 L13.392986,47.6180028 C17.0937734,47.6630387 17.4397819,47.6780507 17.7256151,47.9482663 C18.1317991,48.3235658 18.1468429,49.1342128 17.740659,49.5395363 C17.4548258,49.8247639 17.2442119,49.8397759 14.205354,49.8397759 C12.4301795,49.8397759 10.970926,49.8998238 10.970926,49.9598717 C10.970926,50.0349316 11.1815399,50.3802072 11.4222415,50.7104708 L11.8735571,51.340974 L22.780349,51.340974 C28.7828456,51.340974 33.687141,51.295938 33.687141,51.2509021 Z M65.5801052,50.7104708 C65.8208068,50.3802072 66.0314208,50.0349316 66.0314208,49.9598717 C66.0314208,49.8998238 61.1722569,49.8397759 55.2148919,49.8397759 L44.398363,49.8397759 L43.8567843,50.500303 C43.5559073,50.8605906 43.3152057,51.2058661 43.3152057,51.2509021 C43.3152057,51.295938 48.2195011,51.340974 54.2219977,51.340974 L65.1287897,51.340974 L65.5801052,50.7104708 Z M68.1074722,46.7773318 C68.3632177,46.3269724 68.5888754,45.9216489 68.5888754,45.876613 C68.5888754,45.831577 63.9252816,45.7865411 58.2387059,45.7865411 L47.8885364,45.7865411 L47.4372209,46.2819365 C47.1965193,46.5371401 46.8354668,46.9424636 46.6398968,47.1826553 L46.2788444,47.5879788 L56.9449347,47.5879788 L67.6110251,47.5879788 L68.1074722,46.7773318 Z M44.2027929,40.6524437 L49.7840616,33.9420883 L49.7840616,27.5169606 C49.7840616,20.6714974 49.7991055,20.5213776 50.5212103,20.176102 C50.957482,19.9509223 51.6795869,20.1610901 51.8902008,20.5664135 C51.9804639,20.7315453 52.0406393,23.2535581 52.0406393,26.9314934 L52.0406393,32.9963336 L54.0113838,33.0563815 C55.9520406,33.1014174 55.9821283,33.1014174 56.3431807,33.5217529 C56.719277,33.9721123 56.8095401,34.6476514 56.5537946,35.1280348 C56.4033561,35.3982505 56.5086631,35.4132624 58.7953284,35.4582984 C60.9014676,35.5033343 61.2324323,35.5333583 61.5032216,35.788562 C61.9094056,36.1638615 61.9244494,36.9745084 61.5182654,37.3798319 C61.2324323,37.6650596 61.0218184,37.6800715 57.8626096,37.6800715 L54.5078309,37.6800715 L53.9963399,38.3255867 C53.6954629,38.6708623 53.379542,39.0761857 53.2591912,39.2263055 C53.0636212,39.4664972 53.5450244,39.4815092 62.9022997,39.4815092 L72.7409783,39.4815092 L73.2223816,38.6858742 C73.4931709,38.2505268 73.7037848,37.8452033 73.7037848,37.7851554 C73.7037848,37.7251075 71.9135665,37.6800715 69.7171643,37.6800715 C65.9261138,37.6800715 65.7154999,37.6650596 65.4296667,37.3798319 C65.0234827,36.9745084 65.0385266,36.1638615 65.4447106,35.788562 C65.6854122,35.5633823 66.0464646,35.4883224 67.0243149,35.4432864 L68.2879984,35.3982505 L68.2879984,18.8250238 L68.2879984,2.2517971 L60.1643189,2.2517971 L52.0406393,2.2517971 L52.0406393,9.23236812 L52.0406393,16.2279511 L51.664543,16.5882387 C51.468973,16.7984064 51.1981836,16.9635382 51.0778328,16.9635382 C50.656605,16.9635382 50.1150264,16.6332746 49.949544,16.2579751 C49.8291932,16.0177834 49.7840616,13.7509743 49.7840616,9.08224832 L49.7840616,2.2517971 L47.6779225,2.2517971 L45.5717834,2.2517971 L45.5717834,11.2589855 C45.5717834,21.1969167 45.5868272,21.0317849 44.6390646,21.6172522 C44.1576614,21.9024798 43.9019159,21.9174918 38.5011734,21.9174918 C33.1004309,21.9174918 32.8446854,21.9024798 32.3632822,21.6172522 C31.4155195,21.0317849 31.4305634,21.1969167 31.4305634,11.2589855 L31.4305634,2.2517971 L29.3244242,2.2517971 L27.2182851,2.2517971 L27.2182851,18.1044487 L27.2182851,33.9420883 L32.8296415,40.6824677 C35.8985871,44.4054389 38.4710857,47.422847 38.5312611,47.3930452 C38.5914365,47.3778111 41.1488912,44.345391 44.2027929,40.6524437 Z M27.2182851,43.4446721 C27.2182851,43.3996362 26.9023642,42.9943127 26.526268,42.5439533 L25.8342508,41.7333063 L15.8451337,41.7333063 C10.3541281,41.7333063 5.85601664,41.7783423 5.85601664,41.8233782 C5.85601664,41.8684141 6.08167441,42.2737376 6.33741987,42.724097 L6.83386696,43.534744 L17.0185541,43.534744 C22.6299105,43.534744 27.2182851,43.4897081 27.2182851,43.4446721 Z M70.6649269,42.724097 C70.9206723,42.2737376 71.1463301,41.8684141 71.1463301,41.8233782 C71.1463301,41.7783423 66.6482187,41.7333063 61.157213,41.7333063 L51.1680959,41.7333063 L50.4760788,42.5439533 C50.0999825,42.9943127 49.7840616,43.3996362 49.7840616,43.4446721 C49.7840616,43.4897081 54.3724362,43.534744 59.9837926,43.534744 L70.1684798,43.534744 L70.6649269,42.724097 Z M23.7431555,39.2263055 C23.6228047,39.0761857 23.3068838,38.6708623 23.0060068,38.3255867 L22.4945159,37.6800715 L12.8965389,37.6800715 C7.61614721,37.6800715 3.29856197,37.7251075 3.29856197,37.7851554 C3.29856197,37.8452033 3.50917588,38.2505268 3.7799652,38.6858742 L4.26136843,39.4815092 L14.100047,39.4815092 C23.4573223,39.4815092 23.9387256,39.4664972 23.7431555,39.2263055 Z M20.4485521,35.1430468 C20.162719,34.6026155 20.2680259,33.8520165 20.6892538,33.461705 C21.0503062,33.1314414 21.2007447,33.1014174 23.0210507,33.0563815 L24.9617074,32.9963336 L24.9617074,23.1034383 C24.9617074,17.6691013 24.9466636,13.210543 24.9316197,13.210543 C24.901532,13.210543 24.5103919,13.3606628 24.0590764,13.5257946 C23.4573223,13.7659863 22.9157437,13.8560582 22.0281565,13.8560582 C20.2830698,13.8410462 19.3052195,13.4357227 18.041536,12.1897283 L17.0636857,11.2139496 L15.9805284,11.1839256 C15.1531166,11.1539017 14.8371957,11.1989376 14.701801,11.3790814 C14.3407486,11.7994168 12.986802,12.5800398 12.1744341,12.8202315 C11.271803,13.0904472 9.94794412,13.1354831 9.19575157,12.9253154 L8.71434834,12.7751956 L8.71434834,24.109241 L8.71434834,35.4282744 L14.6566695,35.4282744 C20.4936837,35.4282744 20.6140345,35.4282744 20.4485521,35.1430468 Z M43.3152057,10.9587459 L43.3152057,2.2517971 L38.5011734,2.2517971 L33.687141,2.2517971 L33.687141,10.9587459 L33.687141,19.6656947 L38.5011734,19.6656947 L43.3152057,19.6656947 L43.3152057,10.9587459 Z M23.6378486,11.2439735 C23.9387256,11.0788417 24.3749973,10.7786021 24.5856112,10.5534224 C24.9466636,10.1480989 24.9617074,10.0580271 24.9617074,8.22656542 L24.9617074,6.30503189 L19.455658,6.30503189 L13.9345646,6.30503189 L14.0248277,6.93553508 C14.1903101,8.12148155 15.107985,8.94714049 16.2061861,8.88709257 C16.5973263,8.87208059 17.2141242,8.84205663 17.5902204,8.81203267 C18.237106,8.7820087 18.2671937,8.79702068 18.7335531,9.50258378 C19.5910526,10.7936141 20.2228944,11.3040215 21.2759639,11.5742371 C21.8927618,11.7243569 22.9759191,11.5742371 23.6378486,11.2439735 Z M12.1443464,10.4183146 C12.5806181,10.2081469 12.9266266,9.96795518 12.9266266,9.87788329 C12.9266266,9.80282339 12.7461004,9.50258378 12.5354865,9.23236812 C12.0992148,8.64690088 11.7231185,7.55102629 11.7231185,6.80042725 L11.7231185,6.30503189 L9.31610238,6.30503189 L6.90908621,6.30503189 L6.90908621,7.13069083 C6.90908621,9.90790726 9.6771548,11.649297 12.1443464,10.4183146 Z M24.9316197,3.12249198 L24.9767513,2.2517971 L14.7318887,2.2517971 L4.50207005,2.2517971 L4.50207005,3.04743208 C4.50207005,3.4977915 4.5472016,3.90311498 4.607377,3.94815092 C4.65250856,4.00819884 9.24088312,4.03822281 14.7920642,4.02321083 L24.8864882,3.97817488 L24.9316197,3.12249198 Z" id="Shape"></path>
                            <path d="M36.9065252,39.1212217 C35.5977101,38.8059701 34.5897721,37.9052512 33.9428865,36.524149 C33.6420095,35.8636219 33.6119218,35.5783942 33.6119218,33.0113455 C33.6119218,28.8380149 33.4464394,28.9731227 38.5011734,28.9731227 C43.5559073,28.9731227 43.390425,28.8380149 43.390425,33.0113455 C43.390425,35.5783942 43.3603373,35.8636219 43.0594602,36.524149 C42.878934,36.9144605 42.578057,37.4248679 42.4125746,37.6350356 C41.2993297,39.0611738 39.0878836,39.646641 36.9065252,39.1212217 Z M40.1108654,36.6892808 C41.0435842,35.9837177 41.1338473,35.743526 41.1789789,33.3866451 L41.2391543,31.2249198 L38.5162172,31.2249198 L35.7932802,31.2249198 L35.7932802,33.0713935 C35.7932802,35.0980109 35.913631,35.743526 36.4251219,36.2989693 C36.9817444,36.8994485 37.5684546,37.0946043 38.6816996,37.0345564 C39.4188483,37.0045324 39.8099884,36.9144605 40.1108654,36.6892808 Z" id="Shape"></path>
                            <path d="M56.6591016,29.6636738 C56.3732684,29.3934582 56.1024791,28.9430988 56.0423037,28.6728831 C55.8918652,27.8772481 55.9369967,17.2487658 56.1024791,16.6482866 C56.1776983,16.363059 56.4635315,15.9277115 56.719277,15.6725078 L57.1705925,15.2371604 L60.0890996,15.2371604 L63.0076067,15.2371604 L63.4589222,15.6725078 C63.7146677,15.9277115 64.0005009,16.363059 64.0757201,16.6482866 C64.2412025,17.2487658 64.286334,27.8772481 64.1358955,28.6728831 C64.0757201,28.9430988 63.8049308,29.3934582 63.5190976,29.6636738 L63.0076067,30.1740812 L60.0890996,30.1740812 L57.1705925,30.1740812 L56.6591016,29.6636738 Z M61.969581,22.6680908 L61.969581,17.4138976 L60.0890996,17.4138976 L58.2086182,17.4138976 L58.2086182,22.6680908 L58.2086182,27.9222841 L60.0890996,27.9222841 L61.969581,27.9222841 L61.969581,22.6680908 Z" id="Shape"></path>
                            <path d="M13.4832491,29.6636738 C13.1974159,29.3934582 12.9266266,28.9430988 12.8664512,28.6728831 C12.7160127,27.8772481 12.7611443,17.2487658 12.9266266,16.6482866 C13.0018459,16.363059 13.287679,15.9277115 13.5434245,15.6725078 L13.99474,15.2371604 L16.9132471,15.2371604 L19.8317542,15.2371604 L20.2830698,15.6725078 C20.5388152,15.9277115 20.8246484,16.363059 20.8998677,16.6482866 C21.06535,17.2487658 21.1104816,27.8772481 20.9600431,28.6728831 C20.8998677,28.9430988 20.6290784,29.3934582 20.3432452,29.6636738 L19.8317542,30.1740812 L16.9132471,30.1740812 L13.99474,30.1740812 L13.4832491,29.6636738 Z M18.7937285,22.6680908 L18.7937285,17.4138976 L16.9132471,17.4138976 L15.0327658,17.4138976 L15.0327658,22.6680908 L15.0327658,27.9222841 L16.9132471,27.9222841 L18.7937285,27.9222841 L18.7937285,22.6680908 Z" id="Shape"></path>
                            <path d="M35.1163069,13.3606628 C34.5596844,13.1504951 34.394202,12.7751956 34.3189828,11.5892491 C34.2437635,10.133087 34.499509,9.29241605 35.0862192,9.0972603 C35.7481486,8.85706861 36.2897273,9.14229624 36.515385,9.83284735 C36.8162621,10.7185542 36.6808674,12.6851237 36.3047711,13.0604232 C35.9437187,13.4056988 35.4924032,13.5257946 35.1163069,13.3606628 Z" id="Path"></path>
                        </g>
                    </g>
                </g>
            </g>
        </g>
    </g>
</svg>