<?xml version="1.0" encoding="UTF-8"?>
<svg width="56px" height="74px" viewBox="0 0 56 74" version="1.1" xmlns="http://www.w3.org/2000/svg" xmlns:xlink="http://www.w3.org/1999/xlink">
    <title>medal</title>
    <g id="Front-Page" stroke="none" stroke-width="1" fill="none" fill-rule="evenodd">
        <g id="Landing-Page" transform="translate(-498.000000, -1991.000000)" fill="#F8B400" fill-rule="nonzero">
            <g id="medal" transform="translate(498.000000, 1991.000000)">
                <g id="Group" transform="translate(28.000000, 37.000000) scale(-1, 1) rotate(-180.000000) translate(-28.000000, -37.000000) translate(-0.000000, 0.000000)">
                    <path d="M26.9026453,73.8331126 C26.6571844,73.7608383 25.7475351,73.2838278 24.8812025,72.7489979 C24.0148698,72.2286228 23.0763428,71.7660672 22.7875652,71.7227026 C22.4987877,71.679338 21.5891384,71.7660672 20.7661224,71.8961609 C17.632886,72.4309909 16.7665533,72.0840742 14.8606215,69.5255634 C14.1819943,68.6293619 13.4744893,67.8054347 13.272345,67.7042506 C13.0702007,67.6030666 12.2183069,67.3428791 11.3664132,67.140511 C9.14282603,66.605681 8.29093226,66.1286706 7.58342726,65.0156461 C7.45347737,64.813278 7.13582206,63.8014376 6.86148339,62.7606875 C6.6015836,61.7199373 6.31280605,60.7514615 6.22617278,60.6069129 C6.13953952,60.4479094 5.34540126,59.7829857 4.45019085,59.1036071 C1.85119291,57.1522006 1.59129311,56.5017317 2.09665383,53.0181097 L2.35655362,51.1534324 L2.03889832,50.5318733 C1.86563179,50.1994114 1.37470995,49.3176648 0.941543628,48.5660119 C-0.386833099,46.2965984 -0.343516466,45.3425774 1.28807669,42.6684278 C2.41430913,40.8037504 2.41430913,40.8037504 2.08221495,38.7945244 C1.5335376,35.4699059 1.89450954,34.6026141 4.6090185,32.6512076 C5.40315677,32.0730131 6.13953952,31.4659089 6.22617278,31.2924505 C6.31280605,31.133447 6.6015836,30.1505163 6.86148339,29.124221 C7.54011063,26.4356165 8.27649338,25.5538698 10.2546196,24.9901302 C10.7599803,24.8455816 11.1642689,24.6721232 11.14983,24.6143037 C11.1353911,24.5420294 9.30165368,20.4079386 7.06362767,15.4065559 C2.65977005,5.57724904 2.77528107,5.92416576 3.61273596,5.30260664 C3.95926902,5.04241911 4.04590228,5.04241911 7.41016073,5.44715528 L10.8466136,5.85189144 L11.1787078,5.41824555 C11.3519743,5.17251288 12.2183069,3.92939465 13.1135173,2.6573667 C13.9942889,1.38533875 14.8750604,0.272314287 15.0483269,0.171130245 C15.4959321,-0.0746024275 15.9290984,-0.0601475644 16.2756315,0.243404561 C16.4344591,0.373498329 18.4270242,4.65213781 20.7083669,9.72579475 C22.9752706,14.8139066 24.8523247,19.0058169 24.8812025,19.0347266 C24.9100802,19.0636363 25.2132966,18.9046328 25.5453908,18.7022647 C27.2203006,17.6470597 28.7796994,17.6470597 30.4546092,18.7022647 C30.7867034,18.9190877 31.1187975,19.0347266 31.176553,18.9624523 C31.2343086,18.9046328 33.1113626,14.7560871 35.3493886,9.74024962 C38.1505309,3.45238417 39.5366631,0.532501823 39.7965629,0.301224013 C40.1864126,-0.0456927013 40.8072843,-0.0601475644 41.2115729,0.272314287 C41.312645,0.359043465 42.2367332,1.64552628 43.2763324,3.14883204 C44.9079255,5.49051986 45.2255808,5.86634631 45.4999195,5.82298172 C45.6876249,5.79407199 47.2181459,5.60615877 48.9074946,5.40379069 C51.1022039,5.14360315 52.0551699,5.0857837 52.2573141,5.18696774 C52.6182861,5.37488096 52.979258,5.90971089 52.979258,6.22771788 C52.979258,6.35781165 51.1599595,10.5497219 48.9363723,15.50774 C46.7127852,20.4802129 44.8934866,24.5998489 44.8934866,24.6721232 C44.8934866,24.7443975 45.2544586,24.8744913 45.6876249,24.9756753 C46.1207912,25.0768594 46.7849796,25.3659566 47.1603904,25.6116893 C48.2288673,26.3344325 48.6042781,26.9993562 49.1385166,29.124221 C49.3984164,30.1505163 49.687194,31.133447 49.7738272,31.2924505 C49.8604605,31.4659089 50.5968432,32.0730131 51.3909815,32.6512076 C54.1054905,34.6026141 54.4664624,35.4699059 53.9177851,38.7945244 C53.5856909,40.8037504 53.5856909,40.8037504 54.7119233,42.6684278 C56.3435165,45.3425774 56.3868331,46.2965984 55.0584564,48.5660119 C54.62529,49.3176648 54.1343682,50.1994114 53.9611017,50.5318733 L53.6434464,51.1534324 L53.9033462,53.0181097 C54.4087069,56.5017317 54.1488071,57.1522006 51.5498091,59.1036071 C50.6545987,59.7829857 49.8604605,60.4479094 49.7738272,60.6069129 C49.687194,60.7514615 49.3984164,61.7199373 49.1385166,62.7606875 C48.4021339,65.5938406 47.7668233,66.3310386 45.5865528,66.8947783 C44.9223644,67.0682367 43.9693985,67.3139693 43.4495989,67.458518 L42.5110719,67.7042506 L41.2115729,69.4388342 C39.2190078,72.0840742 38.3959918,72.4309909 35.2338776,71.8961609 C34.4108616,71.7660672 33.5012123,71.679338 33.2124348,71.7227026 C32.9236572,71.7660672 31.9851302,72.2286228 31.1187975,72.7489979 C29.0829158,73.9921161 28.2021443,74.208939 26.9026453,73.8331126 Z M30.0358817,70.6964073 C30.945531,70.1471225 31.9273747,69.6122926 32.24503,69.5111085 C32.8659017,69.3087404 34.2520339,69.3665599 36.1868435,69.670112 C36.9954207,69.8002058 37.5152203,69.8146606 37.77512,69.7134766 C38.0494587,69.6267474 38.6125749,69.0051883 39.4500298,67.877709 C40.1430959,66.9525978 40.966112,66.0130317 41.2548895,65.8251184 C41.5581059,65.6227503 42.6265829,65.2469239 43.6806209,64.9722815 C45.6298694,64.4663613 46.0197191,64.3218127 46.3084966,63.974896 C46.4095688,63.8592571 46.7127852,62.8907812 46.972685,61.8066665 C47.6079956,59.3059752 47.8678954,58.9156939 49.9470937,57.3834784 C50.8278653,56.7330095 51.6220035,56.0391761 51.7086368,55.836808 C51.8385867,55.5477108 51.8385867,55.1429746 51.6941979,54.0733147 C51.3909815,51.9195401 51.3476649,50.7920608 51.5209314,50.2572309 C51.6075647,49.9970433 52.1273642,48.9996578 52.6904805,48.0456368 C53.2391578,47.0916159 53.7012019,46.1665046 53.7012019,45.9785914 C53.7012019,45.602765 53.34023,44.8366572 52.6038472,43.694723 C51.333226,41.7144068 51.2032761,40.9916636 51.6075647,38.5054272 C51.8819033,36.8431179 51.8819033,36.2649234 51.6075647,35.8746421 C51.4776148,35.7011837 50.6545987,35.0073503 49.7593883,34.3424266 C47.8101399,32.8969403 47.564679,32.506659 46.9293684,29.9192385 C46.6117131,28.603846 46.3951299,28.0256514 46.149669,27.7654639 C45.9042081,27.5197312 45.2833363,27.3029083 43.911643,26.9559916 C41.3559617,26.3055227 40.9949897,26.0597901 39.5655409,24.1372933 C38.9302302,23.2700015 38.251603,22.4460743 38.0783365,22.3304354 C37.6740479,22.0413381 36.9665429,22.0413381 35.2916331,22.3159805 C32.8514628,22.7207167 32.4327354,22.6339875 30.2235871,21.2752304 C28.1010721,19.9598378 27.8989279,19.9598378 25.7764129,21.2752304 C23.5672646,22.6339875 23.1485372,22.7207167 20.7083669,22.3159805 C19.0334571,22.0413381 18.3259521,22.0413381 17.9216635,22.3304354 C17.748397,22.4460743 17.0697698,23.2700015 16.4344591,24.1372933 C15.0050103,26.0597901 14.6440383,26.3055227 12.088357,26.9559916 C10.7166637,27.3029083 10.0957919,27.5197312 9.85033102,27.7654639 C9.60487011,28.0256514 9.38828695,28.603846 9.07063164,29.9192385 C8.43532103,32.506659 8.18986012,32.8969403 6.24061166,34.3424266 C5.34540126,35.0073503 4.52238524,35.7011837 4.39243534,35.8746421 C4.11809667,36.2649234 4.11809667,36.8431179 4.39243534,38.5054272 C4.79672391,40.9916636 4.66677401,41.7144068 3.3961528,43.694723 C2.65977005,44.8366572 2.29879811,45.602765 2.29879811,45.9785914 C2.29879811,46.1665046 2.76084219,47.0916159 3.30951953,48.0456368 C3.87263575,48.9996578 4.39243534,49.9970433 4.47906861,50.2572309 C4.65233514,50.7920608 4.6090185,51.9195401 4.30580208,54.0733147 C4.1614133,55.1429746 4.1614133,55.5477108 4.2913632,55.836808 C4.37799647,56.0391761 5.17213473,56.7330095 6.05290625,57.3834784 C8.13210461,58.901239 8.3920044,59.3059752 9.02731501,61.8066665 C9.30165368,62.8907812 9.60487011,63.8737119 9.69150337,63.9893508 C9.98028092,64.3218127 10.3845695,64.4808162 12.3193791,64.9722815 C13.3734171,65.2469239 14.4418941,65.6227503 14.7451105,65.8251184 C15.033888,66.0130317 15.8569041,66.9525978 16.5499702,67.877709 C17.3874251,69.0051883 17.9505413,69.6267474 18.22488,69.7134766 C18.4847797,69.8146606 19.0045793,69.8002058 19.8131565,69.670112 C21.7479661,69.3665599 23.1340983,69.3087404 23.75497,69.5111085 C24.0726253,69.6122926 25.054469,70.1471225 25.9641183,70.6964073 C26.9315231,71.2746018 27.768978,71.679338 28,71.679338 C28.231022,71.679338 29.0684769,71.2746018 30.0358817,70.6964073 Z M46.3373744,15.6233789 C48.272184,11.3158297 49.8171439,7.75993337 49.7882661,7.71656878 C49.7449495,7.68765906 48.5465226,7.80329796 47.1026349,7.97675632 C45.1245087,8.20803413 44.4025648,8.23694385 44.142665,8.12130495 C43.9549596,8.03457577 43.1175047,6.97937076 42.2944887,5.77961713 C41.4570338,4.57986349 40.7495288,3.5969328 40.7062122,3.5969328 C40.5618234,3.61138766 33.2413125,20.147751 33.3568235,20.1911156 C33.4290179,20.2200254 34.1798396,20.1332962 35.0172944,20.0032024 C35.8691882,19.8731086 36.836593,19.7574697 37.1686872,19.7574697 L37.7895589,19.7574697 L39.7099296,15.4788303 C40.7639677,13.1226876 41.7602502,11.0267324 41.9479556,10.8388192 C42.4099997,10.3473539 43.1030658,10.3618087 43.550671,10.8821838 C43.7239376,11.0990067 43.8827652,11.4025589 43.8827652,11.5760172 C43.8827652,11.7350207 43.0308714,13.7587016 41.9912723,16.0859345 C40.9516731,18.3987126 40.0564627,20.4079386 40.0275849,20.5380323 C39.9842683,20.6681261 40.1430959,21.0294977 40.3885569,21.3330498 C40.6195789,21.6366019 41.1826951,22.4027097 41.6447392,23.0242688 C42.4677552,24.1517481 42.4821941,24.166203 42.6554606,23.8192863 C42.7565328,23.6313731 44.4025648,19.945383 46.3373744,15.6233789 Z M14.571844,22.7207167 C15.0772047,22.0124284 15.625882,21.2896852 15.8135874,21.0873171 L16.1312427,20.7259456 L14.1819943,16.3894866 C13.0413229,13.8743405 12.2183069,11.8651145 12.2183069,11.5904721 C12.1894292,10.7231803 13.0557618,10.2028052 13.8210223,10.5930865 C14.1675554,10.7809998 14.5429662,11.4892881 16.2467537,15.290917 L18.2537577,19.7574697 L18.8313128,19.7574697 C19.1489681,19.7574697 20.1452507,19.8731086 21.0404611,20.0176573 C21.9356715,20.147751 22.700932,20.2344802 22.7298097,20.1911156 C22.7875652,20.1332962 15.5248099,3.78484602 15.3659822,3.62584253 C15.3371045,3.5969328 14.802866,4.30522109 14.1819943,5.2014226 C13.5611225,6.09762411 12.8103009,7.13837426 12.5070845,7.52865556 C11.857335,8.35258276 11.9439683,8.35258276 8.59414869,7.93339173 C7.32352747,7.77438823 6.26948941,7.67320419 6.24061166,7.70211392 C6.15397839,7.7888431 13.4456115,23.9782898 13.5611225,23.9782898 C13.618878,23.9782898 14.0809221,23.4145501 14.571844,22.7207167 Z" id="Shape"></path>
                    <path d="M26.0507515,66.9525978 C20.4195893,66.2876741 15.6691986,63.8592571 12.2038681,59.8986246 C10.8032969,58.2941348 9.95140317,56.9787422 8.99843725,54.9839711 C7.48235512,51.7894464 7.00587216,49.6645815 7.00587216,46.021956 C7.00587216,43.1454382 7.17913869,41.8734103 7.95883808,39.4449933 C8.66634307,37.2189444 10.2401807,34.2701523 11.3664132,33.0559438 C12.0450404,32.3332006 13.1712728,32.6367528 13.3589782,33.5907737 C13.4311726,33.9521453 13.3012227,34.2267877 12.6081566,35.2386281 C11.0776356,37.5080416 9.96584204,40.1966462 9.50379797,42.7696118 C9.21502042,44.330737 9.25833705,47.8866333 9.56155348,49.4622134 C10.6877859,55.1140649 14.4274552,60.0865378 19.4810623,62.6450486 C22.2822045,64.0471703 24.6934971,64.6253648 27.8556112,64.6398197 C30.7433867,64.6542745 33.1979959,64.1483543 35.6959217,63.0064201 C36.9232263,62.4571353 37.2553205,62.4571353 37.7318034,63.020875 C38.4248695,63.8448022 38.1505309,64.4229967 36.7066431,65.1023753 C33.7322344,66.5189519 29.0973547,67.3284242 26.0507515,66.9525978 Z" id="Path"></path>
                    <path d="M40.3019236,61.6621179 C39.6954907,61.0261039 39.8543184,60.5057288 41.0094286,59.32043 C42.2078554,58.0773118 42.6698995,57.8315791 43.2907712,58.0917667 C43.7672542,58.2796799 44.0993484,58.9301487 43.9693985,59.4360689 C43.9260818,59.6095273 43.3774045,60.274451 42.7420939,60.8815553 C41.7746891,61.8355762 41.5292282,61.9945797 41.1105007,61.9945797 C40.7784066,61.9945797 40.5040679,61.8789408 40.3019236,61.6621179 Z" id="Path"></path>
                    <path d="M27.3502505,59.32043 C27.0325952,59.2047911 26.6138678,58.9156939 26.4117235,58.6844161 C26.2095792,58.4386834 25.4010021,56.8052839 24.6068638,55.0562454 C23.3506815,52.3098214 23.1196594,51.8761755 22.8020041,51.8183561 C22.5998598,51.7749915 20.9827056,51.5726234 19.1922847,51.3702553 C15.7847097,50.9655192 15.1638379,50.8065157 14.6729161,50.1271371 C14.3119442,49.6356718 14.1964331,48.6671959 14.4274552,48.1179111 C14.5285273,47.8721785 15.7991485,46.5712408 17.3296696,45.1402093 C18.8313128,43.7525425 20.0586174,42.5238791 20.0586174,42.4226951 C20.0586174,42.321511 19.7698398,40.7892955 19.4088679,39.0113474 C18.6724852,35.3687219 18.6291685,34.8049822 19.047896,34.1256037 C19.4233068,33.5184994 20.4773448,33.0125792 21.1126554,33.142673 C21.3725552,33.2004924 23.0185873,34.0388745 24.7801303,35.03626 L28,36.8431179 L31.2920641,34.9928954 C34.2087173,33.3594959 34.6418836,33.1571278 35.2338776,33.1715827 C36.3889878,33.1860376 37.2408816,34.0533293 37.2408816,35.2241733 C37.2408816,35.5277254 36.952104,37.2333992 36.5911321,39.0113474 C36.2301602,40.7892955 35.9413826,42.321511 35.9413826,42.4226951 C35.9413826,42.5238791 37.1686872,43.7525425 38.6703304,45.1402093 C40.1719737,46.5567859 41.4714727,47.8866333 41.5725448,48.1179111 C41.8035669,48.6671959 41.673617,49.6356718 41.3270839,50.1271371 C40.8361621,50.8065157 40.2152903,50.9655192 36.8077153,51.3702553 C35.0172944,51.5726234 33.4001402,51.7749915 33.1979959,51.8183561 C32.8803406,51.8761755 32.6348797,52.3098214 31.4075751,55.0273357 C30.6134368,56.7474644 29.8481763,58.3374993 29.6893487,58.5687772 C29.183988,59.3059752 28.2165832,59.6239822 27.3502505,59.32043 Z M29.5882765,53.3794813 C30.4257314,51.5726234 31.2343086,49.9970433 31.4075751,49.8669496 C31.653036,49.6790364 32.6060019,49.5200329 35.3493886,49.2020259 C37.3419537,48.9562932 38.9735469,48.7394703 38.9735469,48.6816508 C38.9735469,48.6382862 37.9339477,47.6409007 36.6633265,46.4700567 C33.5300901,43.5790841 33.4867734,43.5357195 33.4867734,43.0731639 C33.4867734,42.856341 33.775551,41.1940317 34.1365229,39.3582641 C34.4974949,37.5369514 34.7862724,35.9758261 34.7862724,35.8746421 C34.7862724,35.7879129 33.3423847,36.5251109 31.5808416,37.5080416 C29.8048597,38.4909723 28.2021443,39.3004446 28,39.3004446 C27.7978557,39.3004446 26.1951403,38.4909723 24.4191584,37.5080416 C22.6576153,36.5251109 21.2137276,35.7879129 21.2137276,35.8746421 C21.2137276,35.9758261 21.5025051,37.5369514 21.8634771,39.3582641 C22.224449,41.1940317 22.5132266,42.856341 22.5132266,43.0731639 C22.5132266,43.5357195 22.4699099,43.5790841 19.3366735,46.4700567 C18.0660523,47.6409007 17.0264531,48.6382862 17.0264531,48.6816508 C17.0264531,48.7394703 18.6580463,48.9562932 20.6506114,49.2020259 C23.3939981,49.5200329 24.346964,49.6790364 24.5924249,49.8669496 C24.7656914,49.9970433 25.5742686,51.5726234 26.4117235,53.3794813 C27.2347395,55.1718843 27.9422445,56.6462804 28,56.6462804 C28.0577555,56.6462804 28.7652605,55.1718843 29.5882765,53.3794813 Z" id="Shape"></path>
                    <path d="M44.9801199,55.7645337 C44.4747592,55.3742524 44.4891981,54.781603 45.0234365,53.5963043 C46.2218634,50.9366094 46.6839074,48.4214633 46.5828353,45.2269385 C46.4095688,40.2400108 44.5180758,36.0047359 40.9372342,32.5355687 C37.3419537,29.0664016 32.952535,27.3029083 27.8556112,27.2884534 C24.0581865,27.2739986 20.6506114,28.3292036 17.3296696,30.5407976 C15.9579762,31.451454 15.4814932,31.552638 14.9328159,30.9888984 C14.1819943,30.2517004 14.5429662,29.6012315 16.3622648,28.387023 C21.7190883,24.8166718 28.6353106,23.94938 34.7862724,26.0742449 C40.0131461,27.8666479 44.3159315,31.6682769 46.8427351,36.6985693 C47.4636068,37.9416875 48.3732561,40.6447469 48.6620337,42.119143 C48.9219334,43.4489904 48.9363723,48.5804668 48.6764725,49.7802204 C48.1566729,52.1508179 47.0593183,55.0851552 46.4528854,55.735624 C46.0630357,56.154815 45.4854806,56.154815 44.9801199,55.7645337 Z" id="Path"></path>
                </g>
            </g>
        </g>
    </g>
</svg>