<?xml version="1.0" encoding="UTF-8"?>
<svg width="62px" height="62px" viewBox="0 0 62 62" version="1.1" xmlns="http://www.w3.org/2000/svg" xmlns:xlink="http://www.w3.org/1999/xlink">
    <title>online</title>
    <g id="Front-Page" stroke="none" stroke-width="1" fill="none" fill-rule="evenodd">
        <g id="How-Does-It-Work" transform="translate(-588.000000, -1384.000000)" fill="#E5A500" fill-rule="nonzero">
            <g id="By-participating..." transform="translate(-902.000000, 669.000000)">
                <g id="1" transform="translate(1456.000000, 651.841103)">
                    <g id="online" transform="translate(34.000000, 63.158897)">
                        <g id="Group" transform="translate(31.000000, 31.000000) scale(-1, 1) rotate(-180.000000) translate(-31.000000, -31.000000) translate(-0.000000, -0.000000)">
                            <path d="M6.58678714,61.7997814 C6.12652462,61.7029497 5.23022394,61.3640389 4.60039103,61.06144 C3.65564166,60.6135936 3.28016435,60.3473065 2.46864886,59.5242374 C-0.123355813,56.9339905 -0.716852211,53.2785953 0.918290926,49.9015911 C2.51709755,46.5730028 6.32031937,44.7332012 10.0145316,45.4836466 C12.4854146,45.9799088 14.701942,47.6865669 15.7799252,49.9136951 C17.0032545,52.4434222 16.9911424,54.8521098 15.7678131,57.3818369 C15.3196627,58.3259456 15.0531949,58.7011683 14.2295673,59.5242374 C13.4059396,60.3473065 13.0304623,60.6135936 12.0857129,61.06144 C10.2446629,61.9571328 8.4641737,62.187108 6.58678714,61.7997814 Z M9.71172736,59.3910938 C12.9214528,58.5559208 14.8957367,55.348372 14.0963334,52.2739668 C13.5270613,50.0710465 11.9161425,48.4612202 9.71172736,47.8923341 C6.12652462,46.9603294 2.40808801,49.8894871 2.40808801,53.641714 C2.40808801,57.3939408 6.12652462,60.3230986 9.71172736,59.3910938 Z" id="Shape"></path>
                            <path d="M8.52473456,55.4815155 C8.02813553,55.1789166 7.27718091,54.3195356 7.18028353,53.9564169 C7.14394702,53.7990654 7.13183485,53.0244122 7.15605919,52.2497589 C7.19239571,50.8699077 7.20450788,50.8335958 7.53153651,50.5431009 C7.99179902,50.1436703 8.69430496,50.1436703 9.15456747,50.5431009 C9.46948393,50.8214919 9.49370827,50.9062196 9.53004478,51.9713678 C9.5663813,52.9396845 9.61482998,53.1333478 9.85707341,53.3996348 C10.5232428,54.1258723 10.5838037,54.8036939 10.0508682,55.348372 C9.62694216,55.7599066 9.06978227,55.8083224 8.52473456,55.4815155 Z" id="Path"></path>
                            <path d="M40.8157835,61.8239893 C40.1980627,61.4850785 40.2101749,61.618222 40.1980627,53.5569863 C40.1980627,47.9649579 40.2343993,45.943597 40.3434088,45.7136218 C40.6583253,45.0236962 40.3070723,45.0478 51.099017,45.0478 C61.8909617,45.0478 61.5397087,45.0236962 61.8546252,45.7136218 C61.9636347,45.943597 61.9999856,47.9770618 61.9999856,53.5327784 C61.9999856,61.6787418 62.0120834,61.5455983 61.3338018,61.8481972 C60.849315,62.0660685 41.2154851,62.0418606 40.8157835,61.8239893 Z M59.577537,56.764535 L59.577537,53.9443129 L58.0877399,55.4330997 C56.5252698,56.9945102 56.1013438,57.2486934 55.483623,57.0187182 C55.3019405,56.9581984 54.4419763,56.195649 53.5820121,55.3241641 L52.0074298,53.7627536 L51.2201387,54.5616148 C50.7841005,54.9973572 50.2753893,55.4330997 50.0937068,55.5299314 C49.3912008,55.9051541 49.1974061,55.7599066 45.8059981,52.3950064 L42.620497,49.2358734 L42.620497,54.4042633 L42.620497,59.5726532 L51.099017,59.5726532 L59.577537,59.5726532 L59.577537,56.764535 Z M59.577537,48.9574824 L59.577537,47.4686956 L58.9477041,47.4686956 L58.305759,47.4686956 L56.0407829,49.7321357 L53.7636947,52.0076797 L54.8174536,53.060724 L55.8833247,54.1258723 L57.7243747,52.2860707 L59.577537,50.4341652 L59.577537,48.9574824 Z M52.3102341,50.0710465 L54.914351,47.4686956 L49.6455564,47.4686956 L44.3767619,47.4686956 L46.9808787,50.0710465 C48.4101149,51.4993135 49.6092199,52.6733974 49.6455564,52.6733974 C49.6818929,52.6733974 50.8809979,51.4993135 52.3102341,50.0710465 Z" id="Shape"></path>
                            <path d="M29.3092207,49.7563436 C27.7346384,49.4537447 26.1842804,48.2554529 25.4817745,46.8150819 C24.9125024,45.665206 24.7792686,44.8300329 24.8398294,42.8691918 C24.9125024,41.0657021 25.1062972,40.2789448 25.7603544,39.3106282 L26.1237196,38.7659501 L25.2153067,38.3423116 C23.6165001,37.5797623 22.1509274,36.1878072 21.4120849,34.7353323 L21.1819537,34.2753819 L20.2735408,34.2753819 C19.7769418,34.2753819 19.0986602,34.2148621 18.7595194,34.1422383 C18.0206769,33.9848869 16.8336841,33.2223376 16.4460946,32.6413476 L16.1554025,32.2177091 L14.0115482,32.2177091 C11.7223478,32.2177091 10.8381593,32.0603576 10.0629803,31.5035756 C9.85707341,31.3704321 9.67539084,31.2493925 9.63905433,31.2493925 C9.60271781,31.2493925 9.40892307,31.4067439 9.20301616,31.6004072 C8.39150067,32.3629566 8.19770593,32.3992684 5.07276571,32.3992684 C1.91148898,32.3992684 1.70558207,32.3508526 0.894066583,31.5519914 C0.0825511003,30.7410263 0.0462145861,30.5594669 0.00987807192,27.0856311 C-0.0264584422,23.672315 0.00987807192,23.3818201 0.60337447,23.0792211 C1.02730047,22.8492459 1.36644127,22.8492459 1.79036727,23.0671172 C2.35963932,23.3697161 2.40808801,23.6481071 2.40808801,26.7588242 C2.40808801,29.397487 2.43231235,29.6516701 2.62610709,29.8332294 C2.81990183,30.0147888 3.1711548,30.0389967 5.09699006,30.0389967 C7.10761051,30.0389967 7.36196611,30.0147888 7.53153651,29.8211255 C7.72533125,29.6153582 7.73744342,28.6591456 7.73744342,18.6370687 C7.73744342,8.17924933 7.72533125,7.67088311 7.51942433,7.48932375 C7.32562959,7.30776439 6.97437662,7.28355647 5.04854137,7.28355647 C3.03792092,7.28355647 2.78356532,7.30776439 2.61399492,7.50142771 C2.43231235,7.69509103 2.40808801,8.09452163 2.40808801,10.5879369 C2.40808801,13.6744461 2.35963932,13.9528371 1.79036727,14.255436 C1.36644127,14.4733073 1.02730047,14.4733073 0.60337447,14.2433321 C0.00987807192,13.9407331 -0.0264584422,13.6502382 0.00987807192,10.2369221 C0.0462145861,6.77519025 0.0825511003,6.59363089 0.881954412,5.80687365 C1.56023601,5.11694807 2.31119064,4.86276496 3.65564166,4.86276496 L4.83052229,4.86276496 L4.83052229,2.92613174 C4.83052229,0.820043126 4.91530748,0.469028356 5.44824303,0.190637332 C5.94484205,-0.0635457773 11.9524791,-0.0635457773 12.4490781,0.190637332 C12.9820136,0.469028356 13.0667988,0.820043126 13.0667988,2.92613174 L13.0667988,4.86276496 L15.1137558,4.86276496 L17.1607128,4.86276496 L17.245498,3.97917605 C17.4998536,1.30420143 19.6679322,-0.390352632 22.1872639,0.142221502 C22.5869655,0.214845247 23.1441254,0.456924399 23.4953784,0.69900355 C23.8345192,0.928978744 24.1373235,1.11053811 24.1615478,1.11053811 C24.1857722,1.11053811 24.4401278,0.941082702 24.7187077,0.74741938 C27.286488,-1.11659009 30.9928125,0.856354999 30.9928125,4.07600771 L30.9928125,4.86276496 L39.9558193,4.86276496 L48.9188261,4.86276496 L48.9188261,2.92613174 C48.9188261,0.820043126 49.0036113,0.469028356 49.5365469,0.190637332 C50.0331459,-0.0635457773 56.0407829,-0.0635457773 56.5373819,0.190637332 C57.0703175,0.469028356 57.1551027,0.832147083 57.1551027,2.92613174 L57.1551027,4.83855704 L58.4632172,4.88697287 C60.3042673,4.94749266 61.0915584,5.39533909 61.7213913,6.75098234 L61.9999712,7.36828418 L61.9757469,18.7944201 C61.9394104,29.8211255 61.9272982,30.23266 61.7092791,30.6926104 C61.4064748,31.2978083 60.8372028,31.8666943 60.2315942,32.1692933 C59.8076682,32.3750605 59.4806396,32.3992684 56.9128593,32.3992684 C53.787919,32.3992684 53.5941243,32.3629566 52.7826088,31.6004072 C52.5767019,31.4067439 52.3829072,31.2493925 52.3465706,31.2493925 C52.3102341,31.2493925 52.1285516,31.3704321 51.9226446,31.5035756 C51.7288499,31.6488231 51.2322509,31.8666943 50.8325492,31.9877339 C50.178492,32.1935012 49.6576686,32.2177091 45.2246139,32.2177091 L40.3434088,32.2177091 L40.0284923,33.2223376 C39.3017621,35.5462974 37.4970485,37.5676583 35.3168577,38.4996631 C35.0019412,38.6328066 34.7475856,38.7780541 34.7475856,38.802262 C34.7475856,38.8385739 34.917156,39.1290689 35.1109508,39.4437718 C35.765008,40.4726081 35.9588028,41.3440931 35.9588028,43.2807263 C35.9588028,45.8588693 35.5954376,46.9361215 34.2994353,48.231245 C32.9792086,49.5505763 31.1260464,50.1194623 29.3092207,49.7563436 Z M31.3440655,47.2750323 C32.1555809,47.0329532 32.9428721,46.3309236 33.2941251,45.5199585 C33.5242563,44.9631764 33.5484807,44.7332012 33.5121441,43.1838946 C33.4758076,41.2835733 33.3667981,40.9204546 32.6037313,40.1700092 C31.3319533,38.8990937 29.3213328,38.9475095 28.0980035,40.2668409 C27.4560584,40.9688704 27.2380394,41.7314197 27.2380394,43.3533501 C27.2380394,45.0963199 27.4439463,45.7499337 28.2191252,46.512483 C29.1396503,47.4081758 30.1207361,47.638151 31.3440655,47.2750323 Z M33.0034329,36.6840694 C34.7354734,36.3693665 36.4432896,35.1347629 37.2548051,33.5975602 C37.957311,32.2903328 38.0178719,31.7698627 38.0178719,27.1703588 L38.0178719,23.0187013 L35.9588028,23.0187013 L33.8997336,23.0187013 L33.8997336,24.2290971 L33.8997336,25.4394928 L34.3721083,25.4394928 C35.0261656,25.4394928 35.4622037,25.8268195 35.5591011,26.4804332 C35.6075498,26.9040717 35.5712133,27.0372152 35.2805212,27.3640221 C35.0261656,27.6424131 34.7839221,27.7755567 34.4326692,27.8239725 L33.923958,27.8844923 L33.8755093,29.4822147 C33.8270606,30.9104817 33.7907241,31.1404569 33.4879198,31.7577587 C33.0639938,32.6413476 32.2767027,33.4402088 31.380402,33.8759513 L30.6900082,34.2148621 L27.3107124,34.251174 L23.9314166,34.2874858 L24.524913,34.8926837 C25.4817745,35.8731043 26.4991969,36.4298863 27.7830871,36.6961734 C28.5098174,36.8414209 32.1798053,36.8414209 33.0034329,36.6840694 Z M30.5809987,31.5398875 C30.7626812,31.4067439 31.029149,31.1404569 31.1623829,30.9588975 C31.4046263,30.6441946 31.4167385,30.4505313 31.453075,26.819344 L31.4894115,23.0187013 L24.6944834,23.0187013 L17.9116674,23.0187013 L17.9116674,26.6377846 C17.9116674,30.4021154 17.9480039,30.7047144 18.4324908,31.2372885 C19.0017628,31.8424864 19.0380993,31.8545904 24.8398294,31.8182785 C30.0965118,31.7940706 30.25397,31.7819666 30.5809987,31.5398875 Z M59.3595179,29.8332294 C59.5654248,29.6516701 59.577537,29.1433039 59.577537,18.6854845 C59.577537,8.66340764 59.5654248,7.70719499 59.3716301,7.50142771 C59.2020597,7.30776439 58.9477041,7.28355647 56.9370836,7.28355647 C55.0112484,7.28355647 54.6599954,7.30776439 54.4662006,7.48932375 C54.2602937,7.67088311 54.2481816,8.17924933 54.2481816,18.6370687 C54.2481816,28.6591456 54.2602937,29.6153582 54.4540885,29.8211255 C54.6236589,30.0147888 54.8780145,30.0389967 56.8886349,30.0389967 C58.8144702,30.0389967 59.1657231,30.0147888 59.3595179,29.8332294 Z M15.5134575,25.4879087 L15.549794,21.1788998 L15.8889348,20.8884048 C16.191739,20.6342217 16.3491973,20.5979098 17.245498,20.5979098 L18.2629204,20.5979098 L17.8389944,19.7022169 C17.5361901,19.0849151 17.3787318,18.540237 17.3302832,17.971351 L17.245498,17.1482819 L15.0047463,17.11197 C12.3158442,17.0756582 11.6496748,17.1845938 11.0077297,17.7776877 C10.1598777,18.5281331 10.1477655,18.6370687 10.184102,23.7086269 L10.2204386,28.1991952 L10.5838037,28.7317693 C10.8018228,29.0343682 11.1773001,29.3611751 11.4922165,29.5306305 C11.9767034,29.7727097 12.2068347,29.7969176 13.7571926,29.7969176 L15.4771209,29.7969176 L15.5134575,25.4879087 Z M50.5055206,29.5185265 C50.7962127,29.3611751 51.2080265,28.9980564 51.4018213,28.7196653 L51.7651864,28.1991952 L51.8015229,23.7086269 C51.8257473,19.8232565 51.8136351,19.1333309 51.6440647,18.6975885 C51.3654848,17.983455 50.6629788,17.390361 49.899912,17.2209056 C49.1005087,17.0514502 38.9868456,17.0393463 38.9868456,17.1966977 C38.9868456,17.2693215 39.156416,17.5719204 39.3623229,17.8745194 C39.580342,18.1892222 39.8831463,18.830732 40.0648289,19.3027863 L40.3797453,20.1742713 L40.4160818,24.9916464 L40.4524183,29.7969176 L45.2125017,29.7969176 C49.9604729,29.7969176 49.9725851,29.7969176 50.5055206,29.5185265 Z M23.6891731,20.0895436 C22.9503307,18.8065241 22.9503307,18.9154597 22.8776577,10.830016 C22.8170968,3.54343358 22.8170968,3.42239401 22.5627412,3.08348319 C21.9934691,2.32093387 20.8428129,2.27251804 20.1403069,2.97454757 C19.8132783,3.30135443 19.7406053,3.48291379 19.6679322,4.1365275 C19.6315957,4.57226997 19.6073714,7.86454644 19.6315957,11.4594218 C19.6679322,16.4341484 19.7042688,18.0802866 19.8253905,18.3586777 C20.4431112,19.7990486 21.6664405,20.5737019 23.3379202,20.5858058 L23.9919774,20.5979098 L23.6891731,20.0895436 Z M37.8967502,20.4526623 C37.8967502,20.1500634 37.315366,19.0728112 36.89144,18.5886528 C36.2979436,17.9108312 35.2199603,17.3661531 34.1904257,17.2088017 C33.7301632,17.1482819 32.4704974,17.0877621 31.380402,17.0877621 C30.1934092,17.0877621 29.3092207,17.0393463 29.1517624,16.9546186 C28.5946026,16.6520196 28.5703782,16.4099405 28.5703782,9.80117965 C28.5703782,3.78551273 28.558266,3.57974545 28.3281348,3.19241881 C27.8920966,2.47828531 26.8988986,2.24831012 26.1842804,2.68405259 C25.3243163,3.20452277 25.3606528,2.82930008 25.3243163,10.3458577 C25.3000919,14.6790746 25.3364284,17.3540492 25.4212136,17.7897916 C25.6634571,19.0970191 26.5597578,20.0895436 27.8073114,20.4284544 C28.6309391,20.6463256 37.8967502,20.6705336 37.8967502,20.4526623 Z M17.1849371,10.9752635 L17.1849371,7.28355647 L14.3749133,7.28355647 C11.2136366,7.28355647 10.959281,7.34407626 10.4384576,8.11872955 C10.1719899,8.50605619 10.1598777,8.63919972 10.1598777,10.9631596 C10.1598777,13.6623421 10.2204386,13.9528371 10.9471688,14.4248914 C11.2863096,14.6427627 11.5285531,14.6669706 14.2537916,14.6669706 L17.1849371,14.6669706 L17.1849371,10.9752635 Z M51.0384561,14.4248914 C51.7772986,13.977045 51.8499716,13.6381342 51.8015229,10.854224 C51.7651864,8.09452163 51.7167377,7.93717018 50.8446614,7.50142771 C50.4570719,7.29566043 49.7303416,7.28355647 40.7188861,7.28355647 L30.9928125,7.28355647 L30.9928125,10.9752635 L30.9928125,14.6669706 L40.8157835,14.6669706 C50.4570719,14.6669706 50.6508667,14.6669706 51.0384561,14.4248914 Z M10.6443646,3.6523692 L10.6443646,2.44197344 L8.94866056,2.44197344 L7.25295656,2.44197344 L7.25295656,3.6523692 L7.25295656,4.86276496 L8.94866056,4.86276496 L10.6443646,4.86276496 L10.6443646,3.6523692 Z M54.7326684,3.6523692 L54.7326684,2.44197344 L53.0369644,2.44197344 L51.3412604,2.44197344 L51.3412604,3.6523692 L51.3412604,4.86276496 L53.0369644,4.86276496 L54.7326684,4.86276496 L54.7326684,3.6523692 Z" id="Shape"></path>
                            <path d="M0.60337447,19.7022169 C-0.450384441,19.121227 -0.00223409947,17.4508808 1.19687087,17.4508808 C1.81459161,17.4508808 2.40808801,18.0439748 2.40808801,18.6491726 C2.40808801,19.5569695 1.40277778,20.1500634 0.60337447,19.7022169 Z" id="Path"></path>
                        </g>
                    </g>
                </g>
            </g>
        </g>
    </g>
</svg>