<?xml version="1.0" encoding="UTF-8"?>
<svg width="74px" height="67px" viewBox="0 0 74 67" version="1.1" xmlns="http://www.w3.org/2000/svg" xmlns:xlink="http://www.w3.org/1999/xlink">
    <title>priority</title>
    <g id="Front-Page" stroke="none" stroke-width="1" fill="none" fill-rule="evenodd">
        <g id="Landing-Page" transform="translate(-803.000000, -1995.000000)" fill="#F8B607" fill-rule="nonzero">
            <g id="Group-3" transform="translate(755.000000, 1995.000000)">
                <g id="priority" transform="translate(48.000000, 0.000000)">
                    <g id="Group" transform="translate(36.741935, 33.500000) scale(-1, 1) rotate(-180.000000) translate(-36.741935, -33.500000) ">
                        <path d="M33.5862744,66.8581959 C24.3631378,65.9882512 15.8428529,61.3390388 10.1052874,54.0372083 C8.95777424,52.5682853 7.72419764,50.6287366 6.77749932,48.7890176 L5.90252057,47.0776511 L4.22428265,47.0348669 C2.68948386,46.9778213 2.47432515,46.9350372 1.87188077,46.5927639 C1.11165333,46.1506608 0.523552858,45.4518528 0.23667458,44.610431 C-0.0788915265,43.7262249 -0.0788915265,23.2753949 0.23667458,22.3911888 C0.523552858,21.5497669 1.11165333,20.8509589 1.87188077,20.4088559 C2.47432515,20.0665826 2.68948386,20.0237985 4.22428265,19.9667529 L5.90252057,19.9239687 L6.77749932,18.2126022 C10.6647,10.6540667 17.33462,4.8211591 25.4102435,1.95462016 C29.9572642,0.343083338 34.9776341,-0.298679111 39.6824378,0.129162522 C45.4630351,0.671095257 50.5981563,2.46803012 55.4033675,5.6340582 C60.2659543,8.84287045 64.0670915,13.0785026 66.7063716,18.2126022 L67.5813504,19.9239687 L69.2595883,19.9667529 C70.7943871,20.0237985 71.0095458,20.0665826 71.6119902,20.4088559 C72.3722176,20.8509589 72.9603181,21.5497669 73.2471964,22.3911888 C73.5627625,23.2753949 73.5627625,43.7262249 73.2471964,44.610431 C72.9603181,45.4518528 72.3722176,46.1506608 71.6119902,46.5927639 C71.0095458,46.9350372 70.7943871,46.9778213 69.2595883,47.0348669 L67.5813504,47.0776511 L66.7063716,48.7890176 C62.819171,56.3618145 56.1635949,62.1661993 48.0736275,65.0469996 C43.5266068,66.6585365 38.3627978,67.3145603 33.5862744,66.8581959 Z M39.7254696,64.0201797 C46.98349,63.2500648 53.5530026,60.169605 58.5446846,55.1781193 C60.5958643,53.1244795 62.0445996,51.2277149 63.5937423,48.546574 L64.4113454,47.1204352 L59.3766316,47.0776511 L54.3275739,47.0491283 L53.6820978,47.7907204 C50.2682463,51.7981704 44.8892786,54.7074935 39.6680939,55.3920401 C37.5738825,55.6630065 35.9099885,55.6630065 33.815777,55.3920401 C28.5945924,54.7074935 23.2156247,51.7981704 19.7874292,47.7907204 L19.156297,47.0348669 L17.4063395,47.0776511 L15.656382,47.1204352 L16.6174243,48.4039601 C17.8796887,50.1010653 20.4329054,52.5825467 22.1111433,53.7947647 C23.8037251,54.9784599 27.0024179,56.6042581 28.8384389,57.188975 C33.657994,58.7292049 38.9508982,58.843296 43.4118555,57.5169869 C46.1228552,56.7040878 46.2662943,56.675565 46.7683313,56.8894858 C47.6719979,57.2602819 47.8871566,58.4724999 47.1699609,59.1427851 C46.5675165,59.6989792 43.3688237,60.6259694 40.5430727,61.0395497 C38.4488612,61.3533002 34.160031,61.2962547 32.0658195,60.9111972 C27.7483015,60.1410822 23.9041325,58.5438068 20.3898736,56.0623253 C17.822313,54.2511291 14.5088689,50.7000435 12.9023506,48.0189026 L12.328594,47.0491283 L10.6790439,47.0491283 L9.04383772,47.0491283 L9.57456254,48.0189026 C12.7589114,53.7234578 17.1338052,57.9733513 22.7566194,60.8398902 C27.820021,63.40694 34.1887188,64.6048966 39.7254696,64.0201797 Z M39.32384,52.5397626 C41.819681,52.2117507 44.659776,51.2277149 46.7109557,49.9869742 C47.6719979,49.4022573 49.479331,48.033164 49.9957119,47.4912313 L50.4260294,47.0491283 L36.7275916,47.0491283 L23.0434977,47.0633897 L23.8611008,47.8335046 C24.320106,48.2613462 25.32418,49.0171998 26.0844074,49.5163484 C30.0863594,52.1261823 34.6477241,53.1672636 39.32384,52.5397626 Z M70.3353819,43.9544071 C70.5792284,43.7404863 70.5935723,43.2270764 70.5935723,33.5293327 C70.5935723,24.2309078 70.5792284,23.3039176 70.3497258,23.0614741 C70.1345671,22.8190305 68.9009905,22.8047691 36.7706233,22.8047691 C5.9312084,22.8047691 3.39233564,22.8190305 3.1484891,23.0472127 C2.90464257,23.2611335 2.89029865,23.7745434 2.89029865,33.4722871 C2.89029865,42.7707119 2.90464257,43.6977022 3.13414519,43.9401457 C3.3493039,44.1825893 4.58288049,44.1968507 36.7132477,44.1968507 C67.5526626,44.1968507 70.0915353,44.1825893 70.3353819,43.9544071 Z M20.0312758,18.939933 C23.2299686,15.189188 28.6949998,12.2798649 33.815777,11.6095797 C35.9099885,11.3386133 37.5738825,11.3386133 39.6680939,11.6095797 C44.8892786,12.2941263 50.2539024,15.2034494 53.6964417,19.2108994 L54.3275739,19.9667529 L56.0775314,19.9239687 L57.8274889,19.8811846 L56.8664467,18.5976597 C55.6041823,16.9005545 53.0509656,14.4190731 51.3727277,13.2068551 C49.6801458,12.0231599 46.481453,10.3973617 44.645432,9.81264482 C39.825877,8.27241494 34.5329727,8.15832384 30.0720155,9.4846329 C27.3610158,10.297532 27.2175766,10.3260548 26.7155397,10.112134 C25.8118731,9.74133788 25.5967144,8.52911992 26.3139101,7.85883469 C26.9163545,7.30264057 30.1150473,6.37565036 32.9407983,5.96207012 C35.0350097,5.64831959 39.32384,5.70536514 41.4180514,6.09042261 C45.7355695,6.86053755 49.5797384,8.45781298 53.0939973,10.9392944 C55.6615579,12.7504907 58.975002,16.3015763 60.5815204,18.9969785 L61.155277,19.9524915 L62.8048271,19.9524915 L64.4400332,19.9524915 L63.9093084,18.9969785 C60.7823352,13.3779918 56.5652245,9.22792792 51.0428177,6.3328662 C41.159861,1.15598244 28.9531902,1.79774489 19.6439901,7.98718718 C15.3695038,10.8252033 12.1851549,14.3192434 9.57456254,18.9969785 L9.04383772,19.9524915 L14.1072393,19.9524915 L19.1849849,19.9524915 L20.0312758,18.939933 Z M49.9957119,19.5103885 C49.479331,18.9684558 47.6719979,17.5993625 46.7109557,17.0146456 C46.32367,16.772202 45.3913156,16.3015763 44.659776,15.9878257 C39.5820304,13.7060037 33.9018405,13.7060037 28.824095,15.9878257 C28.0925554,16.3015763 27.1745449,16.772202 26.7729153,17.0146456 C25.8118731,17.5993625 24.0045399,18.9684558 23.488159,19.5103885 L23.0578416,19.9524915 L36.7419355,19.9524915 L50.4260294,19.9524915 L49.9957119,19.5103885 Z" id="Shape"></path>
                        <path d="M49.428003,58.1631804 C49.2285773,58.0631394 48.9460575,57.7296694 48.7964883,57.412873 C48.3976369,56.579198 48.730013,55.7288495 49.594191,55.312012 C50.7408888,54.745113 51.8709677,55.4454 51.8709677,56.6959125 C51.8709677,57.9797719 50.6079383,58.7300794 49.428003,58.1631804 Z" id="Path"></path>
                        <path d="M6.69613449,38.6039 C6.51040391,38.3453913 6.48387097,37.678711 6.48387097,34.0051666 C6.48387097,31.6513771 6.53693685,29.6513363 6.59000273,29.5560962 C6.74920037,29.2975876 7.38599093,29.1071075 7.81051798,29.2023475 C8.47384148,29.324799 8.60650618,29.6785477 8.60650618,31.2295998 L8.60650618,32.6037775 L9.78722202,32.6718061 C11.1536684,32.7534404 11.8435249,33.066372 12.4935819,33.9099266 C12.8517766,34.3589154 12.9048425,34.5357897 12.9579084,35.542613 C13.0242407,36.903185 12.7589113,37.7059225 12.0425219,38.263757 C11.365932,38.7807743 10.7158749,38.9032258 8.71263794,38.9032258 C6.98799683,38.9032258 6.88186507,38.8896201 6.69613449,38.6039 Z M10.6760755,36.6718877 C11.2200008,36.0324189 11.0475367,34.7398755 10.3709467,34.426944 C10.1984826,34.3453096 9.73415614,34.277281 9.33616204,34.277281 L8.60650618,34.277281 L8.60650618,35.7194874 L8.60650618,37.1616937 L9.48209321,37.1072708 C10.2515485,37.0528479 10.4107461,36.998425 10.6760755,36.6718877 Z" id="Shape"></path>
                        <path d="M16.3686637,38.7212291 C16.2495759,38.5861725 16.2098799,37.2356062 16.2098799,33.5590646 C16.2098799,27.9617176 16.170184,28.2018182 17.2022782,28.2018182 C18.1549805,28.2018182 18.1946764,28.3068623 18.1946764,30.5277935 L18.1946764,32.4636052 L18.6313316,32.4185864 C19.0282909,32.3735675 19.1076828,32.2685234 19.8486735,30.6328376 C20.9072316,28.3068623 21.0395513,28.0967742 21.4497426,28.0967742 C22.0848775,28.0967742 22.6803164,28.6370007 22.6935484,29.2222461 C22.6935484,29.3873153 22.336285,30.2276677 21.9128618,31.0980326 L21.1321752,32.6736933 L21.6482223,33.1839073 C22.3098211,33.8141715 22.5083007,34.2643603 22.6273885,35.3148008 C22.8126362,37.0555307 22.0716455,38.406097 20.7087519,38.7362354 C19.7692816,38.9613298 16.5803753,38.9613298 16.3686637,38.7212291 Z M20.3382566,36.5453167 C20.5235043,36.3202224 20.6028961,36.0351028 20.6028961,35.5248889 C20.6028961,34.4894547 20.3250246,34.2343477 19.1738427,34.2043351 L18.2608363,34.1743226 L18.2211404,35.584914 L18.1814444,36.9955055 L19.1341467,36.9204741 C19.8354415,36.8604489 20.1397769,36.7554048 20.3382566,36.5453167 Z" id="Shape"></path>
                        <path d="M25.1862366,38.7553397 L24.8548387,38.6053965 L24.8548387,34.0798392 C24.8548387,30.6175152 24.8980645,29.5133883 25.0421505,29.4179699 C25.387957,29.145346 26.0075269,29.1044524 26.511828,29.2952891 L27.016129,29.4997571 L27.016129,33.998052 C27.016129,38.4963469 27.016129,38.4963469 26.6991398,38.7008149 C26.3245161,38.9461764 25.6473118,38.9734388 25.1862366,38.7553397 Z" id="Path"></path>
                        <path d="M31.0820565,38.6780914 C30.2715726,38.3629032 29.8933468,37.9876792 29.515121,37.1621864 C29.1909274,36.4567652 29.1774194,36.3216846 29.1774194,33.5 C29.1774194,30.828405 29.2044355,30.5132168 29.4610887,29.8828405 C29.9608871,28.6971326 30.9469758,28.0967742 32.4193548,28.0967742 C33.8917339,28.0967742 34.8778226,28.6971326 35.377621,29.8828405 C35.6342742,30.5132168 35.6612903,30.828405 35.6612903,33.5 C35.6612903,36.3216846 35.6477823,36.4567652 35.3235887,37.1771953 C34.7967742,38.3478943 33.8377016,38.9032258 32.3518145,38.9032258 C31.9465726,38.8882168 31.3657258,38.7981631 31.0820565,38.6780914 Z M32.8381048,36.8019713 C33.5135081,36.5017921 33.5540323,36.3366935 33.5675403,33.4699821 C33.5675403,31.0085125 33.5405242,30.7683692 33.297379,30.4982079 C33.1487903,30.3331093 32.878629,30.1680108 32.6895161,30.1079749 C32.2707661,29.9879032 31.5818548,30.2880824 31.40625,30.6633065 C31.3252016,30.8133961 31.2711694,32.1041667 31.2711694,33.5300179 C31.2846774,36.2916667 31.3252016,36.5017921 31.9600806,36.7869624 C32.3923387,36.9820789 32.4058468,36.9820789 32.8381048,36.8019713 Z" id="Shape"></path>
                        <path d="M38.0677473,38.6732869 C37.8532265,38.4975393 37.8225806,37.8891824 37.8225806,34.1173693 C37.8225806,31.7244986 37.8838723,29.6966421 37.945164,29.6020088 C38.2516223,29.1693995 39.6000388,29.1018042 39.9524659,29.4803374 C40.0444034,29.5749708 40.1363409,30.3996324 40.1516638,31.3324464 L40.1976325,33.0088077 L40.6726429,33.0493649 C41.1476533,33.089922 41.1782991,33.0628839 42.281549,31.1566988 C43.3541531,29.331628 43.4460906,29.2234756 43.905778,29.1829185 C44.4880488,29.1288423 45.1469342,29.4803374 45.3461321,29.9399849 C45.4687154,30.2103658 45.3461321,30.5077847 44.5646634,31.7244986 C44.0590072,32.5356412 43.6452885,33.2521505 43.6452885,33.3197457 C43.6452885,33.387341 43.8138405,33.5090124 44.0283613,33.5901266 C44.9477363,33.9551408 45.4993612,35.4016784 45.2695175,36.7941399 C45.1162883,37.6593586 44.3348196,38.4164251 43.2928614,38.6868059 C42.1742886,38.9842249 38.4048514,38.9707058 38.0677473,38.6732869 Z M42.2355802,36.9834065 C42.8025281,36.8076589 43.1089864,36.2398591 42.9710802,35.577426 C42.8331739,34.9285119 42.5420386,34.7257262 41.5920178,34.6310929 C40.2129554,34.4688644 40.1976325,34.4823835 40.1516638,35.6990974 C40.1210179,36.2939353 40.1363409,36.848216 40.1823096,36.9563684 C40.28957,37.1726731 41.5460491,37.1997112 42.2355802,36.9834065 Z" id="Shape"></path>
                        <path d="M47.8653763,38.6961592 C47.5483871,38.491649 47.5483871,38.478015 47.5483871,34.1014964 C47.5483871,31.6882759 47.6060215,29.6431737 47.6636559,29.5477356 C47.951828,29.1250812 49.0468817,29.0432771 49.5367742,29.4113955 C49.6664516,29.5068336 49.7096774,30.6111887 49.7096774,34.0878624 L49.7096774,38.6416232 L49.3350538,38.7779633 C48.8019355,38.9688395 48.24,38.9415715 47.8653763,38.6961592 Z" id="Path"></path>
                        <path d="M52.0958271,38.6194254 C51.7729916,38.1968461 51.8023402,37.6106877 52.1545245,37.2835296 C52.389314,37.0654241 52.6387778,37.0108978 53.4752154,37.0108978 L54.5024194,37.0108978 L54.5024194,33.4121579 C54.5024194,31.4355773 54.5464425,29.7179969 54.5904655,29.5953126 C54.7078602,29.2954176 55.5149491,29.0909437 56.0432255,29.213628 C56.791617,29.4044703 56.8503144,29.6634705 56.8503144,33.507579 L56.8503144,37.0108978 L57.7894724,37.0108978 C58.9927685,37.0108978 59.1541863,37.0790557 59.3449528,37.6379509 C59.4770219,37.9923723 59.4623475,38.1832145 59.3156041,38.4694779 L59.1248376,38.8511625 L55.7203899,38.8920572 C52.345291,38.9193204 52.3159423,38.9193204 52.0958271,38.6194254 Z" id="Path"></path>
                        <path d="M60.9618952,38.6313096 C60.6917339,38.4681599 60.516129,38.250627 60.516129,38.0874773 C60.516129,37.9379234 61.1239919,36.8094713 61.8669355,35.5722527 L63.2177419,33.34254 L63.2177419,31.5750849 C63.2177419,30.0659501 63.2582661,29.7804381 63.4743952,29.508522 C63.7985887,29.1006477 64.6766129,29.0598603 65.0953629,29.4405429 C65.3520161,29.6852675 65.3790323,29.8484172 65.3790323,31.5071058 L65.3790323,33.3153484 L66.7298387,35.5722527 C67.4727823,36.8094713 68.0806452,37.9515192 68.0806452,38.1010731 C68.0806452,38.4137767 67.3512097,38.9032258 66.8514113,38.9032258 C66.3921371,38.9032258 66.2570565,38.7264803 65.2304435,36.8366629 C64.7576613,35.9529353 64.3389113,35.2323574 64.2983871,35.2323574 C64.2578629,35.2323574 63.8391129,35.9529353 63.3663306,36.8366629 C62.8935484,37.7067946 62.4207661,38.536139 62.2991935,38.6720971 C62.0290323,38.9848007 61.5022177,38.9712049 60.9618952,38.6313096 Z" id="Path"></path>
                        <path d="M23.5766382,12.7472034 C22.9434795,12.4858243 22.6935484,12.0610833 22.6935484,11.2769461 C22.6935484,10.0517318 24.1931349,9.30026701 25.2761697,9.98638704 C26.2925561,10.6398347 26.0926113,12.28979 24.9595903,12.7472034 C24.2597832,13.0412548 24.2431212,13.0412548 23.5766382,12.7472034 Z" id="Path"></path>
                    </g>
                </g>
            </g>
        </g>
    </g>
</svg>