<?xml version="1.0" encoding="UTF-8"?>
<svg width="75px" height="76px" viewBox="0 0 75 76" version="1.1" xmlns="http://www.w3.org/2000/svg" xmlns:xlink="http://www.w3.org/1999/xlink">
    <title>search</title>
    <g id="Front-Page" stroke="none" stroke-width="1" fill="none" fill-rule="evenodd">
        <g id="How-Does-It-Work" transform="translate(-797.000000, -2177.000000)" fill="#E7A600" fill-rule="nonzero">
            <g id="Step-3" transform="translate(754.000000, 2177.000000)">
                <g id="search" transform="translate(43.000000, -0.000000)">
                    <g id="Group" transform="translate(37.500000, 37.543259) scale(-1, 1) rotate(-180.000000) translate(-37.500000, -37.543259) translate(0.000000, -0.000000)">
                        <path d="M2.19941349,74.8959019 C1.49560117,74.6759606 0.351906158,73.50294 0.161290323,72.7991277 C0.0586510264,72.4472216 0,70.3504474 0,67.2272802 C0,62.3885705 0.0146627566,62.2126174 0.307917889,61.8313858 C0.718475073,61.3035265 1.48093842,61.3035265 1.8914956,61.8313858 C2.18475073,62.2126174 2.19941349,62.3885705 2.19941349,67.1979547 L2.19941349,72.1686292 L2.5659824,72.5205353 L2.91788856,72.8871042 L21.1143695,72.8871042 L39.2961877,72.8871042 L39.2961877,67.5058726 C39.2961877,64.1481013 39.3548387,61.9046996 39.457478,61.5527934 C39.6480938,60.8343183 40.5278592,59.8665764 41.2756598,59.529333 C41.8035191,59.2800661 42.3607038,59.2507406 47.4046921,59.2507406 L52.9325513,59.2507406 L52.9325513,55.8636438 C52.9325513,52.6964884 52.9178886,52.4765471 52.6832845,52.5791864 C51.9941349,52.843116 50.2346041,53.2683359 49.0469208,53.4589518 C47.9472141,53.6349048 45.4545455,53.6788931 34.4281525,53.6788931 L21.1290323,53.6788931 L20.8357771,53.2976614 C20.4545455,52.8137905 20.4398827,52.3445823 20.8064516,51.9046996 L21.085044,51.5527934 L28.973607,51.4794796 L36.8768328,51.4061658 L35.8504399,50.7903301 C35.2785924,50.4677494 34.340176,49.7785999 33.7683284,49.2947289 L32.6979472,48.4003007 L27.1260997,48.4003007 C22.5073314,48.4003007 21.4662757,48.3563125 21.1290323,48.1803594 C20.4398827,47.8284532 20.3079179,47.0366644 20.8651026,46.5234679 C21.202346,46.2008872 21.2756598,46.2008872 25.9384164,46.2008872 L30.6744868,46.2008872 L30.4398827,45.8783066 C29.0909091,43.9574855 27.8592375,41.3915031 27.3313783,39.3533799 L27.0674487,38.2829987 L24.1495601,38.2829987 C21.2609971,38.2829987 21.2463343,38.2829987 20.8944282,37.9164298 C20.4252199,37.4618843 20.4252199,36.9046996 20.8944282,36.4501541 C21.2463343,36.0835852 21.2756598,36.0835852 23.973607,36.0835852 L26.686217,36.0835852 L26.686217,34.470682 L26.686217,32.8577787 L23.914956,32.8577787 L21.1290323,32.8577787 L20.8357771,32.4765471 C20.4545455,31.9926761 20.4398827,31.5234679 20.8064516,31.0835852 C21.085044,30.7463418 21.1583578,30.731679 24.0615836,30.6583652 L27.0381232,30.5850515 L27.1554252,29.9985412 C27.5366569,28.1070456 28.7243402,25.3944356 29.9560117,23.5469283 L30.6451613,22.5205353 L25.9237537,22.4765471 C21.3196481,22.4472216 21.1876833,22.4325588 20.8651026,22.1246409 C20.3079179,21.6114444 20.4398827,20.8196556 21.1290323,20.4677494 C21.4662757,20.2917963 22.5219941,20.2478081 27.170088,20.2478081 C32.6979472,20.2478081 32.8005865,20.2478081 33.0791789,19.9398902 C33.4897361,19.4853447 35.2932551,18.1510339 36.2170088,17.6378374 L37.0234604,17.1686292 L29.1348974,17.1686292 L21.2463343,17.1686292 L20.8944282,16.8020603 C20.4545455,16.3621776 20.4252199,15.8636438 20.8357771,15.3504474 L21.1290323,14.9692157 L34.3108504,14.9692157 C42.9618768,14.9692157 47.8739003,15.0278667 48.6217009,15.130506 C49.5894428,15.2624708 51.3196481,15.673028 52.6099707,16.0689224 L52.9325513,16.1715617 L52.9325513,9.5586585 L52.9325513,2.93109252 L52.5659824,2.57918636 L52.2140762,2.21261745 L27.5659824,2.21261745 L2.91788856,2.21261745 L2.5659824,2.57918636 L2.19941349,2.93109252 L2.19941349,30.7023535 C2.19941349,57.6231746 2.18475073,58.4882773 1.92082111,58.8255207 C1.53958944,59.2947289 0.659824047,59.2947289 0.278592375,58.8255207 C0.0146627566,58.4882773 0,57.6231746 0,30.7023535 C0,9.2214151 0.0439882698,2.7698022 0.175953079,2.30059399 C0.410557185,1.50880513 1.49560117,0.423761141 2.28739003,0.189157035 C3.09384164,-0.0454470706 51.9794721,-0.0747725838 52.829912,0.174494278 C53.1378299,0.262470818 53.6510264,0.570388707 53.973607,0.848981082 C55.1026393,1.87537404 55.0439883,1.42082859 55.1319648,9.74927434 L55.2052786,17.2272802 L55.9237537,17.6525001 L56.6422287,18.0630573 L57.9618768,16.758072 C59.1202346,15.5850515 59.2521994,15.4090984 59.1055718,15.1451688 C58.6656891,14.3387172 58.7536657,14.2214151 62.5806452,10.3944356 C64.5747801,8.38563797 66.5395894,6.52346789 66.9354839,6.24487551 C69.5601173,4.44135645 73.255132,5.45308665 74.6041056,8.3416497 C74.941349,9.04546202 75,9.38270542 75,10.4970749 C75,12.6964884 74.8093842,12.9750808 70.2052786,17.5791864 C66.8768328,20.8783066 66.2756598,21.4208286 65.9090909,21.4208286 C65.659824,21.4208286 65.3665689,21.3475148 65.2492669,21.274201 C65.0733138,21.1715617 64.7214076,21.4354913 63.6950147,22.4618843 L62.3607038,23.7961952 L62.9178886,24.7785999 C64.516129,27.4912098 65.8504399,32.7991277 65.2052786,33.7961952 C64.6041056,34.7052861 63.2111437,34.2067523 63.1964809,33.0630573 C63.1964809,32.7991277 63.0938416,32.0513271 62.9765396,31.3768403 C61.3782991,22.784465 53.9002933,16.7873975 45.2785924,17.2126174 C40.9090909,17.417896 37.170088,19.045462 34.0762463,22.0806526 C31.3049853,24.8079254 29.7067449,27.843116 29.1055718,31.5381306 C28.4017595,35.8929694 29.3548387,40.2624708 31.8181818,43.9428227 C32.8152493,45.4237611 34.941349,47.5498608 36.4222874,48.5469283 C43.4457478,53.2536732 52.6979472,52.2272802 58.5190616,46.0982479 C60.7038123,43.8108579 62.1260997,41.156899 62.8445748,38.0044063 C62.9765396,37.4765471 63.1818182,36.9193623 63.2991202,36.7873975 C63.6363636,36.4208286 64.4428152,36.4501541 64.8240469,36.8313858 C65.1026393,37.1099781 65.1319648,37.2566057 65.0439883,38.0190691 C64.941349,39.0747875 64.1348974,41.5527934 63.4750733,42.8577787 C61.8475073,46.0982479 59.2815249,48.92816 56.2463343,50.8196556 L55.1319648,51.5088051 L55.1319648,56.1422362 L55.1319648,60.7903301 L47.9765396,67.9310925 L40.8357771,75.0865177 L21.7741935,75.071855 C8.25513196,75.0571922 2.5659824,75.013204 2.19941349,74.8959019 Z M46.4809384,66.3621776 L51.3929619,61.4501541 L46.8035191,61.4501541 L42.2140762,61.4501541 L41.8621701,61.816723 L41.4956012,62.1686292 L41.4956012,66.7287465 C41.4956012,69.2214151 41.5102639,71.274201 41.5395894,71.274201 C41.5542522,71.274201 43.7829912,69.0601248 46.4809384,66.3621776 Z M62.2434018,20.6876908 L63.4164223,19.5146702 L62.1260997,18.2243477 L60.8504399,16.9486878 L59.6480938,18.1510339 L58.4457478,19.3533799 L59.6920821,20.5997142 C60.3665689,21.2888638 60.9530792,21.8460485 60.9970674,21.8607113 C61.0410557,21.8607113 61.5982405,21.332852 62.2434018,20.6876908 Z M69.2228739,15.4530867 C72.6979472,11.9340251 72.8739003,11.6847582 72.8739003,10.4090984 C72.8592375,8.95748548 71.3489736,7.49120982 69.8680352,7.49120982 C68.797654,7.49120982 68.4750733,7.74047668 64.9853372,11.2008872 L61.5835777,14.6026468 L63.6656891,16.6847582 C64.8240469,17.843116 65.7917889,18.7815324 65.8504399,18.7815324 C65.8944282,18.7815324 67.4193548,17.2859312 69.2228739,15.4530867 Z" id="Shape"></path>
                        <path d="M9.16422287,54.6319723 C8.4457478,54.3827054 7.84457478,53.7228814 7.63929619,52.9897435 C7.55131965,52.6818257 7.47800587,51.274201 7.47800587,49.8665764 C7.49266862,46.5234679 7.69794721,45.9076321 9.01759531,45.3064591 C9.51612903,45.071855 10,45.0278667 12.3167155,45.0278667 C13.8123167,45.0278667 15.2639296,45.1011805 15.5718475,45.1744943 C16.2316716,45.3651101 17.111437,46.3035265 17.228739,46.9780133 C17.28739,47.241943 17.3020528,48.7522069 17.2727273,50.3357846 L17.228739,53.1950221 L16.8035191,53.7375441 C16.0557185,54.7199488 15.5571848,54.8519136 12.4633431,54.8372509 C10.5131965,54.8372509 9.58944282,54.7785999 9.16422287,54.6319723 Z M15.0293255,49.9398902 L15.0293255,47.300594 L12.4780059,47.2566057 C10.5278592,47.2272802 9.8973607,47.2712685 9.79472141,47.4032333 C9.60410557,47.7258139 9.64809384,52.2712685 9.85337243,52.4765471 C9.98533724,52.6085119 10.7184751,52.6525001 12.5366569,52.6231746 L15.0293255,52.5791864 L15.0293255,49.9398902 Z" id="Shape"></path>
                        <path d="M44.5747801,48.6055793 C37.5366569,47.7404767 32.3167155,42.3299195 31.744868,35.2771336 C31.568915,33.1950221 32.1554252,29.8812391 32.8005865,29.4120309 C33.3577713,28.986811 34.1055718,29.1774268 34.3841642,29.8079254 C34.5307918,30.1744943 34.516129,30.4237611 34.2668622,31.3621776 C33.856305,32.9897435 33.8709677,35.7463418 34.2961877,37.3299195 C35.4545455,41.6554327 38.7096774,44.9105647 43.0351906,46.0689224 C44.8387097,46.5527934 47.5659824,46.5234679 49.3108504,45.9956086 C52.8592375,44.9252274 55.5131965,42.6818257 57.0234604,39.4413564 C57.8739003,37.6231746 58.1231672,36.4941424 58.1231672,34.3240544 C58.1231672,32.1539664 57.8739003,31.0249342 57.0234604,29.2067523 C55.5131965,25.9809459 52.8445748,23.7082186 49.3108504,22.6525001 C48.1964809,22.3152567 47.7565982,22.2566057 46.1143695,22.2566057 C42.3900293,22.2566057 39.7653959,23.4003007 37.1407625,26.1715617 C36.2316716,27.1246409 35.8357771,27.4325588 35.5571848,27.4325588 C34.6480938,27.4325588 34.1642229,26.7434092 34.516129,25.9222949 C34.8240469,25.189157 36.7888563,23.2829987 38.1671554,22.3739078 C40.7478006,20.7023535 42.9912023,20.0425295 46.1143695,20.0569536 C47.8445748,20.0569536 48.4017595,20.130506 49.6334311,20.4530867 C55.3958944,21.9633506 59.6334311,26.8607113 60.2932551,32.7698022 C61.2170088,41.0102714 54.9560117,48.2829987 46.6568915,48.6055793 C45.7917889,48.6349048 44.8533724,48.6349048 44.5747801,48.6055793 Z" id="Path"></path>
                        <path d="M49.1935484,40.189157 C48.8709677,40.0278667 47.7565982,39.045462 46.7155425,38.0044063 L44.8240469,36.1129107 L44.1055718,36.6847582 C42.9178886,37.6231746 41.6568915,37.7991277 40.3958944,37.1979547 C40,37.0073389 39.516129,36.699421 39.340176,36.5088051 C38.8709677,35.9809459 38.4164223,34.9105647 38.4164223,34.2654034 C38.4164223,33.0190691 38.6656891,32.5938491 40.6744868,30.5410632 C42.8152493,28.3709752 43.1671554,28.0923828 44.2521994,27.8577787 C44.8680352,27.7258139 45.1612903,27.7404767 45.8504399,27.9457553 C46.6715543,28.1803594 46.8181818,28.3123242 50,31.5674562 C51.8181818,33.4296262 53.4164223,35.1158433 53.5483871,35.3211218 C54.2375367,36.3621776 54.1495601,38.0630573 53.372434,39.1334386 C52.4926686,40.3504474 50.5131965,40.8489811 49.1935484,40.189157 Z M51.4222874,37.960418 C51.8768328,37.4618843 51.9354839,37.0806526 51.6422287,36.5674562 C51.3196481,35.9516204 45.6304985,30.2184825 45.1906158,30.0571922 C44.6187683,29.8372509 44.0029326,30.2478081 42.2580645,32.0366644 C40.4398827,33.8695089 40.2785924,34.2214151 40.9824047,34.9692157 C41.568915,35.5997142 42.0527859,35.4970749 43.2111437,34.4560192 C44.3548387,33.4296262 44.6480938,33.2829987 45.1612903,33.4589518 C45.3665689,33.5322655 46.5542522,34.646635 47.8005865,35.9369576 C49.9120235,38.1217084 50.1173021,38.2829987 50.601173,38.2829987 C50.9530792,38.2829987 51.2170088,38.1803594 51.4222874,37.960418 Z" id="Shape"></path>
                        <path d="M8.81231672,39.0014738 C7.65395894,38.2976614 7.47800587,37.6818257 7.47800587,34.4413564 C7.47800587,31.816723 7.59530792,31.1862245 8.16715543,30.4970749 C8.84164223,29.7052861 9.20821114,29.6319723 12.4926686,29.6319723 C15.3079179,29.6319723 15.4985337,29.6612978 16.0410557,29.9692157 C16.4076246,30.1744943 16.744868,30.5410632 16.9648094,30.9369576 C17.28739,31.5527934 17.3020528,31.7287465 17.3020528,34.4560192 C17.3020528,37.6964884 17.170088,38.2390104 16.2609971,38.8841717 C15.7771261,39.2214151 15.6744868,39.2360779 12.5366569,39.2800661 C9.47214076,39.3093916 9.28152493,39.2947289 8.81231672,39.0014738 Z M15.0293255,34.470682 L15.0293255,31.9046996 L12.3900293,31.9046996 L9.75073314,31.9046996 L9.70674487,34.3240544 C9.69208211,35.6437025 9.70674487,36.816723 9.75073314,36.9193623 C9.79472141,37.0806526 10.3812317,37.1099781 12.4193548,37.0806526 L15.0293255,37.0366644 L15.0293255,34.470682 Z" id="Shape"></path>
                        <path d="M9.01759531,23.3416497 C7.69794721,22.7404767 7.49266862,22.1246409 7.47800587,18.7815324 C7.47800587,15.8929694 7.59530792,15.2624708 8.26979472,14.587984 C8.97360704,13.8841717 9.63343109,13.7668696 12.7419355,13.8255207 C15.7917889,13.8695089 16.085044,13.9574855 16.8181818,14.9252274 L17.228739,15.4530867 L17.2727273,18.3123242 C17.3020528,19.8959019 17.28739,21.4061658 17.228739,21.6700955 C17.111437,22.3445823 16.2316716,23.2829987 15.5718475,23.4736145 C15.2639296,23.5469283 13.8123167,23.6202421 12.3167155,23.6202421 C10,23.6202421 9.51612903,23.5762538 9.01759531,23.3416497 Z M15.0293255,18.7082186 L15.0293255,16.0689224 L12.5513196,16.0249342 C10.8504399,15.9956086 10.0146628,16.0395969 9.88269795,16.156899 C9.72140762,16.2888638 9.67741935,16.8460485 9.67741935,18.6349048 C9.67741935,19.9105647 9.72140762,21.0689224 9.76539589,21.1862245 C9.85337243,21.3915031 10.1759531,21.4208286 12.4486804,21.3915031 L15.0293255,21.3475148 L15.0293255,18.7082186 Z" id="Shape"></path>
                    </g>
                </g>
            </g>
        </g>
    </g>
</svg>