<?xml version="1.0" encoding="UTF-8"?>
<svg width="77px" height="75px" viewBox="0 0 77 75" version="1.1" xmlns="http://www.w3.org/2000/svg" xmlns:xlink="http://www.w3.org/1999/xlink">
    <title>image0</title>
    <g id="Front-Page" stroke="none" stroke-width="1" fill="none" fill-rule="evenodd">
        <g id="How-Does-It-Work" transform="translate(-754.000000, -3236.000000)" fill="#E7A600" fill-rule="nonzero">
            <g id="Step-14" transform="translate(674.000000, 3236.000000)">
                <g id="image0" transform="translate(80.000000, 0.000000)">
                    <g id="Group" transform="translate(38.500000, 37.415493) scale(-1, 1) rotate(-180.000000) translate(-38.500000, -37.415493) translate(0.000000, 0.000000)">
                        <path d="M27.0042254,70.6014085 C23.1,66.6971831 22.7746479,65.9380282 22.7746479,60.0816901 C22.7746479,54.1169014 22.9915493,53.6830986 27.6549296,49.128169 C30.3661972,46.6338028 32.5352113,43.4887324 32.5352113,42.2957746 C32.5352113,39.3676056 34.4873239,39.584507 35.0295775,42.6211268 C35.3549296,44.356338 35.571831,44.0309859 35.6802817,41.5366197 C35.7887324,39.1507042 36.3309859,37.9577465 37.415493,37.9577465 C38.5,37.9577465 39.0422535,39.1507042 39.1507042,41.5366197 C39.2591549,43.3802817 39.4760563,44.1394366 39.8014085,43.1633803 C40.4521127,40.7774648 42.2957746,40.5605634 42.2957746,42.8380282 C42.2957746,43.8140845 44.4647887,46.6338028 47.1760563,49.128169 C51.8394366,53.6830986 52.056338,54.1169014 52.056338,60.0816901 C52.056338,65.9380282 51.7309859,66.6971831 47.8267606,70.6014085 C43.9225352,74.5056338 43.1633803,74.8309859 37.415493,74.8309859 C31.6676056,74.8309859 30.9084507,74.5056338 27.0042254,70.6014085 Z M43.3802817,71.0352113 C47.284507,68.9746479 49.8873239,64.3112676 49.8873239,59.2140845 C49.8873239,56.3943662 48.9112676,54.4422535 46.2,51.6225352 C43.0549296,48.1521127 41.9704225,47.7183099 37.415493,47.7183099 C32.8605634,47.7183099 31.7760563,48.1521127 28.6309859,51.6225352 C18.7619718,62.0338028 30.6915493,77.6507042 43.3802817,71.0352113 Z" id="Shape"></path>
                        <path d="M33.0774648,70.6014085 C26.028169,67.5647887 24.184507,57.8042254 29.6070423,52.3816901 C31.9929577,49.9957746 33.6197183,49.3450704 37.415493,49.3450704 C51.0802817,49.3450704 52.4901408,69.3 38.9338028,71.0352113 C36.9816901,71.3605634 34.2704225,71.143662 33.0774648,70.6014085 Z M43.9225352,66.1549296 C49.0197183,61.0577465 44.8985915,51.6225352 37.5239437,51.6225352 C30.9084507,51.6225352 26.6788732,57.9126761 29.4985915,63.7690141 C32.3183099,69.5169014 39.2591549,70.6014085 43.9225352,66.1549296 Z" id="Shape"></path>
                        <path d="M34.9211268,64.8535211 C32.9690141,62.9014085 33.2943662,61.0577465 36.0056338,59.2140845 L38.3915493,57.4788732 L36.0056338,57.4788732 C32.9690141,57.4788732 32.8605634,55.743662 35.7887324,54.7676056 C38.2830986,54.0084507 41.2112676,55.8521127 41.2112676,58.1295775 C41.2112676,58.8887324 40.1267606,60.2985915 38.8253521,61.1661972 L36.4394366,62.9014085 L38.8253521,62.9014085 C41.5366197,62.9014085 41.9704225,64.528169 39.4760563,65.5042254 C37.0901408,66.371831 36.4394366,66.371831 34.9211268,64.8535211 Z" id="Path"></path>
                        <path d="M15.7253521,32.2098592 C8.78450704,27.4380282 5.85633803,24.7267606 5.63943662,22.8830986 C5.0971831,19.4126761 6.94084507,17.6774648 9.21830986,19.5211268 C10.628169,20.7140845 10.8450704,19.9549296 10.8450704,13.1225352 L10.8450704,5.42253521 L5.42253521,5.42253521 C0.325352113,5.42253521 0,5.2056338 0,2.71126761 L0,0 L38.5,0 L77,0 L77,2.71126761 C77,5.31408451 76.6746479,5.42253521 70.4929577,5.42253521 L63.9859155,5.42253521 L63.9859155,13.1225352 C63.9859155,19.7380282 64.2028169,20.7140845 65.6126761,19.5211268 C69.4084507,16.3760563 71.0352113,23.2084507 67.2394366,26.5704225 C65.9380282,27.7633803 65.0704225,29.9323944 65.0704225,32.2098592 C65.0704225,35.571831 64.8535211,35.7887324 61.3830986,35.7887324 C59.3225352,35.7887324 57.4788732,35.2464789 57.2619718,34.7042254 C57.0450704,34.0535211 55.0929577,34.8126761 52.9239437,36.3309859 C48.9112676,39.0422535 48.6943662,39.0422535 45.9830986,37.1985915 C44.2478873,36.1140845 41.5366197,35.4633803 39.2591549,35.6802817 C37.1985915,35.7887324 35.1380282,35.4633803 34.8126761,34.8126761 C34.2704225,34.0535211 32.643662,34.5957746 30.1492958,36.3309859 C27.871831,37.8492958 26.028169,39.0422535 25.8112676,39.0422535 C25.5943662,38.9338028 21.1478873,35.8971831 15.7253521,32.2098592 Z M34.4873239,30.1492958 C44.356338,23.6422535 43.8140845,23.9676056 43.271831,23.3169014 C42.9464789,23.1 39.0422535,25.3774648 34.3788732,28.4140845 L26.028169,33.9450704 L17.6774648,28.4140845 C13.0140845,25.3774648 9.00140845,23.1 8.67605634,23.4253521 C8.45915493,23.7507042 8.89295775,24.4014085 9.76056338,24.943662 C10.628169,25.4859155 14.5323944,28.0887324 18.4366197,30.8 C22.3408451,33.5112676 25.5943662,35.6802817 25.8112676,35.6802817 C26.028169,35.7887324 29.9323944,33.2943662 34.4873239,30.1492958 Z M57.2619718,30.1492958 C67.1309859,23.6422535 66.5887324,23.9676056 66.0464789,23.3169014 C65.7211268,23.1 61.8169014,25.3774648 57.1535211,28.4140845 C49.128169,33.728169 48.8028169,33.8366197 46.2,32.1014085 C42.0788732,29.4985915 41.3197183,30.0408451 45.0070423,33.0774648 C46.8507042,34.5957746 48.3690141,35.7887324 48.5859155,35.7887324 C48.8028169,35.7887324 52.7070423,33.2943662 57.2619718,30.1492958 Z M40.1267606,31.884507 C40.1267606,30.0408451 37.7408451,30.3661972 37.0901408,32.3183099 C36.8732394,33.0774648 37.415493,33.6197183 38.3915493,33.6197183 C39.3676056,33.6197183 40.1267606,32.8605634 40.1267606,31.884507 Z M62.9014085,31.884507 C62.9014085,30.0408451 60.515493,30.3661972 59.8647887,32.3183099 C59.6478873,33.0774648 60.1901408,33.6197183 61.1661972,33.6197183 C62.1422535,33.6197183 62.9014085,32.8605634 62.9014085,31.884507 Z M32.7521127,26.3535211 L39.0422535,22.2323944 L38.8253521,14.0985915 L38.5,5.96478873 L31.2338028,5.63943662 L23.9676056,5.31408451 L23.6422535,11.0619718 L23.3169014,16.8098592 L19.3042254,17.1352113 L15.1830986,17.4605634 L15.1830986,12.0380282 C15.1830986,9.00140845 14.7492958,6.50704225 14.0985915,6.50704225 C13.4478873,6.50704225 13.0140845,9.86901408 13.0140845,14.4239437 L13.0140845,22.2323944 L19.3042254,26.2450704 C22.6661972,28.5225352 25.7028169,30.3661972 25.9197183,30.3661972 C26.2450704,30.3661972 29.2816901,28.5225352 32.7521127,26.3535211 Z M55.5267606,26.3535211 L61.8169014,22.2323944 L61.6,14.0985915 L61.2746479,5.96478873 L51.2971831,5.63943662 L41.2112676,5.31408451 L41.2112676,13.1225352 C41.2112676,19.7380282 41.428169,20.7140845 42.8380282,19.5211268 C43.7056338,18.8704225 44.8985915,18.5450704 45.5492958,18.9788732 C47.0676056,19.9549296 46.9591549,24.184507 45.3323944,25.9197183 C44.1394366,27.0042254 44.356338,27.5464789 45.9830986,28.8478873 C48.8028169,30.8 48.2605634,31.0169014 55.5267606,26.3535211 Z M20.6056338,10.3028169 C20.6056338,6.72394366 20.171831,5.42253521 18.9788732,5.42253521 C17.7859155,5.42253521 17.3521127,6.72394366 17.3521127,10.3028169 C17.3521127,13.8816901 17.7859155,15.1830986 18.9788732,15.1830986 C20.171831,15.1830986 20.6056338,13.8816901 20.6056338,10.3028169 Z M56.1774648,2.4943662 C46.0915493,2.27746479 29.8239437,2.27746479 19.8464789,2.4943662 C9.76056338,2.6028169 18.0028169,2.81971831 37.9577465,2.81971831 C57.9126761,2.81971831 66.1549296,2.6028169 56.1774648,2.4943662 Z" id="Shape"></path>
                        <path d="M23.5338028,26.3535211 C22.1239437,25.0521127 22.7746479,20.8225352 24.5098592,20.171831 C26.7873239,19.3042254 26.6788732,19.3042254 28.6309859,21.256338 C29.9323944,22.5577465 30.0408451,23.4253521 29.2816901,25.0521127 C28.1971831,27.1126761 24.943662,27.871831 23.5338028,26.3535211 Z M27.1126761,23.8591549 C27.1126761,23.3169014 26.6788732,22.7746479 26.028169,22.7746479 C25.4859155,22.7746479 24.943662,23.3169014 24.943662,23.8591549 C24.943662,24.5098592 25.4859155,24.943662 26.028169,24.943662 C26.6788732,24.943662 27.1126761,24.5098592 27.1126761,23.8591549 Z" id="Shape"></path>
                        <path d="M24.943662,13.556338 L24.943662,9.76056338 L30.9084507,9.76056338 L36.8732394,9.76056338 L36.8732394,13.556338 L36.8732394,17.3521127 L30.9084507,17.3521127 L24.943662,17.3521127 L24.943662,13.556338 Z M34.7042254,13.556338 C34.7042254,12.471831 33.5112676,11.9295775 30.9084507,11.9295775 C27.3295775,11.9295775 26.2450704,12.7971831 27.871831,14.4239437 C29.2816901,15.9422535 34.7042254,15.1830986 34.7042254,13.556338 Z" id="Shape"></path>
                    </g>
                </g>
            </g>
        </g>
    </g>
</svg>