<?xml version="1.0" encoding="UTF-8"?>
<svg width="75px" height="76px" viewBox="0 0 75 76" version="1.1" xmlns="http://www.w3.org/2000/svg" xmlns:xlink="http://www.w3.org/1999/xlink">
    <title>Icon</title>
    <g id="Front-Page" stroke="none" stroke-width="1" fill="none" fill-rule="evenodd">
        <g id="How-Does-It-Work" transform="translate(-490.000000, -2177.000000)" fill="#E7A600" fill-rule="nonzero">
            <g id="Step-2" transform="translate(455.000000, 2177.000000)">
                <g id="Icon" transform="translate(72.500000, 37.553568) scale(-1, 1) rotate(-180.000000) translate(-72.500000, -37.553568) translate(35.000000, 0.000000)">
                    <path d="M21.8289234,75.0568067 C11.088669,73.9055241 2.4843466,66.0283276 0.363562917,55.4092608 C-0.121187639,52.9703595 -0.121187639,48.8196829 0.363562917,46.4413755 C1.77236922,39.397344 5.78670976,33.7015249 11.9521309,30.005302 C13.1943042,29.2630277 16.284589,27.8845183 16.7238942,27.8845183 C16.8602303,27.8845183 16.9056756,25.309281 16.9056756,15.5233791 C16.9056756,6.25252474 16.951121,2.99560695 17.0874571,2.52600485 C17.3298324,1.69283983 18.5871541,0.435518077 19.4203191,0.193142799 C20.2837811,-0.0643809331 28.0700869,-0.0643809331 28.9335488,0.193142799 C29.7667138,0.435518077 31.0240355,1.69283983 31.2664108,2.52600485 C31.3875985,2.93501313 31.4481923,4.29837407 31.4481923,6.4343062 L31.4481923,9.70637245 L41.1432034,9.70637245 L50.8382145,9.70637245 L50.8382145,7.28261967 L50.8382145,4.8588669 L54.4586952,4.8588669 L58.0791759,4.8588669 L58.1397697,3.20768532 C58.1852151,1.42016764 58.3215512,1.07175318 59.2304585,0.405221167 C59.6394668,0.0871036154 59.8060998,0.0871036154 66.5926076,0.0871036154 C73.3791153,0.0871036154 73.5457483,0.0871036154 73.9547566,0.405221167 C74.1819834,0.571854171 74.5152494,0.905120178 74.6818824,1.132347 C74.9848515,1.52620683 75,1.73828519 75,6.07074328 C75,10.4032014 74.9848515,10.6152797 74.6818824,11.0091396 C74.5152494,11.2363664 74.1819834,11.5696324 73.9547566,11.7362654 C73.5457483,12.054383 73.3791153,12.054383 66.5926076,12.054383 C59.8060998,12.054383 59.6394668,12.054383 59.2304585,11.7362654 C58.3215512,11.0697334 58.1852151,10.7213189 58.1397697,8.93380125 L58.0791759,7.28261967 L55.6705716,7.28261967 L53.2619673,7.28261967 L53.2619673,9.70637245 L53.2619673,12.1301252 L42.3550798,12.1301252 L31.4481923,12.1301252 L31.4481923,14.553878 L31.4481923,16.9776308 L36.2956978,16.9776308 L41.1432034,16.9776308 L41.1432034,19.4013836 L41.1432034,21.8251363 L42.3399313,21.8251363 L43.5518077,21.8251363 L43.5972531,18.9620784 C43.6426984,15.8263482 43.6881438,15.6900121 44.6879418,14.9477378 C45.0969501,14.6296203 45.2635831,14.6296203 52.0500909,14.6296203 C58.8365987,14.6296203 59.0032317,14.6296203 59.41224,14.9477378 C59.6394668,15.1143708 59.9727328,15.4476368 60.1393658,15.6748637 C60.4423349,16.0687235 60.4574833,16.2808019 60.4574833,20.6132599 C60.4574833,24.945718 60.4423349,25.1577964 60.1393658,25.5516562 C59.9727328,25.7788831 59.6394668,26.1121491 59.41224,26.2787821 C59.0032317,26.5817512 58.7911533,26.5968996 52.3833569,26.642345 C47.990305,26.6726419 45.5817007,26.642345 45.2029893,26.5211573 C44.5213088,26.3242274 43.7638861,25.4910624 43.62755,24.779085 L43.5366593,24.2488891 L41.1280549,24.2488891 L38.7194506,24.2488891 L38.7194506,21.8251363 L38.7194506,19.4013836 L35.0838215,19.4013836 L31.4481923,19.4013836 L31.4481923,23.612654 L31.4481923,27.808776 L32.3268027,28.0965966 C33.5992729,28.5056049 36.0533226,29.7174813 37.431832,30.6112402 C42.4156736,33.8681579 46.0210059,38.8671481 47.5509998,44.6387094 L47.9145627,45.9869218 L49.3688144,46.0323672 L50.8382145,46.0778126 L50.8382145,40.0032822 L50.8382145,33.9439002 L54.4586952,33.9439002 L58.0791759,33.9439002 L58.1397697,32.2927186 C58.1852151,30.505201 58.3215512,30.1567865 59.2304585,29.4902545 C59.6394668,29.1721369 59.8060998,29.1721369 66.5926076,29.1721369 C73.3791153,29.1721369 73.5457483,29.1721369 73.9547566,29.4902545 C74.1819834,29.6568875 74.5152494,29.9901535 74.6818824,30.2173803 C74.9848515,30.6112402 75,30.8233185 75,35.1557766 C75,39.4882347 74.9848515,39.7003131 74.6818824,40.0941729 C74.5152494,40.3213997 74.1819834,40.6546657 73.9547566,40.8212987 C73.5457483,41.1394163 73.3791153,41.1394163 66.5926076,41.1394163 C59.8060998,41.1394163 59.6394668,41.1394163 59.2304585,40.8212987 C58.3215512,40.1547667 58.1852151,39.8063523 58.1397697,38.0188346 L58.0791759,36.367653 L55.6705716,36.367653 L53.2619673,36.367653 L53.2619673,42.4270349 L53.2619673,48.4864169 L45.9907089,48.4864169 L38.7194506,48.4864169 L38.7194506,47.2745405 L38.7194506,46.0626641 L39.5677641,46.0626641 C40.4160776,46.0626641 40.4160776,46.0626641 40.3251868,45.6536558 C40.09796,44.6690063 38.3861846,41.5332761 37.431832,40.3516966 C29.6606746,30.6566855 14.5576651,32.2927186 8.96788528,43.4419814 C4.81720864,51.7433347 8.28620481,61.8927994 16.7087457,66.1192183 C24.6465361,70.103262 34.6748132,66.9675318 38.9618259,59.181226 L39.5071703,58.181428 L39.1133104,58.181428 C38.7194506,58.181428 38.7194506,58.1662795 38.7194506,56.9695516 L38.7194506,55.7576752 L45.9907089,55.7576752 L53.2619673,55.7576752 L53.2619673,61.8170572 L53.2619673,67.8764391 L55.6705716,67.8764391 L58.0791759,67.8764391 L58.1397697,66.2252575 C58.1852151,64.4377399 58.3215512,64.0893254 59.2304585,63.4227934 C59.6394668,63.1046758 59.8060998,63.1046758 66.5926076,63.1046758 C73.3791153,63.1046758 73.5457483,63.1046758 73.9547566,63.4227934 C74.1819834,63.5894264 74.5152494,63.9226924 74.6818824,64.1499192 C74.9848515,64.543779 75,64.7558574 75,69.0883155 C75,73.4207736 74.9848515,73.6328519 74.6818824,74.0267118 C74.5152494,74.2539386 74.1819834,74.5872046 73.9547566,74.7538376 C73.5457483,75.0719552 73.3791153,75.0719552 66.5926076,75.0719552 C59.8060998,75.0719552 59.6394668,75.0719552 59.2304585,74.7538376 C58.3215512,74.0873056 58.1852151,73.7388911 58.1397697,71.9513735 L58.0791759,70.3001919 L54.4586952,70.3001919 L50.8382145,70.3001919 L50.8382145,64.2408099 L50.8382145,58.181428 L49.0506968,58.181428 L47.2783276,58.181428 L46.9147647,59.2115229 C45.7180368,62.6502222 43.0519087,66.5585235 40.2191476,69.0428701 C36.9622299,71.8756312 32.9630378,73.8600788 28.7517673,74.7083922 C27.3126641,74.9962129 23.2225813,75.2082913 21.8289234,75.0568067 Z M28.5245405,72.2846395 C35.6443143,70.7394971 41.4916179,65.9525853 44.2637851,59.3933044 L44.7636841,58.181428 L43.4457685,58.181428 L42.127853,58.1965764 L41.6885478,59.1660776 C40.0828116,62.7865583 36.5229247,66.3918905 32.6903656,68.3157443 C28.2215714,70.5577156 22.4348616,70.8909816 17.6630984,69.1640578 C14.8757827,68.1491113 12.754999,66.7857504 10.5281761,64.5589275 C7.68026661,61.711018 5.99878812,58.6207332 5.15047465,54.6972834 C4.75661483,52.8946172 4.75661483,48.9257221 5.15047465,47.1230559 C5.98363967,43.229903 7.71056352,40.063876 10.5281761,37.2614118 C14.088063,33.6863765 18.2690366,31.8231165 23.2680267,31.5807413 C26.6309836,31.4141083 30.1757221,32.1866795 33.1296708,33.7469703 C37.5378711,36.0646839 41.1129065,40.2911028 42.5974551,44.92653 L42.9307211,45.9869218 L44.1728944,46.0323672 L45.4150677,46.0778126 L45.3090285,45.5779136 C44.9151687,43.6692082 43.6124015,40.730408 42.2641891,38.700515 C41.1583518,37.034185 38.9012321,34.6710261 37.2197536,33.4137043 C34.8414462,31.6110382 31.6602707,30.2022319 28.5245405,29.5205514 C26.4643506,29.0812462 22.2076348,29.0358008 20.2383357,29.4448091 C11.3158958,31.2777722 4.68087255,37.7916078 2.80246415,46.5625631 C1.56029085,52.3795698 3.02969097,58.9691476 6.65017168,63.877247 C7.6499697,65.2254595 9.86164411,67.4522824 11.225005,68.4520804 C14.0729146,70.5577156 17.8145829,72.0725611 21.3744698,72.5573117 C23.0105029,72.7845385 26.8885074,72.6330539 28.5245405,72.2846395 Z M72.6519895,69.0883155 L72.6519895,65.4526863 L66.5926076,65.4526863 L60.5332256,65.4526863 L60.5332256,69.0883155 L60.5332256,72.7239447 L66.5926076,72.7239447 L72.6519895,72.7239447 L72.6519895,69.0883155 Z M72.6519895,35.1557766 L72.6519895,31.5201474 L66.5926076,31.5201474 L60.5332256,31.5201474 L60.5332256,35.1557766 L60.5332256,38.7914058 L66.5926076,38.7914058 L72.6519895,38.7914058 L72.6519895,35.1557766 Z M21.6319935,26.8241264 C23.4195112,26.6120481 25.3585134,26.642345 27.2823672,26.8998687 C28.2064229,27.0210564 28.9638457,27.1270955 28.9941426,27.1270955 C29.0092911,27.1270955 29.0244395,25.9303676 29.0244395,24.4761159 L29.0244395,21.8251363 L24.176934,21.8251363 L19.3294284,21.8251363 L19.3294284,24.4912644 L19.3294284,27.1573924 L19.8596243,27.0665017 C20.147445,27.0059079 20.9503131,26.8998687 21.6319935,26.8241264 Z M58.1094728,20.6132599 L58.1094728,16.9776308 L52.0500909,16.9776308 L45.9907089,16.9776308 L45.9907089,20.6132599 L45.9907089,24.2488891 L52.0500909,24.2488891 L58.1094728,24.2488891 L58.1094728,20.6132599 Z M29.0244395,11.2969602 L29.0244395,3.17738841 L28.6457281,2.81382549 L28.2821652,2.43511412 L24.176934,2.43511412 L20.0717027,2.43511412 L19.7081398,2.81382549 L19.3294284,3.17738841 L19.3294284,11.2969602 L19.3294284,19.4013836 L24.176934,19.4013836 L29.0244395,19.4013836 L29.0244395,11.2969602 Z M72.6519895,6.07074328 L72.6519895,2.43511412 L66.5926076,2.43511412 L60.5332256,2.43511412 L60.5332256,6.07074328 L60.5332256,9.70637245 L66.5926076,9.70637245 L72.6519895,9.70637245 L72.6519895,6.07074328 Z" id="Shape"></path>
                    <polygon id="Path" points="62.9569784 69.0883155 62.9569784 67.8764391 64.1688548 67.8764391 65.3807312 67.8764391 65.3807312 69.0883155 65.3807312 70.3001919 64.1688548 70.3001919 62.9569784 70.3001919"></polygon>
                    <polygon id="Path" points="67.8044839 69.0883155 67.8044839 67.8764391 69.0163603 67.8764391 70.2282367 67.8764391 70.2282367 69.0883155 70.2282367 70.3001919 69.0163603 70.3001919 67.8044839 70.3001919"></polygon>
                    <polygon id="Path" points="62.9569784 35.1557766 62.9569784 33.9439002 64.1688548 33.9439002 65.3807312 33.9439002 65.3807312 35.1557766 65.3807312 36.367653 64.1688548 36.367653 62.9569784 36.367653"></polygon>
                    <polygon id="Path" points="67.8044839 35.1557766 67.8044839 33.9439002 69.0163603 33.9439002 70.2282367 33.9439002 70.2282367 35.1557766 70.2282367 36.367653 69.0163603 36.367653 67.8044839 36.367653"></polygon>
                    <polygon id="Path" points="48.4144617 20.6132599 48.4144617 19.4013836 49.6263381 19.4013836 50.8382145 19.4013836 50.8382145 20.6132599 50.8382145 21.8251363 49.6263381 21.8251363 48.4144617 21.8251363"></polygon>
                    <polygon id="Path" points="53.2619673 20.6132599 53.2619673 19.4013836 54.4738437 19.4013836 55.6857201 19.4013836 55.6857201 20.6132599 55.6857201 21.8251363 54.4738437 21.8251363 53.2619673 21.8251363"></polygon>
                    <polygon id="Path" points="62.9569784 6.07074328 62.9569784 4.8588669 64.1688548 4.8588669 65.3807312 4.8588669 65.3807312 6.07074328 65.3807312 7.28261967 64.1688548 7.28261967 62.9569784 7.28261967"></polygon>
                    <polygon id="Path" points="67.8044839 6.07074328 67.8044839 4.8588669 69.0163603 4.8588669 70.2282367 4.8588669 70.2282367 6.07074328 70.2282367 7.28261967 69.0163603 7.28261967 67.8044839 7.28261967"></polygon>
                    <path d="M20.5413048,61.3323066 L20.5413048,59.6205312 L19.3294284,60.8324076 L18.117552,62.044284 L15.58776,59.4993436 L13.0428196,56.9695516 L14.254696,55.7576752 L15.4665724,54.5457988 L13.754797,54.5457988 L12.0581701,54.5457988 L12.0581701,50.9101697 L12.0581701,47.2745405 L13.754797,47.2745405 L15.4665724,47.2745405 L14.254696,46.0626641 L13.0428196,44.8507877 L15.58776,42.3209958 L18.117552,39.7760553 L19.3294284,40.9879317 L20.5413048,42.1998081 L20.5413048,40.4880327 L20.5413048,38.7914058 L24.176934,38.7914058 L27.8125631,38.7914058 L27.8125631,40.4880327 L27.8125631,42.1998081 L29.0244395,40.9879317 L30.2363159,39.7760553 L32.7661079,42.3209958 L35.3110483,44.8507877 L34.0991719,46.0626641 L32.8872955,47.2745405 L34.5990709,47.2745405 L36.2956978,47.2745405 L36.2956978,50.9101697 L36.2956978,54.5457988 L34.5990709,54.5457988 L32.8872955,54.5457988 L34.0991719,55.7576752 L35.3110483,56.9695516 L32.7661079,59.4993436 L30.2363159,62.044284 L29.0244395,60.8324076 L27.8125631,59.6205312 L27.8125631,61.3323066 L27.8125631,63.0289335 L24.176934,63.0289335 L20.5413048,63.0289335 L20.5413048,61.3323066 Z M25.3888103,59.9235003 C25.3888103,59.0297415 25.676631,58.348061 26.2825692,57.8330135 C27.2369218,57.0301454 28.539689,57.1058877 29.539487,58.0299434 L30.1757221,58.6207332 L31.039184,57.7572713 L31.8874975,56.8938093 L31.2967077,56.2727227 C29.70612,54.5609473 30.8119572,52.1220461 33.1902646,52.1220461 L33.8719451,52.1220461 L33.8719451,50.9101697 L33.8719451,49.6982933 L33.1902646,49.6982933 C32.2965058,49.6982933 31.6148253,49.4104726 31.0997778,48.8045344 C30.2969097,47.8501818 30.372652,46.5474147 31.2967077,45.5476166 L31.8874975,44.9113815 L31.0240355,44.0479196 L30.1605736,43.1996061 L29.539487,43.7903959 C27.8277116,45.3809836 25.3888103,44.2751464 25.3888103,41.896839 L25.3888103,41.2151586 L24.176934,41.2151586 L22.9650576,41.2151586 L22.9650576,41.896839 C22.9650576,42.7905979 22.6772369,43.4722783 22.0712987,43.9873258 C21.1169461,44.7901939 19.814179,44.7144516 18.8143809,43.7903959 L18.1781458,43.1996061 L17.3146839,44.0630681 L16.4663704,44.92653 L17.0571602,45.5476166 C18.6477479,47.259392 17.5419107,49.6982933 15.1636033,49.6982933 L14.4819228,49.6982933 L14.4819228,50.9101697 L14.4819228,52.1220461 L15.1636033,52.1220461 C16.0573621,52.1220461 16.7390426,52.4098667 17.2540901,53.0158049 C18.0569582,53.9701575 17.9812159,55.2729247 17.0571602,56.2727227 L16.4663704,56.8938093 L17.3146839,57.7572713 L18.1781458,58.6207332 L18.8143809,58.0299434 C20.5413048,56.4393557 22.9650576,57.5451929 22.9650576,59.9235003 L22.9650576,60.6051808 L24.176934,60.6051808 L25.3888103,60.6051808 L25.3888103,59.9235003 Z" id="Shape"></path>
                    <path d="M23.0407998,55.6213391 C21.647142,55.2577762 20.4201171,54.2579782 19.783882,52.9552111 C19.4960614,52.3341244 19.4203191,51.955413 19.4203191,50.9101697 C19.4051707,49.7285902 19.450616,49.5468087 19.9202181,48.6681983 C20.4958594,47.6078065 20.98061,47.1533529 22.1167441,46.5474147 C22.7681277,46.2141487 23.0862452,46.1535548 24.176934,46.1535548 C25.2676227,46.1535548 25.5857403,46.2141487 26.2371238,46.5474147 C27.3732579,47.1533529 27.8580085,47.6078065 28.4336498,48.6681983 C28.9032519,49.5468087 28.9486972,49.7285902 28.9335488,50.9101697 C28.9335488,52.0008584 28.872955,52.318976 28.539689,52.9703595 C27.9488992,54.1064936 27.4792971,54.5912442 26.4643506,55.1365886 C25.4797011,55.651636 23.980004,55.8788629 23.0407998,55.6213391 Z M25.1312866,53.1218441 C26.6915775,52.4704605 27.0702888,50.4405676 25.8584124,49.2286912 C24.8737629,48.2440416 23.480105,48.2440416 22.4954555,49.2286912 C20.6170471,51.0919511 22.6923854,54.151939 25.1312866,53.1218441 Z" id="Shape"></path>
                    <path d="M59.548576,57.9693496 C58.4578873,57.4845991 58.1094728,56.7120279 58.1094728,54.7578772 L58.1094728,53.3339224 L48.4144617,53.3339224 L38.7194506,53.3339224 L38.7194506,52.1220461 L38.7194506,50.9101697 L48.3993133,50.9101697 L58.0791759,50.9101697 L58.1397697,49.2589881 C58.1852151,47.4714704 58.3215512,47.1230559 59.2304585,46.4565239 C59.6394668,46.1384064 59.8060998,46.1384064 66.5926076,46.1384064 C73.3791153,46.1384064 73.5457483,46.1384064 73.9547566,46.4565239 C74.1819834,46.6231569 74.5152494,46.9564229 74.6818824,47.1836498 C74.9848515,47.5775096 75,47.789588 75,52.1220461 C75,56.4545041 74.9848515,56.6665825 74.6818824,57.0604423 C74.5152494,57.2876692 74.1819834,57.6209352 73.9547566,57.7875682 C73.5457483,58.0905373 73.3488184,58.1056857 66.774389,58.1359826 C61.3663906,58.1662795 59.912139,58.1359826 59.548576,57.9693496 Z M72.6519895,52.1220461 L72.6519895,48.4864169 L66.5926076,48.4864169 L60.5332256,48.4864169 L60.5332256,52.1220461 L60.5332256,55.7576752 L66.5926076,55.7576752 L72.6519895,55.7576752 L72.6519895,52.1220461 Z" id="Shape"></path>
                    <polygon id="Path" points="62.9569784 52.1220461 62.9569784 50.9101697 64.1688548 50.9101697 65.3807312 50.9101697 65.3807312 52.1220461 65.3807312 53.3339224 64.1688548 53.3339224 62.9569784 53.3339224"></polygon>
                    <polygon id="Path" points="67.8044839 52.1220461 67.8044839 50.9101697 69.0163603 50.9101697 70.2282367 50.9101697 70.2282367 52.1220461 70.2282367 53.3339224 69.0163603 53.3339224 67.8044839 53.3339224"></polygon>
                </g>
            </g>
        </g>
    </g>
</svg>