<?xml version="1.0" encoding="UTF-8"?>
<svg width="75px" height="70px" viewBox="0 0 75 70" version="1.1" xmlns="http://www.w3.org/2000/svg" xmlns:xlink="http://www.w3.org/1999/xlink">
    <title>investment</title>
    <g id="Front-Page" stroke="none" stroke-width="1" fill="none" fill-rule="evenodd">
        <g id="How-Does-It-Work" transform="translate(-204.000000, -2418.000000)" fill="#E6A600" fill-rule="nonzero">
            <g id="Step-6" transform="translate(162.000000, 2418.000000)">
                <g id="investment" transform="translate(42.000000, 0.000000)">
                    <g id="Group" transform="translate(37.500000, 34.985423) scale(-1, 1) rotate(-180.000000) translate(-37.500000, -34.985423) translate(0.000000, 0.000000)">
                        <path d="M60.3967097,69.5803832 C60.0218659,69.2211579 60.0062474,69.0962099 60.0062474,67.4562682 C60.0062474,66.5035402 59.9281549,65.4258642 59.8188255,65.0666389 C59.5689296,64.2076218 58.2725948,62.911287 57.4135777,62.6613911 C56.9294044,62.5208247 54.0556018,62.4739692 46.2775927,62.4739692 L35.7819658,62.4739692 L35.407122,62.0835069 L35.0166597,61.7086631 L35.0166597,54.5866306 L35.0166597,47.4802166 L33.532903,47.4802166 C32.1584756,47.4802166 32.0022907,47.4489796 31.6586839,47.0897543 C31.2838401,46.7305289 31.2682216,46.636818 31.2682216,44.5907955 L31.2682216,42.482299 L32.517701,42.482299 L33.7671803,42.482299 L33.7671803,43.7317784 L33.7671803,44.9812578 L38.7650979,44.9812578 L43.7630154,44.9812578 L43.7630154,43.7317784 L43.7630154,42.482299 L40.0145773,42.482299 L36.2661391,42.482299 L36.2661391,41.2328197 L36.2661391,39.9833403 L40.0145773,39.9833403 L43.7630154,39.9833403 L43.7630154,38.7338609 L43.7630154,37.4843815 L41.8887963,37.4843815 L40.0145773,37.4843815 L40.0145773,36.2349021 L40.0145773,34.9854227 L41.8887963,34.9854227 L43.7630154,34.9854227 L43.7630154,33.7359434 L43.7630154,32.486464 L43.1382757,32.486464 L42.513536,32.486464 L42.513536,31.2369846 L42.513536,29.9875052 L46.2619742,29.9875052 L50.0104123,29.9875052 L50.0104123,28.7380258 L50.0104123,27.4885464 L47.5114536,27.4885464 L45.0124948,27.4885464 L45.0124948,26.2390671 L45.0124948,24.9895877 L47.5114536,24.9895877 L50.0104123,24.9895877 L50.0104123,23.7401083 L50.0104123,22.4906289 L47.5114536,22.4906289 L45.0124948,22.4906289 L45.0124948,21.2411495 L45.0124948,19.9916701 L47.5114536,19.9916701 L50.0104123,19.9916701 L50.0104123,18.7421908 L50.0104123,17.4927114 L45.6372345,17.4927114 L41.2640566,17.4927114 L41.2640566,16.243232 L41.2640566,14.9937526 L44.3877551,14.9937526 L47.5114536,14.9937526 L47.5114536,13.7442732 L47.5114536,12.4947938 L46.2619742,12.4947938 L45.0124948,12.4947938 L45.0124948,11.2453145 L45.0124948,9.99583507 L46.2619742,9.99583507 L47.5114536,9.99583507 L47.5114536,8.74635569 L47.5114536,7.4968763 L46.2619742,7.4968763 L45.0124948,7.4968763 L45.0124948,6.24739692 L45.0124948,4.99791753 L46.2619742,4.99791753 L47.5114536,4.99791753 L47.5114536,3.74843815 L47.5114536,2.49895877 L45.6372345,2.49895877 L43.7630154,2.49895877 L43.7630154,1.24947938 L43.7630154,0 L57.741566,0 L71.7357351,0 L72.1105789,0.390462307 L72.5010412,0.765306122 L72.5010412,7.88733861 L72.5010412,14.9937526 L73.3600583,14.9937526 C74.078509,14.9937526 74.2971678,15.0562266 74.6095377,15.3842149 L75,15.7590587 L75,23.7401083 L75,31.7211579 L74.6095377,32.0960017 C74.2346939,32.486464 74.1878384,32.486464 71.4858392,32.486464 L68.7526031,32.486464 L68.7526031,38.7338609 L68.7526031,44.9812578 L70.2363599,44.9812578 C71.6107872,44.9812578 71.7669721,45.0124948 72.1105789,45.3717201 L72.5010412,45.7465639 L72.5010412,53.7276135 L72.5010412,61.7086631 L72.1105789,62.0835069 C71.9075385,62.3021658 71.6420242,62.4739692 71.5170762,62.4739692 C71.3765098,62.4739692 71.4858392,62.817576 71.860683,63.5985006 C72.4073303,64.6917951 72.4229488,64.7542691 72.4854227,66.940858 C72.5322782,69.1586839 72.5322782,69.1743024 72.1418159,69.5647647 L71.7357351,69.9708455 L66.2536443,69.9708455 L60.7715535,69.9708455 L60.3967097,69.5803832 Z M70.0020825,66.5972511 C70.0020825,65.2384423 69.7209496,64.5199917 68.8306955,63.6453561 C67.7842566,62.5832986 67.3313203,62.4739692 64.0358184,62.4739692 L61.3182007,62.4739692 L61.8492295,63.5516451 C62.3021658,64.4731362 62.3958767,64.84798 62.4739692,66.0506039 L62.5520616,67.4718867 L66.2692628,67.4718867 L70.0020825,67.4718867 L70.0020825,66.5972511 Z M47.5114536,58.725531 L47.5114536,57.4760516 L43.7630154,57.4760516 L40.0145773,57.4760516 L40.0145773,56.2265723 L40.0145773,54.9770929 L43.7630154,54.9770929 L47.5114536,54.9770929 L47.5114536,53.7276135 L47.5114536,52.4781341 L43.7630154,52.4781341 L40.0145773,52.4781341 L40.0145773,51.2286547 L40.0145773,49.9791753 L43.7630154,49.9791753 L47.5114536,49.9791753 L47.5114536,48.729696 L47.5114536,47.4802166 L42.513536,47.4802166 L37.5156185,47.4802166 L37.5156185,53.7276135 L37.5156185,59.9750104 L42.513536,59.9750104 L47.5114536,59.9750104 L47.5114536,58.725531 Z M57.5072886,53.7276135 L57.5072886,47.4802166 L53.7588505,47.4802166 L50.0104123,47.4802166 L50.0104123,53.7276135 L50.0104123,59.9750104 L53.7588505,59.9750104 L57.5072886,59.9750104 L57.5072886,53.7276135 Z M70.0020825,58.725531 L70.0020825,57.4760516 L65.0041649,57.4760516 L60.0062474,57.4760516 L60.0062474,58.725531 L60.0062474,59.9750104 L65.0041649,59.9750104 L70.0020825,59.9750104 L70.0020825,58.725531 Z M70.0020825,53.7276135 L70.0020825,52.4781341 L65.0041649,52.4781341 L60.0062474,52.4781341 L60.0062474,53.7276135 L60.0062474,54.9770929 L65.0041649,54.9770929 L70.0020825,54.9770929 L70.0020825,53.7276135 Z M70.0020825,48.729696 L70.0020825,47.4802166 L65.0041649,47.4802166 L60.0062474,47.4802166 L60.0062474,48.729696 L60.0062474,49.9791753 L65.0041649,49.9791753 L70.0020825,49.9791753 L70.0020825,48.729696 Z M53.7588505,38.7338609 L53.7588505,32.486464 L50.0104123,32.486464 L46.2619742,32.486464 L46.2619742,38.7338609 L46.2619742,44.9812578 L50.0104123,44.9812578 L53.7588505,44.9812578 L53.7588505,38.7338609 Z M66.2536443,43.7317784 L66.2536443,42.482299 L61.2557268,42.482299 L56.2578092,42.482299 L56.2578092,43.7317784 L56.2578092,44.9812578 L61.2557268,44.9812578 L66.2536443,44.9812578 L66.2536443,43.7317784 Z M66.2536443,38.7338609 L66.2536443,37.4843815 L61.2557268,37.4843815 L56.2578092,37.4843815 L56.2578092,38.7338609 L56.2578092,39.9833403 L61.2557268,39.9833403 L66.2536443,39.9833403 L66.2536443,38.7338609 Z M66.2536443,33.7359434 L66.2536443,32.486464 L61.2557268,32.486464 L56.2578092,32.486464 L56.2578092,33.7359434 L56.2578092,34.9854227 L61.2557268,34.9854227 L66.2536443,34.9854227 L66.2536443,33.7359434 Z M60.0062474,23.7401083 L60.0062474,17.4927114 L56.2578092,17.4927114 L52.5093711,17.4927114 L52.5093711,23.7401083 L52.5093711,29.9875052 L56.2578092,29.9875052 L60.0062474,29.9875052 L60.0062474,23.7401083 Z M72.5010412,28.7380258 L72.5010412,27.4885464 L67.5031237,27.4885464 L62.5052062,27.4885464 L62.5052062,28.7380258 L62.5052062,29.9875052 L67.5031237,29.9875052 L72.5010412,29.9875052 L72.5010412,28.7380258 Z M72.5010412,23.7401083 L72.5010412,22.4906289 L67.5031237,22.4906289 L62.5052062,22.4906289 L62.5052062,23.7401083 L62.5052062,24.9895877 L67.5031237,24.9895877 L72.5010412,24.9895877 L72.5010412,23.7401083 Z M72.5010412,18.7421908 L72.5010412,17.4927114 L67.5031237,17.4927114 L62.5052062,17.4927114 L62.5052062,18.7421908 L62.5052062,19.9916701 L67.5031237,19.9916701 L72.5010412,19.9916701 L72.5010412,18.7421908 Z M57.5072886,8.74635569 L57.5072886,2.49895877 L53.7588505,2.49895877 L50.0104123,2.49895877 L50.0104123,8.74635569 L50.0104123,14.9937526 L53.7588505,14.9937526 L57.5072886,14.9937526 L57.5072886,8.74635569 Z M70.0020825,13.7442732 L70.0020825,12.4947938 L65.0041649,12.4947938 L60.0062474,12.4947938 L60.0062474,13.7442732 L60.0062474,14.9937526 L65.0041649,14.9937526 L70.0020825,14.9937526 L70.0020825,13.7442732 Z M70.0020825,8.74635569 L70.0020825,7.4968763 L65.0041649,7.4968763 L60.0062474,7.4968763 L60.0062474,8.74635569 L60.0062474,9.99583507 L65.0041649,9.99583507 L70.0020825,9.99583507 L70.0020825,8.74635569 Z M70.0020825,3.74843815 L70.0020825,2.49895877 L65.0041649,2.49895877 L60.0062474,2.49895877 L60.0062474,3.74843815 L60.0062474,4.99791753 L65.0041649,4.99791753 L70.0020825,4.99791753 L70.0020825,3.74843815 Z" id="Shape"></path>
                        <path d="M12.8852561,50.8225739 C12.4791753,50.4164931 12.4791753,50.4008746 12.5728863,48.7921699 C12.6353603,47.9019159 12.7915452,46.6211995 12.9321116,45.9652228 C13.135152,44.9500208 13.9004581,42.4510621 14.3065389,41.529571 C14.4002499,41.3265306 14.212828,41.2484382 13.197626,41.0766347 C9.62099125,40.514369 6.49729279,38.483965 4.56059975,35.500833 C3.81091212,34.360683 3.37359434,33.376718 2.87380258,31.7055394 C2.65514369,30.9558517 2.60828821,29.440858 2.53019575,20.2259475 C2.4364848,8.55893378 2.53019575,9.43356935 1.4212828,8.12161599 C0.296751354,6.79404415 0.124947938,6.18492295 0.0624739692,3.32673886 L0,0.796543107 L0.4060808,0.4060808 L0.796543107,0 L21.2723865,0 L41.7482299,0 L42.1386922,0.4060808 L42.544773,0.796543107 L42.482299,3.32673886 C42.4354436,5.65389421 42.4042066,5.93502707 42.0293628,6.71595169 C41.8107039,7.18450646 41.2640566,7.96543107 40.8267389,8.44960433 L40.0145773,9.33985839 L40.0145773,19.5699708 C40.0145773,30.6591004 39.9989588,30.9558517 39.1399417,33.2517701 C38.1403582,35.9225323 35.7819658,38.546439 33.1580591,39.9052478 C32.2521866,40.3738026 30.5810079,40.8892128 29.31591,41.0922532 C28.3163265,41.2484382 28.1445231,41.3265306 28.2382341,41.529571 C28.6443149,42.4510621 29.409621,44.9500208 29.6126614,45.9652228 C29.7532278,46.6211995 29.9094127,47.9019159 29.9718867,48.7921699 C30.0655977,50.4008746 30.0655977,50.4164931 29.6595169,50.8225739 L29.2534361,51.2286547 L21.2723865,51.2286547 L13.2913369,51.2286547 L12.8852561,50.8225739 Z M27.410454,47.9175344 C27.2698875,46.6524365 26.6763848,44.4502291 26.0360267,42.7634319 L25.4425239,41.2328197 L21.2723865,41.2328197 L17.1022491,41.2328197 L16.5087464,42.7634319 C15.8683882,44.4502291 15.2748855,46.6524365 15.134319,47.9175344 L15.0406081,48.729696 L21.2723865,48.729696 L27.5041649,48.729696 L27.410454,47.9175344 Z M29.6282799,38.4995835 C32.9550187,37.8123698 35.9381508,35.0947522 37.0939192,31.7055394 C37.4219075,30.7059559 37.437526,30.5497709 37.4843815,20.3508955 L37.531237,9.99583507 L35.0166597,9.99583507 L32.517701,9.99583507 L32.517701,8.74635569 L32.517701,7.4968763 L35.375885,7.4968763 L38.2340691,7.4968763 L38.8744273,6.84089963 C39.7646814,5.91940858 40.0145773,5.2634319 40.0145773,3.74843815 L40.0145773,2.49895877 L21.2723865,2.49895877 L2.53019575,2.49895877 L2.53019575,3.74843815 C2.53019575,5.21657643 2.73323615,5.79446064 3.60787172,6.84089963 C3.95147855,7.24698042 4.38879633,7.93419409 4.59183673,8.35589338 L4.95106206,9.13681799 L5.02915452,19.9135777 C5.10724698,30.331112 5.12286547,30.7215743 5.43523532,31.6586839 C6.34110787,34.2982091 8.18408996,36.453561 10.5112453,37.6093294 C12.6822157,38.6870054 12.9164931,38.7026239 21.194294,38.7182424 C27.0512287,38.7338609 28.7536443,38.6870054 29.6282799,38.4995835 Z" id="Shape"></path>
                        <path d="M19.3981674,28.7380258 C19.3981674,27.5197834 19.3825489,27.4885464 19.0077051,27.4885464 C18.3204915,27.4885464 16.9929196,26.8794252 16.3681799,26.2859225 C14.0722616,24.0524781 14.8375677,20.1634736 17.8050812,19.0545606 C18.4454394,18.8046647 19.0233236,18.7421908 20.4289879,18.7421908 C22.9279467,18.7421908 23.6151603,18.33611 23.6151603,16.8679717 C23.6151603,16.4775094 23.5058309,15.9933361 23.3652645,15.8059142 C22.8498542,15.0718451 22.4593919,14.9937526 18.9296127,14.9937526 L15.6497293,14.9937526 L15.6497293,13.7442732 L15.6497293,12.4947938 L17.5239484,12.4947938 L19.3981674,12.4947938 L19.3981674,11.4795918 L19.3981674,10.4487713 L20.6164098,10.4956268 L21.8190337,10.5424823 L21.8658892,11.4952103 L21.9127447,12.4635569 L22.5374844,12.5572678 C25.9579342,13.103915 27.3635985,17.4770929 24.9114952,19.9291962 C23.8962932,20.9443982 23.3027905,21.1318201 20.8819242,21.2411495 C18.6172428,21.319242 18.211162,21.4285714 17.7738442,22.0533111 C17.4458559,22.5062474 17.4614744,23.7244898 17.7738442,24.1774261 C18.273636,24.8958767 18.7265723,24.9895877 21.6628488,24.9895877 L24.396085,24.9895877 L24.396085,26.2390671 L24.396085,27.4885464 L23.1466056,27.4885464 L21.8971262,27.4885464 L21.8971262,28.7380258 L21.8971262,29.9875052 L20.6476468,29.9875052 L19.3981674,29.9875052 L19.3981674,28.7380258 Z" id="Path"></path>
                    </g>
                </g>
            </g>
        </g>
    </g>
</svg>