<?xml version="1.0" encoding="UTF-8"?>
<svg width="75px" height="76px" viewBox="0 0 75 76" version="1.1" xmlns="http://www.w3.org/2000/svg" xmlns:xlink="http://www.w3.org/1999/xlink">
    <title>money</title>
    <g id="Front-Page" stroke="none" stroke-width="1" fill="none" fill-rule="evenodd">
        <g id="How-Does-It-Work" transform="translate(-205.000000, -2944.000000)" fill="#E7A600" fill-rule="nonzero">
            <g id="Step-12" transform="translate(162.000000, 2944.000000)">
                <g id="money" transform="translate(43.000000, 0.000000)">
                    <g id="Group" transform="translate(37.500000, 37.515558) scale(-1, 1) rotate(-180.000000) translate(-37.500000, -37.515558) translate(-0.000000, -0.000000)">
                        <path d="M32.8072106,74.6384209 L32.4555573,74.2574631 L32.4555573,66.1987408 L32.4555573,58.1400185 L32.8804718,57.7737129 C33.2467773,57.4660162 33.422604,57.4220596 33.9061273,57.4806685 C35.0783051,57.6418429 35.0196962,57.1729718 35.0196962,66.2866541 L35.0196962,74.3893331 L34.6826951,74.6970298 C34.1845195,75.1659009 33.2760818,75.1365965 32.8072106,74.6384209 Z" id="Path"></path>
                        <path d="M63.0347454,74.9168131 C62.9321799,74.8728565 62.7563532,74.6530731 62.6391354,74.4332898 C62.4486565,74.0669842 62.4193521,72.074282 62.4193521,60.0008507 C62.4193521,45.5537594 62.4193521,45.6123683 62.9907888,45.1728017 C63.401051,44.8504528 64.2948366,44.9383661 64.6904466,45.3486283 L65.0567521,45.7002817 L65.0567521,59.9715463 C65.0567521,74.1988542 65.0567521,74.2428109 64.7490555,74.6384209 C64.5146199,74.9461176 64.3387932,75.0193787 63.8406177,75.0047265 C63.5036166,75.0047265 63.137311,74.9607698 63.0347454,74.9168131 Z" id="Path"></path>
                        <path d="M46.3751686,72.3087175 C43.1956363,71.4588886 40.8805852,69.5247953 39.5618852,66.6383075 C38.2871418,63.7957763 38.4629685,60.2206341 40.0454085,57.4367118 C40.6754541,56.3084907 42.6535041,54.3743973 43.8110297,53.7296995 C45.4960352,52.8066095 46.6828652,52.5282173 48.8660464,52.5282173 C50.5363997,52.5428695 50.9027053,52.5868262 51.8844042,52.9238273 C53.4961487,53.495264 54.7269353,54.2718318 55.8991131,55.4440096 C58.1115987,57.6857996 59.0932976,60.5429829 58.7416443,63.6785585 C58.4779043,66.0668708 57.6134232,67.8251375 55.825852,69.5980564 C54.4045865,71.0339742 53.1298431,71.7812375 51.342272,72.2354564 C50.0089197,72.5871098 47.5033897,72.6164142 46.3751686,72.3087175 Z M50.7122264,69.6566653 C52.001622,69.2757075 53.1151909,68.6017053 54.0382809,67.6346586 C55.4595465,66.1547841 56.1188965,64.5283874 56.1188965,62.4770763 C56.1188965,59.0631085 53.8624542,56.1912729 50.4484864,55.3121396 C46.931953,54.3890495 42.975853,56.5868829 41.7597185,60.1327207 C40.3824096,64.1474297 42.7414174,68.5284442 46.8879964,69.6859697 C47.8403908,69.9497097 49.7744842,69.9350575 50.7122264,69.6566653 Z" id="Shape"></path>
                        <path d="M45.5546441,66.2720019 C43.9575519,64.7188663 43.6058985,64.2060385 43.7231163,63.5320363 C43.8403341,62.9459474 44.1919874,62.5942941 44.8073808,62.4770763 C45.4374263,62.3452063 45.9795586,62.7261641 47.5180419,64.3086041 C48.7195242,65.554043 48.7927853,65.6712608 48.7927853,66.2720019 C48.7927853,67.1218308 48.3678708,67.5467453 47.5033897,67.5467453 C46.9173008,67.5467453 46.7854308,67.4588319 45.5546441,66.2720019 Z" id="Path"></path>
                        <path d="M51.9430131,66.2280452 C51.7818386,66.1694363 50.155442,64.6016486 48.3239142,62.7554685 C45.2029908,59.6198929 44.9832075,59.3708052 44.9832075,58.8726296 C44.9832075,58.1400185 45.1004252,57.9055829 45.5839486,57.6564951 C46.5216908,57.1729718 46.5509952,57.187624 50.2726597,60.8946363 C52.4997975,63.1217741 53.7745409,64.499083 53.8184976,64.7335186 C54.0236287,65.817783 52.9686687,66.6676119 51.9430131,66.2280452 Z" id="Path"></path>
                        <path d="M28.1331517,66.1840886 C27.4444972,65.8324352 27.4005406,65.5393908 27.429845,61.7151607 L27.4738017,58.1400185 L27.8840639,57.7883651 C28.1038472,57.5978862 28.4555006,57.4367118 28.6606317,57.4367118 C29.1295028,57.4367118 29.8328095,57.8030174 29.9500273,58.0960618 C29.9939839,58.2279318 30.0379406,59.9715463 30.0379406,61.9789007 L30.0379406,65.6126519 L29.5837217,65.9936097 C29.0855461,66.4185241 28.6899361,66.4624808 28.1331517,66.1840886 Z" id="Path"></path>
                        <path d="M68.1190666,63.6639063 C67.9139355,63.5466885 67.6648477,63.2682963 67.5622822,63.048513 C67.4450644,62.7408163 67.4011077,58.6235418 67.4304122,47.2827217 L67.4743688,31.9125404 L67.8846311,31.560887 C68.4414155,31.0920159 69.2033311,31.0920159 69.6722022,31.5755393 L70.0385078,31.9271926 L70.0385078,47.5171572 L70.0385078,63.1071219 L69.7015066,63.4148185 C69.26194,63.8250808 68.60259,63.9422985 68.1190666,63.6639063 Z" id="Path"></path>
                        <path d="M28.1771084,54.9311818 C24.7484883,54.3597451 21.5836083,51.6051273 20.4700394,48.2204639 C18.6092071,42.6086627 21.9499138,36.5572949 27.6642806,35.2239426 C28.9243717,34.9308982 31.2980317,34.9308982 32.4555573,35.2385949 C37.3640518,36.5133382 40.5582363,41.1580927 40.0014518,46.183805 C39.7377118,48.5281606 38.8146218,50.403645 37.0563551,52.176564 C36.1479173,53.099654 35.6936985,53.4220029 34.5654773,53.9641351 C32.4702095,54.9751384 30.3749417,55.2974873 28.1771084,54.9311818 Z M31.6350328,52.2351728 C34.1845195,51.6344317 36.323744,49.6563817 37.0710074,47.2241128 C37.4226607,46.0665872 37.4666174,44.073885 37.1442685,43.0335772 C36.4116573,40.6013083 34.4189551,38.608606 31.9866862,37.8759949 C30.9463784,37.553646 28.9536761,37.5976027 27.7961506,37.949256 C24.6019661,38.9309549 22.3455238,42.227705 22.6239161,45.524455 C22.9902216,50.0519917 27.2833228,53.2608284 31.6350328,52.2351728 Z" id="Shape"></path>
                        <path d="M28.2796739,50.008035 C28.1624561,49.9640784 27.3858884,49.2607717 26.5653639,48.4548995 C24.9682717,46.8724595 24.7045317,46.3889361 25.0708372,45.7002817 C25.3492294,45.1728017 25.6569261,44.996975 26.3016239,44.9823228 C26.8437561,44.9823228 26.9756261,45.0848883 28.4555006,46.5647628 C29.8914184,48.0006806 30.0379406,48.1911595 30.0379406,48.6746828 C30.0379406,49.5831206 29.0708939,50.3157317 28.2796739,50.008035 Z" id="Path"></path>
                        <path d="M29.7155917,45.3193239 C26.374885,41.9932694 26.2283628,41.8174427 26.2283628,41.2753105 C26.2283628,40.4840905 26.7411906,40.0005671 27.5763672,40.0005671 C28.1917606,40.0005671 28.221065,40.0298716 31.6057284,43.414535 C34.9903918,46.7991983 35.0196962,46.8285028 35.0196962,47.4438961 C35.0196962,48.2790728 34.5361729,48.7919006 33.7449529,48.7919006 C33.2321251,48.7919006 33.026994,48.6160739 29.7155917,45.3193239 Z" id="Path"></path>
                        <path d="M52.1921009,44.9676705 C50.1261375,44.6599739 48.250653,43.7075794 46.668213,42.1251394 C45.4667308,40.9236572 44.690163,39.6489138 44.1480308,38.0225171 C43.6058985,36.3814682 43.5765941,33.861286 44.0894219,32.2348893 C44.6462063,30.4033615 45.3641652,29.2165315 46.668213,27.9124837 C47.9722608,26.6084359 49.1590908,25.890477 50.9906186,25.3336925 C52.6170153,24.8208647 55.1371976,24.8501692 56.7782465,25.3923014 C58.4046432,25.9344336 59.6793865,26.7110014 60.8808688,27.9124837 C62.5512221,29.5974892 63.4303555,31.3850604 63.7380521,33.7587204 C64.4706632,39.1800427 60.631781,44.2204072 55.1811542,44.9676705 C53.9064109,45.1434972 53.4961487,45.1434972 52.1921009,44.9676705 Z M55.825852,42.1104872 C60.5585199,40.7771349 62.6684399,35.048116 59.9138221,30.9308415 C58.3167298,28.527877 55.3716331,27.2238292 52.6316675,27.6927003 C48.6902197,28.3520503 45.8330364,32.1909326 46.4191252,36.0005104 C47.1224319,40.5280472 51.4448375,43.3266216 55.825852,42.1104872 Z" id="Shape"></path>
                        <path d="M50.3166164,38.5060405 C49.4374831,37.6269071 48.7781331,36.8210349 48.7195242,36.5865993 C48.4850886,35.6928138 49.3788742,34.7550715 50.2726597,34.9748549 C50.4631386,35.0188115 51.3276197,35.7514227 52.2067531,36.6159038 C53.6280187,38.0225171 53.7745409,38.212996 53.7745409,38.6965194 C53.7745409,39.0188682 53.6573231,39.3851738 53.4668442,39.6196094 C53.2177564,39.927306 53.0419298,40.0005671 52.4851453,40.0005671 C51.8257953,40.0005671 51.7818386,39.9712627 50.3166164,38.5060405 Z" id="Path"></path>
                        <path d="M53.4668442,35.3704649 C50.1700942,32.0590626 49.9649631,31.824627 49.9649631,31.3264515 C49.9649631,30.5205793 50.4924431,29.9637948 51.2690109,29.9637948 C51.869752,29.9637948 51.9430131,30.0224037 55.3130242,33.4217193 C58.6830354,36.7917304 58.7562965,36.8796438 58.7562965,37.4657327 C58.7562965,38.2716049 58.4046432,38.6818671 57.6134232,38.7844327 L56.9687254,38.872346 L53.4668442,35.3704649 Z" id="Path"></path>
                        <path d="M2.4917625,33.6268504 C1.58332471,33.333806 0.836061366,32.6744559 0.381842472,31.7660182 L0.000884689192,31.0041026 L0.000884689192,16.864708 C0.000884689192,0.952394456 -0.0723764228,2.13922447 1.11445359,0.996351123 C2.12545694,0.0293044448 2.30128361,0 6.78486366,0 C11.092617,0 11.4296182,0.0439566672 12.3380559,0.747263342 L12.865536,1.15752557 L29.4811562,1.20148224 L46.0821241,1.2454389 L47.2543019,1.65570113 C48.5290453,2.10992003 49.1297864,2.46157336 63.796661,11.399429 C68.9542433,14.5350046 73.4231711,17.3628835 73.7308678,17.655928 C74.5660445,18.4911047 74.93235,19.370238 74.9909589,20.6596336 C75.0202634,21.2750269 74.9763067,22.0369425 74.8883934,22.3739436 C74.5220878,23.7219481 73.1008222,25.1432136 71.7528178,25.5095192 C70.1410733,25.9490859 70.1996822,25.9637381 57.1738565,21.6266803 C45.3055563,17.6705802 43.7963774,17.2310135 44.0161608,17.8317547 C44.2359441,18.3738869 44.2799008,19.765848 44.1040741,20.5863725 C43.6205508,22.9893369 41.6278485,25.1432136 39.1369707,25.9490859 C38.2578374,26.2421303 37.7450096,26.286087 33.1881684,26.3740003 C28.5580661,26.4619137 28.1331517,26.4912181 27.2540183,26.7989148 C26.0818406,27.209177 25.1587505,27.7073526 23.6788761,28.7769648 C22.2722627,29.7879681 21.1293894,30.3447526 19.4150794,30.8429281 C18.3308149,31.165277 17.7007693,31.2531904 15.7959804,31.3117993 C13.5981471,31.3997126 13.4955815,31.4143648 13.4223204,31.7220615 C13.3051026,32.1616282 12.4113171,33.0554137 11.6787059,33.4510237 C11.092617,33.7587204 10.8874859,33.7733726 7.10721255,33.8026771 C4.01559363,33.8319815 3.00459028,33.7880248 2.4917625,33.6268504 Z M10.5358326,30.9894504 C10.7702682,30.8722326 10.9900515,30.6671015 11.0486604,30.5498837 C11.092617,30.4180137 11.1365737,24.2347758 11.1365737,16.8060991 L11.1365737,3.31140226 L10.8142248,2.97440115 C10.5065281,2.63740003 10.4772237,2.63740003 6.90208144,2.63740003 C3.42950473,2.63740003 3.31228695,2.65205225 2.97528584,2.95974892 L2.63828472,3.26744559 L2.63828472,16.8060991 C2.63828472,26.1102603 2.68224139,30.4473181 2.79945917,30.637797 C2.8873725,30.7989715 3.09250362,30.9894504 3.26833028,31.0627115 C3.44415695,31.1359726 5.05590142,31.1945815 6.85812477,31.1945815 C9.45156814,31.2092337 10.2134837,31.165277 10.5358326,30.9894504 Z M18.535946,28.3520503 C19.7960371,28.000397 20.9975194,27.3996559 22.418785,26.3593481 C24.1917039,25.0846047 25.056185,24.6743425 27.5470628,23.9563836 C27.7521939,23.8831225 30.1551584,23.7952092 32.895124,23.7512525 L37.8768796,23.6633392 L38.8439263,23.1798158 C41.0124552,22.1248558 42.0967196,19.8684136 41.261543,18.1247991 L40.997803,17.5826669 L36.719354,17.5826669 C32.2797306,17.5826669 31.1954662,17.4801013 29.5983739,16.9672735 C27.8694117,16.4104891 25.3931861,14.9892235 25.056185,14.359178 C24.8070972,13.8903068 24.8950105,13.377479 25.2906205,12.9086079 C25.8034483,12.2932146 26.506755,12.2932146 27.4005406,12.9086079 C28.3968917,13.5826102 29.8914184,14.3005691 30.8584651,14.5936135 C31.6057284,14.8133968 32.6899929,14.8573535 38.9025352,14.9452668 L46.0821241,15.0331802 L57.9504243,19.0185847 C65.2179266,21.4655058 70.0385078,23.0039892 70.3755089,23.0039892 C71.5476867,23.0039892 72.3828633,22.139508 72.3828633,20.8940691 C72.3828633,20.293328 72.3096022,20.1321536 71.8407311,19.6486302 C71.1520767,18.9453236 47.7378253,4.68871117 46.5070386,4.20518783 L45.6425575,3.88283894 L29.7155917,3.83888227 L13.7739737,3.7949256 L13.7739737,16.2786191 L13.7739737,28.7623126 L15.7227193,28.6743992 C16.7776793,28.6304426 18.0524227,28.4839203 18.535946,28.3520503 Z" id="Shape"></path>
                    </g>
                </g>
            </g>
        </g>
    </g>
</svg>