<?xml version="1.0" encoding="UTF-8"?>
<svg width="75px" height="75px" viewBox="0 0 75 75" version="1.1" xmlns="http://www.w3.org/2000/svg" xmlns:xlink="http://www.w3.org/1999/xlink">
    <title>assets</title>
    <g id="Front-Page" stroke="none" stroke-width="1" fill="none" fill-rule="evenodd">
        <g id="How-Does-It-Work" transform="translate(-245.000000, -3236.000000)" fill="#E7A600" fill-rule="nonzero">
            <g id="Step-13" transform="translate(162.000000, 3236.000000)">
                <g id="assets" transform="translate(83.000000, 0.000000)">
                    <g id="Group" transform="translate(37.500000, 37.500000) scale(-1, 1) rotate(-180.000000) translate(-37.500000, -37.500000) translate(0.000000, 0.000000)">
                        <polygon id="Path" points="5 73.75 5 72.5 6.25 72.5 7.5 72.5 7.5 73.75 7.5 75 6.25 75 5 75"></polygon>
                        <path d="M19.921875,74.8125 C19.75,74.71875 19,74.0625 18.265625,73.328125 L16.921875,72.015625 L14.921875,72.578125 C12.765625,73.203125 12.203125,73.21875 11.421875,72.671875 C10.859375,72.265625 10.421875,71.203125 10.53125,70.546875 C10.578125,70.296875 11.5,68.46875 12.5625,66.484375 L14.5,62.890625 L14,62.328125 C11.796875,59.90625 9.6875,55.15625 8.984375,51.03125 C8.640625,49.046875 8.65625,42.734375 9,41.546875 C9.671875,39.234375 11.625,37.265625 13.921875,36.546875 C14.84375,36.265625 15.765625,36.25 39.46875,36.25 C53,36.25 64.0625,36.203125 64.0625,36.140625 C64.046875,36.0625 63.46875,34.890625 62.765625,33.515625 L61.484375,31.015625 L58.140625,29.59375 L54.796875,28.15625 L54.359375,29.078125 C53.8125,30.234375 52.640625,31.390625 51.453125,31.984375 L50.546875,32.421875 L38.59375,32.421875 C26.90625,32.421875 26.59375,32.421875 24.765625,32.078125 C20.59375,31.296875 16.0625,29.640625 13.25,27.875 C12.921875,27.671875 12.625,27.5 12.578125,27.5 C12.53125,27.5 12.5,28.25 12.5,29.1875 C12.5,31.078125 12.296875,31.625 11.375,32.1875 C10.890625,32.484375 10.578125,32.5 6.25,32.5 C1.921875,32.5 1.609375,32.484375 1.125,32.1875 C0.84375,32.015625 0.484375,31.65625 0.3125,31.375 C0,30.875 0,30.546875 0,16.25 C0,1.953125 0,1.625 0.3125,1.125 C0.484375,0.84375 0.84375,0.484375 1.125,0.3125 C1.609375,0.015625 1.921875,0 6.25,0 C10.578125,0 10.890625,0.015625 11.375,0.3125 C12.296875,0.875 12.5,1.421875 12.5,3.3125 L12.5,4.984375 L28.796875,5.046875 C43.34375,5.09375 45.21875,5.125 46.40625,5.359375 C53.859375,6.859375 59.46875,9.78125 64.453125,14.765625 C68.734375,19.03125 71.71875,24.234375 73.1875,29.9375 C73.75,32.078125 74.375,35.65625 74.375,36.671875 C74.375,38.4375 73.265625,40.140625 71.609375,40.890625 C70.859375,41.234375 70.609375,41.265625 69.484375,41.203125 C68.78125,41.171875 68.046875,41.078125 67.859375,41.015625 L67.5,40.90625 L67.5,43.578125 L67.5,46.25 L68.4375,46.25 C69.625,46.25 70,46.5625 70,47.53125 C70,48.203125 70,48.203125 64.71875,53.46875 L59.453125,58.75 L58.765625,58.75 C58.109375,58.75 58.015625,58.6875 56.546875,57.234375 L55,55.71875 L55,64.421875 C55,72.921875 55,73.125 54.6875,73.4375 C54.390625,73.734375 54.171875,73.75 47.5,73.75 C40.828125,73.75 40.609375,73.734375 40.3125,73.4375 C40.015625,73.140625 40,72.921875 40,65.9375 L40,58.75 L37.53125,58.75 L35.0625,58.75 L34.390625,60.125 C34.015625,60.875 33.515625,61.78125 33.265625,62.140625 L32.828125,62.8125 L34.46875,66.796875 C35.5625,69.484375 36.09375,70.96875 36.09375,71.375 C36.09375,72.515625 34.984375,73.59375 33.8125,73.59375 C33.546875,73.59375 32.703125,73.28125 31.9375,72.90625 L30.53125,72.234375 L29.703125,73.375 C28.796875,74.609375 28.203125,75 27.265625,75 C26.5,75 26.015625,74.71875 24.921875,73.609375 C24.40625,73.078125 23.953125,72.65625 23.90625,72.65625 C23.84375,72.65625 23.5,73.078125 23.125,73.59375 C22.765625,74.09375 22.234375,74.625 21.953125,74.765625 C21.359375,75.03125 20.375,75.0625 19.921875,74.8125 Z M21.5625,71.15625 C22.34375,70.125 23,69.6875 23.78125,69.6875 C24.671875,69.6875 25.109375,69.921875 26.25,71.03125 L27.3125,72.0625 L28.078125,71.03125 C29.34375,69.3125 30.3125,69.046875 32.078125,69.9375 C32.5,70.15625 32.875,70.3125 32.90625,70.265625 C32.9375,70.234375 32.375,68.78125 31.65625,67.015625 L30.34375,63.828125 L28.765625,63.78125 C27.890625,63.765625 27.1875,63.78125 27.1875,63.828125 C27.1875,63.875 27.53125,64.59375 27.953125,65.4375 L28.71875,66.96875 L27.5625,67.546875 C26.921875,67.859375 26.375,68.125 26.359375,68.125 C26.34375,68.125 25.828125,67.140625 25.234375,65.9375 L24.15625,63.75 L23.125,63.765625 L22.109375,63.765625 L21.21875,65.640625 L20.3125,67.5 L19.1875,66.9375 C18.5625,66.625 18.03125,66.359375 18,66.328125 C17.984375,66.3125 18.21875,65.75 18.515625,65.09375 C18.8125,64.4375 19.0625,63.859375 19.0625,63.8125 C19.0625,63.78125 18.625,63.75 18.09375,63.75 L17.109375,63.75 L15.4375,66.859375 C14.5,68.5625 13.75,70 13.75,70.046875 C13.75,70.09375 14.078125,70.046875 14.5,69.921875 C17.546875,69.015625 17.71875,69.046875 19.4375,70.765625 C20.140625,71.46875 20.75,72.03125 20.796875,72.03125 C20.859375,72.03125 21.1875,71.640625 21.5625,71.15625 Z M52.5,62.234375 L52.5,53.21875 L50,50.703125 C47.578125,48.25 47.5,48.15625 47.5,47.53125 C47.5,46.5625 47.875,46.25 49.0625,46.25 L50,46.25 L50,42.5 L50,38.75 L46.25,38.75 L42.5,38.75 L42.5,55 L42.5,71.25 L47.5,71.25 L52.5,71.25 L52.5,62.234375 Z M30.90625,60.828125 C31.078125,60.578125 31.390625,60.015625 31.625,59.578125 L32.03125,58.75 L30.703125,58.75 C28.546875,58.75 28.75,59.828125 28.75,48.4375 L28.75,38.75 L22.703125,38.75 C19.28125,38.75 16.203125,38.828125 15.640625,38.90625 C14.421875,39.109375 13.609375,39.515625 12.8125,40.3125 C11.40625,41.71875 11.09375,43.375 11.359375,47.765625 C11.5625,50.921875 11.921875,52.546875 12.984375,55.234375 C13.75,57.171875 15.171875,59.625 16.046875,60.59375 L16.671875,61.25 L23.640625,61.25 L30.609375,61.25 L30.90625,60.828125 Z M40,47.5 L40,38.75 L35.625,38.75 L31.25,38.75 L31.25,47.5 L31.25,56.25 L35.625,56.25 L40,56.25 L40,47.5 Z M62.1875,52.109375 L65.546875,48.75 L58.75,48.75 L51.953125,48.75 L55.3125,52.109375 C57.15625,53.953125 58.703125,55.46875 58.75,55.46875 C58.796875,55.46875 60.34375,53.953125 62.1875,52.109375 Z M65,42.5 L65,38.75 L63.75,38.75 L62.5,38.75 L62.5,41.5625 C62.5,45.296875 62.8125,45 58.75,45 C54.6875,45 55,45.296875 55,41.5625 L55,38.75 L53.75,38.75 L52.5,38.75 L52.5,42.5 L52.5,46.25 L58.75,46.25 L65,46.25 L65,42.5 Z M60,40.625 L60,38.75 L58.75,38.75 L57.5,38.75 L57.5,40.625 L57.5,42.5 L58.75,42.5 L60,42.5 L60,40.625 Z M70.734375,38.28125 C71.875,37.59375 71.921875,36.90625 71.09375,32.828125 C70.0625,27.671875 68.078125,23.328125 64.921875,19.296875 C63.8125,17.890625 61.015625,15.109375 59.609375,14.046875 C55.828125,11.15625 51.390625,9.125 46.796875,8.203125 C43.84375,7.609375 40.875,7.5 26.21875,7.5 L12.5,7.5 L12.5,15.859375 L12.5,24.234375 L13.46875,24.859375 C15.15625,25.9375 18.609375,27.578125 20.640625,28.25 C25.3125,29.796875 28.15625,30.046875 40.78125,29.96875 C48.734375,29.921875 49.5,29.90625 50.078125,29.640625 C51.484375,29.015625 52.34375,27.71875 52.34375,26.25 C52.34375,24.78125 51.484375,23.484375 50.078125,22.859375 C49.5,22.59375 48.671875,22.578125 39.109375,22.53125 L28.75,22.484375 L28.75,21.234375 L28.75,19.984375 L39.65625,20.03125 L50.546875,20.078125 L51.484375,20.53125 C52.5,21.03125 53.71875,22.140625 54.15625,22.984375 C54.3125,23.28125 54.578125,23.9375 54.765625,24.4375 L55.078125,25.359375 L59.265625,27.15625 L63.453125,28.953125 L65.71875,33.46875 C68.1875,38.390625 68.34375,38.59375 69.609375,38.59375 C69.953125,38.59375 70.453125,38.453125 70.734375,38.28125 Z M10,16.25 L10,2.5 L6.25,2.5 L2.5,2.5 L2.5,16.25 L2.5,30 L6.25,30 L10,30 L10,16.25 Z" id="Shape"></path>
                        <path d="M21.25,55.625 L21.25,55 L20.3125,55 C18.796875,55 18.75,54.90625 18.75,51.875 C18.75,48.59375 18.609375,48.75 21.5625,48.75 L23.75,48.75 L23.75,48.125 L23.75,47.5 L21.25,47.5 L18.75,47.5 L18.75,46.5625 C18.75,45.28125 19.03125,45 20.3125,45 L21.25,45 L21.25,44.375 L21.25,43.75 L22.5,43.75 L23.75,43.75 L23.75,44.375 L23.75,45 L24.6875,45 C26.203125,45 26.25,45.09375 26.25,48.125 C26.25,51.40625 26.390625,51.25 23.4375,51.25 L21.25,51.25 L21.25,51.875 L21.25,52.5 L23.75,52.5 L26.25,52.5 L26.25,53.4375 C26.25,54.171875 26.1875,54.4375 25.9375,54.6875 C25.6875,54.9375 25.421875,55 24.6875,55 L23.75,55 L23.75,55.625 L23.75,56.25 L22.5,56.25 L21.25,56.25 L21.25,55.625 Z" id="Path"></path>
                        <polygon id="Path" points="5 24.375 5 22.5 6.25 22.5 7.5 22.5 7.5 24.375 7.5 26.25 6.25 26.25 5 26.25"></polygon>
                        <path d="M66.25,73.75 L66.25,72.5 L65,72.5 L63.75,72.5 L63.75,71.25 L63.75,70 L65,70 L66.25,70 L66.25,68.75 L66.25,67.5 L67.5,67.5 L68.75,67.5 L68.75,68.75 L68.75,70 L70,70 L71.25,70 L71.25,71.25 L71.25,72.5 L70,72.5 L68.75,72.5 L68.75,73.75 L68.75,75 L67.5,75 L66.25,75 L66.25,73.75 Z M68.75,71.25 L68.75,70 L67.5,70 L66.25,70 L66.25,71.25 L66.25,72.5 L67.5,72.5 L68.75,72.5 L68.75,71.25 Z" id="Shape"></path>
                        <path d="M2.5,65 L2.5,63.75 L1.25,63.75 L0,63.75 L0,62.5 L0,61.25 L1.25,61.25 L2.5,61.25 L2.5,60 L2.5,58.75 L3.75,58.75 L5,58.75 L5,60 L5,61.25 L6.25,61.25 L7.5,61.25 L7.5,62.5 L7.5,63.75 L6.25,63.75 L5,63.75 L5,65 L5,66.25 L3.75,66.25 L2.5,66.25 L2.5,65 Z M5,62.5 L5,61.25 L3.75,61.25 L2.5,61.25 L2.5,62.5 L2.5,63.75 L3.75,63.75 L5,63.75 L5,62.5 Z" id="Shape"></path>
                        <polygon id="Path" points="72.5 65 72.5 63.75 73.75 63.75 75 63.75 75 65 75 66.25 73.75 66.25 72.5 66.25"></polygon>
                        <polygon id="Path" points="63.75 61.25 63.75 60 65 60 66.25 60 66.25 61.25 66.25 62.5 65 62.5 63.75 62.5"></polygon>
                        <polygon id="Path" points="0 52.5 0 51.25 1.25 51.25 2.5 51.25 2.5 52.5 2.5 53.75 1.25 53.75 0 53.75"></polygon>
                    </g>
                </g>
            </g>
        </g>
    </g>
</svg>