<?xml version="1.0" encoding="UTF-8"?>
<svg width="75px" height="75px" viewBox="0 0 75 75" version="1.1" xmlns="http://www.w3.org/2000/svg" xmlns:xlink="http://www.w3.org/1999/xlink">
    <title>architecture</title>
    <g id="Front-Page" stroke="none" stroke-width="1" fill="none" fill-rule="evenodd">
        <g id="How-Does-It-Work" transform="translate(-797.000000, -2671.000000)" fill="#E7A600" fill-rule="nonzero">
            <g id="Step-9" transform="translate(754.000000, 2671.000000)">
                <g id="architecture" transform="translate(43.000000, 0.000000)">
                    <g id="Group" transform="translate(37.500000, 37.497261) scale(-1, 1) rotate(-180.000000) translate(-37.500000, -37.497261) translate(-0.000000, 0.000000)">
                        <path d="M69.8842557,74.7431879 C69.5249135,74.6025757 68.9780883,74.2119863 68.6343696,73.852644 C68.0562973,73.227701 63.7441903,65.931491 63.5254603,65.1971829 C63.4004717,64.7909699 63.7754375,63.978544 64.1347797,63.8379318 C64.6503577,63.6504489 65.2596772,63.7441903 65.5721487,64.1035326 C65.7440081,64.2910155 66.3533275,65.2596772 66.9157763,66.2439625 C68.4156396,68.8530997 68.1812859,68.6812404 69.3530541,67.993803 C69.8998793,67.6813315 70.352963,67.3532364 70.3373394,67.2907421 C70.3373394,67.1813771 59.885167,49.0111581 57.4478892,44.8709105 L56.6979575,43.5741536 L55.8074137,44.0741081 C55.3230828,44.3553324 54.838752,44.6365568 54.7450105,44.7146747 C54.6200219,44.8084161 55.9167787,47.1988233 58.9946232,52.5264627 C62.3068213,58.2603151 63.4317188,60.3382508 63.4317188,60.7132166 C63.4317188,61.6037604 62.2287035,62.1974563 61.5256425,61.6662547 C61.3850303,61.5568897 60.588228,60.29138 59.7601784,58.854011 L58.2446916,56.2448738 L52.1514969,56.2448738 C46.4332681,56.2448738 46.0739258,56.2604974 46.1520437,56.5260982 C46.4176445,57.3385241 49.9954434,72.3996515 49.9954434,72.6652523 C49.9954434,73.0714652 49.3236296,73.743279 48.9174167,73.743279 C48.7455573,73.743279 46.2614087,73.1808303 43.4022943,72.4933929 C37.7465598,71.1341418 37.6528183,71.0872711 37.6528183,70.0561151 C37.6528183,69.3999249 38.1215256,68.8999704 38.7464686,68.8999704 C38.9964459,68.8999704 40.9337693,69.321807 43.0585756,69.837385 C45.183382,70.352963 46.9488461,70.759176 46.9644696,70.7279288 C47.0269639,70.6654345 42.0899139,50.0579377 41.902431,49.6361011 C41.8086895,49.4173711 40.2150848,50.9484815 33.68443,57.4791363 C27.2006459,63.9629204 25.6382883,65.6033959 25.872642,65.6815138 C26.0445013,65.7283845 28.0755662,66.2283389 30.3878554,66.7751641 C34.9655632,67.884438 35.1530461,67.9625559 35.1530461,68.9780883 C35.1530461,69.5561606 34.5749738,70.1498565 34.0281487,70.1498565 C33.8562893,70.1498565 31.2002814,69.5561606 28.1380605,68.806229 C23.3259991,67.6500843 22.5291967,67.4313543 22.2323487,67.0876356 C21.4824171,66.2595861 21.4980407,66.2439625 26.6694443,61.0569353 L31.4815058,56.2448738 L22.3729609,56.2448738 L13.2644161,56.2448738 L12.8894503,55.8542844 C12.3738722,55.35433 12.3738722,54.6356455 12.8894503,54.1356911 L13.2644161,53.7451017 L23.622847,53.7451017 L33.9812779,53.7451017 L38.0434077,49.6829719 C42.4336326,45.3083706 42.527374,45.2458763 43.3398,45.9801844 C43.6678951,46.2614087 43.8710016,46.8863518 44.5896861,49.9485727 C45.0740169,51.9483904 45.4646063,53.620113 45.4646063,53.6669838 C45.4646063,53.7138545 47.9956257,53.7451017 51.0890937,53.7451017 C54.1825618,53.7451017 56.7135811,53.6982309 56.7135811,53.6513602 C56.7135811,53.6044895 55.6668015,51.7609075 54.3856683,49.5579833 C53.1201586,47.355059 51.964014,45.3396177 51.8390254,45.0740169 C51.6984132,44.8240397 51.2297059,42.7929748 50.7766222,40.574427 C50.0891849,37.1216167 49.9954434,36.4810501 50.1516792,36.0904607 C50.3547856,35.5905063 51.0578466,35.231164 51.557801,35.3873998 C51.7296603,35.4498941 53.2763944,36.7310273 54.9949877,38.2465142 L58.119703,41.0118872 L61.7756198,47.3394355 L65.4315365,53.6669838 L67.7125787,53.7138545 L69.9936208,53.7607252 L69.9936208,42.3711383 C69.9936208,31.0752928 69.9936208,30.9659278 70.3217159,30.5597148 C70.7747996,29.9816425 71.7122141,29.9816425 72.1652978,30.5597148 C72.4933929,30.9659278 72.4933929,31.0752928 72.4933929,43.230435 L72.4933929,55.4793186 L72.1028035,55.8542844 C71.7434613,56.2292502 71.6653434,56.2448738 69.3530541,56.2448738 C67.4626014,56.2448738 67.0095177,56.2917446 67.072012,56.4479803 C67.1188828,56.5573453 68.8374761,59.5726955 70.8841646,63.1348709 C72.9464766,66.6970462 74.7119407,69.837385 74.8056822,70.1342329 C75.2587659,71.4466133 74.9150472,72.7433701 73.8213969,73.8213969 C72.6808758,74.9619179 71.384119,75.2743895 69.8842557,74.7431879 Z M72.1028035,72.1028035 C72.602758,71.6184727 72.602758,71.0872711 72.08718,70.2123508 C71.6965905,69.5561606 71.6497198,69.5249135 71.3372483,69.72802 C71.165389,69.8530086 70.6810581,70.1342329 70.2592216,70.3685866 L69.5249135,70.8060467 L69.8530086,71.384119 C70.5560695,72.5558872 71.384119,72.8371116 72.1028035,72.1028035 Z M54.2138089,40.9181457 C53.7451017,40.5119327 53.3388887,40.1838376 53.3232651,40.2150848 C53.2763944,40.2619555 53.5419952,41.7618188 53.6669838,42.1524082 C53.7294781,42.2930204 53.9013374,42.2617732 54.4012918,42.011796 L55.0731056,41.6680774 L54.2138089,40.9181457 Z" id="Shape"></path>
                        <path d="M37.480959,65.9158674 C35.0436811,65.3221715 32.8876276,64.8065935 32.7001447,64.7597228 C32.1689431,64.6347342 31.7158594,64.0566619 31.7158594,63.5254603 C31.7158594,63.1036237 32.2158138,62.541175 35.5123884,59.260224 C39.6057653,55.1668471 39.6995068,55.0887292 40.5431799,55.8230373 C40.8868986,56.1198852 41.090005,56.7604518 42.0430432,60.697593 C42.6523627,63.1973652 43.1366935,65.4627837 43.1523171,65.7440081 C43.1523171,66.337704 42.7929748,66.8064112 42.2617732,66.9001527 C42.0742903,66.9470234 39.9182368,66.4939397 37.480959,65.9158674 Z M40.1525905,63.7129432 C40.1525905,63.3848481 39.1839288,59.4477069 39.0745637,59.3383419 C39.0120694,59.2758476 38.1683963,60.0257792 37.184111,61.0100645 C35.9654721,62.2287035 35.4811412,62.8223993 35.637377,62.8692701 C36.0279664,63.0255058 39.5901417,63.8691789 39.8869897,63.8848025 C40.0276019,63.9004261 40.1525905,63.8223082 40.1525905,63.7129432 Z" id="Shape"></path>
                        <path d="M6.95249135,64.8065935 C6.53065479,64.7284756 5.60886381,64.384757 4.90580288,64.0566619 C2.53101932,62.9161408 0.624943042,60.4319922 0.171859337,57.9009729 C0.0624943042,57.307277 0,53.7451017 0,48.2456029 L0,39.5120239 L0.390589402,39.137058 C0.843673107,38.6683508 1.54673403,38.6371036 2.04668846,39.0433166 L2.42165429,39.3401645 L2.49977217,48.5424508 L2.57789005,57.7291136 L3.07784448,58.7758931 C3.73403468,60.182015 4.64020209,61.1194296 5.98382963,61.7912433 C6.57752552,62.0880913 7.17122141,62.3380685 7.28058645,62.3380685 C7.46806936,62.3380685 7.49931651,59.2446004 7.49931651,42.9804577 L7.49931651,23.6384706 L6.85874989,23.5291055 C5.96820606,23.3884934 4.14024766,22.5135731 3.28095097,21.8261358 L2.57789005,21.2480634 L2.49977217,28.450532 L2.42165429,35.6530006 L2.04668846,35.9498485 C1.54673403,36.3560615 0.843673107,36.3248143 0.390589402,35.8561071 L0,35.4811412 L0,24.8727331 C0,18.0296068 0.0624943042,13.9518534 0.171859337,13.342534 C0.43746013,11.8582942 1.39049827,10.061583 2.49977217,8.93668551 C3.59342249,7.84303518 4.39022487,7.32745717 5.92133533,6.73376128 L6.95249135,6.32754831 L24.7321209,6.28067758 L42.4961269,6.24943042 L42.4961269,3.49968104 C42.4961269,0.812425955 42.4961269,0.765555227 42.8867163,0.390589402 L43.2616821,0 L57.4947599,0 L71.7278377,0 L72.1028035,0.390589402 L72.4933929,0.765555227 L72.4933929,4.3746013 L72.4933929,7.98364737 L72.1028035,8.35861319 C71.6028491,8.8741912 70.8841646,8.8741912 70.3842102,8.35861319 C69.9936208,7.98364737 69.9936208,7.93677664 69.9936208,5.23389798 L69.9936208,2.49977217 L63.7441903,2.49977217 L57.4947599,2.49977217 L57.4947599,7.10872711 L57.4947599,11.7333056 L57.1041705,12.1082714 L56.7292047,12.4988608 L52.4952156,12.4988608 L48.2612265,12.4988608 L47.8862606,12.1082714 L47.4956712,11.7333056 L47.4956712,7.10872711 L47.4956712,2.49977217 L46.2457851,2.49977217 L44.9958991,2.49977217 L44.9958991,10.9208797 L44.9958991,19.3419872 L51.2453295,22.7166796 L57.4947599,26.0757484 L63.7129432,22.7323032 L69.9155029,19.3888579 L69.9936208,15.6079525 C70.0717386,11.8895414 70.0717386,11.8426707 70.4467045,11.5458227 C70.9466589,11.1396097 71.6497198,11.1708569 72.1028035,11.6395642 C72.4933929,12.01453 72.4933929,12.0457771 72.4933929,14.998633 L72.4933929,17.982736 L72.9621002,17.7327588 C73.6182904,17.3890402 74.1651156,17.4359109 74.6025757,17.8889946 L74.9931651,18.2639604 L74.9931651,21.8417593 C74.9931651,25.0445924 74.9619179,25.466429 74.7275643,25.7476534 C74.3525985,26.1694899 57.9165965,34.9968104 57.5103835,34.9968104 C57.0885469,34.9968104 40.6369213,26.1538663 40.2619555,25.7476534 C40.0276019,25.466429 39.9963547,25.0445924 39.9963547,21.8417593 L39.9963547,18.2639604 L40.3869441,17.8889946 C40.8244043,17.4359109 41.3712294,17.3890402 42.0274196,17.7327588 L42.4961269,17.982736 L42.4961269,13.3581575 L42.4961269,8.74920259 L24.8883567,8.78044975 L7.26496287,8.82732048 L6.21818327,9.32727491 C4.7651907,10.0147123 3.85902329,10.8896325 3.15596236,12.3113779 C2.6091372,13.4362754 2.57789005,13.5768876 2.57789005,14.998633 C2.57789005,16.4203784 2.6091372,16.5609906 3.15596236,17.6858881 C4.17149481,19.716953 5.99945321,20.9980862 8.21800101,21.2011927 C9.03042696,21.2793106 9.37414564,21.3886756 9.63974643,21.6542764 L9.99908868,22.0136187 L9.99908868,43.1210699 L9.99908868,64.2285212 L9.60849928,64.603487 C9.18666272,65.0409471 8.43673107,65.0878179 6.95249135,64.8065935 Z M65.0721943,28.2474255 L72.415275,24.2946608 L72.4621458,22.6073146 C72.4777694,21.6855236 72.4621458,20.9355919 72.415275,20.9355919 C72.3684043,20.9355919 69.0562062,22.701056 65.0721943,24.8414859 C61.0881824,26.9975394 57.6822428,28.74738 57.5103835,28.74738 C57.3385241,28.74738 53.916961,26.9975394 49.9329491,24.8414859 C45.9333136,22.701056 42.6367391,20.9355919 42.5742448,20.9355919 C42.527374,20.9355919 42.5117505,21.6855236 42.527374,22.6073146 L42.5742448,24.2946608 L49.9954434,28.3099198 C54.0731968,30.512844 57.4947599,32.2939317 57.5728778,32.2626846 C57.6666192,32.2314374 61.0413117,30.4347262 65.0721943,28.2474255 Z M54.9949877,6.24943042 L54.9949877,2.49977217 L52.4952156,2.49977217 L49.9954434,2.49977217 L49.9954434,6.24943042 L49.9954434,9.99908868 L52.4952156,9.99908868 L54.9949877,9.99908868 L54.9949877,6.24943042 Z" id="Shape"></path>
                        <path d="M12.8894503,50.8547401 C12.639473,50.6203864 12.4988608,50.2922913 12.4988608,49.9954434 C12.4988608,49.4798654 13.0925567,48.7455573 13.5143933,48.7455573 C13.7174998,48.7455573 13.7487469,47.6050363 13.7487469,38.1215256 C13.7487469,28.6380149 13.7174998,27.4974939 13.5143933,27.4974939 C13.0925567,27.4974939 12.4988608,26.7631858 12.4988608,26.2476078 C12.4988608,25.9507598 12.639473,25.6226647 12.8894503,25.3883111 C13.2487925,25.0133453 13.3737811,24.9977217 14.998633,24.9977217 C16.6234849,24.9977217 16.7484735,25.0133453 17.1078158,25.3883111 C17.6233938,25.8882655 17.6233938,26.60695 17.1078158,27.1069045 C16.9047093,27.3256345 16.6234849,27.4974939 16.4828727,27.4974939 C16.2797663,27.4974939 16.2485191,28.6380149 16.2485191,38.1215256 C16.2485191,47.6050363 16.2797663,48.7455573 16.4828727,48.7455573 C16.9047093,48.7455573 17.4984052,49.4798654 17.4984052,49.9954434 C17.4984052,50.2922913 17.357793,50.6203864 17.1078158,50.8547401 C16.7484735,51.2297059 16.6234849,51.2453295 14.998633,51.2453295 C13.3737811,51.2453295 13.2487925,51.2297059 12.8894503,50.8547401 Z" id="Path"></path>
                        <path d="M24.3415315,46.0895494 C21.2324399,44.5271918 19.0138921,43.3085528 18.904527,43.1366935 C18.8107856,42.9492106 18.7482913,41.6524538 18.7482913,39.9182368 C18.7482913,37.0434988 18.7482913,37.0122517 19.1388807,36.6372859 C19.5763408,36.1842022 20.123166,36.1373314 20.7793562,36.4810501 L21.2480634,36.7310273 L21.2480634,32.4970382 L21.2480634,28.2630491 L21.6386528,27.8880833 L22.0136187,27.4974939 L29.997266,27.4974939 L37.9809134,27.4974939 L38.3558792,27.8880833 L38.7464686,28.2630491 L38.7464686,32.4970382 L38.7464686,36.7310273 L39.2151759,36.4810501 C39.8713661,36.1373314 40.4181913,36.1842022 40.8556514,36.6372859 C41.2462408,37.0122517 41.2462408,37.0434988 41.2462408,39.9182368 C41.2462408,41.6524538 41.1837465,42.9492106 41.090005,43.1366935 C40.8868986,43.5116593 30.4659733,48.7455573 29.9660189,48.7299686 C29.7629124,48.7299686 27.2318931,47.542542 24.3415315,46.0895494 Z M34.3718673,43.9022487 L38.7464686,41.7149481 L38.7464686,40.6212978 L38.7464686,39.5276474 L34.5281031,41.6368302 C32.2158138,42.7929748 30.1691254,43.746013 29.997266,43.746013 C29.8254067,43.746013 27.7787182,42.7929748 25.466429,41.6368302 L21.2480634,39.5276474 L21.2480634,40.6212978 L21.2480634,41.7149481 L25.5914176,43.8866252 C27.9662012,45.0896405 29.9347717,46.0739258 29.9660189,46.0739258 C29.9816425,46.0895494 31.9658366,45.1052641 34.3718673,43.9022487 Z M33.1219813,39.5276474 L36.2466965,37.9652898 L36.2466965,33.9812779 L36.2466965,29.997266 L34.9968104,29.997266 L33.7469243,29.997266 L33.7469243,32.1064488 C33.7469243,34.1531373 33.7313007,34.2468787 33.3563349,34.606221 C32.9813691,34.9968104 32.9501219,34.9968104 29.997266,34.9968104 C27.0444102,34.9968104 27.013163,34.9968104 26.6381972,34.606221 C26.2632314,34.2468787 26.2476078,34.1531373 26.2476078,32.1064488 L26.2476078,29.997266 L24.9977217,29.997266 L23.7478356,29.997266 L23.7478356,33.9812779 L23.7478356,37.9652898 L26.8413037,39.5120239 C28.5286499,40.3713205 29.9347717,41.0743815 29.9660189,41.0743815 C29.9816425,41.090005 31.4033879,40.3869441 33.1219813,39.5276474 Z M31.2471521,31.2471521 L31.2471521,29.997266 L29.997266,29.997266 L28.74738,29.997266 L28.74738,31.2471521 L28.74738,32.4970382 L29.997266,32.4970382 L31.2471521,32.4970382 L31.2471521,31.2471521 Z" id="Shape"></path>
                        <path d="M20.3887668,24.6071323 C20.0138009,24.24779 19.9981774,24.1228014 19.9981774,22.4979495 C19.9981774,20.8730976 20.0138009,20.748109 20.3887668,20.3887668 C20.6231204,20.1387895 20.9512155,19.9981774 21.2480634,19.9981774 C21.7636415,19.9981774 22.4979495,20.5918733 22.4979495,21.0137098 C22.4979495,21.2168163 23.216634,21.2480634 28.74738,21.2480634 C34.2781259,21.2480634 34.9968104,21.2168163 34.9968104,21.0137098 C34.9968104,20.8730976 35.1686697,20.5918733 35.3873998,20.3887668 C35.8873542,19.8731888 36.6060387,19.8731888 37.1059931,20.3887668 C37.480959,20.748109 37.4965825,20.8730976 37.4965825,22.4979495 C37.4965825,24.1228014 37.480959,24.24779 37.1059931,24.6071323 C36.8716395,24.8571095 36.5435444,24.9977217 36.2466965,24.9977217 C35.7311185,24.9977217 34.9968104,24.4040258 34.9968104,23.9821893 C34.9968104,23.7790828 34.2781259,23.7478356 28.74738,23.7478356 C23.216634,23.7478356 22.4979495,23.7790828 22.4979495,23.9821893 C22.4979495,24.4040258 21.7636415,24.9977217 21.2480634,24.9977217 C20.9512155,24.9977217 20.6231204,24.8571095 20.3887668,24.6071323 Z" id="Path"></path>
                        <path d="M54.1356911,22.1073601 C53.7451017,21.7323943 53.7451017,21.7011472 53.7451017,18.7482913 C53.7451017,14.7330322 53.4795009,14.998633 57.4947599,14.998633 C61.510019,14.998633 61.2444182,14.7330322 61.2444182,18.7482913 C61.2444182,22.7635503 61.510019,22.4979495 57.4947599,22.4979495 C54.541904,22.4979495 54.5106569,22.4979495 54.1356911,22.1073601 Z M58.744646,18.7482913 L58.744646,17.4984052 L57.4947599,17.4984052 L56.2448738,17.4984052 L56.2448738,18.7482913 L56.2448738,19.9981774 L57.4947599,19.9981774 L58.744646,19.9981774 L58.744646,18.7482913 Z" id="Shape"></path>
                        <path d="M24.138425,18.3577019 C23.7634592,17.9983596 23.7478356,17.9202417 23.7478356,15.6235761 C23.7478356,13.3269104 23.7634592,13.2487925 24.138425,12.8894503 C24.9352274,12.0770243 26.2476078,12.6550966 26.2476078,13.8268648 L26.2476078,14.3893136 L26.6538208,14.076842 C27.1850223,13.6550055 27.8099654,13.6550055 28.341167,14.076842 L28.74738,14.3893136 L28.74738,13.8268648 C28.74738,13.1081803 29.3098287,12.4988608 29.997266,12.4988608 C30.294114,12.4988608 30.6222091,12.639473 30.8565627,12.8894503 C31.2315285,13.2487925 31.2471521,13.3269104 31.2471521,15.6235761 C31.2471521,17.9202417 31.2315285,17.9983596 30.8565627,18.3577019 C30.2003725,19.0295156 29.6535474,18.8889035 28.4974027,17.7796296 L27.4974939,16.8265914 L26.497585,17.7796296 C25.3414404,18.8889035 24.7946152,19.0295156 24.138425,18.3577019 Z" id="Path"></path>
                        <path d="M60.3851215,12.1082714 C59.9945321,11.7333056 59.9945321,11.7020585 59.9945321,8.74920259 C59.9945321,4.73394355 59.7289313,4.99954434 63.7441903,4.99954434 C67.7594494,4.99954434 67.4938486,4.73394355 67.4938486,8.74920259 C67.4938486,12.7644616 67.7594494,12.4988608 63.7441903,12.4988608 C60.7913345,12.4988608 60.7600873,12.4988608 60.3851215,12.1082714 Z M64.9940764,8.74920259 L64.9940764,7.49931651 L63.7441903,7.49931651 L62.4943042,7.49931651 L62.4943042,8.74920259 L62.4943042,9.99908868 L63.7441903,9.99908868 L64.9940764,9.99908868 L64.9940764,8.74920259 Z" id="Shape"></path>
                    </g>
                </g>
            </g>
        </g>
    </g>
</svg>