<?xml version="1.0" encoding="UTF-8"?>
<svg width="75px" height="75px" viewBox="0 0 75 75" version="1.1" xmlns="http://www.w3.org/2000/svg" xmlns:xlink="http://www.w3.org/1999/xlink">
    <title>construction</title>
    <g id="Front-Page" stroke="none" stroke-width="1" fill="none" fill-rule="evenodd">
        <g id="How-Does-It-Work" transform="translate(-796.000000, -2952.000000)" fill="#E7A600" fill-rule="nonzero">
            <g id="Step-10" transform="translate(754.000000, 2952.000000)">
                <g id="construction" transform="translate(42.000000, 0.000000)">
                    <g id="Group" transform="translate(37.500000, 37.495644) scale(-1, 1) rotate(-180.000000) translate(-37.500000, -37.495644) translate(-0.000000, -0.000000)">
                        <path d="M37.1917582,74.8728146 C36.1809691,74.5651831 35.1408817,73.8473764 34.554917,73.0416749 C34.2619346,72.6607978 33.8810576,72.3678155 33.3536893,72.1627278 C31.3321111,71.3423772 29.5009713,69.6137813 28.5194805,67.5629048 C27.962814,66.4056245 27.8309719,66.2591334 27.2010599,65.9368528 C25.5603587,65.1165022 24.0222013,63.2414151 23.4215875,61.366328 L23.0993069,60.3555389 L21.9713248,59.8281706 C19.8472027,58.8027324 17.8402736,56.3709788 17.268958,54.0857165 C17.0931686,53.4118571 17.0345721,53.3532606 16.5511512,53.2653659 C15.8333445,53.1481729 15.1301868,52.6940503 14.778608,52.1227347 C14.529573,51.6979103 14.4856256,51.3756297 14.4856256,49.6909811 C14.4856256,47.0394908 14.8225553,46.3656314 16.3460636,45.9847543 C16.6976424,45.8968596 16.9759756,45.7796667 16.9759756,45.7210702 C16.9906248,45.6771229 17.1957124,43.5090534 17.4593965,40.9015105 L17.9428174,36.1698454 L17.2543089,35.862214 C16.8441336,35.7010737 16.2288706,35.2323019 15.8040462,34.7781792 C15.2620289,34.2068636 14.9543974,33.9871269 14.661415,33.9871269 L14.2658888,33.9871269 L11.2042232,45.2376493 C7.20501408,59.9307145 7.70308408,58.3632589 6.72159319,59.3447498 C5.76940053,60.2969424 5.02229553,60.5752757 3.61598022,60.4727318 C2.5319455,60.3994862 1.81413873,60.0918548 1.11098108,59.374048 C0.305279602,58.5829956 0.0708937171,57.9677327 0.012297246,56.5321191 C-0.0462992251,55.2869441 -0.00235187179,55.1111547 2.67843668,44.8860705 C4.18729581,39.1729146 5.44711994,34.3826531 5.4910673,34.250811 C5.54966377,34.0310742 5.47641818,33.9871269 5.080892,33.9871269 C3.90896258,33.9871269 2.8542261,33.3132675 2.48799815,32.3317766 C2.40010344,32.0973907 2.32685786,31.145198 2.32685786,30.2223036 C2.32685786,28.7866901 2.37080521,28.405813 2.63448933,27.8930939 C2.95676992,27.2192345 3.55738375,26.7651118 4.33378699,26.5893224 C4.59747111,26.545375 4.81720788,26.413533 4.81720788,26.29634 C4.81720788,25.417393 5.85729524,3.45836542 5.91589171,3.033541 C6.07703201,1.86161158 6.99992643,0.675033037 8.06931203,0.235559504 C8.55273291,0.030471855 11.8341353,0.00117361943 38.5248279,0.00117361943 C71.6464832,0.00117361943 69.0242911,-0.0720719695 69.756747,0.938717158 C70.0790276,1.39283981 70.0790276,1.4660854 70.122975,7.07669751 C70.1669223,13.4930111 70.1669223,13.4637129 69.0828876,14.1815196 L68.4969229,14.5770458 L64.4830646,14.6209932 L60.4838555,14.6649405 L60.4838555,19.8360791 C60.4838555,24.9632703 60.4838555,25.0072177 60.1615749,25.4906386 C59.5170137,26.4281821 59.1654349,26.5893224 57.4661372,26.6332697 C56.3821025,26.6772171 55.9426289,26.7358136 55.9865763,26.8530065 C56.0158745,26.9555503 57.5540319,35.0858107 59.3998207,44.944667 L62.7544687,62.8458889 L67.3542917,62.8458889 C70.4452555,62.8458889 72.1299041,62.9044854 72.5254303,63.0216783 C73.2725353,63.2414151 74.3712191,64.222906 74.7081488,64.970011 C75.0743768,65.7610633 75.103675,69.5844831 74.7520962,70.4341319 C74.4737629,71.1226405 73.7706053,71.8550963 73.0088512,72.2652716 C72.4375356,72.5875522 72.3203426,72.5875522 65.6842923,72.5875522 C59.0335928,72.5875522 58.931049,72.5875522 58.3450843,72.2652716 C57.568681,71.8550963 56.9241198,71.1079913 56.6311375,70.3022899 C56.4992954,69.950711 56.0598219,67.7533434 55.6349975,65.4094845 C55.2101731,63.0802748 54.8439451,61.1319421 54.829296,61.1026439 C54.7999978,61.0733457 54.6388575,61.2198368 54.4777172,61.4249245 C54.0235945,61.9962401 52.4561389,63.1388713 51.5039463,63.5636957 C50.7128939,63.9299236 50.6396483,64.0178183 50.1562274,65.0286075 C49.0868418,67.2406242 47.2264039,68.9985184 45.1022818,69.7895707 C44.4723697,70.0239566 44.3991241,70.1118513 43.6666682,71.562114 C42.392195,74.0671131 41.0151779,75.0193058 38.6859682,74.9906616 C38.0707052,74.9906616 37.3968458,74.9314111 37.1917582,74.8728146 Z M39.6381608,72.2945699 C40.4878097,71.9429911 40.6782482,71.693956 41.6597391,69.7309743 L42.5826335,67.8851854 L43.4322824,67.6215013 C45.7614921,66.9036945 47.6512283,65.0139583 48.2518421,62.7872924 C48.5008771,61.8497489 48.5155262,61.8497489 49.1893856,61.6739595 C50.2148239,61.4102754 51.5185954,60.6631704 52.3242968,59.8574689 C52.9981563,59.1836095 54.0382436,57.3671189 54.0382436,56.8690489 C54.0382436,56.7518559 53.8917525,55.9168562 53.7306122,54.9939618 L53.4083316,53.3239623 L36.5764952,53.3239623 L19.7446589,53.3239623 L19.8472027,53.6608921 C20.4624657,55.638523 22.4547457,57.4989609 24.5202713,58.0263292 C24.9011484,58.1142239 25.223429,58.2753642 25.2527272,58.3632589 C25.2820254,58.4511536 25.4578148,59.0664165 25.6336042,59.7402759 C26.1902707,61.8936963 27.4207966,63.3293098 29.2812346,64.0178183 L30.1015852,64.3254498 L30.3652693,65.2776425 C30.702199,66.464221 31.4932514,67.709396 32.445444,68.5443957 C33.2071981,69.2329043 34.5988643,69.9653602 35.4192149,70.1118513 C35.7707938,70.1850969 35.9758814,70.3462372 36.1516708,70.6538687 C37.0013196,72.2359734 38.3050911,72.8512364 39.6381608,72.2945699 Z M72.1445532,69.6870269 C72.4668338,69.3061499 72.496132,69.1450096 72.496132,67.7533434 C72.496132,66.3616772 72.4668338,66.2005369 72.1445532,65.8196598 L71.7929744,65.4094845 L65.0397311,65.3655372 C61.3188552,65.350888 58.2864878,65.3801863 58.2864878,65.4387828 C58.3011369,65.8782563 59.0042946,69.2768516 59.1507857,69.5405357 C59.2386804,69.7309743 59.5316628,69.9360619 59.7953469,70.0093075 C60.059031,70.0972022 62.7105214,70.1411496 66.021222,70.1265004 L71.7929744,70.0972022 L72.1445532,69.6870269 Z M60.0443819,62.5968539 C60.0443819,62.4503627 58.5355228,54.3201024 56.7043831,44.5344917 L53.3497351,26.7358136 L52.221753,26.6918662 C51.1816657,26.6479189 51.093771,26.6772171 51.1670165,26.911603 C51.1963148,27.0580942 52.6905248,35.1151089 54.4777172,44.827474 C56.2502604,54.5398391 57.7444704,62.5675557 57.7737687,62.6700995 C57.817716,62.7872924 58.183944,62.8458889 58.9456981,62.8458889 C59.8978907,62.8458889 60.0443819,62.8165907 60.0443819,62.5968539 Z M4.93440082,57.5282592 C5.18343582,57.264575 5.91589171,54.8181724 8.40624174,45.6478246 C10.1348376,39.3047566 11.5558021,34.0896707 11.5558021,34.0457233 C11.5558021,34.0164251 10.8086971,33.9871269 9.88580263,33.9871269 L8.2158032,33.9871269 L8.11325938,34.3973022 C8.06931203,34.6170389 6.76554054,39.5244934 5.24203229,45.325544 C3.71852405,51.1119456 2.47334903,56.0926456 2.47334903,56.4002771 C2.47334903,57.0008909 2.89817345,57.6601012 3.41089257,57.879838 C3.86501522,58.0702765 4.55352376,57.9091362 4.93440082,57.5282592 Z M52.8663142,50.5259809 C52.8663142,50.423437 52.7930686,49.9400161 52.6905248,49.427297 L52.5293845,48.4897535 L34.7453555,48.4897535 L16.9759756,48.4897535 L16.9759756,49.5884373 L16.9759756,50.6871211 L34.9211449,50.6871211 C48.2078948,50.6871211 52.8663142,50.6431738 52.8663142,50.5259809 Z M51.9873671,45.7064211 C51.9873671,45.5159826 48.61807,27.2338836 48.5301753,26.9262521 C48.4569298,26.6918662 48.0614036,26.6772171 44.2965803,26.6332697 C40.3706167,26.5893224 40.1215817,26.5746733 39.7407047,26.2816909 C39.5209679,26.1205506 39.1986873,25.79827 39.037547,25.5785333 C38.7445647,25.1976562 38.7299155,24.9632703 38.6859682,19.9093247 L38.6420208,14.6502914 L36.0198288,14.6502914 L33.3829876,14.6502914 L33.3829876,15.4999402 C33.3829876,15.9540629 33.4855314,18.2832726 33.6027243,20.6564297 C33.7199173,23.0295868 33.8224611,25.3148491 33.8224611,25.7103753 L33.8224611,26.4574803 L34.4523732,26.6186206 C35.9612323,27.0287959 36.3128111,27.7173045 36.3128111,30.2369527 C36.3128111,32.390373 36.1077235,32.9909869 35.184829,33.5623025 C34.6281626,33.9138813 34.6135134,33.9138813 29.1054452,33.9578286 L23.5680786,34.001776 L23.1725525,34.5144951 C22.7184298,35.1297581 21.8101845,35.7743192 21.0484304,36.0526525 C20.7407989,36.1551963 20.4917639,36.3163366 20.4917639,36.4042313 C20.4917639,36.4774769 20.2866763,38.4990552 20.0522904,40.8722122 C19.8179045,43.2453693 19.6128168,45.3401932 19.6128168,45.5306317 L19.6128168,45.8529123 L35.800092,45.8529123 C45.9665797,45.8529123 51.9873671,45.7943158 51.9873671,45.7064211 Z M20.5796586,33.4011622 C21.2828163,32.9616886 21.7222898,32.0680924 21.619746,31.2330927 C21.3853601,29.0650233 18.5287821,28.3765148 17.4154492,30.2076545 C16.7855371,31.2477419 16.90273,32.258531 17.767028,33.0935307 C18.6020277,33.8992322 19.5835186,34.001776 20.5796586,33.4011622 Z M14.4856256,30.9254613 C14.4856256,30.6910754 14.5881694,30.2223036 14.7053624,29.8853739 C14.8225553,29.5484442 14.9250991,29.2408127 14.9250991,29.2115145 C14.9250991,29.1822162 12.6837841,29.152918 9.9443991,29.152918 L4.96369906,29.152918 L4.96369906,30.2516018 L4.96369906,31.3502857 L9.72466234,31.3502857 L14.4856256,31.3502857 L14.4856256,30.9254613 Z M33.8224611,30.2516018 L33.8224611,29.152918 L28.7538663,29.152918 C23.9782539,29.152918 23.6852716,29.1675671 23.7878154,29.4166021 C23.861061,29.5484442 24.0075522,30.0465142 24.1247451,30.515286 L24.3444819,31.3502857 L29.0761469,31.3502857 L33.8224611,31.3502857 L33.8224611,30.2516018 Z M17.7816771,25.6957262 C17.2396598,21.3595873 14.9983447,16.466782 11.8048371,12.6433623 C10.6915041,11.3249417 8.3769435,9.14222312 8.23045232,9.28871429 C8.14255762,9.36195988 7.4686982,23.6302006 7.45404908,25.3880947 L7.45404908,26.5160768 L12.669135,26.5160768 L17.8842209,26.5160768 L17.7816771,25.6957262 Z M31.2588655,25.3148491 C31.2149181,24.6409897 31.0830761,21.9602012 30.9658831,19.3673073 C30.8486902,16.7597644 30.7168481,14.5623967 30.6582516,14.4891511 C30.6143043,14.4159055 30.4971114,14.357309 30.4092166,14.357309 C30.1455325,14.3426599 29.6328134,13.8738882 29.2958837,13.3172217 C29.0029013,12.8338008 28.9882522,12.6287131 28.9882522,7.66266222 L28.9882522,2.49152364 L19.1147468,2.49152364 L9.22659233,2.49152364 L8.83106615,2.82845335 C8.46483821,3.13608482 8.43553997,3.26792689 8.36229438,4.57169837 L8.28904879,5.96336456 L9.4463291,6.82766251 C10.0908903,7.29643428 11.3360653,8.40976723 12.2150124,9.30336341 C15.6429059,12.7166079 18.0307121,16.6718697 19.3930801,21.1837979 C19.8179045,22.5901132 20.4917639,25.7689718 20.4917639,26.3842347 C20.4917639,26.4574803 22.7916754,26.5160768 25.9119375,26.5160768 L31.3321111,26.5160768 L31.2588655,25.3148491 Z M57.9935054,19.4112547 L57.9935054,14.6502914 L49.5702627,14.6502914 L41.14702,14.6502914 L41.14702,19.4112547 L41.14702,24.172218 L49.5702627,24.172218 L57.9935054,24.172218 L57.9935054,19.4112547 Z M48.3250877,7.25248692 L48.3250877,2.49152364 L39.901845,2.49152364 L31.4786022,2.49152364 L31.4786022,7.25248692 L31.4786022,12.0134502 L39.901845,12.0134502 L48.3250877,12.0134502 L48.3250877,7.25248692 Z M67.6619232,7.25248692 L67.6619232,2.49152364 L59.2386804,2.49152364 L50.8154377,2.49152364 L50.8154377,7.25248692 L50.8154377,12.0134502 L59.2386804,12.0134502 L67.6619232,12.0134502 L67.6619232,7.25248692 Z" id="Shape"></path>
                        <path d="M37.3382494,67.6215013 C36.4300041,67.3871154 35.6975482,66.9183437 35.0090396,66.1126422 C34.3498293,65.3801863 33.8224611,64.1350113 33.8224611,63.358608 L33.8224611,62.8458889 L35.052987,62.8458889 C36.2835129,62.8458889 36.2835129,62.8458889 36.3860567,63.2560642 C36.6057935,64.2668533 37.5579861,65.1897478 38.407635,65.1897478 L38.8031611,65.1897478 L38.8031611,66.5081684 L38.8031611,67.826589 L38.407635,67.8119398 C38.1732491,67.8119398 37.7044773,67.7240451 37.3382494,67.6215013 Z" id="Path"></path>
                        <path d="M30.0136905,60.370188 C28.5194805,59.9160654 27.2450072,58.6562412 26.7908846,57.1766803 C26.6297443,56.6493121 26.4979022,56.0633474 26.4979022,55.8729088 C26.4979022,55.52133 26.5272004,55.52133 27.8163228,55.52133 C29.1347434,55.52133 29.1347434,55.52133 29.1347434,55.887558 C29.1347434,56.7372068 30.0429887,57.7333468 31.0098305,57.9384345 L31.4786022,58.0409783 L31.4786022,59.2715042 L31.4786022,60.5020301 L30.9365849,60.4873809 C30.6289534,60.4873809 30.2187781,60.4287845 30.0136905,60.370188 Z" id="Path"></path>
                        <path d="M43.4908788,59.2861533 C43.4908788,58.0409783 43.4908788,58.0409783 43.9010541,57.9384345 C44.9118433,57.7186977 45.8347377,56.766505 45.8347377,55.9315053 L45.8347377,55.52133 L47.1531583,55.52133 C48.4422806,55.52133 48.4715789,55.52133 48.4715789,55.8729088 C48.4715789,56.0633474 48.3397368,56.6493121 48.1785965,57.1766803 C47.6365792,58.9199253 46.0105271,60.2822933 44.2819312,60.4580827 L43.4908788,60.5459774 L43.4908788,59.2861533 Z" id="Path"></path>
                    </g>
                </g>
            </g>
        </g>
    </g>
</svg>