<?xml version="1.0" encoding="UTF-8"?>
<svg width="75px" height="75px" viewBox="0 0 75 75" version="1.1" xmlns="http://www.w3.org/2000/svg" xmlns:xlink="http://www.w3.org/1999/xlink">
    <title>sign-up</title>
    <g id="Front-Page" stroke="none" stroke-width="1" fill="none" fill-rule="evenodd">
        <g id="How-Does-It-Work" transform="translate(-195.000000, -2177.000000)" fill="#E6A600" fill-rule="nonzero">
            <g id="Step-1" transform="translate(163.000000, 2177.000000)">
                <g id="sign-up" transform="translate(32.000000, 0.000000)">
                    <g id="Group" transform="translate(37.500000, 37.500000) scale(-1, 1) rotate(-180.000000) translate(-37.500000, -37.500000) translate(-0.000000, -0.000000)">
                        <path d="M4.69207496,74.7857041 C2.48145618,74.1703915 0.666113605,72.2512021 0.168358384,70.009706 C0.0512395081,69.4383443 0.00731992973,67.5045046 0.0512395081,63.2705676 C0.0951590865,57.5276496 0.109798946,57.3078951 0.417235995,56.5314292 C1.11994925,54.817344 2.5107359,53.4841666 4.23823931,52.8542036 L5.2191099,52.5025964 L37.5,52.5025964 C68.8292992,52.5025964 69.8101698,52.5172467 70.5860824,52.7809521 C72.708862,53.5134672 74.2021277,55.0956997 74.7438025,57.1906927 C74.9341206,57.8939072 74.9780402,59.0659312 74.9780402,63.6661257 C74.9780402,67.2554495 74.9194808,69.5408964 74.8170018,70.0390066 C74.3338864,72.2805027 72.503904,74.1850418 70.2347257,74.7857041 C69.166016,75.0787102 5.73150498,75.0640599 4.69207496,74.7857041 Z M70.3664845,72.1046991 C71.0545579,71.7384415 71.7572711,71.0205768 72.1379075,70.3027121 C72.3867851,69.8339024 72.4160648,69.3211419 72.4599844,64.1056348 C72.503904,57.7181035 72.4599844,57.3664963 71.5523131,56.2970244 C71.2595159,55.9600674 70.7032012,55.5352087 70.2640055,55.3447548 L69.4880929,54.9931476 L37.5,54.9931476 L5.51190709,54.9931476 L4.73599453,55.3447548 C4.31143861,55.5352087 3.74048409,55.9600674 3.46232676,56.2823741 C2.5107359,57.3811466 2.49609604,57.5862508 2.54001562,64.017733 C2.58393519,69.3211419 2.61321491,69.8339024 2.86209252,70.3027121 C3.38912746,71.2989325 4.28215889,72.0607482 5.29230919,72.3684045 C5.49726723,72.4270057 20.0932071,72.4709566 37.7195979,72.4563063 L69.7808901,72.4270057 L70.3664845,72.1046991 Z" id="Shape"></path>
                        <path d="M12.5536795,69.7753012 C11.5288893,69.4529946 10.5040992,68.3981729 10.1966621,67.2994004 C9.91850478,66.3471308 9.97706422,65.6292661 10.41626,64.6183953 L10.7090572,63.973782 L10.0502635,63.241267 C9.18651181,62.2743471 8.76195589,61.1316237 8.83515518,59.9449493 C8.89371462,58.9194282 9.17187195,58.4359683 9.97706422,57.8939072 C10.4455397,57.5716005 10.5772985,57.5569502 13.7834277,57.5569502 C16.9895569,57.5569502 17.1213156,57.5716005 17.604431,57.8939072 C18.3657037,58.3920174 18.8048995,59.344287 18.7170603,60.369808 C18.6292212,61.3953291 18.1021862,62.5966538 17.3701932,63.4024203 L16.8285184,64.0030826 L17.0920359,64.5451438 C17.4726723,65.3509103 17.5312317,66.7866398 17.2237947,67.621707 C16.8431583,68.5886268 15.8915674,69.4969455 14.9399766,69.7753012 C14.0030256,70.0536569 13.4906305,70.0536569 12.5536795,69.7753012 Z M14.3543822,67.2994004 C15.4523717,66.7426889 14.9838962,65.0286037 13.7395081,65.0286037 C12.49512,65.0286037 12.085204,66.7719895 13.1978333,67.328701 C13.6663088,67.5631058 13.856627,67.5631058 14.3543822,67.2994004 Z M14.5593402,62.3329483 C15.2913332,62.0692429 15.6719695,61.7176357 15.9940465,60.999771 C16.4478821,60.0182008 16.5357213,60.0475014 13.7834277,60.0475014 C11.045774,60.0475014 11.0896935,60.0182008 11.4996096,60.9704704 C11.7631271,61.585783 12.3048019,62.0692429 13.0075151,62.318298 C13.6955885,62.5673532 13.8712668,62.5673532 14.5593402,62.3329483 Z" id="Shape"></path>
                        <path d="M26.9593012,67.328701 C26.1833886,66.9331428 26.0516299,65.9222721 26.6957837,65.3216097 C27.0032208,65.043254 27.1935389,65.0286037 30.5607066,65.0286037 C32.5078079,65.0286037 34.2206715,65.0725546 34.3524302,65.1165055 C34.6305875,65.2337079 35.0112239,65.9222721 35.0112239,66.3471308 C35.0112239,66.5229344 34.8209057,66.8598913 34.586668,67.0942961 L34.162112,67.5191549 L30.7363849,67.5191549 C28.2768885,67.5191549 27.2228187,67.4605537 26.9593012,67.328701 Z" id="Path"></path>
                        <path d="M26.9593012,62.3475986 C26.1980285,61.9666908 26.0516299,60.9558201 26.666504,60.3405074 C26.9593012,60.0475014 27.2374585,60.0475014 46.8695101,60.0475014 C66.5015616,60.0475014 66.7797189,60.0475014 67.0725161,60.3405074 C67.6873902,60.9558201 67.5409916,61.9666908 66.7797189,62.3475986 C66.2380441,62.6259544 27.500976,62.6259544 26.9593012,62.3475986 Z" id="Path"></path>
                        <path d="M5.02879172,48.6056164 C2.75961351,48.1661073 0.856431778,46.3201694 0.241557681,44.0054219 C-0.080519227,42.7308457 -0.080519227,32.2412302 0.241557681,30.966654 C0.871071638,28.578655 2.74497365,26.8059686 5.1459106,26.3518092 C6.21462034,26.146705 68.7853797,26.146705 69.8540894,26.3518092 C72.2550264,26.8059686 74.1289284,28.578655 74.7584423,30.966654 C75.0805192,32.2412302 75.0805192,42.7308457 74.7584423,44.0054219 C74.1289284,46.3934209 72.2550264,48.1661073 69.8540894,48.6202667 C68.8878587,48.7960703 5.95110287,48.7960703 5.02879172,48.6056164 Z M69.79553,46.056464 C70.6739215,45.7927586 71.6547921,45.0016423 72.0939879,44.1665752 C72.4014249,43.5805631 72.4160648,43.4340601 72.4599844,37.7936943 C72.503904,31.1278073 72.4892641,31.0252552 71.3180753,29.8532312 C70.0590474,28.5933053 73.1187781,28.6958574 37.5,28.6958574 C10.0795432,28.6958574 5.83398399,28.725158 5.20447004,28.9156119 C4.32607847,29.1793173 3.34520789,29.9704336 2.9060121,30.8055007 C2.58393519,31.3915128 2.58393519,31.4940649 2.58393519,37.4860379 C2.58393519,43.478011 2.58393519,43.5805631 2.9060121,44.1665752 C3.33056803,44.9723417 4.31143861,45.7927586 5.1459106,46.056464 C6.17070076,46.3641203 68.7268202,46.3787706 69.79553,46.056464 Z" id="Shape"></path>
                        <path d="M7.75180558,43.5805631 C6.52205739,43.2436062 5.58510638,42.305987 5.20447004,41.0460611 C4.91167285,40.0644909 4.92631271,34.8782844 5.2191099,33.8820639 C5.49726723,32.959095 6.27317978,32.036126 7.1662112,31.596617 C7.8542846,31.25966 7.86892446,31.25966 13.7834277,31.25966 L19.7125708,31.25966 L20.517763,31.7138194 C21.4839938,32.2558805 22.1720671,33.1934998 22.4063049,34.2629717 C22.6112629,35.2298916 22.6112629,39.7421843 22.4063049,40.7091042 C22.1720671,41.7785761 21.4839938,42.7161954 20.517763,43.2582565 L19.7125708,43.7124158 L14.0762249,43.7417164 C9.84530549,43.771017 8.26420066,43.7270661 7.75180558,43.5805631 Z M17.4433925,41.236515 C17.4433925,41.2072144 16.7260394,40.6505029 15.8476479,39.9912394 C13.754148,38.4236572 13.7395081,38.4236572 11.6899278,39.9765891 C10.8261761,40.6212023 10.1234628,41.1925641 10.1234628,41.2218647 C10.1234628,41.2658156 11.7777669,41.2951162 13.7834277,41.2951162 C15.8037283,41.2951162 17.4433925,41.2658156 17.4433925,41.236515 Z M9.91850478,38.1892524 C11.0604138,37.3395349 12.2023229,36.5777193 12.4658403,36.4751672 C13.2124732,36.2261121 14.6471794,36.2847133 15.3206129,36.5923696 C15.6426898,36.7388726 16.7845989,37.5299888 17.8679485,38.3504057 C18.9366582,39.1561723 19.8736092,39.8300861 19.9468085,39.8300861 C20.1371267,39.8300861 20.107847,35.3324437 19.9175288,34.6585299 C19.6540113,33.7062603 19.478333,33.6769597 13.7834277,33.6769597 C8.33739996,33.6769597 7.91284404,33.7355609 7.63468671,34.4827263 C7.54684755,34.7024808 7.48828811,36.0210079 7.48828811,37.442087 C7.48828811,39.4784789 7.53220769,39.9765891 7.67860629,39.874037 C7.76644544,39.7861352 8.77659574,39.0389698 9.91850478,38.1892524 Z" id="Shape"></path>
                        <path d="M26.9885809,41.0753617 C26.1833886,40.7237545 26.0223502,39.7421843 26.666504,39.097571 C26.9446613,38.8192153 27.1642592,38.804565 30.6046262,38.804565 C34.689147,38.804565 34.791626,38.8338656 34.9526645,39.8447364 C35.0258638,40.2695951 34.9673043,40.4453987 34.6745071,40.797006 L34.3085106,41.2218647 L30.8827835,41.2511653 C28.1597697,41.2804659 27.3692173,41.2511653 26.9885809,41.0753617 Z" id="Path"></path>
                        <path d="M26.666504,35.8745048 C26.0077103,35.2152413 26.1833886,34.2336711 27.0325005,33.8967142 C27.7937732,33.5744076 65.9452469,33.5744076 66.7065196,33.8967142 C67.5556315,34.2336711 67.7313098,35.2152413 67.0725161,35.8745048 C66.7797189,36.1675109 66.5015616,36.1675109 46.8695101,36.1675109 C27.2374585,36.1675109 26.9593012,36.1675109 26.666504,35.8745048 Z" id="Path"></path>
                        <path d="M21.0594378,22.3815777 C18.5706617,22.0592711 16.4039625,20.9604985 14.5154207,19.0413091 C12.49512,17.0049172 11.4849697,14.70482 11.3385711,11.8480113 C11.0750537,6.64715446 14.061585,2.28136478 19.1123365,0.523328667 L20.4445637,0.0545190373 L36.768007,0.0105681345 C48.7141323,-0.0187324674 53.3842475,0.0105681345 54.1894398,0.127770542 C59.9429045,1.0360892 63.9688659,6.00254122 63.6614289,11.8480113 C63.5150303,14.7634212 62.50488,17.0195675 60.4113801,19.0999103 C59.6940269,19.8324253 58.7131564,20.6381919 58.2593207,20.9165476 C57.088132,21.5904614 55.2288698,22.2057741 53.750244,22.3815777 C52.2276986,22.5720316 22.5380636,22.5720316 21.0594378,22.3815777 Z M54.6579153,19.7152229 C57.0002928,19.0266588 59.1377123,17.3418741 60.1625024,15.4080344 C62.914796,10.1925273 59.9575444,3.89289788 54.2040796,2.69157321 C53.2964084,2.50111929 50.9247511,2.47181869 37.0168846,2.50111929 L20.8837595,2.5450702 L19.9321687,2.86737682 C16.2429241,4.1273027 13.7980675,7.46757131 13.7834277,11.2619993 C13.7834277,15.5545374 17.0920359,19.3343151 21.352235,19.8910265 C21.8939098,19.964278 29.4334374,20.0082289 38.0855944,19.9935786 C52.4472965,19.9789283 53.8966426,19.9496277 54.6579153,19.7152229 Z" id="Shape"></path>
                        <path d="M38.6711888,12.7270294 C36.0945735,10.7931896 33.9425142,9.21095713 33.8839547,9.21095713 C33.8253953,9.21095713 33.3276401,9.65046615 32.7859653,10.1925273 C31.9222135,11.0422447 31.7318954,11.1740975 31.2634199,11.1740975 C30.5899863,11.1740975 30.0336717,10.5880854 30.0336717,9.89952127 C30.0336717,9.51861345 30.2679094,9.21095713 31.6147765,7.86312944 C33.0348429,6.44205025 33.2544408,6.28089694 33.7082764,6.28089694 C34.162112,6.28089694 34.9233847,6.79365747 39.4178216,10.1632267 C42.2725942,12.3021706 44.688171,14.1627588 44.79065,14.2946116 C45.0102479,14.6022679 45.0102479,15.3640835 44.7760102,15.6717398 C44.5417724,15.9793962 44.0293773,16.2431016 43.6633808,16.2431016 C43.5023424,16.2431016 41.247804,14.6608691 38.6711888,12.7270294 Z" id="Path"></path>
                    </g>
                </g>
            </g>
        </g>
    </g>
</svg>