<?xml version="1.0" encoding="UTF-8"?>
<svg width="75px" height="75px" viewBox="0 0 75 75" version="1.1" xmlns="http://www.w3.org/2000/svg" xmlns:xlink="http://www.w3.org/1999/xlink">
    <title>megaphone</title>
    <g id="Front-Page" stroke="none" stroke-width="1" fill="none" fill-rule="evenodd">
        <g id="How-Does-It-Work" transform="translate(-501.000000, -2413.000000)" fill="#E7A600" fill-rule="nonzero">
            <g id="Step-5" transform="translate(458.000000, 2413.000000)">
                <g id="megaphone" transform="translate(43.000000, 0.000000)">
                    <g id="Group" transform="translate(37.500000, 37.500000) scale(-1, 1) rotate(-180.000000) translate(-37.500000, -37.500000) translate(-0.000000, 0.000000)">
                        <path d="M31.8997309,74.616432 C31.5331269,74.2644922 30.4186506,71.4196449 24.2743672,54.9224637 L17.0742641,35.639092 L9.91815349,28.4536531 C5.68021095,24.1863822 2.55674465,20.9309384 2.21946894,20.432357 C1.42760425,19.2005674 0.709060356,17.616838 0.357120491,16.2823994 C-0.0828043403,14.6693417 -0.126796823,11.6485245 0.283799686,10.0501309 C1.54491754,5.10830867 5.10830867,1.54491754 10.0501309,0.283799686 C11.6485245,-0.126796823 14.6693417,-0.0828043403 16.2823994,0.357120491 C17.6315022,0.723724517 19.2152316,1.44226841 20.432357,2.23413311 C20.886946,2.54208049 22.6906378,4.18446652 24.4356729,5.90017337 C26.1807081,7.61588021 27.6617884,9.02363967 27.7351092,9.02363967 C27.80843,9.02363967 29.8760767,7.01464961 32.3396557,4.55107055 C35.3311446,1.5595817 36.9295381,0.0638372701 37.193493,0.00518062593 C37.6187537,-0.0974685014 48.7488519,2.70338626 49.4967242,3.08465445 C49.9806415,3.33394518 50.303253,4.03782491 50.1712756,4.58039887 C50.0979548,4.85901793 48.0009797,7.05864209 43.7337089,11.325913 C40.2583027,14.8159833 37.4427838,17.6901588 37.4721121,17.7194872 C37.5161046,17.7634797 38.8358791,18.2620611 40.4049443,18.8339634 C43.4404256,19.9631038 44.0709846,20.3590362 44.0709846,21.1362367 C44.0709846,21.9281014 43.4110973,22.6466453 42.6778893,22.6613094 C42.4432627,22.6613094 40.6249067,22.0600788 38.6599091,21.3268708 L35.0818538,19.9924321 L27.5444751,27.5298109 L19.9924321,35.0818538 L24.4210088,46.9451601 C26.8552595,53.4707118 28.9229062,58.9844364 29.0255553,59.2190629 C29.1868611,59.6149953 29.2601819,59.5416745 44.4082603,44.3935961 L59.6296594,29.1721969 L57.8992884,28.5269739 C55.4357094,27.6177959 54.9371279,27.3685051 54.7025013,26.899252 C54.3798898,26.2833572 54.4385464,25.7994399 54.9077996,25.2715301 C55.2597394,24.8755978 55.4357094,24.802277 55.9049625,24.8169411 C56.2275741,24.8316053 60.1135768,26.1953723 65.3340181,28.1457057 C72.7394194,30.9172321 74.2791563,31.547791 74.616432,31.8997309 C75.0563569,32.3983124 75.1150135,32.8822297 74.8070661,33.4834603 C74.6897528,33.7034227 71.5956149,36.8708815 67.9295746,40.5369218 L61.2720455,47.1797867 L61.7559628,48.0009797 C62.7531257,49.6433658 63.1637223,51.1537744 63.1637223,53.1627644 C63.1783864,58.2805566 59.4536895,62.4891708 54.3505615,63.1490581 C52.1802656,63.4276772 49.2914259,62.7384616 47.6197115,61.5360004 L47.209115,61.2427172 L40.5369218,67.9149104 C36.8708815,71.5956149 33.7034227,74.6897528 33.4834603,74.8070661 C32.8822297,75.1150135 32.3983124,75.0563569 31.8997309,74.616432 Z M52.121609,52.0776165 C62.3865217,41.8127038 70.7304294,33.366147 70.6720801,33.3221545 C70.5984519,33.278162 68.7507676,32.5742823 66.5804718,31.7677535 L62.6358125,30.272009 L46.4612428,46.4465787 L30.2866732,62.6211483 L31.7824176,66.6831209 C32.6182748,68.9267375 33.3221545,70.7597577 33.366147,70.7597577 C33.4101395,70.7597577 41.8420321,62.3571934 52.121609,52.0776165 Z M55.1570903,59.9669351 C57.3713786,59.3657045 59.3363762,57.3860428 59.9962635,55.0984337 C60.4801808,53.4707118 60.1722334,50.9338119 59.3657045,49.6873583 L59.131078,49.3207542 L54.2479123,54.2039199 C50.5672079,57.8846243 49.394075,59.131078 49.5113883,59.2777196 C49.7313507,59.5270103 51.124446,60.040256 52.033624,60.1868976 C52.9281378,60.3482033 54.1159349,60.2602184 55.1570903,59.9669351 Z M26.1073873,11.692517 C22.3240337,7.92382759 19.156575,4.88834625 18.6726576,4.58039887 C15.431878,2.46875968 11.1792713,2.35144639 7.86517095,4.28711565 C6.64804558,5.00565954 5.00565954,6.64804558 4.28711565,7.86517095 C3.33394518,9.49289282 2.96734116,10.871324 2.952677,12.9096423 C2.93801284,14.9332966 3.15797525,15.9157954 4.00849659,17.6754947 C4.50707807,18.7166501 4.90301042,19.1272466 11.4285621,25.7114549 L18.3353819,32.632939 L25.5208208,25.4475 L32.7062598,18.247397 L26.1073873,11.692517 Z M45.7573631,5.09364451 C45.7280348,5.06431619 43.9683354,4.58039887 41.8420321,4.03782491 L37.9853577,3.0259978 L33.8793926,7.13196289 L29.7734276,11.2232638 L32.2663349,13.7161712 L34.7592423,16.2090786 L40.287631,10.6806899 C43.3231124,7.64520853 45.7866914,5.12297283 45.7573631,5.09364451 Z" id="Shape"></path>
                        <path d="M23.5558233,18.1007554 C22.9545927,17.4995248 22.9399285,16.8396375 23.5264949,16.1797503 C24.5969787,14.9772891 26.5033196,16.2677352 25.8141041,17.7194872 C25.3741792,18.6579935 24.2890313,18.8339634 23.5558233,18.1007554 Z" id="Path"></path>
                        <path d="M19.5818356,13.9947903 C19.3765374,13.9068053 18.3207178,12.968299 17.2355699,11.8831511 C14.9919532,9.66886276 14.4347151,9.31692289 13.056284,9.31692289 C12.0884493,9.31692289 11.3552413,9.59554195 10.3434142,10.32875 C9.55154947,10.9006523 9.02363967,10.9153164 8.40774491,10.3580783 C8.01181256,10.0061385 7.92382759,9.83016853 7.92382759,9.33158705 C7.92382759,8.83300558 8.02647672,8.64237148 8.49572987,8.15845417 C10.0354668,6.58938894 12.7483366,5.95883001 15.0066174,6.64804558 C16.3117277,7.05864209 17.250234,7.76252182 19.4791865,10.0208026 C21.3855274,11.9564719 21.4881766,12.0884493 21.4881766,12.6456874 C21.4881766,13.0856123 21.3855274,13.334903 21.1069084,13.6281862 C20.886946,13.8334845 20.6376552,14.0094544 20.5203419,14.0094544 C20.4176928,14.0094544 20.256387,14.0387827 20.1390737,14.0681111 C20.0364246,14.1121036 19.7871339,14.0681111 19.5818356,13.9947903 Z" id="Path"></path>
                        <path d="M59.1017496,74.8510586 C58.3538774,74.4257979 58.2952208,74.2058355 58.2952208,71.7422565 L58.2952208,69.4106549 L58.7204815,68.9853942 C59.3070479,68.3988277 60.0255918,68.3988277 60.6708149,68.9853942 L61.1547322,69.4106549 L61.1547322,71.7715848 C61.1547322,74.1031864 61.1547322,74.1325147 60.773464,74.4991187 C60.3482033,74.9243794 59.5270103,75.1003493 59.1017496,74.8510586 Z" id="Path"></path>
                        <path d="M70.8184143,72.7394194 C70.1291988,72.3874796 65.0847274,67.2256949 64.9674141,66.7564417 C64.688795,65.6419655 65.6419655,64.688795 66.7711059,64.9674141 C67.2110307,65.0700632 72.4021437,70.1291988 72.7540836,70.789086 C73.062031,71.3903166 73.0033743,71.8742339 72.5634495,72.3728154 C72.064868,72.9153893 71.4343091,73.0473668 70.8184143,72.7394194 Z" id="Path"></path>
                        <path d="M69.4399832,61.2133888 C68.8680809,60.9787623 68.5747977,60.6414866 68.4721486,60.1282409 C68.3694994,59.585667 68.692111,58.8231306 69.1320358,58.588504 C69.2933416,58.500519 70.4371461,58.4418624 71.7569206,58.4418624 C74.0152014,58.4418624 74.1031864,58.4565266 74.4697904,58.7938023 C75.1883343,59.4536895 75.1443418,60.4215241 74.3671413,60.9934264 C74.0152014,61.2720455 73.7219182,61.3013738 71.8888981,61.3307021 C70.7157652,61.3453663 69.6452814,61.3013738 69.4399832,61.2133888 Z" id="Path"></path>
                        <path d="M49.4234034,25.4621642 C48.8808294,25.2275376 48.5435537,24.714292 48.5435537,24.0983972 C48.5435537,23.6144799 48.6315387,23.43851 49.027471,23.0865701 C49.6873583,22.5000037 50.2592605,22.5146678 50.9044836,23.1598909 C51.5350425,23.7904498 51.5643709,24.3770163 51.0071327,25.0075752 C50.5672079,25.4768284 49.9073207,25.6674625 49.4234034,25.4621642 Z" id="Path"></path>
                    </g>
                </g>
            </g>
        </g>
    </g>
</svg>