<?xml version="1.0" encoding="UTF-8"?>
<svg width="71px" height="68px" viewBox="0 0 71 68" version="1.1" xmlns="http://www.w3.org/2000/svg" xmlns:xlink="http://www.w3.org/1999/xlink">
    <title>transparency</title>
    <g id="Front-Page" stroke="none" stroke-width="1" fill="none" fill-rule="evenodd">
        <g id="Landing-Page" transform="translate(-174.000000, -1992.000000)" fill="#F8B400" fill-rule="nonzero">
            <g id="Group-3" transform="translate(140.500000, 1992.000000)">
                <g id="transparency" transform="translate(33.500000, -0.000000)">
                    <g id="Group" transform="translate(35.500000, 34.000000) scale(-1, 1) rotate(-180.000000) translate(-35.500000, -34.000000) translate(-0.000000, -0.000000)">
                        <path d="M0.701863896,67.6572581 C0.479930648,67.4790323 0.216384916,67.15 0.133159949,66.9443548 C0.0221933248,66.6564516 -0.0194191592,58.8008065 0.00832249679,36.5774194 L0.0499349807,6.59435484 L0.452188992,6.18306452 C0.965409627,5.6483871 1.56185523,5.48387097 2.9350672,5.48387097 L4.00312095,5.48387097 L4.00312095,4.09919355 L4.00312095,2.71451613 L4.54408325,2.17983871 L5.08504554,1.64516129 L10.4114435,1.64516129 C16.417512,1.64516129 16.3481579,1.63145161 16.3481579,2.59112903 C16.3481579,2.94758065 16.2510621,3.19435484 16.0568705,3.37258065 C15.7794539,3.61935484 15.4604249,3.63306452 10.9246641,3.67419355 L6.08374515,3.71532258 L6.08374515,4.59274194 L6.08374515,5.48387097 L26.2380582,5.51129032 C45.3936716,5.55241935 46.4062421,5.56612903 46.7668836,5.79919355 C46.9888169,5.93629032 47.2801042,6.23790323 47.4188125,6.48467742 C47.6684874,6.88225806 47.6962291,7.19758065 47.6962291,9.88467742 L47.6962291,12.8459677 L48.5700912,13.216129 C49.0416994,13.4080645 49.4716951,13.5725806 49.5410492,13.5725806 C49.5965325,13.5725806 49.638145,11.3516129 49.638145,8.63709677 L49.638145,3.7016129 L34.7408758,3.67419355 C20.3152147,3.63306452 19.8297357,3.61935484 19.5523191,3.37258065 C19.3581275,3.19435484 19.2610317,2.94758065 19.2610317,2.59112903 C19.2610317,1.5766129 18.0820114,1.64516129 35.1153881,1.64516129 C51.9129608,1.64516129 50.9003903,1.59032258 51.3997402,2.50887097 C51.6216734,2.90645161 51.6632859,3.53709677 51.7187692,8.67822581 L51.7881233,14.3951613 L53.0364979,13.1612903 C54.2571307,11.9548387 54.2710015,11.9274194 54.2293891,11.3241935 C54.2155182,10.9814516 54.2710015,10.5701613 54.3542265,10.3919355 C54.5622889,9.99435484 63.6615521,0.932258065 64.396706,0.397580645 C64.8267016,0.0822580645 65.0763765,0 65.6450805,0 L66.3386219,0 L68.5995668,2.23467742 C70.0005205,3.61935484 70.8743826,4.59274194 70.9298659,4.83951613 C71.1517992,5.73064516 70.9159951,6.14193548 69.2098833,7.84193548 C67.7534463,9.30887097 67.5453839,9.45967742 67.1015174,9.45967742 C66.3386219,9.45967742 65.8254012,8.69193548 66.1583011,8.06129032 C66.2553969,7.88306452 66.8795842,7.18387097 67.5453839,6.51209677 L68.7798876,5.26451613 L67.1847424,3.7016129 L65.5895972,2.125 L61.0122239,6.64919355 L56.4348507,11.1733871 L58.0299959,12.75 L59.6251411,14.3129032 L61.3173822,12.6540323 C62.3438234,11.6532258 63.1760731,10.9540323 63.4118772,10.8991935 C64.2441269,10.6798387 64.8960558,11.4887097 64.5492851,12.283871 C64.4521893,12.5032258 63.508973,13.5177419 62.4547901,14.5459677 C60.4573908,16.4653226 60.124491,16.6709677 59.2506288,16.5064516 C58.9038581,16.4516129 58.6957957,16.6024194 57.4474212,17.85 L56.0187259,19.2620968 L56.6429131,20.2903226 C57.3503254,21.4693548 58.0993501,23.2927419 58.5293457,24.8830645 C58.9454706,26.4596774 59.0564372,30.1612903 58.7374082,31.875 C58.4599916,33.3693548 57.8358043,35.2475806 57.2254879,36.4951613 L56.7677506,37.4137097 L57.3641962,37.6330645 C57.6970961,37.7564516 58.0577376,37.9895161 58.1687042,38.1540323 C58.4322499,38.5241935 58.4322499,39.4701613 58.182575,39.8403226 C58.0716084,39.991129 57.4058087,40.3612903 56.7122673,40.6491935 C56.004855,40.9233871 55.1864762,41.3620968 54.8674471,41.5951613 C54.2016474,42.0887097 53.508106,43.1717742 53.1613353,44.2 C52.8561771,45.1048387 52.4816647,45.6258065 52.0655399,45.7354839 L51.73264,45.8177419 L51.6910275,54.358871 C51.6494151,62.7629032 51.6494151,62.9137097 51.3581277,63.2975806 C50.8726487,63.9419355 50.2762031,64.1612903 48.9168619,64.1612903 L47.6962291,64.1612903 L47.6962291,65.3266129 C47.6962291,66.6564516 47.5020375,67.2596774 46.9333335,67.6983871 L46.5449504,68 L23.8245341,68 L1.11798873,68 L0.701863896,67.6572581 Z M46.0366727,60.7966102 C46.0366727,56.0776796 46.0505927,55.884507 46.3150727,55.6223442 C46.7326727,55.208403 47.4704328,55.2497971 47.8323528,55.7051325 C48.1107529,56.0500836 48.1246729,56.2432561 48.1246729,58.9614705 L48.1246729,61.8452614 L49.071233,61.8038673 L50.003873,61.7624731 L50.045633,52.8351397 C50.059553,47.9092385 50.031713,43.8940081 49.976033,43.8940081 C49.906433,43.8940081 49.474913,44.0595846 49.0016329,44.2527572 L48.1246729,44.6253044 L48.1246729,48.1714013 C48.1246729,51.5519217 48.1107529,51.7450943 47.8323528,52.0900454 C47.4704328,52.5453808 46.7326727,52.5867749 46.3150727,52.1728336 C46.0505927,51.9106708 46.0366727,51.7174982 46.0366727,48.5715445 L46.0366727,45.2462163 L45.6608327,45.3290045 C44.6307526,45.5497732 43.1969924,45.6877536 42.0137923,45.6877536 C40.9697922,45.6877536 40.5661122,45.7429458 40.1067522,45.9775125 C39.5360321,46.2396753 39.3133121,46.2534734 35.5966718,46.2120793 L31.6712314,46.1706851 L31.4067514,45.8395321 C31.1005114,45.4531869 31.0587514,44.8874672 31.3371514,44.501122 C31.5041914,44.2803533 31.7547514,44.2251611 33.1189116,44.169969 L34.6918717,44.1009788 L33.4947516,43.4386727 C32.8265915,43.0661256 31.8382714,42.4038195 31.2814714,41.9484841 L30.2653113,41.1343996 L19.3381103,41.1343996 L8.39698938,41.1343996 L8.07682936,40.8308427 C7.61746932,40.4169014 7.64530932,39.7269993 8.11858936,39.3544521 C8.48050939,39.0646932 8.5918694,39.0646932 18.4054703,39.0646932 L28.3304311,39.0646932 L27.6065911,38.002244 C27.216831,37.4089281 26.646111,36.387873 26.339871,35.725567 L25.7830709,34.5113392 L17.1109101,34.5113392 L8.43874939,34.5113392 L8.10466936,34.1663882 C7.67314932,33.7524469 7.64530932,33.1039389 8.03506935,32.7175937 C8.31346938,32.4416328 8.49442939,32.4416328 16.7489901,32.4416328 C24.4885108,32.4416328 25.1845109,32.4278348 25.1009909,32.2208642 C25.0453108,32.0966818 24.9339508,31.4067797 24.8504308,30.7030795 L24.6833908,29.4060635 L16.4984301,29.4060635 C8.49442939,29.4060635 8.31346938,29.4060635 8.03506935,29.1301026 C7.68706932,28.7851516 7.67314932,28.1504416 8.02114935,27.7365004 L8.28562938,27.4053473 L16.4845101,27.3639532 L24.6833908,27.3363571 L24.8504308,26.0945333 C24.9478708,25.4184292 25.0592308,24.7699212 25.1009909,24.6595369 C25.1845109,24.4663643 24.3214708,24.4387682 16.8325101,24.4387682 C8.6057894,24.4387682 8.48050939,24.4387682 8.11858936,24.1490093 C7.65922932,23.7902602 7.63138932,23.1417522 8.06290936,22.6864168 L8.35522938,22.3690618 L17.1109101,22.3690618 C23.2078707,22.3690618 25.8526709,22.3276677 25.8526709,22.2172834 C25.8526709,22.1344951 26.1310709,21.5135832 26.479071,20.8374791 C26.827071,20.161375 27.105471,19.5404631 27.105471,19.4714729 C27.105471,19.3886847 26.520831,19.3334925 25.7413109,19.3334925 C24.5441908,19.3334925 24.3353908,19.2920984 24.1126708,19.0575316 C23.7646707,18.6711864 23.7925107,18.0088804 24.1683508,17.6363333 C24.4467508,17.3603724 24.6277108,17.3327763 26.618271,17.2913822 L28.7758712,17.2499881 L29.6528312,16.3807114 C30.1261113,15.9115779 30.8360314,15.2630699 31.2118714,14.945715 L31.9078714,14.3661972 L20.2011504,14.3661972 C8.5640294,14.3661972 8.49442939,14.3661972 8.11858936,14.0764383 C7.61746932,13.6900931 7.61746932,12.9725949 8.11858936,12.5862497 C8.49442939,12.2964908 8.5361894,12.2964908 22.2334706,12.2964908 C34.3856317,12.2964908 36.0560318,12.2688947 36.5849919,12.0757221 C39.0905921,11.1926474 43.2248324,10.9580807 45.7304327,11.5651946 L46.0366727,11.6341848 L46.0366727,9.2747195 L46.0366727,6.91525424 L24.1822708,6.91525424 L2.32786885,6.91525424 L2.32786885,36.3050847 L2.32786885,65.6949153 L24.1822708,65.6949153 L46.0366727,65.6949153 L46.0366727,60.7966102 Z M45.5125021,43.3818482 C46.8818445,43.0270633 48.9704376,42.23562 48.9704376,42.0582275 C48.9704376,41.9081262 48.0298791,41.1030373 47.6564221,40.9392904 C47.4212825,40.8301258 47.1169841,40.8847081 46.3147431,41.1576196 C39.0254151,43.6274686 31.3902936,39.7657709 29.1080562,32.4244518 C28.7484309,31.2918691 28.7207674,31.0462487 28.7207674,28.82202 C28.7207674,26.6114369 28.7484309,26.3385254 29.0942244,25.2332339 C29.9517924,22.4904734 31.4179571,20.320827 33.5480453,18.6424213 C39.3712087,14.0302171 47.9468887,15.0536352 52.3868778,20.8802956 C54.3509852,23.4593092 55.1670579,26.0929051 55.0149088,29.463362 C54.9457501,31.2645779 54.7521057,32.192477 54.143509,33.6934902 C53.714725,34.7305539 53.7562203,34.9898198 54.4893026,35.7949087 L55.0149088,36.395314 L55.429861,35.5765795 C57.6429397,31.2372868 57.5599493,25.9564494 55.2085532,21.6580933 C52.7188396,17.0868258 47.9607204,14.1393817 42.676995,13.8528246 C35.4706575,13.4707485 29.1080562,18.0283705 27.1577806,24.9466768 C26.7981553,26.2020697 26.7704918,26.4886268 26.7704918,28.82202 C26.7704918,31.1554133 26.7981553,31.455616 27.1439488,32.6837177 C28.8037579,38.5240236 33.6033723,42.7541518 39.6478435,43.6956965 C41.0863447,43.9140257 44.0325057,43.7639243 45.5125021,43.3818482 Z M51.7503153,41.8066737 C52.4083859,40.7666843 52.9590164,40.2399364 53.9394073,39.6456568 L54.704918,39.1864407 L54.1005675,38.8622881 C53.2007566,38.3895657 52.2606557,37.4711335 51.6965952,36.5391949 L51.1996847,35.7288136 L50.7967844,36.4311441 C50.2864439,37.3225636 49.306053,38.3085275 48.4196721,38.8217691 L47.7213115,39.2269597 L48.4465322,39.6321504 C49.332913,40.1318856 50.2327238,41.0368114 50.7699243,41.9552436 C50.9982346,42.3334216 51.1728247,42.6440678 51.1862547,42.6440678 C51.1996847,42.6440678 51.441425,42.2658898 51.7503153,41.8066737 Z M43.7365259,40.1267513 C44.3553192,39.9775391 44.3553192,39.9775391 44.3553192,39.3806905 C44.3553192,38.6346297 44.7128442,38.2412521 45.6891625,37.9021336 C47.9718222,37.1018138 48.769378,36.3150588 49.6631905,33.9547936 C50.0482175,32.9510027 50.4882483,32.6118842 51.313306,32.7068374 L51.9596012,32.7882258 L52.1246127,32.2185066 C52.2071185,31.9065176 52.3171262,30.8213382 52.3583791,29.8175473 C52.4546358,27.5658001 52.1933675,26.3314086 51.2308002,24.4594742 C49.2231598,20.5392637 45.0566183,18.1789986 40.6425595,18.4638581 C36.5722747,18.735153 32.873266,21.2446303 31.2093996,24.8799812 C29.9443111,27.6336238 29.9443111,31.1875862 31.2231505,33.9683584 C32.6945035,37.196767 35.8984776,39.5977263 39.5837354,40.2623987 C40.4225441,40.4116109 42.9389701,40.3302224 43.7365259,40.1267513 Z M55.6697584,15.9050847 L57.0327869,14.5220339 L56.1292062,13.6 L55.2256255,12.6779661 L53.8013374,14.0917514 L52.3770492,15.520904 L53.25,16.3968362 C53.7400777,16.8885876 54.1688956,17.2881356 54.2148404,17.2881356 C54.2607852,17.2881356 54.919327,16.6734463 55.6697584,15.9050847 Z" id="Shape"></path>
                        <path d="M13.7498695,59.116129 C13.4184143,58.7459677 13.4460355,57.9508065 13.8051121,57.6354839 C14.0813248,57.3887097 14.454212,57.375 23.7349596,57.375 C33.0157072,57.375 33.3885944,57.3887097 33.6648071,57.6354839 C34.0376943,57.9782258 34.0653156,58.8145161 33.7062391,59.1298387 C33.4714582,59.3491935 32.5737669,59.3629032 23.7073383,59.3629032 C14.454212,59.3629032 13.9570291,59.3491935 13.7498695,59.116129 Z" id="Path"></path>
                        <path d="M7.79748528,51.2604839 C7.30030237,50.8766129 7.30030237,50.1637097 7.79748528,49.7798387 C8.15656182,49.5056452 8.32228946,49.4919355 12.783125,49.4919355 L17.3958775,49.4919355 L17.7273328,49.8346774 C17.9206817,50.0129032 18.0725987,50.3282258 18.0725987,50.5201613 C18.0725987,50.7120968 17.9206817,51.0274194 17.7273328,51.2056452 L17.3958775,51.5483871 L12.783125,51.5483871 C8.32228946,51.5483871 8.15656182,51.5346774 7.79748528,51.2604839 Z" id="Path"></path>
                        <path d="M19.8956027,51.2741935 C19.7022538,51.0822581 19.5917687,50.8217742 19.5917687,50.5201613 C19.5917687,50.2185484 19.7022538,49.9580645 19.8956027,49.766129 C20.1856261,49.4919355 20.3237324,49.4919355 29.7563971,49.4919355 C39.2028723,49.4919355 39.3133574,49.4919355 39.672434,49.7798387 C40.1419956,50.15 40.1558062,50.7532258 39.6862446,51.2056452 L39.3547893,51.5483871 L29.7702077,51.5483871 C20.3237324,51.5483871 20.1856261,51.5483871 19.8956027,51.2741935 Z" id="Path"></path>
                        <path d="M8.17037246,46.5169355 C7.47984064,46.3798387 7.20362792,45.3379032 7.71462146,44.8306452 C7.99083419,44.5564516 8.17037246,44.5564516 18.1968944,44.5564516 L28.4167653,44.5564516 L28.6929781,44.9129032 C29.190161,45.5435484 28.9968121,46.1879032 28.2372271,46.4758065 C27.8643399,46.6129032 8.87471491,46.6540323 8.17037246,46.5169355 Z" id="Path"></path>
                        <path d="M7.71462146,19.6048387 C7.36935555,19.2620968 7.35554492,18.6314516 7.70081082,18.2201613 L7.96321291,17.891129 L14.6199396,17.891129 L21.2766663,17.891129 L21.6081216,18.275 C22.0086301,18.741129 22.0224407,19.0427419 21.6495535,19.5225806 L21.3733408,19.8790323 L14.6751822,19.8790323 C8.17037246,19.8790323 7.97702355,19.8653226 7.71462146,19.6048387 Z" id="Path"></path>
                        <path d="M35.9021302,34.9870968 C35.4463792,34.6306452 35.4740005,33.9040323 35.9435621,33.4927419 L36.3164493,33.1774194 L41.4678167,33.1774194 C46.4810777,33.1774194 46.6329947,33.191129 46.9920712,33.4653226 C47.4478222,33.8217742 47.4892541,34.5483871 47.074935,34.9596774 C46.8125329,35.2201613 46.619184,35.233871 41.495438,35.233871 C36.6479046,35.233871 36.1645323,35.2201613 35.9021302,34.9870968 Z" id="Path"></path>
                        <path d="M34.5348772,31.0798387 C34.1619901,30.6822581 34.1481794,30.1612903 34.4934453,29.7362903 L34.7558474,29.4072581 L41.4816273,29.4072581 L48.2074072,29.4072581 L48.4698093,29.7362903 C48.8288859,30.175 48.8012646,30.7370968 48.4145668,31.0935484 C48.0969221,31.3951613 48.0831115,31.3951613 41.4678167,31.3951613 L34.8249006,31.3951613 L34.5348772,31.0798387 Z" id="Path"></path>
                        <path d="M34.507256,27.2548387 C34.0376943,26.7475806 34.1619901,26.0209677 34.7972793,25.7056452 C35.3773261,25.4040323 47.5859286,25.4040323 48.1659753,25.7056452 C48.8012646,26.0209677 48.9255603,26.7475806 48.4559987,27.2548387 L48.1659753,27.5564516 L41.4816273,27.5564516 L34.7972793,27.5564516 L34.507256,27.2548387 Z" id="Path"></path>
                        <path d="M37.5594066,23.3612903 C37.1865194,22.8814516 37.2003301,22.5798387 37.6008385,22.1137097 L37.9322938,21.7298387 L41.4816273,21.7298387 L45.0309609,21.7298387 L45.3624161,22.1137097 C45.7629246,22.5798387 45.7767352,22.8814516 45.403848,23.3612903 L45.1276353,23.7177419 L41.4816273,23.7177419 L37.8356193,23.7177419 L37.5594066,23.3612903 Z" id="Path"></path>
                        <path d="M57.5848293,48.5870968 C57.3914804,48.3403226 57.2948059,48.025 57.2948059,47.6274194 L57.2948059,47.0241935 L56.6871379,47.0241935 C55.8446891,47.0241935 55.3613168,46.6266129 55.3613168,45.9274194 C55.3613168,45.2419355 55.734204,44.9677419 56.6318954,44.9677419 L57.2948059,44.9677419 L57.2948059,44.2959677 C57.2948059,43.4048387 57.6262612,42.9935484 58.3306037,42.9935484 C59.0349461,42.9935484 59.3664014,43.4048387 59.3664014,44.2959677 L59.3664014,44.9677419 L60.0569332,44.9677419 C60.899382,44.9677419 61.2998905,45.2967742 61.2998905,45.9822581 C61.2998905,46.6266129 60.7888969,47.0241935 59.9740694,47.0241935 L59.3664014,47.0241935 L59.3664014,47.6274194 C59.3664014,48.4225806 58.9658929,48.9435484 58.3306037,48.9435484 C57.9991484,48.9435484 57.7919888,48.8475806 57.5848293,48.5870968 Z" id="Path"></path>
                    </g>
                </g>
            </g>
        </g>
    </g>
</svg>