<?xml version="1.0" encoding="UTF-8"?>
<svg width="75px" height="75px" viewBox="0 0 75 75" version="1.1" xmlns="http://www.w3.org/2000/svg" xmlns:xlink="http://www.w3.org/1999/xlink">
    <title>closing</title>
    <g id="Front-Page" stroke="none" stroke-width="1" fill="none" fill-rule="evenodd">
        <g id="How-Does-It-Work" transform="translate(-205.000000, -2669.000000)" fill="#E7A600" fill-rule="nonzero">
            <g id="Step-7" transform="translate(162.000000, 2669.000000)">
                <g id="closing" transform="translate(43.000000, 0.000000)">
                    <g id="Group" transform="translate(37.500000, 37.121667) scale(-1, 1) rotate(-180.000000) translate(-37.500000, -37.121667) translate(0.000000, -0.000000)">
                        <polygon id="Path" points="37.0273221 73.1135448 37.0713399 71.9690824 38.2891653 71.9250646 39.4923182 71.8810468 39.4923182 73.069527 39.4923182 74.2433347 38.2451475 74.2433347 36.9833043 74.2433347"></polygon>
                        <path d="M37.0566673,69.3573603 C37.0126495,69.2399795 36.9979769,68.6970935 37.0273221,68.1395349 L37.0713399,67.1271257 L38.2451475,67.1271257 L39.4189552,67.1271257 L39.462973,68.3449512 L39.5069908,69.548104 L38.3185105,69.548104 C37.4675,69.548104 37.1153577,69.4894137 37.0566673,69.3573603 Z" id="Path"></path>
                        <polygon id="Path" points="36.9979769 63.5323398 36.9979769 62.3585321 38.2451475 62.3585321 39.4923182 62.3585321 39.4923182 63.5323398 39.4923182 64.7061474 38.2451475 64.7061474 36.9979769 64.7061474"></polygon>
                        <path d="M19.8457124,57.7953548 C19.4055345,57.7219918 18.4958336,57.4725577 17.8208942,57.2231236 C13.3457525,55.6678284 10.0737636,52.1170602 8.79724779,47.4218296 C8.34239732,45.7491537 8.34239732,42.3744566 8.79724779,40.6430903 C11.0568275,32.1770026 20.3299081,27.731206 28.1210564,31.3846824 C30.5420348,32.5144723 32.6695611,34.3192016 34.0047674,36.3880376 L34.6650342,37.4151193 L49.3229574,37.4151193 L63.9955532,37.4151193 L65.7562647,40.0561865 C66.724656,41.5087735 67.5169761,42.7412715 67.5169761,42.7999619 C67.5169761,42.8733249 66.0790618,44.3552571 64.3183503,46.1159686 L61.134397,49.2999219 L57.539611,49.2999219 L53.944825,49.2999219 L52.6976544,48.713018 C52.0080424,48.3902209 51.3477756,48.1261142 51.2303948,48.1407868 C51.1130141,48.1407868 50.4527472,48.4195661 49.7631352,48.7717084 L48.5159646,49.4173026 L47.1660858,48.7423632 L45.816207,48.0674238 L44.3196022,48.713018 C43.4979368,49.0651603 42.7496345,49.3439396 42.6615989,49.3439396 C42.5735633,49.3439396 42.0453499,49.0651603 41.4731186,48.713018 L40.4607095,48.096769 L39.2428841,48.6983454 C38.0690764,49.2705767 37.9663682,49.2999219 36.6605072,49.2999219 L35.2812832,49.2999219 L34.9291409,50.0628968 C33.6966428,52.7333093 31.2903371,55.1689602 28.5318891,56.5481842 C26.6097791,57.5019029 25.1865373,57.8393726 22.765559,57.898063 C21.5917513,57.9127356 20.2858903,57.8833904 19.8457124,57.7953548 Z M24.4822527,55.3743765 C25.0985017,55.2569957 26.0375478,54.992889 26.5510887,54.7874727 C29.4856079,53.687028 32.0533121,51.0899785 33.2124472,48.023406 L33.6672977,46.8055806 L35.7067885,46.8055806 L37.7316067,46.8055806 L39.1695211,46.0866234 L40.5927629,45.3823388 L41.6198446,46.0132604 C42.1920758,46.3654027 42.7349619,46.6588546 42.8523426,46.6588546 C42.9550508,46.6588546 43.6446628,46.3947479 44.36362,46.0719508 C45.0972498,45.7491537 45.7868618,45.485047 45.88957,45.485047 C46.0069507,45.485047 46.6525449,45.7638263 47.3421569,46.101296 L48.5893276,46.717545 L49.8364982,46.101296 C50.5261102,45.7638263 51.1570318,45.485047 51.25974,45.485047 C51.3477756,45.485047 52.0667328,45.7784989 52.859053,46.1453138 L54.2969673,46.8055806 L57.2755043,46.8055806 L60.2540412,46.8055806 L61.7213008,45.338321 L63.1885604,43.8710614 L57.8624081,43.8710614 L52.5509284,43.8710614 L52.5509284,42.6972538 L52.5509284,41.5234461 L58.1265148,41.5234461 C61.1930874,41.5234461 63.7021012,41.4794283 63.7021012,41.4207379 C63.7021012,41.3767201 63.4966849,41.0099052 63.2472508,40.6137451 L62.7924003,39.9094606 L48.0024237,39.9094606 L33.1977746,39.9094606 L32.7429241,38.9997596 C31.4810809,36.5054183 29.5589708,34.6273261 27.1233199,33.5122088 C24.7757046,32.4411093 21.6064239,32.2063478 19.170773,32.925305 C15.2825351,34.08444 12.3920338,36.9749414 11.2475713,40.8631793 C10.7340304,42.5505278 10.6753401,45.1182321 11.0861727,46.7322176 C12.6561405,52.7773271 18.5691966,56.6068746 24.4822527,55.3743765 Z" id="Shape"></path>
                        <path d="M15.6200048,47.8179897 C13.72724,47.4658474 12.4653967,45.9398974 12.4800693,44.0031148 C12.4800693,42.9466879 12.8468842,42.0663321 13.580514,41.3327023 C14.3141438,40.5844 14.9010476,40.3202932 15.9574745,40.2322577 C17.4687519,40.1148769 18.6572322,40.7017807 19.5522605,41.9929692 C20.1831821,42.9173427 20.3152355,44.4873104 19.8750576,45.4997195 C19.4495523,46.4387657 18.8919937,47.0403421 18.0263105,47.4511748 C17.1312822,47.8766801 16.4563428,47.9793882 15.6200048,47.8179897 Z M17.1312822,45.2209402 C17.9236024,44.5900186 17.9822928,43.7536806 17.2780082,43.049396 C16.3096168,42.0810047 14.8570299,42.6972538 14.8423573,44.0618052 C14.8423573,45.2062676 16.2655991,45.9252248 17.1312822,45.2209402 Z" id="Shape"></path>
                        <polygon id="Path" points="33.7700058 42.6972538 33.7700058 41.5234461 37.1447029 41.5234461 40.5193999 41.5234461 40.5193999 42.6972538 40.5193999 43.8710614 37.1447029 43.8710614 33.7700058 43.8710614"></polygon>
                        <polygon id="Path" points="43.1604671 42.6972538 43.1604671 41.5234461 44.4076378 41.5234461 45.6548084 41.5234461 45.6548084 42.6972538 45.6548084 43.8710614 44.4076378 43.8710614 43.1604671 43.8710614"></polygon>
                        <polygon id="Path" points="48.0024237 42.6972538 48.0024237 41.5234461 49.1762314 41.5234461 50.3500391 41.5234461 50.3500391 42.6972538 50.3500391 43.8710614 49.1762314 43.8710614 48.0024237 43.8710614"></polygon>
                        <path d="M3.98463637,28.5528714 C2.92820948,28.3181099 1.93047296,27.8632594 0.800683087,27.114957 C-0.00630968126,26.6014162 -0.094345256,26.498708 0.0670532977,26.2786191 C0.155088872,26.1318931 4.73293876,20.4682711 10.2204896,13.6748593 L20.1978547,1.32053362 L39.8297879,1.32053362 L59.4470485,1.32053362 L59.4470485,0.660266811 L59.4470485,0 L67.2235242,0 L75,0 L75,1.17380766 L75,2.34761533 L68.3973319,2.34761533 L61.7946638,2.34761533 L61.7946638,10.8577209 L61.7946638,19.3678264 L68.3973319,19.3678264 L75,19.3678264 L75,20.5416341 L75,21.7154418 L67.2235242,21.7154418 L59.4470485,21.7154418 L59.4470485,20.5416341 L59.4470485,19.3678264 L57.2901769,19.3678264 L55.1186327,19.3678264 L51.9053342,22.7571961 L48.7067083,26.1318931 L39.3602648,26.0878753 C30.1018569,26.0438575 30.0284939,26.0438575 29.2215011,25.7210604 C27.8276045,25.1488292 26.6978147,23.9750215 26.1989464,22.5664523 C25.9054945,21.744787 25.9201671,20.1308014 26.1989464,19.2504457 C26.6684695,17.8712217 28.1063839,16.4333073 29.4856079,15.9637842 C29.8524228,15.8464035 31.8919136,15.7583679 35.9708952,15.7143501 L41.9132965,15.6263145 L41.9573143,15.2888448 C41.9866595,15.1127737 41.9132965,14.9367025 41.8105883,14.8926847 C41.7078802,14.8486669 37.8489875,14.481852 33.256465,14.085692 L24.8930854,13.3667348 L22.9856479,15.244827 C16.5883962,21.5393706 10.968792,26.8655229 10.1471266,27.4084089 C9.61891316,27.7458786 8.7679026,28.1713839 8.23968915,28.3327825 C7.05120889,28.6995974 5.05573587,28.8169781 3.98463637,28.5528714 Z M7.62344013,26.0145123 C7.99025502,25.8971316 8.53314107,25.6330248 8.84126558,25.4422811 C9.14939009,25.2515374 12.6414679,21.9502033 16.6177413,18.0913106 C20.5793422,14.2324179 23.9100215,11.033792 23.998057,10.9897742 C24.1594556,10.9017387 41.5904994,12.3543257 42.3828196,12.5303968 C43.1751397,12.706468 44.0114777,13.5721511 44.2755844,14.4671794 C44.4810008,15.1861366 44.4810008,15.3328626 44.2755844,16.0518198 C44.0261503,16.8734852 43.3658835,17.6217875 42.6175811,17.9152395 C42.4268373,17.9886024 39.7857701,18.0472928 36.7338702,18.0472928 C33.4618813,18.0472928 30.9381948,18.1206558 30.5420348,18.2086914 C28.1944194,18.7515774 27.5634978,21.6860966 29.4709353,23.1386836 L29.9991487,23.5495162 L38.8907418,23.593534 L47.7823348,23.6228792 L50.9956333,20.2481822 L54.1942592,16.8734852 L56.8206538,16.8734852 L59.4470485,16.8734852 L59.4470485,10.34418 L59.4470485,3.81487491 L40.3433287,3.81487491 L21.2249364,3.8295475 L12.421379,14.7312862 C7.59409494,20.7323779 3.60314888,25.7063878 3.57380369,25.7944234 C3.5297859,25.9411494 4.11668974,26.1759109 4.86499212,26.3226368 C5.43722336,26.425345 6.90448294,26.2639465 7.62344013,26.0145123 Z" id="Shape"></path>
                        <polygon id="Path" points="64.582457 15.3328626 64.582457 14.085692 65.7562647 14.085692 66.9300723 14.085692 66.9300723 15.3328626 66.9300723 16.5800332 65.7562647 16.5800332 64.582457 16.5800332"></polygon>
                    </g>
                </g>
            </g>
        </g>
    </g>
</svg>