<?xml version="1.0" encoding="UTF-8"?>
<svg width="75px" height="75px" viewBox="0 0 75 75" version="1.1" xmlns="http://www.w3.org/2000/svg" xmlns:xlink="http://www.w3.org/1999/xlink">
    <title>technical-drawing</title>
    <g id="Front-Page" stroke="none" stroke-width="1" fill="none" fill-rule="evenodd">
        <g id="How-Does-It-Work" transform="translate(-500.000000, -2671.000000)" fill="#E7A600" fill-rule="nonzero">
            <g id="Step-8" transform="translate(458.000000, 2671.000000)">
                <g id="technical-drawing" transform="translate(42.000000, -0.000000)">
                    <g id="Group" transform="translate(37.500000, 37.453460) scale(-1, 1) rotate(-180.000000) translate(-37.500000, -37.453460) translate(-0.000000, -0.000000)">
                        <path d="M32.6220703,74.745238 C31.7578125,74.4669177 30.8935547,73.6319568 30.6445312,72.8409412 C30.5273438,72.4307849 30.46875,71.0098865 30.46875,68.4464099 L30.46875,64.6524646 L29.8095703,64.2423084 C28.4619141,63.3780505 27.2900391,61.6788318 26.9384766,60.0235584 C26.8505859,59.5987537 26.8066406,58.6905505 26.8359375,57.9874255 C26.8798828,56.9034412 26.9677734,56.5665271 27.4365234,55.5850818 L27.9785156,54.4571521 L27.3925781,53.2852771 L26.8066406,52.1280505 L14.3261719,52.1280505 L1.86035156,52.1280505 L1.23046875,51.7618396 C0.8203125,51.5274646 0.512695312,51.1905505 0.307617188,50.7657459 L0,50.135863 L0,26.1124255 C0,2.85070679 0.0146484375,2.08898804 0.278320312,1.4884021 C0.454101562,1.10754273 0.791015625,0.726683351 1.18652344,0.463011476 L1.81640625,0.0528552257 L34.6289062,0.00890991317 C56.6308594,-0.0203869618 67.8369141,0.0235583507 68.6132812,0.126097413 C71.7041016,0.521605226 74.2822266,2.93859741 74.8535156,5.97082398 C74.9414062,6.48351929 75,15.5948474 75,32.1915271 C75,54.0909412 74.9707031,57.7530505 74.7802734,58.5440662 C74.1064453,61.3565662 71.7773438,63.6856677 68.9648438,64.3594959 C66.7236328,64.8868396 65.2880859,64.4620349 64.5849609,63.0850818 C64.3212891,62.5870349 64.3066406,62.1475818 64.3066406,57.3282459 L64.3066406,52.1280505 L52.2216797,52.1280505 L40.1220703,52.1280505 L39.5947266,53.2266834 L39.0820312,54.3253162 L39.5947266,55.3946521 C41.0009766,58.236449 40.4443359,61.4005115 38.1591797,63.5391834 C37.6318359,64.0225818 37.1337891,64.432738 37.0605469,64.432738 C36.9726562,64.432738 36.9140625,65.970824 36.9140625,68.4610584 C36.9140625,72.7823474 36.8554688,73.1485584 36.1376953,73.9249255 C35.3320312,74.7891834 33.8378906,75.1407459 32.6220703,74.745238 Z M34.4238281,72.4893787 C34.7021484,72.2110584 34.7167969,72.0059802 34.7167969,68.7540271 L34.7167969,65.3116443 L33.6914062,65.3116443 L32.6660156,65.3116443 L32.6660156,68.7540271 C32.6660156,72.0059802 32.6806641,72.2110584 32.9589844,72.4893787 C33.1201172,72.6505115 33.4423828,72.7823474 33.6914062,72.7823474 C33.9404297,72.7823474 34.2626953,72.6505115 34.4238281,72.4893787 Z M35.2001953,62.8800037 C36.1376953,62.557738 37.2509766,61.5323474 37.7490234,60.5069568 C38.1005859,59.8038318 38.1591797,59.4962146 38.1591797,58.5001209 C38.1591797,57.4307849 38.1005859,57.2403552 37.6318359,56.3760974 C36.09375,53.5782459 32.5341797,53.0509021 30.2636719,55.3067615 C28.0517578,57.4893787 28.6962891,61.2540271 31.5234375,62.6749255 C32.2705078,63.0411365 32.5927734,63.1143787 33.4716797,63.1143787 C34.0429688,63.1143787 34.8193359,63.0118396 35.2001953,62.8800037 Z M68.8623047,62.088988 C70.6054688,61.5469959 71.9824219,60.1846912 72.5097656,58.4854724 C72.8027344,57.533324 72.8027344,57.1964099 72.8027344,35.0479724 L72.8027344,12.5772693 L72.1142578,13.1192615 C70.8398438,14.0860584 69.7412109,14.4669177 67.8222656,14.6134021 L66.5771484,14.7012927 L66.5332031,38.3585193 C66.5185547,51.3663318 66.5332031,62.1036365 66.5771484,62.2061755 C66.6796875,62.4698474 67.8076172,62.4259021 68.8623047,62.088988 Z M30.5273438,52.4210193 C30.9960938,52.1719959 31.4794922,51.9815662 31.5820312,51.9815662 C31.6992188,51.9815662 31.7871094,51.9229724 31.7871094,51.8497302 C31.7871094,51.7178943 18.9257812,26.1856677 18.7646484,26.0245349 C18.7060547,25.9659412 18.4277344,26.6251209 18.1494141,27.4893787 L17.6220703,29.0714099 L23.6132812,40.9659412 C26.9091797,47.5137927 29.6191406,52.8604724 29.6337891,52.8604724 C29.6484375,52.8604724 30.0585938,52.6553943 30.5273438,52.4210193 Z M43.1542969,40.7315662 L48.8818359,28.7637927 L48.3837891,27.298949 C48.1054688,26.4932849 47.8271484,25.7901599 47.7685547,25.7315662 C47.6806641,25.6290271 35.4052734,51.1173084 35.2734375,51.6593005 C35.2441406,51.7618396 35.5957031,51.9962146 36.0791016,52.1866443 C36.5625,52.3917224 36.9726562,52.5821521 37.03125,52.6260974 C37.0751953,52.6700427 37.1777344,52.713988 37.265625,52.713988 C37.3535156,52.713988 40.0048828,47.323363 43.1542969,40.7315662 Z M35.4345703,46.1368396 C36.4013672,44.0860584 37.2070312,42.3428943 37.2070312,42.2696521 C37.2070312,42.1378162 29.765625,42.2403552 29.6191406,42.3721912 C29.5898437,42.401488 30.4394531,44.1593005 31.4941406,46.2686755 C32.5488281,48.392699 33.4716797,50.0626209 33.5302734,49.9893787 C33.6035156,49.9161365 34.453125,48.1876209 35.4345703,46.1368396 Z M25.6347656,49.8575427 C25.6347656,49.8282459 24.7705078,48.0997302 23.7158203,46.0343005 L21.796875,42.2843005 L19.7753906,42.3428943 C17.9589844,42.3868396 17.7246094,42.3575427 17.4462891,42.1085193 C17.2412109,41.9180896 17.1386719,41.6544177 17.1386719,41.2882068 C17.1386719,40.4385974 17.4462891,40.2628162 19.1748047,40.1602771 C19.9804688,40.1163318 20.6542969,40.0430896 20.6542969,39.9991443 C20.6542969,39.9698474 19.4677734,37.5821521 18.0175781,34.7110584 C16.5673828,31.8399646 15.3808594,29.3350818 15.3808594,29.1593005 C15.3808594,28.4854724 16.9775391,23.9151599 17.3291016,23.5928943 C18.0175781,22.948363 18.9404297,22.8604724 19.7460938,23.3878162 C19.9658203,23.5343005 21.4892578,26.4346912 24.1845703,31.7960193 C26.4404297,36.307738 28.3740234,40.0137927 28.4912109,40.057738 C28.59375,40.1016834 30.8642578,40.0870349 33.5449219,40.0137927 L38.4082031,39.8966052 L42.2607422,31.8399646 C44.3701172,27.4161365 46.2304688,23.6221912 46.3623047,23.4317615 C46.7138672,22.9776599 47.5488281,22.6407459 48.1054687,22.7432849 C49.0429688,22.9190662 49.3066406,23.3292224 50.2441406,25.9659412 C50.7275391,27.3282459 51.1230469,28.6026599 51.1230469,28.7930896 C51.1230469,28.9835193 49.9951172,31.5030505 48.6181641,34.3741443 C47.2412109,37.245238 46.0839844,39.6768787 46.0546875,39.7501209 C46.0107422,39.8380115 46.5673828,39.8966052 47.5488281,39.8966052 C48.9990234,39.8966052 49.1162109,39.9112537 49.3798828,40.2481677 C49.7460938,40.6876209 49.7314453,41.361449 49.3652344,41.7276599 C49.1308594,41.9620349 48.8818359,42.0206287 48.1640625,42.0206287 C47.6513672,42.0206287 46.6992188,42.064574 46.0400391,42.1085193 L44.8535156,42.2110584 L44.3701172,43.2510974 C44.1064453,43.8223865 43.2861328,45.5655505 42.5390625,47.1182849 L41.1767578,49.9307849 L52.734375,49.9307849 L64.3066406,49.9307849 L64.3066406,32.2061755 C64.3066406,12.7237537 64.2480469,13.8370349 65.2001953,13.1339099 C65.8886719,12.6212146 66.09375,12.5626209 67.6318359,12.4307849 C69.9316406,12.2257068 71.3671875,11.3321521 72.2460938,9.53039429 C72.6708984,8.65148804 72.7294922,8.41711304 72.7294922,7.30383179 C72.7294922,6.23449585 72.6708984,5.9415271 72.3193359,5.22375366 C71.5576172,3.67101929 70.1953125,2.63098023 68.5253906,2.32336304 C67.7050781,2.16223023 2.82714844,2.11828491 2.43164062,2.26476929 C2.21191406,2.35265991 2.19726562,4.57922241 2.19726562,26.0391834 C2.19726562,39.0762927 2.24121094,49.7843005 2.29980469,49.8282459 C2.40234375,49.9454334 25.6347656,49.9747302 25.6347656,49.8575427 Z" id="Shape"></path>
                        <path d="M8.02734375,19.9600818 C7.19238281,19.5206287 7.17773438,19.3887927 7.17773438,13.4122302 C7.17773438,7.94836304 7.17773438,7.9337146 7.51464844,7.43566773 C7.70507812,7.15734741 8.07128906,6.86437866 8.34960938,6.7618396 C9.08203125,6.51281616 57.421875,6.51281616 58.1542969,6.7618396 C58.4326172,6.86437866 58.7988281,7.15734741 58.9892578,7.43566773 C59.3261719,7.9337146 59.3261719,7.94836304 59.3261719,13.4122302 C59.3261719,18.026488 59.296875,18.963988 59.1064453,19.3155505 C58.6230469,20.2530505 60.4833984,20.1944568 33.2226562,20.1944568 C11.5722656,20.1798084 8.37890625,20.1505115 8.02734375,19.9600818 Z M12.1582031,16.8692615 C12.1582031,15.5362537 12.4511719,15.0675037 13.2861328,15.0675037 C14.1210938,15.0675037 14.3554688,15.4630115 14.3554688,16.8253162 L14.3554688,17.9971912 L15.7470703,17.9971912 L17.1386719,17.9971912 L17.1386719,16.1807849 C17.1386719,14.5694568 17.1679688,14.3350818 17.4462891,13.9835193 C17.8271484,13.5001209 18.6035156,13.4561755 19.0429688,13.8956287 C19.3066406,14.1593005 19.3359375,14.3790271 19.3359375,16.0928943 L19.3359375,17.9971912 L20.7275391,17.9971912 L22.1191406,17.9971912 L22.1191406,16.8985584 C22.1191406,15.917113 22.1630859,15.7413318 22.4853516,15.4337146 C22.9248047,14.979613 23.6132812,14.9503162 24.0234375,15.3604724 C24.2724609,15.6094959 24.3164063,15.8438709 24.3164063,16.8253162 L24.3164063,17.9971912 L25.6933594,17.9971912 L27.0703125,17.9971912 L27.1289063,16.0782459 C27.1728516,14.276488 27.1875,14.1446521 27.5244141,13.8809802 C27.9345703,13.5440662 28.5351563,13.5294177 28.9746094,13.8370349 C29.2822266,14.042113 29.296875,14.1593005 29.296875,16.0343005 L29.296875,17.9971912 L30.6738281,17.9971912 L32.0361328,17.9971912 L32.109375,16.7960193 C32.1679688,15.7852771 32.2265625,15.5655505 32.5195312,15.3311755 C32.9443359,14.9942615 33.5595703,14.9942615 33.984375,15.3311755 C34.2773438,15.5655505 34.3359375,15.7852771 34.3945312,16.7960193 L34.4677734,17.9971912 L35.8300781,17.9971912 L37.2070312,17.9971912 L37.2070312,16.0928943 C37.2070312,14.3790271 37.2363281,14.1593005 37.5,13.8956287 C37.8955078,13.5001209 38.6865234,13.5147693 39.0527344,13.9102771 C39.2871094,14.173949 39.3310547,14.4962146 39.375,16.1075427 L39.4335938,17.9971912 L40.8105469,17.9971912 L42.1875,17.9971912 L42.1875,16.8253162 C42.1875,15.448363 42.421875,15.0675037 43.2714844,15.0675037 C44.0771484,15.0675037 44.3847656,15.580199 44.3847656,16.9132068 L44.3847656,17.9971912 L45.7763672,17.9971912 L47.1679688,17.9971912 L47.1679688,16.0928943 C47.1679688,14.3790271 47.1972656,14.1593005 47.4609375,13.8956287 C47.9003906,13.4561755 48.6767578,13.5001209 49.0576172,13.9835193 C49.3359375,14.3350818 49.3652344,14.5694568 49.3652344,16.1807849 L49.3652344,17.9971912 L50.7568359,17.9971912 L52.1484375,17.9971912 L52.1484375,16.8692615 C52.1484375,15.5362537 52.4414063,15.0675037 53.2763672,15.0675037 C54.1113281,15.0675037 54.3457031,15.4630115 54.3457031,16.8253162 L54.3457031,17.9971912 L55.7373047,17.9971912 L57.1289063,17.9971912 L57.1289063,13.3829334 L57.1289063,8.76867554 L33.2519531,8.76867554 L9.375,8.76867554 L9.375,13.3829334 L9.375,17.9971912 L10.7666016,17.9971912 L12.1582031,17.9971912 L12.1582031,16.8692615 Z" id="Shape"></path>
                    </g>
                </g>
            </g>
        </g>
    </g>
</svg>