<?xml version="1.0" encoding="UTF-8"?>
<svg width="75px" height="71px" viewBox="0 0 75 71" version="1.1" xmlns="http://www.w3.org/2000/svg" xmlns:xlink="http://www.w3.org/1999/xlink">
    <title>house</title>
    <g id="Front-Page" stroke="none" stroke-width="1" fill="none" fill-rule="evenodd">
        <g id="How-Does-It-Work" transform="translate(-500.000000, -2955.000000)" fill="#E7A600" fill-rule="nonzero">
            <g id="Step-11" transform="translate(458.000000, 2955.000000)">
                <g id="house" transform="translate(42.000000, 0.000000)">
                    <g id="Group" transform="translate(37.500000, 35.023441) scale(-1, 1) rotate(-180.000000) translate(-37.500000, -35.023441) translate(0.000000, 0.000000)">
                        <path d="M35.5571848,69.8569126 C34.941349,69.5783202 16.143695,57.0709888 15.659824,56.6017806 C14.8826979,55.8686428 15.3225806,54.6662967 16.3782991,54.6662967 C16.7302053,54.6662967 18.9882698,56.1032469 26.5249267,61.1179096 C31.8621701,64.6662967 36.2903226,67.5695225 36.3636364,67.5695225 C36.4369501,67.5695225 44.0762463,62.5255343 53.3431085,56.3525137 C68.5337243,46.2498744 70.2199413,45.0915167 70.3665689,44.651634 C70.5718475,44.0357982 70.4105572,43.5372645 69.8533724,43.0973818 C69.6334311,42.9360914 69.2815249,42.7894639 69.0469208,42.7894639 C68.7536657,42.7894639 64.3548387,45.6487014 53.0938416,53.1267073 C44.5307918,58.8011941 37.4046921,63.5226017 37.228739,63.6105782 C36.8181818,63.8305196 35.8944282,63.8305196 35.4692082,63.6105782 C35.2785924,63.5079389 28.1378299,58.7865313 19.6041056,53.1120445 C7.63929619,45.1501677 3.97360704,42.7894639 3.63636364,42.7894639 C3.32844575,42.7894639 3.04985337,42.9360914 2.69794721,43.2879976 C2.15542522,43.8305196 2.08211144,44.2410768 2.40469208,44.8422498 C2.52199413,45.0475284 4.57478006,46.5138041 7.21407625,48.2879976 L11.8035191,51.3671765 L11.8475073,51.9830123 C11.8768328,52.4522205 11.8181818,52.6721618 11.5982405,52.8921032 C10.9824047,53.5079389 10.6891496,53.3759741 5.82111437,50.1501677 C3.29912023,48.4639507 1.05571848,46.8657102 0.835777126,46.6017806 C0.249266862,45.912631 0,45.2088187 0,44.285065 C0,43.082719 0.263929619,42.3935694 1.04105572,41.6017806 C1.53958944,41.0885841 1.92082111,40.8393172 2.49266862,40.6780269 C4.03225806,40.2234815 4.76539589,40.4287601 7.15542522,42.0416633 L8.94428152,43.2293466 L8.94428152,24.9009008 L8.94428152,6.57245508 L6.52492669,6.57245508 C4.6627566,6.57245508 3.97360704,6.51380405 3.5483871,6.33785097 C2.34604106,5.83931725 1.56891496,4.65163396 1.56891496,3.34664863 C1.56891496,1.98301226 2.15542522,0.985944814 3.29912023,0.370109037 L3.8856305,0.0475283922 L36.0557185,0.00354012239 C57.2727273,-0.0111226342 68.4017595,0.018202879 68.7683284,0.120842175 C71.6568915,0.897968275 72.0087977,5.03286564 69.2815249,6.2938627 C68.7829912,6.52846681 68.313783,6.57245508 66.2463343,6.57245508 L63.7829912,6.57245508 L63.7829912,9.47568088 C63.7829912,12.2322791 63.7683284,12.4082322 63.4897361,12.6574991 C63.0498534,13.0533935 62.1994135,13.024068 61.8621701,12.598848 C61.6129032,12.2909302 61.5835777,11.9683495 61.5835777,9.41702986 L61.5835777,6.57245508 L56.5249267,6.57245508 L51.4662757,6.57245508 L51.4662757,10.4580856 L51.4662757,14.3437161 L62.1407625,14.3437161 L72.8152493,14.3437161 L73.4604106,14.6809595 C73.8123167,14.8569126 74.3108504,15.252807 74.5454545,15.5607249 L75,16.1325724 L75,26.7190826 L75,37.3055929 L74.6041056,37.9067659 C74.3695015,38.2586721 73.9589443,38.625241 73.5777126,38.8158568 C72.9325513,39.1237747 72.829912,39.1237747 62.2140762,39.1237747 L51.4956012,39.1237747 L51.4369501,40.9272938 C51.3929619,42.481546 51.3489736,42.8041266 51.026393,43.4199624 C50.3079179,44.827587 49.0762463,45.5753876 47.4340176,45.5753876 C45.7917889,45.5753876 44.5601173,44.827587 43.8416422,43.4199624 C43.5190616,42.8041266 43.4750733,42.481546 43.431085,40.9272938 L43.372434,39.1237747 L32.6539589,39.1237747 C21.9941349,39.1237747 21.9354839,39.1237747 21.2903226,38.8158568 C20.8504399,38.5959155 20.4985337,38.2733348 20.2199413,37.8187894 L19.7947214,37.1443026 L19.8240469,26.6457689 L19.8680352,16.1325724 L20.3225806,15.5607249 C20.5571848,15.252807 21.0557185,14.8569126 21.4076246,14.6809595 C21.9941349,14.3730416 22.2727273,14.3437161 24.0762463,14.3437161 L26.0997067,14.3437161 L26.0997067,10.4580856 L26.0997067,6.57245508 L18.6217009,6.57245508 L11.143695,6.57245508 L11.1730205,25.6487014 L11.2170088,44.7249477 L23.797654,53.082719 L36.3782991,61.455153 L48.973607,53.0533935 L61.5835777,44.651634 L61.5835777,42.9360914 C61.5835777,41.337851 61.6129032,41.2058862 61.9208211,40.912631 C62.3607038,40.5020738 63.0938416,40.4874111 63.4897361,40.8833055 C63.7243402,41.1179096 63.7829912,41.3671765 63.7829912,42.1296398 C63.7829912,42.6574991 63.8269795,43.082719 63.9002933,43.082719 C63.9589443,43.082719 64.7947214,42.5548598 65.7624633,41.9096985 C67.8152493,40.5460621 68.5777126,40.2967953 69.8533724,40.5753876 C72.5073314,41.1618979 73.6510264,44.4756809 71.9354839,46.5577923 C71.6422287,46.9243612 65.6891496,50.9566193 54.4281525,58.4492879 C45.0439883,64.6809595 37.2140762,69.8422498 37.0087977,69.9155636 C36.5102639,70.1061794 36.085044,70.0915167 35.5571848,69.8569126 Z M48.0938416,43.1560328 C48.9589443,42.7014873 49.1202346,42.3202557 49.1202346,40.6487014 L49.1202346,39.1237747 L47.4340176,39.1237747 L45.7478006,39.1237747 L45.7478006,40.6340387 C45.7478006,42.2909302 45.8651026,42.598848 46.686217,43.0973818 C47.228739,43.4346252 47.5366569,43.4492879 48.0938416,43.1560328 Z M72.5513196,36.6897571 L72.8739003,36.4698158 L72.8739003,26.8070592 C72.8739003,18.2293466 72.8445748,17.1296398 72.6392962,16.9243612 C72.4340176,16.7190826 69.941349,16.6897571 47.4340176,16.6897571 C24.9266862,16.6897571 22.4340176,16.7190826 22.228739,16.9243612 C22.0234604,17.1296398 21.9941349,18.2293466 21.9941349,26.8070592 L21.9941349,36.4698158 L22.3167155,36.6897571 C22.6099707,36.8950357 25.2346041,36.9243612 47.4340176,36.9243612 C69.6334311,36.9243612 72.2580645,36.8950357 72.5513196,36.6897571 Z M43.4017595,10.4580856 L43.4017595,6.57245508 L35.9237537,6.57245508 L28.4457478,6.57245508 L28.4457478,10.4580856 L28.4457478,14.3437161 L35.9237537,14.3437161 L43.4017595,14.3437161 L43.4017595,10.4580856 Z M49.1202346,8.33198587 L49.1202346,2.32025566 L47.4340176,2.32025566 L45.7478006,2.32025566 L45.7478006,8.33198587 L45.7478006,14.3437161 L47.4340176,14.3437161 L49.1202346,14.3437161 L49.1202346,8.33198587 Z M43.4017595,3.34664863 L43.4017595,2.32025566 L23.9442815,2.32025566 L4.48680352,2.32025566 L4.14956012,2.64283631 C3.59237537,3.15603279 3.73900293,3.84518235 4.45747801,4.167763 C4.82404692,4.32905332 8.32844575,4.35837883 24.1642229,4.37304159 L43.4017595,4.37304159 L43.4017595,3.34664863 Z M68.1524927,4.21175127 C68.431085,4.12377473 68.6656891,3.88917062 68.7829912,3.625241 C68.9296188,3.24400933 68.914956,3.12670728 68.6656891,2.78946388 L68.372434,2.39356945 L59.9120235,2.34958118 L51.4662757,2.32025566 L51.4662757,3.34664863 L51.4662757,4.37304159 L59.5894428,4.37304159 C64.941349,4.37304159 67.8445748,4.31439056 68.1524927,4.21175127 Z" id="Shape"></path>
                        <path d="M30.2346041,32.3495812 C30.1026393,32.2176164 30.058651,30.7806662 30.058651,26.7923964 C30.058651,20.795329 30,21.0739214 31.0997067,21.0592586 C32.1407625,21.0445958 32.2580645,21.3085255 32.2580645,23.7425431 L32.2580645,25.7806662 L32.8152493,25.7806662 L33.3577713,25.7806662 L34.5014663,23.5079389 C35.3372434,21.8217219 35.7331378,21.1912234 35.9970674,21.0592586 C36.4956012,20.8393172 37.0527859,21.0299331 37.4486804,21.5724551 L37.7565982,21.997675 L36.7008798,24.0211354 L35.6304985,26.0592586 L36.2170088,26.3818392 C37.0674487,26.8657102 37.5366569,27.8627777 37.5366569,29.2117513 C37.5219941,30.9712821 36.9208211,31.8657102 35.4398827,32.3055929 C34.5014663,32.5841853 30.4985337,32.6135108 30.2346041,32.3495812 Z M34.5454545,30.4727483 C34.7653959,30.3847718 35.0293255,30.2088187 35.1319648,30.0621911 C35.3958944,29.710285 35.3812317,28.4052997 35.1173021,28.024068 C34.8387097,27.6281736 34.0615836,27.3935694 33.0351906,27.3935694 L32.2580645,27.3935694 L32.2580645,29.0064727 L32.2580645,30.6193759 L33.1964809,30.6193759 C33.7243402,30.6193759 34.3255132,30.5460621 34.5454545,30.4727483 Z" id="Shape"></path>
                        <path d="M39.4428152,32.2322791 C39.1642229,31.9536867 39.1495601,31.7484082 39.1495601,26.9243612 C39.1495601,24.1531002 39.1935484,21.7484082 39.2375367,21.5724551 C39.2961877,21.396502 39.516129,21.1912234 39.7653959,21.1032469 C40.2346041,20.9419565 45.2785924,20.8833055 45.8504399,21.0299331 C46.5542522,21.2205489 46.5542522,22.7161501 45.8504399,22.9067659 C45.6744868,22.9507542 44.5894428,22.9947425 43.4457478,22.9947425 L41.3489736,22.9947425 L41.3489736,24.4610181 L41.3489736,25.9272938 L42.6686217,25.9272938 C43.8856305,25.9272938 44.0029326,25.9566193 44.2082111,26.2791999 C44.4868035,26.7044199 44.3695015,27.3349184 43.9882698,27.540197 C43.8416422,27.6281736 43.1818182,27.6868246 42.5366569,27.6868246 L41.3489736,27.6868246 L41.3489736,29.1531002 L41.3489736,30.6193759 L43.6803519,30.6193759 C46.2756598,30.6193759 46.3636364,30.6487014 46.3636364,31.5724551 C46.3636364,32.5255343 46.3489736,32.5255343 42.8739003,32.5255343 C39.9266862,32.5255343 39.7214076,32.5108715 39.4428152,32.2322791 Z" id="Path"></path>
                        <path d="M48.0645161,32.3642439 C47.8152493,32.2322791 47.8005865,31.8070592 47.8005865,26.8217219 C47.8005865,20.795329 47.7565982,21.0739214 48.8269795,21.0592586 C49.8826979,21.0445958 49.9120235,21.1325724 50,24.4756809 L50.0733138,27.4082322 L51.686217,24.3730416 C52.5806452,22.7161501 53.431085,21.2791999 53.5777126,21.2058862 C53.9589443,21.0006076 54.9560117,21.0299331 55.2199413,21.2498744 C55.3958944,21.3818392 55.4252199,22.3202557 55.4252199,26.8217219 C55.4252199,32.0123378 55.4105572,32.2322791 55.1466276,32.3789067 C54.7360704,32.5841853 53.914956,32.5548598 53.5777126,32.3202557 C53.3284457,32.1296398 53.2991202,31.8657102 53.2258065,29.1531002 L53.1524927,26.1912234 L51.686217,29.0211354 C50.8797654,30.5900504 50.0733138,32.0123378 49.8973607,32.2029536 C49.5454545,32.5548598 48.5337243,32.6428363 48.0645161,32.3642439 Z" id="Path"></path>
                        <path d="M56.9208211,32.2322791 C56.7008798,31.880373 56.686217,31.2791999 56.8914956,30.8979683 C57.0234604,30.6487014 57.2140762,30.6193759 58.3577713,30.6193759 L59.6774194,30.6193759 L59.6774194,26.0152703 C59.6774194,21.1032469 59.6774194,21.1472351 60.4105572,21.0885841 C61.9354839,20.9566193 61.8768328,20.7806662 61.8768328,26.0885841 L61.8768328,30.6193759 L63.1085044,30.6193759 C64.5014663,30.6193759 64.7360704,30.7513407 64.7067449,31.5871178 C64.6774194,32.540197 64.7214076,32.5255473 60.7184751,32.5255473 C57.2727273,32.5255473 57.0967742,32.5108715 56.9208211,32.2322791 Z" id="Path"></path>
                        <path d="M34.5014663,56.6311061 C32.9032258,56.1912234 31.0557185,54.7396105 30.3665689,53.3613114 C29.516129,51.6750944 29.3255132,49.5050064 29.8973607,47.8921032 C30.9970674,44.710285 34.0762463,42.8481149 37.3607038,43.3466486 C39.9853372,43.7572058 42.0381232,45.5020738 42.888563,48.0680563 C43.2404692,49.1384375 43.2111437,51.1179096 42.829912,52.2029536 C42.2580645,53.8598451 41.026393,55.3261208 39.5894428,56.0592586 C38.0205279,56.8510475 36.1143695,57.0709888 34.5014663,56.6311061 Z M35.1906158,52.7601384 L35.1906158,51.1472351 L33.5630499,51.1472351 C31.9501466,51.1472351 31.9501466,51.1472351 32.0381232,51.4844785 C32.3313783,52.4522205 33.2991202,53.5372645 34.3841642,54.1237747 C35.1759531,54.5489947 35.1906158,54.5196692 35.1906158,52.7601384 Z M38.313783,54.1237747 C39.398827,53.56659 40.058651,52.8481149 40.542522,51.7044199 L40.7624633,51.1472351 L39.1495601,51.1472351 L37.5366569,51.1472351 L37.5366569,52.7601384 C37.5366569,53.7865313 37.5953079,54.3730416 37.6832845,54.3730416 C37.771261,54.3730416 38.0498534,54.2704023 38.313783,54.1237747 Z M35.1906158,47.3349184 C35.1906158,46.455153 35.1612903,45.7220152 35.1173021,45.7220152 C34.7947214,45.7220152 33.9296188,46.2498744 33.3577713,46.7630709 C32.8005865,47.2762674 31.9648094,48.5372645 31.9648094,48.8745079 C31.9648094,48.9184961 32.6979472,48.9478216 33.5777126,48.9478216 L35.1906158,48.9478216 L35.1906158,47.3349184 Z M40.6158358,48.5812527 C40.3225806,47.7894639 40.0293255,47.3642439 39.3695015,46.7630709 C38.797654,46.2498744 37.9325513,45.7220152 37.6099707,45.7220152 C37.5659824,45.7220152 37.5366569,46.455153 37.5366569,47.3349184 L37.5366569,48.9478216 L39.1495601,48.9478216 L40.7624633,48.9478216 L40.6158358,48.5812527 Z" id="Shape"></path>
                    </g>
                </g>
            </g>
        </g>
    </g>
</svg>