<?xml version="1.0" encoding="UTF-8"?>
<svg width="75px" height="78px" viewBox="0 0 75 78" version="1.1" xmlns="http://www.w3.org/2000/svg" xmlns:xlink="http://www.w3.org/1999/xlink">
    <title>population</title>
    <g id="Front-Page" stroke="none" stroke-width="1" fill="none" fill-rule="evenodd">
        <g id="How-Does-It-Work" transform="translate(-80.000000, -1374.000000)" fill="#E6A600" fill-rule="nonzero">
            <g id="By-participating..." transform="translate(-902.000000, 669.000000)">
                <g id="1" transform="translate(954.000000, 651.841103)">
                    <g id="population" transform="translate(28.000000, 53.158897)">
                        <g id="Group" transform="translate(37.500000, 39.000000) scale(-1, 1) rotate(-180.000000) translate(-37.500000, -39.000000) ">
                            <polygon id="Path" points="63.7391185 77.59375 63.3352132 77.20375 63.3352132 50.29375 63.3352132 23.4 64.6277103 23.4 65.9202075 23.4 65.9202075 49.4 65.9202075 75.4 68.5052018 75.4 71.0901961 75.4 71.0901961 49.4 71.0901961 23.4 72.3826933 23.4 73.6751904 23.4 73.6751904 50.29375 73.6751904 77.20375 73.2712851 77.59375 72.8835359 78 68.5052018 78 64.1268677 78"></polygon>
                            <polygon id="Path" points="48.2291527 67.19375 47.8252473 66.80375 47.8252473 54.19375 47.8252473 41.6 49.1177445 41.6 50.4102416 41.6 50.4102416 53.3 50.4102416 65 52.9952359 65 55.5802303 65 55.5802303 49.4 55.5802303 33.8 56.8727274 33.8 58.1652246 33.8 58.1652246 50.29375 58.1652246 66.80375 57.7613192 67.19375 57.3735701 67.6 52.9952359 67.6 48.6169018 67.6"></polygon>
                            <polygon id="Path" points="32.7191868 56.79375 32.3152815 56.40375 32.3152815 50.29375 32.3152815 44.2 33.6077786 44.2 34.9002758 44.2 34.9002758 49.4 34.9002758 54.6 37.4852701 54.6 40.0702644 54.6 40.0702644 49.4 40.0702644 44.2 41.3627616 44.2 42.6552587 44.2 42.6552587 50.29375 42.6552587 56.40375 42.2513533 56.79375 41.8636042 57.2 37.4852701 57.2 33.106936 57.2"></polygon>
                            <path d="M17.209221,47.69375 L16.8053156,47.30375 L16.8053156,40.54375 L16.8053156,33.8 L18.0978128,33.8 L19.3903099,33.8 L19.3903099,39.65 L19.3903099,45.5 L21.9753042,45.5 L24.5602985,45.5 L24.5602985,42.9 L24.5602985,40.3 L25.8527957,40.3 L27.1452928,40.3 L27.1452928,43.79375 C27.1452928,47.30375 27.1452928,47.30375 26.7413875,47.69375 L26.3536383,48.1 L21.9753042,48.1 L17.5969701,48.1 L17.209221,47.69375 Z" id="Path"></path>
                            <path d="M35.2234001,41.5025 C25.0934536,40.2025 17.4677204,32.09375 16.8699405,22.0025 L16.756847,20.19875 L16.2560043,20.45875 C15.4966622,20.84875 9.05033268,20.84875 8.27483439,20.4425 C7.79014796,20.19875 7.7255231,20.19875 7.22468045,20.4425 C6.91771238,20.62125 6.33608866,20.71875 5.73830873,20.71875 C4.55890507,20.71875 3.75109435,20.28 3.10484577,19.28875 C2.71709663,18.72 2.66862798,18.44375 2.62015934,16.965 C2.5716907,15.61625 2.50706584,15.275 2.31319127,15.275 C1.89312969,15.275 0.406757963,13.6175 0.196727175,12.9025 C-0.255646829,11.375 0.0674774595,10.15625 1.21456868,9.01875 C2.11931669,8.0925 2.86250256,7.8 4.23578078,7.8 C5.65752765,7.8 5.67368387,7.5075 4.31656186,6.8575 C2.97559606,6.19125 1.60231783,4.89125 0.939913039,3.64 C0.455226606,2.74625 0.00285260175,1.18625 0.00285260175,0.455 L0.00285260175,0 L1.27919354,0 L2.53937827,0 L2.65247177,0.6825 C2.9109712,2.25875 3.92881271,3.7375 5.25362229,4.42 C6.46533837,5.05375 6.65921295,5.05375 7.14389938,4.37125 C8.8403019,2.015 11.8453578,2.015 13.5417603,4.37125 C14.0264467,5.05375 14.2203213,5.05375 15.4320374,4.42 C16.756847,3.7375 17.7746885,2.25875 18.0331879,0.6825 L18.1462814,0 L19.3903099,0 L20.6343384,0 L20.7474319,0.6825 C21.0059314,2.25875 22.0237729,3.7375 23.3485825,4.42 C24.5602985,5.05375 24.7541731,5.05375 25.2388595,4.37125 C26.9352621,2.015 29.9403179,2.015 31.6367205,4.37125 C32.1214069,5.05375 32.3152815,5.05375 33.5269976,4.42 C34.8518071,3.7375 35.8696486,2.25875 36.1281481,0.6825 L36.2412416,0 L37.4852701,0 L38.7292986,0 L38.8423921,0.6825 C39.1008915,2.25875 40.118733,3.7375 41.4435426,4.42 C42.6552587,5.05375 42.8491333,5.05375 43.3338197,4.37125 C45.0302222,2.015 48.0352781,2.015 49.7316806,4.37125 C50.2163671,5.05375 50.4102416,5.05375 51.6219577,4.42 C52.9467673,3.7375 53.9646088,2.25875 54.2231082,0.6825 L54.3362017,0 L55.5802303,0 L56.8242588,0 L56.9373523,0.6825 C57.1958517,2.25875 58.2136932,3.7375 59.5385028,4.42 C60.7502189,5.05375 60.9440934,5.05375 61.4287799,4.37125 C63.1251824,2.015 66.1302383,2.015 67.8266408,4.37125 C68.3113272,5.05375 68.5052018,5.05375 69.7169179,4.42 C71.0417275,3.7375 72.059569,2.25875 72.3180684,0.6825 L72.4311619,0 L73.7075028,0 L75,0 L74.8869065,0.9425 C74.5637822,3.5425 72.9966294,5.70375 70.5731972,6.89 C69.2968563,7.5075 69.3453249,7.8 70.7347594,7.8 C72.1080376,7.8 72.8512235,8.0925 73.7559715,9.01875 C74.9030627,10.15625 75.226187,11.375 74.773813,12.9025 C74.5637822,13.6175 73.0774105,15.275 72.6573489,15.275 C72.4634743,15.275 72.3988495,15.61625 72.3503808,16.965 C72.3019122,18.44375 72.2534435,18.72 71.8656944,19.28875 C71.6233512,19.64625 71.154821,20.1175 70.8155405,20.32875 C70.2177605,20.7025 70.104667,20.71875 66.6472371,20.71875 C63.6421813,20.71875 63.0120889,20.67 62.5597149,20.4425 C62.0750285,20.19875 62.0104036,20.19875 61.5095609,20.4425 C60.8471562,20.8 59.3769406,20.8 58.7145359,20.45875 L58.2136932,20.19875 L58.1005997,22.0025 C57.5512884,31.46 50.8464594,39.21125 41.5243237,41.21 C40.34492,41.45375 36.3543351,41.64875 35.2234001,41.5025 Z M40.3933887,38.74 C40.4741698,38.65875 39.8763898,37.03375 39.0039542,35.01875 C38.1638311,33.0525 37.4852701,31.31375 37.4852701,31.15125 C37.4852701,30.7775 41.4273864,24.0825 41.8797604,23.6925 C42.1382598,23.44875 42.5098528,23.4 43.7215689,23.4 L45.240253,23.4 L45.240253,22.11625 L45.240253,20.8325 L43.0914765,20.7675 C41.0719497,20.71875 40.8942313,20.68625 40.2802952,20.28 C39.1655164,19.54875 38.8747045,18.86625 38.8100797,16.94875 C38.761611,16.00625 38.6646737,15.275 38.5838927,15.275 C38.5031116,15.275 38.2122997,15.12875 37.9538003,14.93375 L37.4852701,14.60875 L37.0167399,14.93375 C36.7582404,15.12875 36.4674286,15.275 36.3866475,15.275 C36.3058664,15.275 36.2089291,16.00625 36.1604605,16.94875 C36.0958356,18.86625 35.8050238,19.54875 34.690245,20.28 C34.1086213,20.67 33.8662781,20.71875 32.2991253,20.7675 L30.5542541,20.8325 L30.7804411,21.30375 C31.3135962,22.31125 31.0227843,22.89625 29.7302872,23.5625 C29.1971321,23.83875 28.7609143,24.0825 28.7609143,24.09875 C28.7609143,24.375 29.3102256,25.675 29.4394753,25.675 C29.5202564,25.675 30.4573168,25.46375 31.5074707,25.1875 C33.8339656,24.6025 33.9955278,24.58625 34.4963704,25.10625 C34.9002758,25.49625 34.9002758,25.52875 34.9002758,28.58375 C34.9002758,32.2075 35.2557125,31.54125 31.830595,34.45 C30.5380979,35.555 29.3910067,36.54625 29.2617569,36.66 C29.0840386,36.8225 29.1809759,36.93625 29.8272244,37.26125 C30.9743157,37.84625 32.8645928,38.4475 34.2540272,38.675 C34.916432,38.7725 35.5788368,38.88625 35.7080865,38.91875 C36.1766167,39.0325 40.264139,38.87 40.3933887,38.74 Z M45.4987524,37.05 C50.5718038,34.49875 54.0130775,30.03 55.1924811,24.4725 C55.7256362,21.9375 55.6448551,18.60625 54.9824503,16.2175 C54.578545,14.73875 54.3362017,14.99875 54.2554207,16.94875 C54.1907958,18.86625 53.899984,19.54875 52.7852052,20.28 C52.171269,20.68625 51.9935506,20.71875 49.9740238,20.7675 L47.8252473,20.8325 L47.8252473,23.01 C47.8252473,25.1225 47.8090911,25.22 47.421342,25.59375 C47.049749,25.98375 46.9366555,26 45.2079406,26 L43.3822884,26 L41.7989793,28.64875 L40.2156703,31.31375 L41.6374172,34.66125 C42.6391025,37.00125 43.1399451,38.025 43.3176635,38.025 C43.4630694,38.025 44.4324423,37.58625 45.4987524,37.05 Z M30.0372552,32.58125 L32.2991253,30.63125 L32.3152815,29.1525 L32.3152815,27.67375 L30.2957547,28.1775 C27.533042,28.86 27.6299793,28.925 26.5798253,25.805 C25.6266087,22.9775 25.6589211,22.75 26.9029496,22.0675 C27.3553236,21.82375 27.7753852,21.59625 27.8561663,21.56375 C28.1954468,21.45 27.5976669,20.84875 26.9514183,20.65375 C26.5636691,20.54 26.17592,20.3775 26.0789827,20.29625 C25.9658892,20.19875 25.6912336,20.26375 25.351953,20.4425 C24.4795175,20.88125 22.9931457,20.81625 22.185335,20.28 C21.0705562,19.54875 20.7797444,18.86625 20.7151195,16.94875 C20.6343384,14.99875 20.3919952,14.73875 19.9880899,16.2175 C19.4064661,18.37875 19.244904,20.93 19.5518721,23.15625 C20.1819644,27.54375 22.4761469,31.83375 25.5942963,34.4825 L26.6929188,35.40875 L27.2260739,34.97 C27.5168858,34.72625 28.7770705,33.65375 30.0372552,32.58125 Z M6.30377623,17.95625 C6.59458809,17.59875 6.3845573,16.75375 5.86755844,16.2175 C5.62521522,15.97375 5.38287201,15.7625 5.30209094,15.7625 C5.09206015,15.7625 5.15668501,17.79375 5.36671579,18.005 C5.62521522,18.265 6.06143301,18.24875 6.30377623,17.95625 Z M15.3189439,18.005 C15.4320374,17.89125 15.5128185,17.33875 15.5128185,16.68875 L15.5128185,15.58375 L12.8631993,15.6325 L10.1974239,15.68125 L9.71273748,16.1525 C9.14726997,16.68875 8.90492675,17.5825 9.21189483,17.95625 C9.37345697,18.15125 9.93892448,18.2 12.2654194,18.2 C14.2687899,18.2 15.1896942,18.135 15.3189439,18.005 Z M24.3987364,17.95625 C24.6895483,17.59875 24.4795175,16.75375 23.9625186,16.2175 C23.7201754,15.97375 23.4778322,15.7625 23.3970511,15.7625 C23.1870203,15.7625 23.2516452,17.79375 23.461676,18.005 C23.7201754,18.265 24.1563932,18.24875 24.3987364,17.95625 Z M33.413904,18.005 C33.5269976,17.89125 33.6077786,17.33875 33.6077786,16.68875 L33.6077786,15.58375 L30.9581595,15.6325 L28.2923841,15.68125 L27.8076976,16.1525 C27.2422301,16.68875 26.9998869,17.5825 27.306855,17.95625 C27.4684171,18.15125 28.0338846,18.2 30.3603795,18.2 C32.3637501,18.2 33.2846543,18.135 33.413904,18.005 Z M51.5088642,18.005 C51.6219577,17.89125 51.7027388,17.355 51.7027388,16.705 L51.7027388,15.6 L48.4714959,15.6 L45.240253,15.6 L45.240253,16.25 L45.240253,16.9 L43.9477559,16.9 L42.6552587,16.9 L42.6552587,16.25 L42.6552587,15.6 L42.0090101,15.6 L41.3627616,15.6 L41.3627616,16.705 C41.3627616,17.355 41.4435426,17.89125 41.5566361,18.005 C41.8312918,18.28125 51.2342086,18.28125 51.5088642,18.005 Z M60.5886567,17.95625 C60.8794686,17.59875 60.6694378,16.75375 60.1524389,16.2175 C59.9100957,15.97375 59.6677525,15.7625 59.5869714,15.7625 C59.3769406,15.7625 59.4415655,17.79375 59.6515963,18.005 C59.9100957,18.265 60.3463135,18.24875 60.5886567,17.95625 Z M69.6038244,18.005 C69.7169179,17.89125 69.797699,17.33875 69.797699,16.68875 L69.797699,15.58375 L67.1480798,15.6325 L64.4823044,15.68125 L63.997618,16.1525 C63.4321505,16.68875 63.1898072,17.5825 63.4967753,17.95625 C63.6583375,18.15125 64.223805,18.2 66.5502999,18.2 C68.5536704,18.2 69.4745747,18.135 69.6038244,18.005 Z M8.00017875,14.1375 C8.0648036,14.04 8.48486518,13.76375 8.93723918,13.53625 C9.71273748,13.13 9.95508069,13.08125 12.0069199,13.0325 L14.2203213,12.9675 L14.2203213,12.07375 C14.2203213,10.5625 13.9456657,9.945 12.7339496,8.7425 C11.6676394,7.67 11.635327,7.62125 11.635327,6.825 C11.635327,5.8175 11.1344843,5.2 10.3428298,5.2 C9.55117533,5.2 9.05033268,5.8175 9.05033268,6.825 C9.05033268,7.62125 9.01802026,7.67 7.9517101,8.7425 C6.70768159,9.99375 6.46533837,10.54625 6.46533837,12.30125 C6.46533837,13.4225 6.46533837,13.43875 7.07927452,13.845 C7.77399174,14.3325 7.87092903,14.365 8.00017875,14.1375 Z M26.0951389,14.1375 C26.1597638,14.04 26.5798253,13.76375 27.0321993,13.53625 C27.8076976,13.13 28.0500409,13.08125 30.1018801,13.0325 L32.3152815,12.9675 L32.3152815,12.07375 C32.3152815,10.5625 32.0406258,9.945 30.8289097,8.7425 C29.7625996,7.67 29.7302872,7.62125 29.7302872,6.825 C29.7302872,5.8175 29.2294445,5.2 28.43779,5.2 C27.6461355,5.2 27.1452928,5.8175 27.1452928,6.825 C27.1452928,7.62125 27.1129804,7.67 26.0466703,8.7425 C24.8026418,9.99375 24.5602985,10.54625 24.5602985,12.30125 C24.5602985,13.4225 24.5602985,13.43875 25.1742347,13.845 C25.8689519,14.3325 25.9658892,14.365 26.0951389,14.1375 Z M62.2850592,14.1375 C62.3496841,14.04 62.7697457,13.76375 63.2221197,13.53625 C63.997618,13.13 64.2399612,13.08125 66.2918004,13.0325 L68.5052018,12.9675 L68.5052018,12.07375 C68.5052018,10.5625 68.2305462,9.945 67.0188301,8.7425 C65.9525199,7.67 65.9202075,7.62125 65.9202075,6.825 C65.9202075,5.8175 65.4193648,5.2 64.6277103,5.2 C63.8360558,5.2 63.3352132,5.8175 63.3352132,6.825 C63.3352132,7.62125 63.3029008,7.67 62.2365906,8.7425 C60.9925621,9.99375 60.7502189,10.54625 60.7502189,12.30125 C60.7502189,13.4225 60.7502189,13.43875 61.364155,13.845 C62.0588722,14.3325 62.1558095,14.365 62.2850592,14.1375 Z M3.88034407,11.96 C3.88034407,11.39125 3.92881271,10.80625 3.97728135,10.66 C4.1388435,10.2375 3.44412628,10.335 2.99175227,10.80625 C2.73325284,11.05 2.58784691,11.39125 2.58784691,11.7 C2.58784691,12.23625 3.20178306,13 3.63800085,13 C3.83187542,13 3.88034407,12.78875 3.88034407,11.96 Z M17.6939074,12.59375 C17.9524068,12.35 18.0978128,12.00875 18.0978128,11.7 C18.0978128,11.39125 17.9524068,11.05 17.6939074,10.80625 C17.2415334,10.335 16.5468162,10.2375 16.7083783,10.66 C16.756847,10.80625 16.8053156,11.39125 16.8053156,11.96 C16.8053156,13.14625 17.0153464,13.2925 17.6939074,12.59375 Z M21.9753042,11.96 C21.9753042,11.39125 22.0237729,10.80625 22.0722415,10.66 C22.2338037,10.2375 21.5390864,10.335 21.0867124,10.80625 C20.828213,11.05 20.6828071,11.39125 20.6828071,11.7 C20.6828071,12.23625 21.2967432,13 21.732961,13 C21.9268356,13 21.9753042,12.78875 21.9753042,11.96 Z M35.7888676,12.59375 C36.047367,12.35 36.1927729,12.00875 36.1927729,11.7 C36.1927729,11.39125 36.047367,11.05 35.7888676,10.80625 C35.3364936,10.335 34.6417763,10.2375 34.8033385,10.66 C34.8518071,10.80625 34.9002758,11.39125 34.9002758,11.96 C34.9002758,13.14625 35.1103066,13.2925 35.7888676,12.59375 Z M40.0702644,11.96 C40.0702644,11.39125 40.118733,10.80625 40.1672017,10.66 C40.3287638,10.2375 39.6340466,10.335 39.1816726,10.80625 C38.9231732,11.05 38.7777672,11.39125 38.7777672,11.7 C38.7777672,12.23625 39.3917034,13 39.8279212,13 C40.0217958,13 40.0702644,12.78875 40.0702644,11.96 Z M50.4102416,12.09 C50.4102416,10.5625 50.135586,9.945 48.9238699,8.7425 C47.8575598,7.67 47.8252473,7.62125 47.8252473,6.825 C47.8252473,5.8175 47.3244047,5.2 46.5327502,5.2 C45.7410957,5.2 45.240253,5.8175 45.240253,6.825 C45.240253,7.62125 45.2079406,7.67 44.1416304,8.7425 C42.9299144,9.945 42.6552587,10.5625 42.6552587,12.09 L42.6552587,13 L46.5327502,13 L50.4102416,13 L50.4102416,12.09 Z M53.8838277,12.59375 C54.1423272,12.35 54.2877331,12.00875 54.2877331,11.7 C54.2877331,11.39125 54.1423272,11.05 53.8838277,10.80625 C53.4314537,10.335 52.7367365,10.2375 52.8982987,10.66 C52.9467673,10.80625 52.9952359,11.39125 52.9952359,11.96 C52.9952359,13.14625 53.2052667,13.2925 53.8838277,12.59375 Z M58.1652246,11.96 C58.1652246,11.39125 58.2136932,10.80625 58.2621618,10.66 C58.423724,10.2375 57.7290068,10.335 57.2766328,10.80625 C57.0181333,11.05 56.8727274,11.39125 56.8727274,11.7 C56.8727274,12.23625 57.4866636,13 57.9228813,13 C58.1167559,13 58.1652246,12.78875 58.1652246,11.96 Z M71.9787879,12.59375 C72.2372873,12.35 72.3826933,12.00875 72.3826933,11.7 C72.3826933,11.39125 72.2372873,11.05 71.9787879,10.80625 C71.5264139,10.335 70.8316967,10.2375 70.9932588,10.66 C71.0417275,10.80625 71.0901961,11.39125 71.0901961,11.96 C71.0901961,13.14625 71.3002269,13.2925 71.9787879,12.59375 Z M19.8426839,8.4825 C20.5050887,8.01125 21.280587,7.8 22.2822723,7.8 C23.7363316,7.8 23.7848002,7.52375 22.411522,6.8575 C21.6683362,6.48375 20.9251503,5.9475 20.3273704,5.34625 L19.3903099,4.42 L18.4532495,5.34625 C17.8554696,5.9475 17.1122837,6.48375 16.3690978,6.8575 C14.9958196,7.52375 15.0442882,7.8 16.4983475,7.8 C17.5000328,7.8 18.2916873,8.0275 18.9056235,8.46625 C19.4064661,8.84 19.3418413,8.84 19.8426839,8.4825 Z M36.9198026,8.01125 C36.7582404,7.75125 36.5320534,7.41 36.4028037,7.23125 C35.9827421,6.61375 36.1443043,6.02875 36.9198026,5.2325 C37.3237079,4.82625 37.630676,4.46875 37.5822074,4.43625 C37.5498949,4.40375 37.0975209,4.81 36.5805221,5.33 C35.9504297,5.9475 35.2234001,6.48375 34.4479018,6.8575 C33.0584673,7.54 33.1230922,7.735 34.8194947,7.8325 C35.4495871,7.865 36.1766167,8.01125 36.4351161,8.1575 C37.1459896,8.53125 37.2267707,8.49875 36.9198026,8.01125 Z M56.5657593,8.17375 C56.8727274,8.01125 57.6159133,7.865 58.2460056,7.8325 C59.9424081,7.735 60.007033,7.54 58.6175986,6.8575 C57.8421003,6.48375 57.1150706,5.9475 56.4849783,5.33 C55.9679794,4.81 55.5156054,4.40375 55.483293,4.43625 C55.4348243,4.46875 55.7417924,4.82625 56.1456978,5.2325 C56.921196,6.02875 57.0827582,6.61375 56.6626966,7.23125 C56.1295415,7.995 55.8710421,8.45 55.935667,8.45 C55.9841356,8.45 56.2587913,8.32 56.5657593,8.17375 Z M41.4920113,7.605 C41.6374172,7.45875 41.4112302,7.29625 40.5872633,6.89 C39.3432347,6.2725 39.0685791,6.37 39.4724845,7.23125 C39.7309839,7.7675 39.7956088,7.8 40.5226384,7.8 C40.9427,7.8 41.3789178,7.71875 41.4920113,7.605 Z M53.5930159,7.23125 C53.9969212,6.37 53.7222656,6.2725 52.4782371,6.89 C51.2342086,7.5075 51.2503648,7.8 52.5428619,7.8 C53.2698916,7.8 53.3345164,7.7675 53.5930159,7.23125 Z" id="Shape"></path>
                            <polygon id="Path" points="1.69925512 33.39375 1.29534976 33.00375 1.29534976 28.19375 1.29534976 23.4 2.58784691 23.4 3.88034407 23.4 3.88034407 27.3 3.88034407 31.2 6.46533837 31.2 9.05033268 31.2 9.05033268 27.3 9.05033268 23.4 10.3428298 23.4 11.635327 23.4 11.635327 28.19375 11.635327 33.00375 11.2314216 33.39375 10.8436725 33.8 6.46533837 33.8 2.08700426 33.8"></polygon>
                            <polygon id="Path" points="5.17284122 1.3 5.17284122 0 6.46533837 0 7.75783553 0 7.75783553 1.3 7.75783553 2.6 6.46533837 2.6 5.17284122 2.6"></polygon>
                            <polygon id="Path" points="12.9278241 1.3 12.9278241 0 14.2203213 0 15.5128185 0 15.5128185 1.3 15.5128185 2.6 14.2203213 2.6 12.9278241 2.6"></polygon>
                            <polygon id="Path" points="23.2678014 1.3 23.2678014 0 24.5602985 0 25.8527957 0 25.8527957 1.3 25.8527957 2.6 24.5602985 2.6 23.2678014 2.6"></polygon>
                            <polygon id="Path" points="31.0227843 1.3 31.0227843 0 32.3152815 0 33.6077786 0 33.6077786 1.3 33.6077786 2.6 32.3152815 2.6 31.0227843 2.6"></polygon>
                            <polygon id="Path" points="41.3627616 1.3 41.3627616 0 42.6552587 0 43.9477559 0 43.9477559 1.3 43.9477559 2.6 42.6552587 2.6 41.3627616 2.6"></polygon>
                            <polygon id="Path" points="49.1177445 1.3 49.1177445 0 50.4102416 0 51.7027388 0 51.7027388 1.3 51.7027388 2.6 50.4102416 2.6 49.1177445 2.6"></polygon>
                            <polygon id="Path" points="59.4577217 1.3 59.4577217 0 60.7502189 0 62.042716 0 62.042716 1.3 62.042716 2.6 60.7502189 2.6 59.4577217 2.6"></polygon>
                            <polygon id="Path" points="67.2127046 1.3 67.2127046 0 68.5052018 0 69.797699 0 69.797699 1.3 69.797699 2.6 68.5052018 2.6 67.2127046 2.6"></polygon>
                        </g>
                    </g>
                </g>
            </g>
        </g>
    </g>
</svg>