<?xml version="1.0" encoding="UTF-8"?>
<svg width="70px" height="70px" viewBox="0 0 70 70" version="1.1" xmlns="http://www.w3.org/2000/svg" xmlns:xlink="http://www.w3.org/1999/xlink">
    <title>return-of-investment</title>
    <g id="Front-Page" stroke="none" stroke-width="1" fill="none" fill-rule="evenodd">
        <g id="How-Does-It-Work" transform="translate(-80.000000, -1660.000000)" fill="#E7A600" fill-rule="nonzero">
            <g id="By-participating..." transform="translate(-902.000000, 669.000000)">
                <g id="1" transform="translate(946.000000, 938.841103)">
                    <g id="return-of-investment" transform="translate(71.000000, 87.158897) scale(-1, 1) translate(-71.000000, -87.158897) translate(36.000000, 52.158897)">
                        <g id="Group" transform="translate(35.000000, 35.000000) scale(-1, 1) rotate(-180.000000) translate(-35.000000, -35.000000) ">
                            <path d="M39.4579523,69.8376556 C36.8162488,69.3292318 34.3723199,67.9875579 32.5923486,66.0244772 C31.8436305,65.20535 30.4450816,63.0727947 30.4450816,62.7479684 C30.4450816,62.5078794 30.2896872,62.5220023 29.0324059,62.8609515 C24.8791395,63.9766592 20.2738168,62.7197226 17.1659304,59.5985655 C10.3850872,52.8195818 13.5212272,41.2953094 22.816633,38.8238049 C24.7661254,38.3012582 27.4784627,38.3436269 29.3855748,38.9085422 C29.6257297,38.9791566 29.6963635,38.8802964 29.9223916,38.1035379 C30.7276167,35.3636986 32.917264,32.5814907 35.3611928,31.1833253 L36.0957842,30.7596388 L36.0957842,20.2380911 C36.0957842,12.3857682 36.0534039,9.56119167 35.9262631,9.12338231 C35.700235,8.34662375 34.5277142,7.17442448 33.7507426,6.94845835 C33.4258272,6.84959817 32.5499683,6.77898376 31.8153769,6.77898376 L30.4450816,6.77898376 L31.0666588,7.73933979 C32.2815599,9.6176832 33.1432921,11.7361156 33.5670948,13.9110396 C33.8213764,15.1962219 33.8213764,18.6986969 33.5670948,19.9838792 C32.8748837,23.4863541 31.2785602,26.4521595 28.7639975,28.9519098 C26.3624489,31.338677 23.5936046,32.8498255 20.2738168,33.5559696 C18.7763806,33.8807959 15.3011985,33.9231645 13.8461426,33.626584 C10.3850872,32.9486856 7.3902148,31.3527999 4.93215915,28.8954183 C2.53061053,26.4945282 0.976667306,23.6417059 0.270329477,20.3369513 C-0.0545859247,18.8399257 -0.0969661944,15.3656965 0.199695694,13.9110396 C0.87778001,10.4509333 2.4741035,7.45688213 4.93215915,4.99950052 C7.30545426,2.62685621 9.89065071,1.21456792 13.4505934,0.324826305 C14.340579,0.0988601798 16.6008601,0.084737297 42.2126698,0.0423686485 L70,0 L70,1.12983063 L70,2.25966125 L47.6514711,2.25966125 L25.3029422,2.25966125 L26.00928,2.69747062 C26.3907024,2.93755963 27.0829135,3.44598341 27.5490965,3.81317836 L28.3967018,4.49107674 L31.2220532,4.54756827 L34.0474045,4.58993692 L34.9938972,5.04186917 C36.3076855,5.66327601 37.1270374,6.45415745 37.7627415,7.73933979 L38.2854315,8.81267888 L38.3278117,19.3201037 L38.370192,29.8275285 L38.8222482,29.7427912 C40.8141209,29.3191047 42.2126698,29.2767361 43.9361341,29.5874395 C44.5577114,29.7004226 45.0804014,29.7992828 45.0945281,29.7992828 C45.1086549,29.7992828 45.1369084,25.9719815 45.1651619,21.2973073 L45.2075422,12.781209 L45.5889646,11.6513783 C46.1540349,10.0131239 46.8886262,8.84092465 48.1741611,7.55574231 C49.4596959,6.27055997 50.6463435,5.52204718 52.2709205,4.98537764 L53.401061,4.6040598 L59.1082707,4.54756827 L64.8154803,4.50519962 L67.2029022,6.87784394 C68.5025638,8.17714916 69.5761973,9.30697978 69.5761973,9.39171708 C69.5761973,9.57531456 68.2765357,10.8746198 68.0928879,10.8746198 C68.0222541,10.8746198 67.4006768,10.3238273 66.7225925,9.64592897 L65.4794379,8.40311528 L65.4794379,12.1174335 L65.4794379,15.8176288 L64.3492974,15.8176288 L63.2191568,15.8176288 L63.2191568,12.1174335 L63.2191568,8.40311528 L61.9760023,9.64592897 C61.2979179,10.3238273 60.6763407,10.8746198 60.5915801,10.8746198 C60.422059,10.8746198 59.1223974,9.57531456 59.1223974,9.39171708 C59.1223974,9.32110267 59.6733409,8.69969582 60.365552,8.00767456 L61.5945798,6.76486087 L57.639088,6.80722952 C53.8107369,6.86372105 53.6553426,6.87784394 52.7512302,7.21679312 C51.3809348,7.73933979 50.6463435,8.2195178 49.6574705,9.2081196 C48.6544708,10.2249672 47.7927386,11.8490987 47.5525838,13.1907726 C47.4536965,13.7274421 47.3971895,17.0745653 47.3971895,22.3847693 L47.3971895,30.731393 L47.9763865,31.0562193 C49.05002,31.6635033 50.6039632,33.0193 51.4233151,34.0643934 C52.3133008,35.194224 53.344554,37.1573047 53.6270891,38.2730125 C53.7824834,38.9085422 53.8531172,38.9791566 54.1073988,38.9085422 C54.8984972,38.6684532 56.6219615,38.4283642 57.5119472,38.4142413 C65.182776,38.3859955 71.1160138,45.4050683 69.8022254,52.9466877 C68.5449441,60.1069893 61.4391855,64.6686805 54.4040607,62.8468286 C53.0902724,62.5078794 53.0478921,62.5078794 53.0478921,62.7479684 C53.0478921,63.0727947 51.6493432,65.20535 50.9006251,66.0386001 C49.3608086,67.7192232 47.1287811,69.060897 44.9108803,69.6399352 C43.4416976,70.0212531 40.9271349,70.1201132 39.4579523,69.8376556 Z M44.6424719,67.3661511 C46.3518095,66.8294815 47.4960768,66.1374603 48.8239919,64.8240322 C49.9117521,63.7506931 51.0701462,62.0983158 51.0701462,61.6181378 C51.0701462,61.5334005 50.6322167,61.1520826 50.0954,60.742519 C48.0470203,59.2313706 46.6625981,57.2824127 45.7726124,54.6555565 C45.334683,53.3703742 45.1369084,53.39862 45.1369084,54.7402938 C45.1369084,56.2655652 44.9250071,56.8587263 44.0774017,57.6919763 C43.3569371,58.4263663 42.6364725,58.7511926 41.7606136,58.7511926 C41.0260222,58.7511926 40.6163463,59.2737392 40.6163463,60.2340953 L40.6163463,61.0108538 L41.3933179,61.0108538 C42.4952049,61.0108538 42.8766273,60.629536 42.8766273,59.5279511 L42.8766273,58.7511926 L44.0067679,58.7511926 L45.1369084,58.7511926 L45.1369084,59.542074 C45.1369084,59.9798834 45.0662746,60.5871673 44.9673873,60.8978707 C44.7696127,61.5757691 43.8937538,62.6067396 43.30043,62.8468286 L42.8766273,63.0163032 L42.8766273,64.2732397 L42.8766273,65.5301763 L41.7464868,65.5301763 L40.6163463,65.5301763 L40.6163463,64.4003457 L40.6163463,63.2705151 L39.4862058,63.2705151 L38.3560652,63.2705151 L38.3560652,61.349803 C38.3560652,58.9489129 38.4832061,58.4687349 39.415572,57.5507475 C40.1360366,56.8163576 40.8565012,56.4915313 41.7323601,56.4915313 C42.4669514,56.4915313 42.8766273,55.9689846 42.8766273,55.0086286 L42.8766273,54.2318701 L42.0996557,54.2318701 C40.9977687,54.2318701 40.6163463,54.6131879 40.6163463,55.7147727 L40.6163463,56.4915313 L39.4862058,56.4915313 L38.3560652,56.4915313 L38.3560652,55.6582812 C38.3560652,55.206349 38.426699,54.6273108 38.5114596,54.3730989 C38.6386004,54.0059039 38.6386004,53.8929209 38.4832061,53.7940607 C38.1582906,53.5822174 38.0452766,53.7093234 37.7203612,54.6555565 C36.8303755,57.2824127 35.4459534,59.2313706 33.3975737,60.742519 C32.8607569,61.1520826 32.4228275,61.5334005 32.4228275,61.6040149 C32.4228275,62.1124387 33.4823342,63.6235871 34.6124747,64.7534178 C36.2370518,66.3916722 37.8616288,67.253168 40.0230225,67.6486087 C41.1249095,67.860452 43.5264582,67.7051003 44.6424719,67.3661511 Z M28.5379694,60.6577817 C31.5752221,59.8527774 34.132165,57.5648704 35.3470661,54.5849421 C36.0110236,52.9608106 35.9827701,52.8337047 34.9373901,52.184052 C33.030278,50.9977299 31.0242786,48.5262254 30.1484197,46.2665641 C29.6963635,45.1084877 29.314941,43.145407 29.314941,42.0014535 C29.314941,41.2953094 29.3008143,41.2529407 28.8628848,41.1117119 C26.3624489,40.3208305 23.1698019,40.6880254 20.8388871,42.0438222 C19.6663663,42.7358434 17.8157612,44.5859411 17.1235501,45.7581404 C16.8268882,46.2665641 16.431339,47.1845515 16.2194377,47.8059584 C15.8945223,48.808683 15.852142,49.1617551 15.852142,50.8423782 C15.8380152,52.5088783 15.8945223,52.8901962 16.2053109,53.8364293 C16.7562544,55.5170524 17.5049725,56.7174974 18.7763806,57.9885569 C20.3444506,59.542074 22.1102952,60.4883071 24.1586749,60.869625 C25.1334211,61.0390996 27.5208429,60.9402394 28.5379694,60.6577817 Z M60.6057069,60.5306758 C62.2020304,60.022252 63.4028047,59.2737392 64.7024663,57.974434 C65.9880011,56.6892517 66.7367192,55.5029295 67.273536,53.878798 C67.5984514,52.8760733 67.6408316,52.5230012 67.6408316,50.8423782 C67.6408316,49.1617551 67.5984514,48.808683 67.273536,47.8059584 C67.0616346,47.1845515 66.6660854,46.2665641 66.3694236,45.7581404 C65.6772125,44.5859411 63.8266074,42.7358434 62.6540866,42.0438222 C60.3231717,40.6880254 57.1305247,40.3208305 54.6442156,41.1117119 C54.1921594,41.2529407 54.1780326,41.2953094 54.1780326,42.0014535 C54.1780326,43.1736528 53.7824834,45.1367335 53.3163005,46.3089328 C52.3980613,48.6109627 50.4626956,50.9977299 48.5555835,52.184052 C47.5102035,52.8337047 47.48195,52.9608106 48.1459076,54.5849421 C49.2336678,57.254167 51.4798221,59.4573367 54.0367651,60.389447 C56.0568912,61.109714 58.6138342,61.1662055 60.6057069,60.5306758 Z M44.7837395,51.4920308 C46.380063,50.983607 47.5808373,50.2350942 48.8804989,48.935789 C50.1660337,47.6506067 50.9147518,46.4642845 51.4515686,44.840153 C51.776484,43.8374283 51.8188643,43.4843562 51.8188643,41.8037332 C51.8188643,40.1231101 51.776484,39.770038 51.4515686,38.7673134 C50.9147518,37.1431818 50.1660337,35.9568597 48.8804989,34.6716773 C47.594964,33.386495 46.4083165,32.6379822 44.7837395,32.1013127 C43.7807398,31.7764864 43.4275709,31.7341177 41.7464868,31.7341177 C40.0654028,31.7341177 39.7122339,31.7764864 38.7092342,32.1013127 C37.0846571,32.6379822 35.8980096,33.386495 34.6124747,34.6716773 C33.3269399,35.9568597 32.5782218,37.1431818 32.041405,38.7673134 C31.7164896,39.770038 31.6741094,40.1231101 31.6741094,41.8037332 C31.6599826,43.4702333 31.7164896,43.8515512 32.0272783,44.7977843 C32.5782218,46.4784074 33.3269399,47.6788524 34.598348,48.9499119 C36.1522912,50.503429 37.9322625,51.4496621 39.9806422,51.83098 C41.2237968,52.0569461 43.5123314,51.8874715 44.7837395,51.4920308 Z M18.9459017,31.4799058 C21.1072954,31.1833253 23.6218581,30.1806006 25.430083,28.8812954 C26.3907024,28.203397 28.3260681,26.2403163 28.9758989,25.2799603 C31.5328418,21.5656421 32.2533064,16.5378958 30.826504,12.3575225 C30.0777859,10.1543528 29.0747862,8.53022123 27.4078289,6.80722952 C22.87314,2.07606378 16.0922969,0.932110267 10.1731858,3.91203854 C8.70400316,4.66055133 7.58798939,5.5079243 6.27420103,6.87784394 C5.01691969,8.19127204 4.52248321,8.8832933 3.77376511,10.3944418 C1.66887838,14.5748151 1.66887838,19.3201037 3.77376511,23.5145999 C4.56486348,25.0963628 5.35596185,26.155579 6.72625724,27.4690071 C8.11067938,28.7965581 8.7887637,29.290859 10.3285802,30.0534947 C13.0126639,31.4092914 15.9792828,31.8894694 18.9459017,31.4799058 Z" id="Shape"></path>
                            <path d="M24.7943789,57.6213619 L24.7943789,56.4915313 L23.6642384,56.4915313 L22.5340979,56.4915313 L22.5340979,54.5708192 C22.5340979,52.1699292 22.6612387,51.6897511 23.5936046,50.7717638 C24.3140692,50.0373739 25.0345338,49.7125475 25.9103927,49.7125475 C26.644984,49.7125475 27.05466,49.1900009 27.05466,48.2296449 L27.05466,47.4528863 L26.2776884,47.4528863 C25.1758013,47.4528863 24.7943789,47.8342041 24.7943789,48.935789 L24.7943789,49.7125475 L23.6642384,49.7125475 L22.5340979,49.7125475 L22.5340979,48.9216661 C22.5340979,48.4838567 22.6047316,47.8765728 22.7036189,47.5658694 C22.9013935,46.887971 23.7772524,45.8570005 24.3705762,45.6169115 L24.7943789,45.4474369 L24.7943789,44.1905004 L24.7943789,42.9335638 L25.9245194,42.9335638 L27.05466,42.9335638 L27.05466,44.0633944 L27.05466,45.193225 L28.1848005,45.193225 L29.314941,45.193225 L29.314941,47.1139371 C29.314941,49.5148272 29.1878002,49.9950052 28.2554343,50.9129926 C27.5349697,51.6473825 26.8145051,51.9722088 25.9386462,51.9722088 C25.2040549,51.9722088 24.7943789,52.4947555 24.7943789,53.4551115 L24.7943789,54.2318701 L25.5713505,54.2318701 C26.6732375,54.2318701 27.05466,53.8505522 27.05466,52.7489674 L27.05466,51.9722088 L28.1848005,51.9722088 L29.314941,51.9722088 L29.314941,52.7630902 C29.314941,53.2008996 29.2443072,53.8081836 29.1454199,54.118887 C28.9476454,54.7967854 28.0717864,55.8277558 27.4784627,56.0678448 L27.05466,56.2373194 L27.05466,57.494256 L27.05466,58.7511926 L25.9245194,58.7511926 L24.7943789,58.7511926 L24.7943789,57.6213619 Z" id="Path"></path>
                            <path d="M56.4383137,57.6213619 L56.4383137,56.4915313 L55.3081731,56.4915313 L54.1780326,56.4915313 L54.1780326,54.5708192 C54.1780326,52.1699292 54.3051734,51.6897511 55.2375394,50.7717638 C55.958004,50.0373739 56.6784685,49.7125475 57.5543274,49.7125475 C58.2889188,49.7125475 58.6985947,49.1900009 58.6985947,48.2296449 L58.6985947,47.4528863 L57.9216231,47.4528863 C56.8197361,47.4528863 56.4383137,47.8342041 56.4383137,48.935789 L56.4383137,49.7125475 L55.3081731,49.7125475 L54.1780326,49.7125475 L54.1780326,48.9216661 C54.1780326,48.4838567 54.2486664,47.8765728 54.3475537,47.5658694 C54.5453283,46.887971 55.4211872,45.8570005 56.014511,45.6169115 L56.4383137,45.4474369 L56.4383137,44.1905004 L56.4383137,42.9335638 L57.5684542,42.9335638 L58.6985947,42.9335638 L58.6985947,44.0633944 L58.6985947,45.193225 L59.8287353,45.193225 L60.9588758,45.193225 L60.9588758,47.1139371 C60.9588758,49.5148272 60.831735,49.9950052 59.899369,50.9129926 C59.1789045,51.6473825 58.4584399,51.9722088 57.582581,51.9722088 C56.8479896,51.9722088 56.4383137,52.4947555 56.4383137,53.4551115 L56.4383137,54.2318701 L57.2152853,54.2318701 C58.3171723,54.2318701 58.6985947,53.8505522 58.6985947,52.7489674 L58.6985947,51.9722088 L59.8287353,51.9722088 L60.9588758,51.9722088 L60.9588758,52.7630902 C60.9588758,53.2008996 60.888242,53.8081836 60.7893547,54.118887 C60.5915801,54.7967854 59.7157212,55.8277558 59.1223974,56.0678448 L58.6985947,56.2373194 L58.6985947,57.494256 L58.6985947,58.7511926 L57.5684542,58.7511926 L56.4383137,58.7511926 L56.4383137,57.6213619 Z" id="Path"></path>
                            <path d="M40.6163463,48.5827169 L40.6163463,47.4528863 L39.4862058,47.4528863 L38.3560652,47.4528863 L38.3560652,45.5321742 C38.3560652,43.1312842 38.4832061,42.6511061 39.415572,41.7331188 C40.1360366,40.9987288 40.8565012,40.6739025 41.7323601,40.6739025 C42.4669514,40.6739025 42.8766273,40.1513559 42.8766273,39.1909998 L42.8766273,38.4142413 L42.0996557,38.4142413 C40.9977687,38.4142413 40.6163463,38.7955591 40.6163463,39.897144 L40.6163463,40.6739025 L39.4862058,40.6739025 L38.3560652,40.6739025 L38.3560652,39.8830211 C38.3560652,39.4452117 38.426699,38.8379278 38.5255863,38.5272243 C38.7233609,37.849326 39.5992198,36.8183555 40.1925436,36.5782665 L40.6163463,36.4087919 L40.6163463,35.1518554 L40.6163463,33.8949188 L41.7464868,33.8949188 L42.8766273,33.8949188 L42.8766273,35.0247494 L42.8766273,36.15458 L44.0067679,36.15458 L45.1369084,36.15458 L45.1369084,38.0752921 C45.1369084,40.4761822 45.0097676,40.9563602 44.0774017,41.8743476 C43.3569371,42.6087375 42.6364725,42.9335638 41.7606136,42.9335638 C41.0260222,42.9335638 40.6163463,43.4561105 40.6163463,44.4164665 L40.6163463,45.193225 L41.3933179,45.193225 C42.4952049,45.193225 42.8766273,44.8119072 42.8766273,43.7103223 L42.8766273,42.9335638 L44.0067679,42.9335638 L45.1369084,42.9335638 L45.1369084,43.7244452 C45.1369084,44.1622546 45.0662746,44.7695386 44.9673873,45.080242 C44.7696127,45.7581404 43.8937538,46.7891108 43.30043,47.0291998 L42.8766273,47.1986744 L42.8766273,48.455611 L42.8766273,49.7125475 L41.7464868,49.7125475 L40.6163463,49.7125475 L40.6163463,48.5827169 Z" id="Path"></path>
                            <path d="M14.5666071,29.1496302 C9.62224234,28.2598885 5.53960968,24.1218839 4.66375078,19.1365062 C3.19456809,10.6627765 10.5546083,3.24826305 18.9741552,4.71704286 C25.7408716,5.90336502 30.2896872,12.3433996 29.1171664,19.0517689 C27.9163921,25.8872442 21.4322108,30.3924438 14.5666071,29.1496302 Z M19.9206479,26.635757 C21.5169714,26.1273332 22.7177457,25.3788204 24.0174073,24.0795152 C25.3029422,22.7943329 26.0516603,21.6080107 26.588477,19.9838792 C26.9133924,18.9811545 26.9557727,18.6280824 26.9557727,16.9474594 C26.9557727,15.2668363 26.9133924,14.9137643 26.588477,13.9110396 C26.0516603,12.2869081 25.3029422,11.1005859 24.0174073,9.81540356 C22.7318725,8.53022123 21.5452249,7.78170844 19.9206479,7.24503889 C18.9176482,6.92021258 18.5644793,6.87784394 16.8833952,6.87784394 C15.2023112,6.87784394 14.8491423,6.92021258 13.8461426,7.24503889 C12.2356923,7.78170844 11.0490448,8.51609834 9.74938315,9.81540356 C8.4638483,11.1005859 7.7151302,12.2869081 7.17831345,13.9110396 C6.85339805,14.9137643 6.81101778,15.2668363 6.81101778,16.9474594 C6.79689102,18.6139596 6.85339805,18.9952774 7.16418669,19.9415106 C7.7151302,21.6221336 8.4638483,22.8225786 9.73525639,24.0936381 C11.2891996,25.6471552 13.0691709,26.5933884 15.1175507,26.9747062 C16.3607052,27.2006723 18.6492398,27.0311977 19.9206479,26.635757 Z" id="Shape"></path>
                            <path d="M15.7532547,23.7264431 L15.7532547,22.5966125 L14.6231142,22.5966125 L13.4929736,22.5966125 L13.4929736,20.6759005 C13.4929736,18.2750104 13.6201145,17.7948324 14.5524804,16.876845 C15.272945,16.1424551 15.9934096,15.8176288 16.8692685,15.8176288 C17.6038598,15.8176288 18.0135358,15.2950821 18.0135358,14.3347261 L18.0135358,13.5579675 L17.2365641,13.5579675 C16.1346771,13.5579675 15.7532547,13.9392853 15.7532547,15.0408702 L15.7532547,15.8176288 L14.6231142,15.8176288 L13.4929736,15.8176288 L13.4929736,15.0267473 C13.4929736,14.588938 13.5636074,13.981654 13.6624947,13.6709506 C13.8602693,12.9930522 14.7361282,11.9620818 15.329452,11.7219927 L15.7532547,11.5525182 L15.7532547,10.2955816 L15.7532547,9.03864501 L16.8833952,9.03864501 L18.0135358,9.03864501 L18.0135358,10.1684756 L18.0135358,11.2983063 L19.1436763,11.2983063 L20.2738168,11.2983063 L20.2738168,13.2190183 C20.2738168,15.6199084 20.146676,16.1000864 19.2143101,17.0180738 C18.4938455,17.7524637 17.7733809,18.07729 16.897522,18.07729 C16.1629306,18.07729 15.7532547,18.5998367 15.7532547,19.5601927 L15.7532547,20.3369513 L16.5302263,20.3369513 C17.6321133,20.3369513 18.0135358,19.9556334 18.0135358,18.8540486 L18.0135358,18.07729 L19.1436763,18.07729 L20.2738168,18.07729 L20.2738168,18.8681715 C20.2738168,19.3059808 20.203183,19.9132648 20.1042957,20.2239682 C19.9065211,20.9018666 19.0306622,21.932837 18.4373385,22.172926 L18.0135358,22.3424006 L18.0135358,23.5993372 L18.0135358,24.8562738 L16.8833952,24.8562738 L15.7532547,24.8562738 L15.7532547,23.7264431 Z" id="Path"></path>
                        </g>
                    </g>
                </g>
            </g>
        </g>
    </g>
</svg>